<svg width="51" height="69" fill="none" xmlns="http://www.w3.org/2000/svg"><path d="M17.03 37.91h-1.96v6.36h.7l-.25.61-.45.61v.64h.45v.61h-.45v21.7h1.95V38.11c.01-.07.01-.14.01-.2zm16.92 0v30.53h1.95v-21.7h-.45v-.61h.45v-.64l-.45-.61-.25-.61h.7v-6.36h-1.95v0zm-8.14-11.89H15.08v10.07h.7v.61l-.25.61.06-.14h1.51a7.612 7.612 0 017.56-6.67h1.68c3.89 0 7.1 2.91 7.56 6.67h1.51l.06.14-.25-.61v-.61h.7V26.02H25.81z" stroke="#C49967" stroke-width=".3" stroke-miterlimit="10"/><path d="M35.4 37.16h-1.85l.4.75h1.96l-.51-.75zm.5.75h-1.95v.44h1.95v-.44zm.01-11.89H15.08v1.63h9.63l.22 2.2h1.17l.23-2.2h9.58v-1.63zM15.53 37.3l.05-.14h1.86l-.41.75h-1.95l.45-.61zm1.5.61h-1.95v.44h1.95v-.44z" stroke="#C49967" stroke-width=".3" stroke-miterlimit="10"/><path d="M35.4 37.16l-.19-.47v-.62c-.42-4.29-4.22-7.65-8.8-7.65h-.16l-.15 1.43h-1.17l-.15-1.43h-.21c-4.58 0-8.38 3.36-8.8 7.65v.62l-.2.47h1.53c.52-3.82 3.7-6.67 7.54-6.67h1.68c3.85 0 7.03 2.85 7.55 6.67h1.53zM49.74 22.7H1.24v.55h48.5v-.55zm0 0H1.24l-.5-.55h49.51l-.51.55z" stroke="#C49967" stroke-width=".3" stroke-miterlimit="10"/><path d="M48.69 17.16H2.29v5h46.4v-5zm-1.35-5H3.65v5h43.69v-5zM43.9 4.31H7.08v7.85H43.9V4.31z" stroke="#C49967" stroke-width=".3" stroke-miterlimit="10"/><path d="M35.13 2.77H15.86v1.54h19.27V2.77zm-2.77 0A10.265 10.265 0 0025.49.15c-2.64 0-5.05.99-6.87 2.62h13.74zm16.68 20.48H1.94v1.81h47.1v-1.81zm.54 2.77H1.4l-.33-.96h48.85l-.34.96zM16.68 8.39c0 1.15-.93 2.08-2.08 2.08s-2.08-.93-2.08-2.08.93-2.08 2.08-2.08 2.08.93 2.08 2.08zm21.78 0c0 1.15-.93 2.08-2.08 2.08s-2.08-.93-2.08-2.08.93-2.08 2.08-2.08 2.08.93 2.08 2.08zm-4.9-2.28h-3.72v-.37h-8.69v.37h-3.73v4.55h3.73v.37h8.69v-.37h3.72V6.11zM49.94 63.1H35.91v5.34h14.03V63.1zm0-1.59H35.91v1.59h14.03v-1.59z" stroke="#C49967" stroke-width=".3" stroke-miterlimit="10"/><path d="M49.94 46.74H35.91v14.77h14.03V46.74zm.57-.61H35.46v.61h15.05v-.61zm-.57-.64H35.91l-.45-.61h15.05l-.57.61zm.57-.61H35.46l-.25-.61h15.55l-.25.61zm-.57-6.97H35.91l-.45-.61h15.05l-.57.61zm.82-1.83H35.21v.61h15.55v-.61zm-.25 1.22H35.46l-.25-.61h15.55l-.25.61zm-.57 8.19H35.91v.64h14.03v-.64zm0-7.58H35.91v6.36h14.03v-6.36z" stroke="#C49967" stroke-width=".3" stroke-miterlimit="10"/><path d="M49.94 26.02H35.91v10.07h14.03V26.02z" stroke="#C49967" stroke-width=".3" stroke-miterlimit="10"/><path d="M49.94 26.65H35.91l-.34-.63h14.7l-.33.63zm0 0H35.91v.32h14.03v-.32zm-3.8 12.6h-6.43v3.31h6.43v-3.31zm-.89-9.63a2.19 2.19 0 11-4.379.002 2.19 2.19 0 014.379-.001zM15.08 63.1H1.05v5.34h14.03V63.1zm0-1.59H1.05v1.59h14.03v-1.59z" stroke="#C49967" stroke-width=".3" stroke-miterlimit="10"/><path d="M15.08 46.74H1.05v14.77h14.03V46.74zm.45-.61H.48v.61h15.05v-.61zm-14.48-.64h14.03l.45-.61H.48l.57.61zm-.57-.61h15.05l.25-.61H.22l.26.61zm.57-6.97h14.03l.45-.61H.48l.57.61zm14.72-1.83H.22v.61h15.55v-.61zM.48 37.3h15.05l.25-.61H.22l.26.61zm14.6 8.19H1.05v.64h14.03v-.64zm0-7.58H1.05v6.36h14.03v-6.36z" stroke="#C49967" stroke-width=".3" stroke-miterlimit="10"/><path d="M15.08 26.02H1.05v10.07h14.03V26.02z" stroke="#C49967" stroke-width=".3" stroke-miterlimit="10"/><path d="M1.05 26.65h14.03l.33-.63H.71l.34.63zm14.03 0H1.05v.32h14.03v-.32zm-3.8 12.6H4.85v3.31h6.43v-3.31zm-5.55-9.63a2.19 2.19 0 104.379.002 2.19 2.19 0 00-4.379-.001z" stroke="#C49967" stroke-width=".3" stroke-miterlimit="10"/></svg>