<svg width="514" height="286" fill="none" xmlns="http://www.w3.org/2000/svg"><path d="M87.219 225.72c2.224-1.978 3.765-4.454 5.462-6.781 3.379-4.619 6.625-9.344 9.797-14.13.626-.936 1.038-1.697.371-2.913-2.662-4.882-3.667-10.254-3.692-15.88-.024-4.978-.14-9.965.586-14.908.172-1.208.156-2.809 1.672-2.957 1.524-.149 2.052 1.294 2.521 2.589.61 1.689.997 3.456 1.294 5.241 1.005 6.168 1.664 12.363 1.533 18.636-.017.787 0 1.574 0 2.721 1.145-.797 1.516-1.829 2.018-2.695 1.417-2.459 2.719-4.996 4.186-7.419.733-1.208.733-2.223.231-3.526-1.648-4.279-2.958-8.653-3.008-13.369-.066-6.719 1.434-13.089 3.535-19.336.255-.743.453-1.697 1.434-1.574.848.113 1.202.901 1.433 1.714 1.08 3.841 1.467 7.796 1.632 11.786.189 4.54-.116 9.046-.668 13.543-.041.333-.198.665.19 1.059.955-1.199 1.656-2.485 1.722-4.086.272-6.448 2.356-12.188 5.85-17.35 1.829-2.703 3.74-5.336 5.644-7.979a9.071 9.071 0 011.409-1.54c.898-.778 1.672-.621 2.331.385.396.613.569 1.33.577 2.056.066 6.466-.783 12.695-4.63 17.927-2.151 2.923-4.952 5.145-7.787 7.245-1.079.796-1.903 1.697-2.504 2.939a281.237 281.237 0 01-13.851 25.207c-2.604 4.208-5.594 8.101-8.289 12.24-.28.428-.7.77-.733 1.408.783.254 1.244-.376 1.747-.77 3.106-2.458 6.196-4.952 9.286-7.445.667-.543 1.376-1.094 1.59-2.039.774-3.499 2.9-6.098 5.042-8.635 3.247-3.858 7.07-6.921 11.478-9.082 1.145-.56 2.315-1.085 3.584-1.19 2.983-.245 4.548 2.17 3.271 5.092-1.615 3.684-4.128 6.562-7.102 9.003-3.856 3.159-8.157 5.372-12.854 6.562-2.126.534-3.856 1.601-5.454 3.089-.693.638-1.409 1.242-2.052 2.021 2.875-.473 5.66-1.322 8.528-1.68 3.098-.385 6.179-.508 9.253.21.576.131 1.153.236 1.648.603.873.648.972 1.427.28 2.275-.8.98-1.846 1.601-2.958 1.995-6.114 2.152-12.351 3.255-18.794 2.537a58.58 58.58 0 01-2.489-.332c-3.683-.604-6.468 1.015-8.709 4.033-1.771 2.389-3.551 4.777-5.339 7.183.8.613 1.228-.052 1.69-.306 4.869-2.581 10.125-3.727 15.399-4.803 2.628-.534 5.256-1.155 7.951-1.243.585-.017 1.178-.087 1.755-.017 1.911.253 2.595 1.601 1.713 3.473-.988 2.091-2.628 3.517-4.465 4.655-5.051 3.141-10.448 5.354-16.15 6.553-4.515.953-9.08 1.767-13.718 1.19-.8-.097-1.22.253-1.648.901-2.464 3.753-4.458 7.62-4.03 12.511.264 3.053.1 6.151.198 9.23.165 5.355-.329 10.674-.733 15.994-.099 1.356-.272 2.703.297 3.989.445 1.007-.008 1.566-.857 1.785-.906.236-1.112-.42-1.22-1.242-.346-2.721-.123-5.442.19-8.128.898-7.682.33-15.381.28-23.072-.016-1.959-.93-3.639-1.788-5.31-1.755-3.404-3.782-6.623-5.792-9.852-3.832-6.159-7.655-12.327-11.502-18.487-.42-.673-.866-1.365-1.426-1.881-1.013-.927-1.78-2.519-3.073-2.668-1.26-.149-1.87 1.583-2.876 2.353-6.22 4.769-13.092 7.603-20.697 8.294a7.635 7.635 0 01-2.736-.279c-1.4-.403-1.656-1.453-.725-2.625.38-.473.849-.884 1.31-1.26 4.45-3.605 9.229-6.553 14.444-8.679 2.019-.823 4.128-1.19 6.715-1.575-3.27-2.45-6.443-4.033-9.55-5.739-.386-.21-.807-.219-1.194.052-3.304 2.345-7.11 2.52-10.86 2.887-4.095.394-8.107 1.365-12.17 1.969-1.07.157-2.158.376-3.237-.018-1.162-.428-1.426-1.093-.84-2.274.436-.893 1.095-1.593 1.787-2.267 2.637-2.572 5.702-3.998 9.261-4.374 3.016-.315 6.015-.149 9.402.087-1.014-1.356-2.11-1.863-3.239-2.327-1.49-.621-3.048-.98-4.63-1.216-8.841-1.321-14.724-6.842-18.522-15.285a34.974 34.974 0 01-1.335-3.508c-.19-.586-.297-1.304.222-1.785.577-.542 1.26-.385 1.879-.026.519.297 1.013.639 1.5.997 6.937 5.092 13.66 10.482 19.725 16.781 1.08 1.12 1.977 2.459 3.32 3.272.354.21.668.508 1.31.341-2.43-4.952-3.444-10.227-4.111-15.599-.107-.901-.223-1.794-.28-2.695-.033-.604-.231-1.339.42-1.706.783-.438 1.483-.114 2.018.551 1.788 2.179 3.165 4.672 4.549 7.148 2.826 5.066 5.347 10.28 5.314 16.431-.008.91.536 1.234 1.162 1.557 3.84 2.004 7.572 4.235 11.148 6.781.494-.735-.05-1.094-.297-1.461-7.028-10.517-13.364-21.488-18.604-33.177-.585-1.303-1.385-1.61-2.58-1.557-8.692.359-15.728-3.605-21.834-9.904-.601-.621-1.17-1.313-1.598-2.082-.585-1.059-.24-1.785.898-1.803a25.51 25.51 0 014.004.254c5.751.805 11.008 3.01 15.803 6.544.47.35.874.866 1.755.91-.774-2.336-1.384-4.444-3.32-6.089-3.922-3.325-5.57-8.058-5.867-13.325a71.657 71.657 0 01.107-9.773c.075-.884-.074-1.951.948-2.283 1.088-.35 1.73.507 2.241 1.338 2.645 4.357 4.458 9.099 5.628 14.148.7 3.035.667 6.098.412 9.177-.09 1.103-.033 2.126.412 3.168 2.554 6.01 5.166 11.977 8.09 17.787.223.446.314 1.076 1.105 1.137-.19-2.87-.618-5.687-.618-8.548.008-4.917.659-9.738 1.524-14.532.223-1.216.338-2.721 1.796-2.94 1.459-.219 2.25.971 2.868 2.205 1.137 2.266 1.697 4.742 1.92 7.262.584 6.596.33 13.202-.132 19.781-.14 1.986-.355 4.244-2.447 5.329-.907.472-.33 1.058-.05 1.531a854.275 854.275 0 006.262 10.175c1.343 2.143 2.76 4.243 4.136 6.36.758-.489.47-1.058.445-1.539-.395-7.306.742-14.436 2.01-21.558.182-.998.454-1.995 1.607-2.126 1.08-.114 1.69.621 2.16 1.54.938 1.846 1.474 3.84 1.795 5.905.989 6.177 1.541 12.372.305 18.592-.519 2.607-1.294 5.066-3.287 6.956 5.553 8.994 11.065 17.935 16.586 26.868.461-2.117.527-4.226.346-6.299-.231-2.625-.231-5.241-.24-7.866-.024-9.597-.593-19.16-1.087-28.74a701.254 701.254 0 01-.56-13.824c-.041-1.391-.305-2.677-.907-3.911-1.128-2.318-2.183-4.689-3.378-6.973-2.307-4.418-4.507-8.907-6.336-13.57-.956-2.432-2.258-3.709-4.705-4.094-7.193-1.129-12.655-5.442-17.121-11.401-2.43-3.245-4.268-6.929-6.246-10.498-.247-.438-.659-.945-.23-1.47.47-.587 1.063-.412 1.606-.097.371.21.726.455 1.072.7 6.657 4.865 13.529 9.423 19.544 15.25.238.228.47.49 1.112.28-1.524-3.535-3.04-7.017-4.54-10.508-.24-.551-.692-.752-1.162-.953-.807-.359-1.318-.849-.61-1.82.396-.534.075-1.015-.14-1.505-.461-1.067-.947-2.117-1.367-3.202-.47-1.208-.94-2.336-2.415-2.336-.296 0-.733-.184-.873-.438-1.59-2.738-4.35-3.884-6.616-5.669-4.96-3.92-9.74-8.014-13.488-13.334-.874-1.233-1.706-1.776-3.172-1.12-1.154.517-2.456.543-3.716.298-.346-.07-.684-.245-.692-.648-.009-.577.428-.796.856-.708 1.088.218 2.134.332 3.346-.656-1.904-.21-3.617-.298-5.15-1.147-.52-.288-1.186-.621-.766-1.382.28-.516.865-.429 1.351-.122.717.463 1.442.892 2.826.761-1.532-1.146-2.727-2.074-3.6-3.342-.248-.359-.553-.7-.734-1.094-.28-.612-.84-1.339.099-1.829.733-.385.997.237 1.285.84.651 1.348 1.582 2.415 3.288 3.43-.66-1.636-1.129-2.765-1.557-3.902-.214-.569-.09-1.085.502-1.313.486-.192.775.14 1.005.552.47.822.602 1.881 1.599 2.563.535-.962.157-1.933.173-2.843.008-.56-.008-1.19.667-1.225.66-.035.7.595.791 1.146.223 1.47.478 2.931.758 4.619 1.022-.769 1.13-1.811 1.516-2.659.215-.481.396-1.006.692-1.426.28-.385.742-.412 1.138-.167.354.22.304.63.19.963-.495 1.54-.924 3.106-1.764 4.488-.173.28-.297.604-.585 1.207 1.384-.183 2.043-1.224 2.958-1.688.305-.158.659-.298.93-.009.454.473.042.814-.23 1.111-.997 1.12-2.282 1.776-3.609 2.336 3.593 6.685 12.302 13.868 19.915 18.872.544-.647.016-1.19-.198-1.688-4.383-10.114-7.704-20.631-10.34-31.418-.56-2.293-.602-2.275-2.793-2.354-1.698-.061-3.32-.455-4.788-1.444-.362-.245-.716-.62-.453-1.093.223-.412.7-.534 1.104-.254.99.682 2.003 1.242 3.593 1.347-1.648-1.68-3.189-2.904-4.367-4.54-.775-1.077-1.566-2.135-2.035-3.413-.23-.63-.758-1.417.132-1.89.914-.49 1.07.36 1.35 1.05.503 1.243 1.08 2.45 2.333 3.421.14-1.504-.915-2.327-1.244-3.42-.149-.49-.586-1.042.024-1.435.684-.447 1.03.105 1.36.69.98 1.75 1.911 3.544 3.444 5.513.14-2.266-.618-3.824-.767-5.468-.074-.805-.906-2.056.19-2.363 1.318-.376 1.12 1.234 1.384 2.074.338 1.076.33 2.283 1.088 3.325.684-1.435.544-2.931.807-4.331.116-.621.445-.98 1.038-.884.511.088.627.569.586 1.032-.14 1.882-.314 3.754-.52 6.09 1.212-1.286 1.335-2.677 1.821-3.841.206-.49.346-1.024.511-1.531.223-.665.577-1.155 1.302-.849.692.289.362.901.255 1.391-.741 3.211-1.862 6.203-4.58 8.732 3.073-.289 4.185-3.71 7.267-4.208-1.508 2.773-3.313 4.383-5.488 5.302-1.36.568-1.302 1.198-.997 2.423 2.876 11.663 6.559 23.002 11.379 33.894 1.334 3.01 2.661 6.02 3.98 8.986.856-.07.782-.744.864-1.199.956-5.705 1.624-11.453 1.846-17.253.05-1.173-.214-1.995-.964-2.888-1.796-2.161-3.189-4.645-4.474-7.2-.28-.56-.634-1.225.082-1.645.71-.411 1.047.289 1.368.805.742 1.19 1.285 2.528 2.406 3.71.305-.849-.058-1.47-.181-2.074-.214-1.059-.552-2.091-.783-3.15-.132-.603-.305-1.356.511-1.548.849-.21.873.63 1.055 1.19.321 1.015.585 2.038 1.013 3.534.808-1.881.412-3.421.527-4.873.05-.682.033-1.347.824-1.365.84-.017.824.744.833 1.365.016 1.33.008 2.669.008 4.558 1.244-1.373 1.285-2.703 1.771-3.788.256-.56.651-.892 1.195-.682.535.201.321.752.214 1.154-.552 2.048 1.54.307 1.632 1.777-.973 2.344-2.3 4.908-4.087 7.672 2.62-.524 4.169-2.808 6.575-2.642-1.706 1.785-3.634 3.167-5.834 3.955-1.334.481-1.862 1.277-1.886 2.721-.1 6.64-1.22 13.132-2.53 19.598-.28 1.4-.14 2.598.47 3.876 1.227 2.572 2.307 5.223 3.46 7.839.346.779.585 1.645 1.384 2.423.42-1.259.1-2.327.124-3.35a51.552 51.552 0 011.203-9.948c.923-4.139 1.961-8.242 2.941-12.363.173-.717.33-1.496 1.203-1.461.775.035 1.154.595 1.277 1.409.256 1.697.676 3.368.816 5.074.585 6.947.684 13.929.47 20.893-.107 3.526-.676 7.034-2.266 10.21-.527 1.05-.626 1.995-.157 3.08 1.896 4.331 4.005 8.522 6.27 12.8.85-.7.561-1.575.528-2.301-.601-13.482-.634-26.974-.379-40.465.165-8.6.486-17.192.849-25.783.099-2.328-.223-4.497-1.022-6.606-2.48-6.535-5.067-13.01-7.424-19.598-.881-2.467-2.587-3.858-4.408-5.232-1.508-1.137-3.13-2.109-4.597-3.316-.89-.735-1.714-.945-2.785-.691-1.92.464-3.84.175-5.719-.35-.527-.149-1.31-.359-1.054-1.19.165-.533.824-.49 1.335-.359.881.228 1.713.77 2.883.412-.873-1.007-2.043-1.278-2.933-1.986-.675-.543-1.392-1.024-1.813-1.847-.263-.524-.296-1.076.215-1.434.544-.385.881-.08 1.178.49.98 1.854 2.777 2.362 4.663 3.473-.222-1.365-.89-1.969-1.26-2.721-.47-.962-1.022-1.881-1.41-2.878-.296-.77-1.045-1.899-.024-2.389 1.162-.56 1.104.954 1.491 1.636.503.901.726 2.004 1.599 2.669.173-.228.321-.342.354-.482.173-.7-.263-1.907.956-1.767 1.03.123.84 1.26.774 1.977-.32 3.316 1.121 5.477 3.667 7.061 1.294.805 2.513 1.767 3.749 2.65.742-.69.264-1.241.083-1.775-1.245-3.745-2.546-7.472-3.733-11.243-.42-1.347-1.12-2.1-2.39-2.458-2.71-.779-4.647-2.8-6.418-5.005-.321-.402-.552-.9-.79-1.373-.232-.447-.182-.928.238-1.181.461-.28.972-.342 1.294.28.89 1.75 2.142 3.08 4.029 3.832-.56-1.181-1.146-2.345-1.673-3.544a43.68 43.68 0 01-1.08-2.747c-.123-.35-.098-.744.248-.954.42-.253.824-.157 1.063.315.445.875.84 1.768 1.277 2.642.585 1.164 1.022 2.433 2.299 3.71-.47-2.493-.866-4.506-1.228-6.527a12.02 12.02 0 01-.19-1.88c-.008-.596.28-1.068.89-1.077.635-.017.824.446.857 1.068.116 2.082.593 4.077 1.294 6.518.79-2.196.873-4.016.824-5.862-.017-.569-.025-1.155.643-1.243.75-.096 1.03.455 1.087 1.164.173 2.1-.181 4.147-.461 6.203-.058.438-.313.849-.041 1.662 1.301-1.618 1.763-3.456 2.298-5.25.206-.681.322-1.399.552-2.073.124-.358.486-.463.849-.42.428.053.51.42.544.78.074.822-.074 1.609-.28 2.405-.709 2.756-1.879 5.223-3.7 7.314-.461.534-.947.998-.692 1.873 1.458 4.89 3.09 9.703 4.968 14.55 1.772-2.232 2.472-5.871 1.624-8.102-.478-1.269-.775-2.581-1.055-3.902-.132-.639-.321-1.313.478-1.558.741-.227 1.055.272 1.17.998.041.253.14.507.486.56.61-.604.37-1.47.461-2.24.075-.639.05-1.4.832-1.435.899-.044.684.805.75 1.382.116.954-.164 1.943.157 2.888.263-.07.461-.053.552-.158.568-.639.766-2.266 1.928-1.4.816.604-.157 1.61-.42 2.406-.132.42-.322.875-.602 1.181-2.224 2.433-2.546 5.792-3.757 8.715-1.343 3.237-.873 5.896.437 8.915 1.92 4.418 3.477 9.02 5.174 13.544.157.42.239.866.66 1.137.658-.236.403-.875.411-1.33.09-4.348.19-8.697.198-13.036 0-1.19.593-2.555-.626-3.526-.24-.192-.157-.578.074-.674 1.08-.437.824-1.435.857-2.3.379-11.497 1.186-22.958 1.854-34.437.033-.543.074-1.085.099-1.628.066-1.54.444-3.167.09-4.584-.395-1.61-2.34-1.383-3.477-2.257-1.508-1.164-3.032-2.266-4.128-3.92-.296-.455-.552-1.006-.008-1.426.47-.368 1.005-.21 1.318.289.371.595.7 1.207 1.541 1.776-.107-1.838-.931-3.272-.824-4.865.041-.639-.033-1.382.725-1.514.948-.157 1.055.63 1.112 1.392.14 1.863.413 3.683 2.176 5.442-.486-2.538-1.022-4.532-1.096-6.606-.058-1.636-.107-3.263.255-4.864.132-.587.445-.99 1.063-.867.709.14.643.727.527 1.26-.486 2.363-.057 4.69.264 7.008.124.866.124 1.794 1.055 2.625.214-3.088.362-5.967.642-8.828.091-.989-.247-2.765.915-2.712 1.64.079.75 1.872.733 2.87-.049 3.053-.288 6.098-.486 9.755 1.417-1.348 1.69-2.677 2.077-3.876.47-1.452.725-2.975 1.12-4.453.214-.805.115-2.161 1.277-1.943 1.27.237.594 1.47.462 2.249-.313 1.872-.717 3.718-1.376 5.494-.182.482-.536.954-.157 1.803 1.426-1.059 2.299-2.511 3.115-4.025.379-.709.692-1.452 1.079-2.143.28-.5.709-.797 1.269-.534.65.306.494.892.288 1.382-.848 2.082-1.878 4.042-3.41 5.652-.297.315-.561.665-.99 1.181 1.22-.017 1.665-1.085 2.44-1.478.403-.21.84-.236 1.161.113.395.438.066.867-.206 1.164-1.689 1.872-3.823 2.896-6.105 3.587-2.34.709-2.316.691-2.464 3.377-.593 10.753-1.228 21.497-1.813 32.25-.099 1.863-.016 3.744-.016 5.625.692-.035.824-.62 1.038-1.058 2.793-5.678 5.471-11.41 7.58-17.437.528-1.496.585-2.686-.304-4.042-.981-1.479-1.508-3.229-1.797-5.031-.082-.534-.148-1.076-.132-1.619.017-.568.173-1.093.857-1.067.511.017.66.394.75.883.24 1.278.28 2.643 1.285 4.183.116-2.24.198-3.999.305-5.749a10.55 10.55 0 01.206-1.61c.1-.48.437-.813.907-.743.47.07.675.446.667.971-.008 1.225-.288 2.476.288 4.243.478-1.426.792-2.397 1.13-3.36.18-.498.37-1.014.634-1.46.247-.42.659-.543 1.096-.315.46.236.519.665.37 1.137-.436 1.365-.939 2.712-1.293 4.103-.181.727-.734 1.435-.338 2.354.964-.709 1.475-1.759 2.076-2.721.33-.525.61-1.085.98-1.575.347-.464.833-.656 1.32-.262.469.376.14.822-.059 1.19-.461.866-.964 1.697-1.433 2.554-.198.368-.602.665-.371 1.286.947-.105 1.846-2.064 2.637-.7.486.832-.98 1.645-1.706 2.336-1.326 1.26-2.727 2.406-4.425 3.036-.642.237-1.203.543-1.475 1.339-1.483 4.392-3.205 8.688-4.976 13.019 2.11-.849 4.153-1.628 5.026-4.209.395-1.172 1.12-2.222 1.697-3.324.313-.587.75-1.103 1.401-.858.89.333-.082 1.103.272 1.68.61.193 1.294-.91 2.06.14-.7 1.47-2.241 2.266-3.14 3.78 1.582.306 2.818-1.321 4.475-.665-.47 1.68-2.415 1.085-3.024 2.38 1.236.472 2.471-.57 3.765.017-.14.989-.824 1.111-1.442 1.181-1.837.21-3.708.429-5.504-.096-1.186-.35-2.117-.166-3.048.569-.132.105-.289.21-.445.236-3.362.595-4.598 3.508-5.957 6.326-.412.857-.404 1.504-.165 2.467.181.743-1.55.332-1.796 1.39-.165.7-.404 1.4-.429 2.11-.115 3.709-.181 7.419-.255 11.137-.008.254.025.525.37.682.635-.586.783-1.496 1.13-2.274 2.57-5.705 5.998-10.665 10.702-14.524.66-.542 1.376-1.058 2.126-1.426 1.805-.875 3.238.114 3.164 2.275-.041 1.338-.346 2.686-.643 3.998-.519 2.31-1.5 4.427-2.71 6.396-2.571 4.2-5.842 7.681-9.517 10.735-.593.49-1.244 1.085-1.936 1.225-2.72.568-3.057 2.528-3.106 5.092-.132 7.69-.338 15.381-.717 23.062-.47 9.511-.256 19.012-.223 28.523.017 6.045.388 12.091.602 18.102.659.28.807-.175.964-.595 1.96-5.119 4.391-9.974 6.954-14.751.758-1.418.758-2.546.025-3.99-2.637-5.188-4.697-10.63-5.2-16.597-.502-5.993.1-11.925 1.13-17.813.09-.525.296-1.033.469-1.54.239-.735.634-1.278 1.442-1.269.75.009 1.285.42 1.574 1.138.37.91.725 1.828 1.005 2.773 2.587 8.705 3.765 17.612 3.386 26.755-.016.446 0 .901.05 1.347.016.131.197.236.412.481.848-.892 1.244-2.082 1.796-3.14 1.557-3.001 3.073-6.029 4.606-9.047.354-.7.922-1.391-.083-2.047-.28-.184-.47-.718-.14-.902 1.442-.787.569-1.784.256-2.694-1.665-4.795-2.48-9.782-2.695-14.865-.09-2.135-.7-3.552-2.562-4.471-2.175-1.067-3.84-2.887-5.191-5.013-.338-.534-1.022-1.277-.247-1.872.758-.587 1.137.166 1.5.84.675 1.242 1.507 2.362 3.015 3.342l-1.195-5.232c-.263-1.155-.379-2.319-.272-3.5.058-.604.38-1.015.997-.927.536.07.618.533.627 1.006.049 2.747.552 5.389 1.68 7.865.149.324.314.639.511.919.074.114.28.114.626.254 0-2.013-.016-3.964.009-5.906.008-.814.066-1.627.148-2.432.05-.499.354-.84.832-.823.511.018.709.438.717.919.025.901-.025 1.811 0 2.712.008.341.05.735.585.875.618-1.146.783-2.485 1.154-3.744.189-.648.46-1.234 1.227-.945.635.236.528.813.396 1.364l-1.557 6.387c1.35-1.102 1.894-2.379 2.595-3.526.321-.525.585-1.102.964-1.583.288-.368.733-.411 1.129-.131.354.253.272.656.132.971-.322.735-.66 1.47-1.055 2.161-1.236 2.161-2.546 4.278-4.433 5.853-.593.499-.89 1.041-.824 1.837.462 5.862.956 11.724 3.049 17.254.05.14.222.227.436.428.717-.358.898-1.19 1.212-1.881 2.76-6.002 5.223-12.144 7.539-18.364.642-1.724.618-3.535.42-5.258-.486-4.13-1.187-8.233-.997-12.424.041-.893-.223-1.505-1.096-1.873-1.376-.568-2.324-1.74-3.098-3.062-.264-.455-.61-1.006-.107-1.452.47-.411.931-.105 1.285.359.198.262.38.586.8.507.28-.901-.083-1.767-.157-2.66-.05-.638-.157-1.373.643-1.504.758-.132.988.446 1.03 1.18.057.99.173 1.978.807 2.975.544-.586.346-1.356.577-1.942.214-.551.198-1.339 1.054-1.234.882.105.421 1.06.8 1.505.131-.026.313-.008.395-.096.552-.551.808-1.977 1.862-1.164.799.622-.148 1.444-.354 2.153-.124.428-.288.883-.552 1.216-2.455 3.123-2.373 6.798-1.994 10.543.173 1.662.395 3.315.601 5.074 1.154-.446 1.137-1.409 1.376-2.082 2.2-6.256 4.31-12.546 6.526-18.793.462-1.313.379-2.389-.214-3.596-.783-1.601-1.393-3.299-1.706-5.092-.107-.613-.288-1.374.511-1.558.824-.192.882.587.997 1.208.05.271.173.49.61.586.552-.866.428-2.004.741-2.984.248-.77.355-1.592.907-2.213.247-.28.585-.341.923-.175.354.175.461.481.354.884-.404 1.557-.824 3.106-.824 4.917 1.038-.674 1.203-1.811 1.747-2.66.329-.516.626-1.085 1.021-1.531.305-.341.767-.341 1.146-.035.354.28.189.621.057.954-.379.953-1.087 1.775-1.194 3.14 1.029-.48 1.351-1.347 1.878-1.968.338-.403.635-.858 1.03-1.172.354-.29.816-.228 1.145.13.297.316.149.674-.049.972a268.947 268.947 0 01-3.007 4.348c-.404.578-.849 1.111-1.278 1.68.676.604 1.129-.026 1.599-.263.75-.384 1.458-.883 2.167-1.364.585-.394 1.326-.901 1.755-.114.478.866-.486 1.207-.997 1.549-1.846 1.224-3.658 2.615-5.957 2.633-.701.009-1.088.394-1.302 1.041a3274.649 3274.649 0 00-4.936 15.084c-.049.14.066.341.132.665 1.459-1.007 2.522-2.406 3.708-3.64.519-.543.626-1.251.577-2.004-.107-1.487.346-2.86.741-4.243.173-.604.487-1.234 1.253-.98.667.228.428.84.428 1.365-.008.508-.535.98-.09 1.531.758-.184.964-.945 1.359-1.505.371-.525.783-1.12 1.426-.717.749.472.214 1.076-.075 1.61-.329.62-.873 1.12-.964 1.977.997.516 1.648-.717 2.538-.621.33.035.717.131.758.56.017.21-.132.542-.296.665-1.245.953-2.687 1.426-4.277 1.986 1.104 1.286 2.81.332 4.136 1.723-1.763.499-3.196.368-4.581-.078-1.021-.324-1.812-.158-2.439.752-1.137 1.645-3.139 2.415-3.847 4.48-.033.087-.066.236-.107.236-3.115.114-2.719 3.193-3.42 5.101-.692 1.889-1.483 3.744-2.159 5.651-2.76 7.787-6.04 15.329-9.533 22.731-3.386 7.165-7.259 14.06-10.909 21.085-.403.77-.75 1.575-1.277 2.669.898-.044 1.236-.543 1.599-.919 3.7-3.823 7.086-7.962 10.324-12.24.42-.551.956-1.05.873-1.872-.041-.385-.008-.832.313-.945 2.563-.893 3.42-3.579 4.886-5.556 3.205-4.305 5.982-8.95 8.619-13.692.791-1.427 1.153-2.485-.025-4.034-1.285-1.68-1.631-3.937-1.796-6.133-.05-.63-.017-1.382.815-1.365.618.009.709.569.791 1.164.198 1.487.355 3.001 1.426 4.864.115-2.274.074-3.989.494-5.625.214-.84-.206-2.424 1.211-2.161 1.154.21.503 1.478.445 2.309-.082 1.138-.37 2.266-.016 3.684.873-.823 1.12-1.794 1.557-2.616.536-1.024 1.014-2.082 1.557-3.106.379-.718.849-1.575 1.739-1.05.947.56.066 1.242-.165 1.794-.7 1.636-1.475 3.237-2.414 5.258 1.697-.359 2.455-1.601 3.477-2.345.692-.499 1.36-1.951 2.216-.709.618.893-.651 1.47-1.203 2.03-1.153 1.172-2.397 2.231-3.847 3.552 1.334.166 2.208-.472 3.131-.857.387-.158.758-.376 1.137-.578.576-.315 1.203-.437 1.491.315.255.657-.363.937-.775 1.173-2.158 1.233-4.441 2.143-6.846 2.572-.997.175-1.657.586-2.159 1.557-3.362 6.501-7.358 12.529-11.626 18.356-.247.341-.577.656-.494 1.382 2.422-.945 4.556-2.056 5.611-4.838.609-1.61 1.821-2.808 2.933-4.042.288-.324.61-.63 1.063-.656.346-.018.692.026.906.35.247.376 0 .673-.222.936-.841.962-1.813 1.811-2.398 3.29 2.142-.237 3.065-3.054 5.298-2.503.148 1.033-.816 1.19-.997 1.881.28.744 1.351.245 1.532 1.304-2.018 1.662-4.688 1.829-7.407 3.071 3.288.446 5.982-1.085 8.751-.787.173 1.102-.462 1.181-.882 1.303-2.513.735-5.1 1.348-7.688.971-1.928-.28-3.559.07-5.289.936-2.596 1.295-4.952 2.73-6.765 5.285-2.39 3.377-5.174 6.413-8.083 9.292-.988.979-1.928 2.143-3.098 2.747-2.167 1.102-3.13 3.123-4.103 5.223-1.5 3.237-2.933 6.501-4.062 9.921-1.088 3.308-1.318 6.676-1.112 10.141.362 6.133.585 12.283.98 18.417.643 9.842.387 19.711.816 29.563.05 1.067.157 2.126.255 3.342.948-.35 1.203-1.181 1.558-1.82 1.516-2.712 3.048-5.442 5.116-7.681 2.373-2.573 2.67-5.399 1.821-8.732a78.548 78.548 0 01-1.722-8.758c-1.211-8.837-1.516-17.673.709-26.414.601-2.353 1.12-4.75 2.191-6.92 1.039-2.1 2.62-2.161 3.832-.158 1.03 1.698 1.491 3.666 1.755 5.626 1.384 10.385 1.829 20.718-1.755 30.797-.816 2.336-1.343 4.794-2.002 7.192zm15.77 2.861c-6.55 4.164-14.46 4.401-21.505 8.854 2.562.604 4.515.026 6.451-.131 7.704-.63 14.881-3.203 21.662-7.122.882-.508 1.672-1.19 2.48-1.829.75-.595 1.343-1.356 1.854-2.187.272-.437.643-.91.305-1.47-.264-.437-.742-.306-1.146-.289-.164.009-.329.044-.494.062-5.644.796-11.239 1.863-16.701 3.569-3.189.998-6.246 2.354-8.932 4.567 2.694-.621 5.306-1.522 7.984-2.099 2.686-.578 5.092-2.441 8.042-1.925zm-16.174-9.038c1.944-4.97 3.106-10.105 3.238-15.46.148-6.15-.099-12.284-1.343-18.321-.214-1.049-.37-2.222-1.459-3.158-4.193 10.482-4.548 21.059-2.85 31.838.395-3.123.61-6.273.873-9.405.173-2.065.404-4.13.667-6.186.091-.691.264-1.583 1.187-1.382.816.175.527 1.023.478 1.583-.247 2.879-.585 5.74-.808 8.618-.296 3.946-.544 7.901.017 11.873zm27.94-14.83c5.767-1.548 10.546-4.751 14.386-9.449 1.211-1.479 2.307-3.123 2.908-5.039.429-1.357-.008-1.969-1.285-1.698a13.658 13.658 0 00-3.09 1.094c-5.364 2.651-9.755 6.614-13.356 11.636-.231.324-.618.656-.156 1.225 1.351-.901 2.422-2.178 3.633-3.263 1.22-1.103 2.431-2.214 3.683-3.273.602-.498 1.335-.524 1.73.263.338.682-.42.849-.758 1.172-2.546 2.45-5.125 4.891-7.695 7.332zm18.777-56.152c-5.248 4.804-11.197 15.451-11.18 19.651.461-.306.609-.849.84-1.321.717-1.426 1.409-2.87 2.142-4.296.264-.516.676-.849 1.236-.508.552.342.494.884.256 1.409-.66 1.461-1.368 2.905-1.978 4.392-.363.892-1.162 1.654-.997 2.914 7.457-5.224 9.756-12.835 9.681-22.241zm-85.673 63.86c-1.978.114-3.486.936-5.01 1.619-2.859 1.268-5.701 2.607-8.544 3.928-.626.298-1.211.464-2.101-.464 4.713-2.283 9.187-4.479 13.71-6.614-3.543-.822-6.517.919-9.508 2.397-5.8 2.87-10.291 6.23-11.346 8.338 5.183 1.426 18.07-3.666 22.799-9.204zm-21.027-41.252c-4.235-2.012-8.759-3.237-12.763-6.719 2.603-.447 4.054 1.295 5.768 2.108 1.895.91 3.773 1.811 5.899 1.942-5.702-4.943-12.12-7.882-19.569-7.996 5.529 6.632 12.046 11.032 20.665 10.665zm54.042-18.041c.28-1.102.066-1.881-.024-2.659-.388-3.404-.833-6.799-1.195-10.202-.09-.884.016-1.802.09-2.695a.674.674 0 01.692-.638c.404 0 .553.306.594.7.123 1.163.214 2.336.37 3.499.445 3.281.915 6.562 1.377 9.852 1.194-7.586-1.055-23.045-3.807-26.834-1.376 9.93-2.554 19.502 1.903 28.977zm8.577-73.274C83.288 84.3 79.391 90.126 76.713 97.02c.898-.236 1.343-.997 1.895-1.618 1.846-2.1 3.387-4.471 5.026-6.755.396-.55.915-.892 1.5-.367.585.516.008.997-.222 1.39-1.945 3.282-4.285 6.23-6.724 9.091-.577.683-1.302 1.286-1.672 2.494 8.165-6.02 13.323-15.171 12.935-21.4zM33.382 202.255c-1.994-.377-3.543-.42-5.108-.175-1.574.253-3.156.49-4.755.411-1.474-.079-2.957 1.023-4.853.061 2.654-1.794 5.422-1.041 7.787-2.012-6.303-.446-12.532-.665-16.866 6.089 1.268.14 18.266-2.056 20.417-2.642 1.038-.28 2.167-.385 3.378-1.732zm7.473-14.148c.791-1.365 1.055-2.826 1.08-4.339.066-4.786.123-9.572.148-14.358.016-2.266-.173-4.523-.651-6.719-.354-1.619-.618-3.333-1.83-4.654-2.224 5.109-2.883 20.105-.848 23.018 0-.979-.016-1.697 0-2.406.09-2.974.198-5.958.305-8.932.025-.613.288-1.085.89-1.077.66.009.742.569.733 1.155-.05 2.888-.05 5.775-.148 8.653-.099 3.211-.33 6.422.321 9.659zm-20.285 6.028c-.56-.962-1.294-1.251-1.904-1.706-2.628-1.933-5.363-3.657-8.264-5.083-.395-.192-.848-.429-.667-.954.173-.481.676-.463 1.088-.315 1.911.692 3.65 1.768 5.421 2.774.428.245.849.831 1.631.227-4.72-4.138-9.327-8.197-14.65-11.863 2.72 9.711 10.424 16.387 17.345 16.92zm33.757 14.489c.428-1.662.568-2.975.692-4.305.148-1.618.379-3.228.634-4.829.107-.683.536-1.181 1.244-1.006.693.166.503.831.454 1.338-.215 2.153-.52 4.305-.676 6.466-.165 2.275-.569 4.567-.107 7.078 2.999-5.652 2.488-22.835-.676-26.947-1.73 5.827-2.546 16.772-1.565 22.205zm-17.6-70.255c3.972 8.67 11.634 16.264 16.726 16.614-1.911-1.339-3.592-2.493-5.256-3.675-1.624-1.146-3.016-2.572-4.21-4.217-.264-.358-.462-.796-.034-1.198.38-.35.758-.289 1.096.087.404.455.8.928 1.211 1.374 2.653 2.905 5.95 4.707 9.286 6.457-5.512-6.247-11.963-11.12-18.819-15.442zm77.327 41.217c0-2.485-.008-4.97.009-7.446.008-1.172.049-2.353.123-3.517.033-.481.289-.875.808-.805.346.044.568.324.684.7.271.831-.083 1.794.568 2.87.231-6.16.577-12.013-1.112-17.735-2.752 8.522-4.688 17.079-1.08 25.933zm-11.93-8.592c-2.077 7.192-1.36 22.844 1.021 26.221-.181-2.843-.362-5.529-.535-8.224a45.444 45.444 0 01-.099-2.161c-.017-.429.255-.674.601-.718.363-.043.668.202.734.587.14.796.197 1.601.329 2.397.157.91-.123 1.916.577 2.721.181-7.104-.593-14.06-2.628-20.823zm-40.571-15.328l.51.026c.108-.971.231-1.934.322-2.905.19-1.968.338-3.946.544-5.914.082-.796.115-1.75.98-2.021 1.236-.385 1.137-1.391 1.104-2.371a749.86 749.86 0 00-.47-10.526c-.024-.437.28-1.119-.683-1.321-2.2 8.207-4.235 16.405-2.307 25.032zm62.537 57.315c-4.202-1.811-14.996-.341-18.885 2.564 2.727-.42 5.109-.77 7.49-1.182.634-.105 1.326-.166 1.45.56.14.805-.676.884-1.203 1.041-.799.237-1.623.412-2.439.569-.7.131-1.409.201-2.117.306 5.339-.35 10.736-.481 15.704-3.858zM19.59 138.57c-1.286 5.923-.231 13.946 2.372 17.052-.552-2.319-1.07-4.209-1.433-6.133-.165-.884-.783-2.301.32-2.625 1.303-.385 1.08 1.225 1.32 2.056.708 2.546 1.037 5.241 2.48 7.62.89-3.849-1.74-13.211-5.06-17.97zm14.632 58.969c.033-4.051-4.72-14.471-7.563-16.562.535 5.468 1.516 10.577 4.317 15.424.338-1.093-.198-1.706-.247-2.388-.074-.971-1.252-2.31.124-2.809 1.12-.402 1.095 1.26 1.45 2.083.56 1.295.824 2.747 1.92 4.252zm30.058-41.69c.585-2.939 1.038-5.818.461-8.758-.346 2.931-.988 5.836-.461 8.758zm187.711 64.534c.403-2.844.148-5.276.165-7.7.049-6.701-.108-13.403.016-20.105.074-4.165-.692-8.075-2.093-11.899-2.661-7.262-6.229-14.025-9.665-20.866-.997-1.987-2.109-3.911-3.056-5.924-.553-1.172-1.335-1.443-2.439-1.356-1.418.114-2.851.053-4.268.184-7.787.726-15.375-.42-22.832-2.8-6.591-2.1-11.585-6.36-14.707-13.045-1.508-3.228-3.041-6.457-4.54-9.694a21.68 21.68 0 01-.981-2.502c-.642-2.082-.239-2.756 1.805-2.493 3.238.411 6.459 1.006 9.681 1.609a85.587 85.587 0 0111.708 3.063c7.012 2.371 13.093 6.395 18.374 11.872.528.551.923 1.295 1.714 1.531.313-.481.033-.892-.124-1.277-3.501-8.461-5.891-17.315-7.984-26.282-.626-2.686-.634-2.721-3.304-3.01-2.076-.228-3.922-.928-5.33-2.66-.61-.752-1.269-1.61-.783-2.668.461-1.015 1.475-1.112 2.397-1.129 1.739-.053 3.222.822 4.845 1.741.396-1.697-.436-3.036-.766-4.436-.165-.717-.931-.656-1.475-.84-1.689-.56-3.296-1.32-4.746-2.432-.964-.735-1.845-1.584-2.422-2.712-.445-.866-1.014-1.82-.396-2.782.701-1.103 1.829-.788 2.769-.5.947.298 1.829.876 2.727 1.357.593.315 1.055.901 1.895 1.024-.049-2.791-.552-5.101-3.411-6.107-1.582-.551-3.032-1.531-4.367-2.651-.882-.744-1.582-1.619-1.895-2.8-.412-1.575.231-2.45 1.755-2.415 1.434.035 2.48.98 3.609 1.759.552.385.914 1.067 1.796 1.269.305-1.488-.379-2.791-.601-4.13-.124-.735-.857-.744-1.442-.814-1.599-.175-3.14-.603-4.557-1.435-1.714-.997-2.579-2.59-2.167-3.867.437-1.33 2.241-1.863 4.211-1.163.791.28 1.532.7 2.43 1.11.338-1.74-.305-3.245-.585-4.785-.123-.7-.749-.875-1.302-1.129-.922-.42-1.82-.918-2.71-1.417a5.63 5.63 0 01-1.92-1.724c-.618-.875-1.285-1.863-.61-2.957.701-1.128 1.747-.7 2.736-.376.873.289 1.532 1.094 2.496 1.146.083-2.528.083-2.546-2.018-2.974-1.335-.272-2.637-.613-3.618-1.715-.601-.683-1.021-1.514-.65-2.468.395-1.014 1.293-1.093 2.15-.944.972.175 1.928.49 3.049.778.206-1.19-.346-2.1-.742-3.045-.305-.743-.676-1.47-.873-2.24-.404-1.53.024-2.72 1.145-3.56 1.038-.779 2.365-.814 3.287-.079 1.006.805 1.418 2.467.981 3.92-.288.97-.882 1.74-1.401 2.554-.23.36-.576.665-.453 1.181.494.657.915.07 1.302-.13.692-.36 1.392-.64 2.159-.613 1.763.061 2.529 1.47 1.746 3.176-.51 1.128-1.441 1.732-2.422 2.275-1.887 1.032-1.887 1.023-1.45 3.517.733 0 1.03-.753 1.532-1.103.956-.656 1.896-.717 2.785.08.783.69.824 2.064.157 3.227-.453.788-1.121 1.33-1.821 1.838-1.837 1.33-1.837 1.33-1.442 3.578.074.438.181.875.272 1.313 1.013.078 1.491-.84 2.241-1.19 1.22-.569 2.423-.814 3.535.2.89.815.914 2.11.173 3.754-.684 1.505-1.664 2.818-3.007 3.561-1.484.823-1.525 1.873-1.088 3.299.206.682.222 1.426.667 2.03.75.043 1.113-.7 1.698-.99 1.54-.778 3.065-.62 3.963.438.898 1.059.848 2.572-.182 4.252-.749 1.225-1.746 2.214-2.883 2.993-.824.568-1.129 1.224-.832 2.257.395 1.365.469 2.835 1.186 4.348.742-.892 1.318-1.724 2.027-2.397 1.005-.963 2.463-1.155 3.246-.429.89.822 1.121 1.89.849 3.176-.478 2.257-1.821 3.876-3.279 5.354-1.203 1.225-1.731 2.372-.66 3.981.89-.612 1.096-1.784 1.797-2.563 1.194-1.339 2.653-1.855 3.815-1.234 1.17.63 1.713 2.45 1.252 4.287-.659 2.599-2.307 4.392-4.285 5.818-.832.604-1.095 1.147-.848 2.188 2.422 10.087 5.207 20.035 9.417 29.449.066.149.206.263.618.77 0-1.33.083-2.327-.016-3.298-1.137-11.12 1.137-21.383 6.583-30.858.354-.613.709-1.243 1.154-1.776 1.112-1.339 2.463-1.19 3.271.341.288.542.445 1.172.659 1.758 1.252 3.482 1.903 7.131 2.307 10.814.527 4.847.733 9.721.082 14.585-.914 6.842-3.716 12.73-7.877 17.875-.898 1.102-1.219 1.863-.519 3.272 3.906 7.786 8.026 15.451 11.157 23.631.955-.114.634-.831.642-1.251.173-7.691.289-15.39.462-23.08.313-13.841.552-27.691 1.763-41.489.074-.813-.066-1.662.107-2.441.725-3.281-.651-5.442-2.917-7.419-2.01-1.75-3.798-3.823-5.603-5.844-4.136-4.629-6.509-10.228-7.67-16.51-1.162-6.317-1.887-12.686-2.341-19.1-.181-2.536.001-5.065.338-7.576.421-3.202 1.862-3.885 4.293-2.004 4.243 3.29 7.374 7.604 9.714 12.608 3.173 6.798 4.829 14.051 5.578 21.575.116 1.155.108 2.319.8 3.622.774-4.759 1.516-9.265 2.249-13.78.058-.358.074-.726.173-1.067.709-2.528.989-4.733-1.541-6.58-1.516-1.102-2.134-3.219-2.191-5.292-.066-2.424 1.54-3.412 3.51-2.231.906.542 1.4 1.513 2.265 2.65.742-1.985.973-3.805 1.335-5.581.173-.866-.387-1.313-.939-1.75-.956-.753-1.821-1.601-2.521-2.634-.561-.813-.964-1.715-.989-2.738-.049-2.074 1.425-3.115 3.189-2.319 1.046.473 1.656 1.496 2.513 2.214 1.285-2.336 1.285-2.441-.14-4.506-.956-1.391-1.83-2.835-2.085-4.584-.132-.893-.222-1.846.585-2.485.832-.665 1.615-.184 2.332.262.642.403 1.219.928 1.854 1.418.914-1.129.914-1.995-.182-3.019-1.425-1.33-2.34-3.08-2.57-5.144-.124-1.085-.215-2.31.799-2.949 1.013-.638 1.911.053 2.744.726.445.36.675 1.05 1.466 1.112.709-1.12 1.047-2.319.692-3.754-.189-.779-.206-1.618-.197-2.423.024-1.768.716-2.949 1.994-3.421 1.202-.446 2.381-.298 3.262.717 1.039 1.19 1.459 2.651.874 4.252-.651 1.803-1.986 2.914-3.56 3.622-.98.447-1.26 1.068-1.063 2.109.824.429 1.648-.061 2.472.009 1.467.14 2.546.892 2.925 2.143.404 1.339-.066 2.949-1.236 3.85-1.128.875-2.373 1.339-3.782.919-.56-.167-1.112-.324-1.755-.517-.758 1.391-.997 2.861-1.244 4.541 1.104.193 2.077-.376 3.049-.105 1.03.289 1.994.683 2.159 1.942.164 1.243-.577 2.022-1.558 2.511-1.095.552-2.257.814-3.411.342-1.227-.508-1.648.052-1.862 1.277-.222 1.312-.577 2.59-.906 4.016 1.021.149 1.59-.508 2.29-.639 1.516-.28 2.826.271 3.477 1.531.66 1.269.388 2.651-.807 3.902-1.747 1.838-3.807 2.118-6.13 1.234-.94 2.546-1.31 5.1-1.706 7.656.692.157 1.005-.36 1.426-.587.675-.358 1.351-.752 2.059-.98 1.665-.524 3.42.193 3.898 1.514.527 1.461-.19 2.94-1.945 3.902-1.475.805-3.024 1.085-4.622.508-1.252-.455-1.763-.062-2.035 1.39a318.042 318.042 0 00-3.362 21.952c-.634 5.381-1.071 10.788-1.59 16.186-.058.621-.214 1.251.074 1.872.791.245.758-.586.898-.944 4.4-10.902 11.305-19.599 19.94-26.817 2.191-1.828 4.333-3.71 6.5-5.564.742-.639 1.516-1.199 2.513-.647.907.498.882 1.47.923 2.362.264 5.713-.815 11.172-2.851 16.404a85.053 85.053 0 01-9.953 18.496c-4.688 6.597-10.67 11.181-18.085 13.474-.816.253-1.014.586-1.104 1.426-.396 3.604-.338 7.227-.429 10.84-.255 10.131-.305 20.272-.577 30.403-.337 12.678-.304 25.346-.321 38.024v4.296c1.005.315 1.079-.525 1.327-1.006 2.636-5.154 5.19-10.351 7.885-15.46.684-1.304.552-2.179-.157-3.395-2.892-4.952-4.927-10.254-5.603-16.133-.486-4.217-.033-8.303.964-12.354 1.607-6.483 3.815-12.739 6.023-18.994.116-.342.215-.691.388-.998.659-1.198 1.664-1.268 2.364-.113.313.516.503 1.146.635 1.758 1.755 8.391 3.485 16.772 3.329 25.46-.05 2.809-.544 5.565-.742 8.548.758-.28.807-.962 1.013-1.435 4.573-10.709 8.1-21.829 11.058-33.168.362-1.373.041-2.17-.964-2.975-1.813-1.434-3.016-3.377-3.609-5.73-.223-.884-.429-1.864.412-2.476.766-.56 1.598-.298 2.381.14 1.36.77 2.126 2.257 3.238 3.324.577-.638.618-1.373.816-2.056.321-1.154.066-1.846-1.03-2.301-1.187-.49-2.192-1.321-2.851-2.554-.387-.718-.643-1.47-.684-2.301-.049-1.138.074-2.205 1.104-2.818.94-.56 1.838-.157 2.596.412.741.551 1.351 1.303 2.126 2.073.815-1.408.692-2.983 1.054-4.418.272-1.076-.593-1.374-1.203-1.794-2.159-1.487-2.809-3.701-2.686-6.317.05-1.041.223-2.056 1.17-2.528 1.088-.543 1.928.131 2.661.936.346.376.643.814.981 1.251.626-.708.626-1.531.725-2.318.107-.814-.148-1.356-.873-1.724a13.25 13.25 0 01-2.143-1.4c-.683-.533-1.244-1.225-1.474-2.143-.248-1.015-.248-2.039.601-2.721.742-.595 1.615-.446 2.373.035.643.402 1.211.945 1.936 1.513 1.005-1.4.659-2.939.445-4.392-.198-1.347-.445-2.677-.387-4.042.082-1.855 1.17-3.036 2.628-2.983 1.459.061 2.555 1.33 2.612 3.079.05 1.628-.618 2.966-1.508 4.209-1.334 1.863-1.318 1.872-1.367 4.147.502.542 1.095.149 1.647.175 1.69.061 2.835.744 3.041 1.837.231 1.225-.651 2.205-2.53 2.817-.239.079-.478.167-.725.219-2.175.481-2.167.481-2.562 2.922-.198 1.243-.387 2.494-.33 3.937.725.062 1.146-.586 1.689-.84.981-.463 1.928-.533 2.917-.087.997.446 1.78 1.164 1.796 2.38.017 1.102-.725 1.758-1.59 2.231-.915.507-1.903.682-2.892.848-2.909.508-2.917.499-3.411 3.605-.107.683-.569 1.356-.124 2.091.701-.087 1.17-.665 1.78-.945.61-.288 1.236-.603 1.879-.708 1.063-.167 2.01.201 2.595 1.242.618 1.102.247 2.126-.437 2.992-1.318 1.671-3.131 2.371-5.075 2.677-2.109.333-2.118.298-2.612 2.599-.148.7-.297 1.408-.42 2.117-.025.158.066.341.115.578.832.218 1.294-.595 1.945-.867.7-.288 1.376-.708 2.092-.875.866-.201 1.731.079 2.209.919.519.901.131 1.759-.454 2.476-1.54 1.881-3.617 2.572-5.825 2.791-.989.096-1.458.411-1.73 1.47-1.096 4.173-2.282 8.329-3.419 12.485-.066.236-.223.525.115.796.741-.227 1.022-1.05 1.458-1.645 6.831-9.081 15.136-16.098 25.007-20.928 2.06-1.006 4.12-2.012 6.163-3.062.824-.42 1.582-.586 2.332.105.675.621.609 1.409.461 2.24-.577 3.15-1.738 6.072-3.312 8.749-8.355 14.174-19.89 23.544-35.306 26.904-.849.183-1.541.245-1.936 1.303-3.37 8.994-7.548 17.56-11.807 26.081-.108.219-.116.49-.165.718.412.437.651.026.857-.158 8.495-7.673 18.448-11.986 29.077-14.742 1.301-.341 2.595-.717 3.913-.971 2.332-.446 3.387.752 2.785 3.255-.667 2.782-2.224 5.083-3.979 7.139-5.34 6.264-11.544 11.269-18.753 14.786-3.477 1.697-7.16 2.502-10.926 2.887-2.538.263-5.034.044-7.366-1.19-.865-.455-1.376-.297-1.821.621-.972 2.004-2.01 3.973-3.015 5.95-.725 1.426-.602 3.001-.569 4.523.181 7.507.758 14.996 1.837 22.415 1.648 11.348 3.881 22.573 6.444 33.719.296 1.295.338 2.721 1.285 3.763.585.638.363 1.137-.255 1.496-.602.35-1.203.253-1.467-.464a30.524 30.524 0 01-1.038-3.342 321.6 321.6 0 01-3.766-17.446c-1.73-9.221-3.452-18.452-4.152-27.857-.28-3.788-.668-7.568-.651-11.383 0-1.181-.05-2.161-1.549-2.126-.841.018-1.59-.525-2.299-1.015-4.68-3.193-9.236-6.57-13.579-10.28-6.08-5.214-9.739-12.047-11.79-20.035-1.714-6.685-2.101-13.544-2.39-20.412-.115-2.712-.115-5.433-.164-8.146-.009-.629-.083-1.321.601-1.636.61-.28 1.154.018 1.64.385.272.202.494.49.717.753 5.52 6.448 11.057 12.861 15.786 20.053 5.628 8.565 8.99 17.883 9.023 28.531-.025 3.508.51 6.938 3.518 9.659zm-62.348-96.556c.041 1.094.461 1.881.832 2.678 1.45 3.158 2.966 6.281 4.392 9.449 2.999 6.693 7.959 10.779 14.476 12.826 4.433 1.391 8.973 2.222 13.563 2.607 4.226.359 8.461.131 12.82-.507-.305-1.05-.972-1.435-1.598-1.82-1.673-1.024-3.337-2.074-5.059-2.992-8.1-4.357-16.669-7.49-25.106-10.954-.445-.184-.972-.263-.947-1.033.206-.113.461-.385.618-.332 9.755 3.106 19.189 7.148 28.368 11.925.297-.831-.074-1.146-.313-1.452-3.914-4.891-8.314-9.161-13.579-12.319-6.468-3.876-13.537-5.67-20.73-6.999-2.521-.473-5.051-1.12-7.737-1.077zm33.477 40.474c-.19.105-.379.219-.577.324.173 9.737.305 19.484 3.271 28.88 1.755 5.565 4.383 10.552 8.429 14.568 3.84 3.806 8.116 6.981 12.466 10.035.214.149.453.149.692-.315-2.694-3.473-4.968-7.349-6.987-11.418-3.197-6.456-5.537-13.386-9.162-19.598-.091-.148-.156-.323-.231-.481a.664.664 0 01.083-.744c.247-.306.601-.35.923-.245.609.202.865.832 1.186 1.348 1.401 2.257 2.596 4.637 3.667 7.095 2.241 5.154 4.465 10.324 7.02 15.303.634 1.224 1.326 2.414 2.422 3.368a45.058 45.058 0 00-.107-6.431c-.717-8.329-3.798-15.678-8.165-22.459-3.733-5.8-7.902-11.225-12.409-16.352-.84-.962-1.681-1.916-2.521-2.878zm34.325-36.108c.824.28 1.261-.035 1.689-.262 4.656-2.424 8.833-5.538 12.145-9.887 4.112-5.415 7.399-11.382 10.176-17.708 2.29-5.223 3.708-10.656 3.856-16.448.016-.604.247-1.287-.519-1.724-4.318 3.666-8.808 7.174-12.763 11.356-7.704 8.146-13.117 17.787-15.836 29.118-.256 1.076-.709 2.169-.099 3.657 1.483-2.398 2.768-4.585 4.144-6.702 3.856-5.923 7.737-11.82 11.634-17.708.528-.797.948-2.441 2.143-1.47.923.761-.28 1.758-.734 2.476-3.658 5.739-7.39 11.417-11.082 17.131-1.68 2.589-3.345 5.179-4.754 8.171zm-3.081-27.752c.576-.402.395-.989.395-1.496.008-4.348-.305-8.67-.807-12.975-.874-7.49-2.579-14.734-5.941-21.435-1.977-3.955-4.523-7.385-7.819-10.132-1.261-1.059-1.706-.875-1.862.849-.206 2.24-.544 4.488-.379 6.754.412 5.582 1.071 11.129 1.878 16.667 1.187 8.137 4.137 15.215 9.871 20.788.808.779 1.574 1.61 2.587 2.66 0-.691.05-.893-.008-1.041-3.831-9.58-6.048-19.712-8.808-29.669-.14-.516-.296-1.04-.412-1.566-.09-.385.025-.7.404-.848a.939.939 0 01.956.14c.436.34.502.927.659 1.426.445 1.46.865 2.922 1.277 4.392 2.2 7.865 4.021 15.862 6.962 23.474.272.717.313 1.592 1.047 2.012zm7.728 107.264c.453.14.783-.184 1.121-.367 6.352-3.447 12.614-7.078 18.827-10.797.511-.306.997-.665 1.532-.91.503-.227 1.03-.096 1.294.447.255.533-.198.831-.536 1.041-1.722 1.111-3.435 2.24-5.207 3.254-5.463 3.141-10.95 6.212-16.405 9.371-.807.463-1.911.665-2.208 1.872 1.203.814 2.472.84 3.725.84 5.034.009 9.763-1.321 14.221-3.797 5.248-2.914 9.978-6.606 14.205-11.05 2.035-2.144 4.02-4.366 5.306-7.166.387-.84.972-1.68.634-2.738-13.092 1.601-32.537 12.266-36.509 20zm17.122-36.352c.61.341 1.063.026 1.532-.114 12.747-3.727 22.189-12.293 29.646-23.728 1.499-2.292 2.727-4.768 3.518-7.471.214-.735.717-1.47.173-2.275-12.837 4.366-31.293 20.42-34.185 29.721.527-.114.832-.56 1.186-.919l13.719-13.57c.799-.796 1.598-1.601 2.414-2.38.585-.551 1.368-1.137 1.986-.394.651.788-.346 1.199-.758 1.619-4.895 4.952-9.822 9.852-14.724 14.795-1.525 1.531-3.181 2.922-4.507 4.716zm-39.739-20.412c.775.245 1.013-.21 1.228-.551 2.595-4.147 4.919-8.469 5.677-13.474 1.376-9.152.815-18.189-1.862-27.035-.116-.376-.099-.936-.882-.945-3.576 5.486-5.628 11.715-6.69 18.365-1.072 6.702-.412 17.332 1.244 19.887.848-5.075 1.689-10.044 2.513-15.023.263-1.601.478-3.211.733-4.82.157-.98.305-1.96.527-2.923.157-.682.602-1.155 1.294-.892.643.245.371.884.305 1.4-.701 5.555-1.623 11.059-2.579 16.571-.552 3.141-1.014 6.308-1.508 9.44zm25.699 42.031c2.439-4.261 4.177-14.191 3.938-21.322-.247-7.507-2.15-19.082-3.609-21.199-2.397 7.769-5.586 15.083-6.336 23.211-.544 5.941.717 11.47 3.148 16.746.057.114.272.149.42.219.445-.315.288-.796.231-1.19-.503-3.403-.668-6.842-.808-10.271-.14-3.343-.057-6.693-.041-10.044 0-.7.272-1.278 1.055-1.164.733.105.543.761.56 1.269.074 3.438.091 6.876.231 10.306.164 4.313.618 8.592 1.211 13.439zm-40.827-83.397c2.069-1.785 3.552-3.456 3.543-6.151 0-.428.025-.936-.412-1.172-.477-.245-.791.149-1.038.49-1.335 1.881-2.183 3.946-2.093 6.833zm-11.551-16.553c1.054 3.018 3.271 4.435 6.286 5.415-1.491-2.974-3.205-4.497-6.286-5.415zm61.285-56.808c-.025-.464-.107-.893-.552-1.111-1.03-.517-3.453.787-3.683 1.994-.182.98.313 1.566 1.104 1.803 1.334.41 3.155-1.19 3.131-2.686zm-58.995 68.558c1.475 2.992 3.065 3.876 5.694 3.324-1.351-2.126-2.892-3.622-5.694-3.324zm3.873-17.822c1.541-.884 2.365-2.056 2.958-3.465.263-.63.305-1.25-.19-1.732-.601-.586-1.104-.053-1.499.367-1.17 1.234-2.002 2.625-1.269 4.83zm47.146-27.577c1.236.026 2.958-1.278 3.287-2.511.116-.438.157-.893-.14-1.278-.321-.42-.749-.359-1.137-.166-1.071.534-2.018 1.26-2.727 2.301-.239.35-.461.796-.157 1.242.206.298.528.403.874.412zm-52.996 17.043c.222-1.085.025-1.829-.585-2.406-.758-.726-1.607-1.295-2.637-1.47-.338-.061-.692-.009-.923.28-.329.429-.107.866.124 1.225.915 1.461 2.373 1.88 4.021 2.37zm6.624-5.556c0-.656-.09-1.102-.659-1.04-1.351.139-3.197 2.746-2.974 4.181.09.578.362 1.181.972.77 1.384-.945 2.315-2.319 2.661-3.91zm37.968-7.856c-.561 2.484.23 4.418 2.142 6.299.272-2.791-.363-4.786-2.142-6.3zm5.627 7.961c1.961.42 3.329 0 4.417-1.338.346-.42.486-.972.14-1.488-.297-.437-.75-.367-1.137-.21-1.343.534-2.513 1.313-3.42 3.036zm7.935-41.742c1.326-.91 2.15-1.75 2.208-3.14.033-.806.016-1.76-.981-1.83-.848-.06-1.343.613-1.458 1.506-.14 1.058-.115 2.1.231 3.464zm-8.668 26.851c.412-2.24-.289-3.648-1.335-4.926-.198-.245-.461-.542-.84-.332-.338.184-.429.525-.421.892.042 1.855 1.08 3.001 2.596 4.366zm25.402 79.241c2.002-.114 3.436-.787 4.532-2.214.305-.402.511-.971.115-1.452-.338-.411-.758-.175-1.112.053-1.335.831-2.612 1.749-3.535 3.613zm-3.032-.245c-.503-2.065-.659-4.086-2.703-5.118-.412 2.966.058 3.884 2.703 5.118zm-69.763-49.074c-1.022-2.117-2.447-3.727-4.886-4.69.84 2.967 2.826 3.877 4.886 4.69zm67.884 58.759c-.173-3.088-1.524-4.698-3.543-6.553.313 2.94 1.36 4.725 3.543 6.553zm4.029-20.989c.33-2.31-.329-4.121-1.689-5.906-.791 2.923-.403 4.27 1.689 5.906zM265.66 32.014c-.626 2.38.107 3.937 1.524 5.687.643-2.441.05-4.05-1.524-5.687zm-40.991 61.253c-2.11 2.038-2.274 2.58-1.59 5.048 1.277-1.409 2.076-2.817 1.59-5.048zM265.1 46.44c.651-2.747.527-3.08-1.566-4.794-.338 1.925.536 3.21 1.566 4.794zm-57.33 7.988c-.627.105-.684.5-.519.954.222.612.692.971 1.227 1.216.676.315 1.615.831 2.011.088.511-.963-.602-1.225-1.187-1.593-.494-.288-1.046-.463-1.532-.665zm83.251 69.88c1.244.017 2.159-.263 2.941-.998.322-.306.503-.726.305-1.198-.263-.622-.782-.665-1.26-.447-.956.429-1.681 1.12-1.986 2.643zm-82.856-62.907c1.253 2.634 1.928 3.176 3.823 3.299-1.367-2.056-1.425-2.109-3.823-3.299zm3.23-11.6c1.005-.648 1.162-1.672 1.096-2.757-.025-.324-.157-.726-.519-.849-.486-.157-.791.22-.981.595-.552 1.068-.263 2.048.404 3.01zm56.432-2.407c.453.35.873.35 1.285.306.783-.07 1.475-.35 1.846-1.163.107-.237.082-.578-.181-.709-.692-.324-1.286.175-1.887.385-.429.157-.997.297-1.063 1.181zm18.39 61.576c-.197 2.555.206 3.124 2.241 3.5-.329-1.339-.98-2.397-2.241-3.5zm4.145 33.186c-1.541.463-2.818 1.338-4.268 2.861 2.101-.411 3.518-1.041 4.268-2.861zM213.051 56.59c1.566-.726 2.785-1.146 2.769-3.106-1.475.447-2.373 1.147-2.769 3.106zm78.324 46.782c.882-.936.972-1.872.907-2.844-.025-.323-.075-.743-.511-.726-.371.01-.602.315-.676.665-.189.866-.247 1.741.28 2.905zm.231 9.3c.676.525 1.261.105 1.829-.236.363-.21.799-.472.61-1.006-.264-.726-.808-.411-1.261-.236-.634.245-1.277.525-1.178 1.478zM402.74 221.135c-3.214-6.448-4.746-13.517-6.559-20.473-.33-1.26-.923-2.056-2.01-2.528-1.393-.613-2.744-1.348-4.153-1.916-9.36-3.78-17.155-9.729-22.724-18.855-1.475-2.414-3.123-4.715-4.573-7.148-.635-1.067-1.986-2.362-.989-3.587 1.038-1.26 2.315.088 3.362.7 10.175 5.932 19.51 13.054 26.967 22.757.371.481.808.918 1.22 1.364.049.053.156.053.296.088.363-.822-.115-1.549-.296-2.249-3.057-11.671-6.6-23.185-9.476-34.909-.445-1.802-1.442-3.211-2.916-4.357-3.247 3.106-7.144 4.69-11.14 6.072-1.063.368-2.126.473-3.222.394-.799-.053-1.499-.306-1.821-1.181-.313-.875.066-1.584.577-2.222 1.063-1.33 2.381-2.275 3.823-3.045 1.014-.543 2.068-1.015 3.082-1.505-.132-.525-.462-.612-.783-.709-4.853-1.408-8.017-5.022-10.588-9.431a7.21 7.21 0 01-.634-1.47c-.478-1.592-.074-2.257 1.475-2.266 1.952-.009 3.79.691 5.611 1.365 1.392.516 2.735 1.198 4.21 1.863.008-1.05-.585-1.618-.881-2.309-1.162-2.704-1.747-5.486-1.072-8.435.643-2.817 2.39-3.569 4.755-2.169 1.128.673 1.944 1.697 2.743 2.756.577.761 1.154 1.522 1.846 2.449.626-.848.503-1.767.593-2.598.206-1.907.527-3.78 1.483-5.416.791-1.356 1.829-2.371 3.485-2.178 1.591.183 2.275 1.443 2.728 2.834.824 2.494 1.104 5.092 1.063 7.743-.017.884-.182 1.794.263 2.896 1.294-1.19 2.522-2.336 3.774-3.456.519-.455 1.055-.91 1.64-1.251 1.45-.84 2.521-.175 2.447 1.636-.132 3.229-1.005 6.221-2.802 8.854-1.722 2.546-3.996 4.384-6.558 5.784-1.146.621-1.36 1.583-1.838 2.773-1.063 2.669-.181 4.873.478 7.236 2.884 10.306 5.776 20.613 8.676 30.91.165.586.404 1.146.981 1.706v-3.543c.008-5.118 1.079-10.062 2.233-14.979 1.087-4.654 2.266-9.274 2.982-14.016.116-.778.091-1.767 1.154-1.767.947 0 1.162.831 1.368 1.654.997 3.945 1.326 8.014 1.705 12.056.355 3.78.651 7.55.742 11.365.189 7.376-1.393 14.226-5.051 20.403-1.549 2.616-1.656 4.934-.832 7.839 1.705 5.993 3.535 11.89 6.715 17.192.412.683.849 1.348 1.261 2.03.181.297.321.63.461.91.98-.7.56-1.365.511-1.925-.626-6.982-.33-13.929.56-20.858.602-4.663 1.178-9.326 1.772-13.99.041-.358.066-.717.107-1.076.074-.621.37-.988.98-.971.577.018.931.324 1.022.962.313 2.24.626 4.471.931 6.711 1.582 11.426 1.697 22.896.98 34.402a17.222 17.222 0 01-.675 3.727c-.214.735-.321 1.4.173 2.038 2.373 3.115 4.713 6.265 7.407 9.108.602-.709.346-1.356.256-1.925-1.179-7.489-.89-14.961.115-22.432.305-2.24.585-4.48.857-6.729.09-.761.189-1.478 1.104-1.478.741-.009 1.013.569 1.129 1.216 1.969 10.788 3.46 21.593 1.219 32.564-.016.088-.008.193-.049.263-1.31 2.204-.355 3.727 1.145 5.302 3.304 3.482 6.204 7.358 9.088 11.242.305.403.511.954 1.112 1.085.651-.324.289-.918.215-1.356-2.027-12.126-3.354-24.34-4.343-36.606-.255-3.141-1.343-6.151-2.554-9.047-3.213-7.664-6.534-15.285-9.698-22.975-4.688-11.426-9.038-22.993-11.609-35.25-1.648-7.866-2.76-15.827-3.782-23.807-.239-1.881-.502-3.762-.684-5.66-.403-4.217-2.331-7.708-4.523-11.05-2.324-3.544-4.771-6.991-7.144-10.508-.832-1.234-2.035-1.881-3.254-2.467-3.453-1.663-6.781-3.518-9.88-5.889-1.384-1.058-2.57-2.31-3.798-3.526-.56-.56-.923-1.277-1.087-2.108-.281-1.382.098-2.642 1.03-3.045 1.12-.49 2.166-.236 2.982.727 1.137 1.338 1.533 3.027 1.566 4.768.024 1.32.478 2.143 1.483 2.878 2.422 1.776 4.869 3.456 7.934 4.515-.066-1.138-.618-1.829-.98-2.572-1.829-3.789-3.378-7.691-4.046-11.934a9.837 9.837 0 00-.865-2.809c-.577-1.207-.89-2.528-1.104-3.876-.239-1.513.099-2.878.849-4.138.469-.787 1.104-1.365 2.084-1.207.964.157 1.417.848 1.681 1.776.519 1.81.453 3.683-.247 5.32-1.261 2.913-.651 5.634.181 8.425 1.5 5.048 3.782 9.667 6.649 13.937 2.752 4.103 5.562 8.163 8.355 12.24.083.122.28.149.618.315.256-2.231-.296-4.313-.56-6.369-1.821-14.463-3.049-28.969-2.727-43.588.041-1.777-.767-3.098-1.492-4.515-.403-.788-1.079-.726-1.746-.77-5.62-.341-9.616-3.806-13.175-8.075a3.956 3.956 0 01-.437-.665c-.445-.902-.132-1.488.766-1.339.734.123 1.442.446 2.134.752 2.307.998 4.598 2.022 7.111 2.704-.445-.718-.882-1.426-1.335-2.144-2.727-4.365-4.202-9.23-4.869-14.41-.066-.533-.05-1.084-.042-1.627.017-.83.066-1.715.94-2.02.815-.28 1.458.235 1.985.857 2.044 2.414 3.733 5.118 5.381 7.848.766 1.268 1.483 2.58 2.636 3.832.165-2.17.33-4.331.486-6.5a43.43 43.43 0 01.981-6.676c.585-2.564 2.727-2.66 4.153-.867.716.91 1.128 2.004 1.483 3.124.758 2.414 1.227 4.89 1.466 7.419.108 1.164.231 2.319.569 3.5.923-.306 1.203-1.251 1.714-1.916 1.961-2.52 4.128-4.769 6.855-6.282 2.381-1.33 3.955-.21 3.856 2.703-.091 2.774-1.013 5.294-2.291 7.673-.609 1.146-1.26 2.275-2.167 3.911 2.159-.674 3.881-.971 5.628-.875 1.532.088 2.999.429 4.342 1.225 1.36.796 1.508 1.697.635 3.115-.14.227-.289.455-.478.62-5.133 4.612-10.481 8.575-17.715 6.607-.42-.114-.865-.263-1.178.122-.981 1.19-2.332 1.741-3.576 2.467-1.096.648-1.063 1.785-1.03 2.852.123 4.62.263 9.23.469 13.842.503 11.312 1.912 22.529 3.354 33.736.099.77-.066 1.645.84 2.301 2.439-7.927 5.529-15.582 4.969-24.209-.223-3.42.074-6.876.667-10.271.14-.796.321-1.592.569-2.354.288-.892.782-1.67 1.755-1.688 1.005-.018 1.755.586 2.2 1.54.733 1.54.807 3.132.098 4.698-.288.647-.617 1.365-1.12 1.776-2.043 1.689-2.291 3.946-2.225 6.518.074 2.975-.123 5.967-.7 8.898-.099.49-.338 1.041.189 1.75 1.319-1.409 2.406-2.957 3.354-4.628.873-1.54 1.714-3.106 2.636-4.62.709-1.164 1.69-2.056 3.016-2.257 1.038-.158 2.06.087 2.62 1.155.552 1.058-.016 1.924-.684 2.659-1.178 1.321-2.562 2.398-4.169 2.958-1.285.446-2.134 1.294-2.892 2.423-.741 1.094-1.491 2.222-2.406 3.123-5.149 5.057-6.056 12.109-7.432 18.846-.428 2.082.371 4.462.659 6.702 1.212 9.501 2.522 18.985 4.788 28.286 2.677 10.98 6.756 21.4 10.999 31.742 2.884 7.034 5.957 13.972 8.957 20.945.065.149.23.236.354.359.577-.123.478-.639.478-1.05.123-9.134.749-18.277-.305-27.402-.75-6.466-1.525-12.932-2.258-19.397-2.389-21.164-3.518-42.372-2.406-63.703.47-8.959 1.253-17.865 2.456-26.746 1.911-14.068 4.259-28.032 7.316-41.864.503-2.266-.197-4.628-.214-6.956 0-.717-.659-.682-1.129-.813-2.109-.595-4.194-1.278-6.171-2.284-2.925-1.496-4.993-3.902-6.312-7.078-.23-.551-.585-1.207-.098-1.767.56-.648 1.285-.412 1.853-.044 1.863 1.207 3.683 2.476 5.554 3.753.577-.953-.132-1.452-.396-2.003-1.952-4.007-3.081-8.224-2.719-12.791.107-1.409.017-3.176 1.525-3.701 1.54-.534 2.381 1.015 3.213 2.108 2.027 2.686 3.527 5.713 4.713 8.933.297.796.313 1.785 1.302 2.485.181-.945.354-1.776.502-2.599.643-3.473 1.574-6.85 2.851-10.105.264-.665.544-1.33.923-1.925.857-1.347 1.961-1.373 2.801-.017.66 1.058.965 2.318 1.162 3.57.717 4.549 1.409 9.107.445 13.692.898.428 1.195-.289 1.557-.656 3.181-3.22 6.996-5.259 11.041-6.833 2.085-.814 3.016.087 2.62 2.528-.444 2.747-1.796 5.057-3.328 7.218-1.006 1.418-2.184 2.695-3.609 4.427 1.351 0 2.389-.035 3.419.009 1.681.061 3.354.315 4.894 1.085 2.011.997 2.143 2.423.396 3.84-1.425 1.147-3.057 1.882-4.705 2.538-2.538 1.006-5.182 1.47-7.86 1.654-1.986.13-3.889-.29-5.455-1.62-.923-.787-1.524-.769-2.332.07-.609.63-1.45.954-2.282 1.042-1.598.166-2.233 1.19-2.603 2.773-1.286 5.443-2.176 10.972-3.189 16.466-.882 4.795-1.623 9.616-2.431 14.419-.057.341-.115.682.165.962.148-.078.371-.113.437-.236 2.76-5.468 5.957-10.744 6.344-17.227.025-.446.091-.91.214-1.338.528-1.873 1.747-2.599 3.222-1.925 1.607.735 2.225 2.362 1.458 3.98-.544 1.155-1.359 2.083-2.43 2.669-.734.394-1.154.971-1.409 1.794-1.483 4.75-3.708 9.134-6.221 13.298-2.373 3.929-3.403 8.18-3.906 12.73-1.087 9.895-1.886 19.808-2.101 29.773-.008.35.058.709.083 1.033.494.175.692-.166.832-.455 4.243-8.531 8.932-16.798 12.549-25.688 1.153-2.834 2.002-5.748 2.307-8.845.23-2.336.535-4.68 1.31-6.903.758-2.196 1.812-2.905 3.328-2.362 1.698.603 2.579 2.677 1.97 4.654-.437 1.418-1.22 2.643-2.258 3.544-1.928 1.67-2.867 3.823-3.51 6.352-1.112 4.383-3.172 8.355-5.1 12.38-.923 1.916-1.87 3.823-2.818 5.748.775.56 1.153-.131 1.59-.429 2.917-1.96 5.175-4.558 6.608-7.97.445-1.068.997-2.091 1.541-3.106.379-.709.849-1.348 1.508-1.794.997-.674 1.944-.481 2.793.263.824.726.865 1.706.461 2.712-.527 1.32-1.474 2.266-2.644 2.782-1.928.849-3.288 2.292-4.598 3.998-2.052 2.686-4.771 4.541-7.613 6.133-1.088.613-1.838 1.427-2.456 2.573-1.895 3.508-3.419 7.262-5.668 10.542-.437.639-.346 1.374-.355 2.091-.173 11.602.445 23.151 1.426 34.708.931 10.998 2.463 21.908 3.567 32.879.264 2.608.355 5.232.536 7.848.066.963.181 1.925.28 2.905.923-.087.972-.822 1.203-1.339 3.741-8.53 6.526-17.445 9.212-26.404.255-.858.42-1.759.717-2.599 2.521-7.069 2.62-14.436 1.491-21.689-.956-6.133-3.362-11.776-8.742-15.18-1.582-.997-2.67-2.449-3.271-4.322-.264-.831-.214-1.627.42-2.248.601-.586 1.31-.726 2.101-.464 1.615.516 2.604 2.039 2.291 4.27-.215 1.504.14 2.309 1.318 3.027 1.574.945 2.637 2.485 3.592 4.103.346.578.454 1.365 1.294 1.759.156-1.698-.255-3.237-.445-4.795-.659-5.319-1.837-10.481-3.905-15.389a11.134 11.134 0 01-.75-2.581c-.214-1.33.066-2.538 1.227-3.299.989-.656 1.97-.411 2.827.245 1.063.814 1.392 2.012 1.128 3.36a8.456 8.456 0 01-1.194 2.974c-.544.84-.503 1.584-.182 2.52 2.752 8.172 3.387 16.755 4.178 25.311.123 1.339.239 2.669.593 4.27.873-1.689 1.014-3.307 1.335-4.838 3.526-17.131 7.069-34.262 10.464-51.428 1.434-7.253 2.546-14.584 3.716-21.899.362-2.283.519-4.593-.338-6.877-.33-.883-.593-1.364-1.533-1.303-1.68.114-3.345-.158-4.976-.613-2.835-.804-5.224-2.397-7.201-4.724a5.895 5.895 0 01-.973-1.566c-.362-.893.017-1.461.898-1.356a8.963 8.963 0 012.423.638c2.183.92 4.342 1.917 6.501 2.879.296.131.585.385 1.038.026-1.961-2.808-3.494-5.862-4.153-9.361-.354-1.882-.478-3.771-.255-5.67.14-1.181.783-1.566 1.763-1.059.593.307 1.096.805 1.607 1.27 2.323 2.099 4.119 4.715 5.883 7.287.881-.306.741-1.032.865-1.61.601-2.922 1.376-5.783 2.554-8.504.412-.945.7-2.17 1.994-2.126 1.442.053 1.953 1.26 2.315 2.485.849 2.86 1.22 5.81 1.212 8.828 0 .883-.174 1.793.148 2.703.906.14 1.302-.709 1.854-1.163 2.15-1.794 4.498-3.159 7.135-3.876 2.225-.613 3.263.385 2.859 2.843-.56 3.421-2.183 6.23-4.68 8.434-.708.621-1.458 1.19-2.183 1.768.305 1.014 1.128.708 1.705.9 1.533.5 3.008 1.138 4.301 2.17.396.316.89.692.684 1.313-.181.56-.708.709-1.236.752-2.167.184-4.334.394-6.509.543-2.604.183-5.199.306-7.613-1.076-.354-.202-.799-.464-1.154-.044-1.112 1.321-2.57 2.362-2.884 4.322-1.194 7.49-2.414 14.97-3.625 22.459-.058.35-.066.709.396 1.295 2.142-3.972 5.833-6.754 6.303-11.75.14-1.531.733-2.984 1.887-4.034 1.153-1.058 2.71-1.163 3.683-.27.931.848 1.046 2.239.255 3.709-.643 1.19-1.442 2.546-2.612 2.808-1.87.429-2.422 2.021-3.345 3.334-2.126 3.027-4.136 6.142-5.941 9.414-1.796 3.254-2.686 6.815-3.452 10.437-3.576 16.921-7.003 33.886-10.711 50.78-3.024 13.763-7.292 27.105-12.92 39.896-.708 1.61-1.079 3.404-2.389 4.716-.618.621-.354 1.732-.412 2.616a190.502 190.502 0 00.42 29.012c.808 8.828 1.986 17.603 3.288 26.361.131.884.362 1.759.543 2.616.503-.043.618-.402.717-.717a256.502 256.502 0 017.968-21.645c1.285-3.063 1.401-5.897.107-9.1-2.488-6.159-4.062-12.633-4.425-19.405-.412-7.848 1.294-15.267 3.725-22.555.263-.796.609-1.566 1.582-1.383.881.167 1.203.893 1.293 1.768.289 2.878.667 5.748.849 8.635.502 8.137.445 16.291.239 24.445-.066 2.485-.009 4.978-.009 7.524.956-.192.973-.936 1.187-1.461 2.785-6.684 5.66-13.325 8.775-19.843.511-1.067.453-1.68-.297-2.782-1.071-1.566-1.31-3.692-1.59-5.661-1.409-9.912-1.508-19.834.173-29.729.799-4.716 1.607-9.432 2.414-14.148.091-.533.239-1.058.355-1.583.148-.656.42-1.251 1.128-1.234.61.018 1.129.359 1.352 1.033.247.77.486 1.539.684 2.327 3.122 12.424 3.79 24.952 1.417 37.621-.083.446-.165.893.033 1.339.609-.061.725-.648.939-1.094 4.07-8.557 7.366-17.446 9.747-26.728.289-1.138.223-1.952-.428-2.993-3.065-4.873-5.883-9.895-7.745-15.486-2.538-7.62-3.362-15.477-2.991-23.517.041-.989-.214-2.415 1.17-2.634 1.318-.21 1.574 1.085 1.936 2.074 3.148 8.583 6.394 17.122 8.52 26.098.535 2.258.898 4.567 1.4 7.183.849-1.574.915-3.018 1.17-4.392 1.566-8.241 3.28-16.457 4.499-24.768.404-2.748-.618-5.32-1.022-7.971-.156-1.006-1.153-.84-1.886-.91-2.843-.271-5.661-.77-8.355-1.793-2.703-1.033-4.87-2.809-6.032-5.757-.296-.744-.667-1.584-.074-2.301.684-.831 1.516-.464 2.307-.105 2.233 1.015 4.474 2.047 6.716 3.036.667.297 1.376.507 2.092.761.058-.639-.206-.875-.428-1.137-4.441-5.084-5.702-11.313-5.578-18.041a7.71 7.71 0 01.107-1.076c.132-.805.189-1.715 1.079-1.96.948-.263 1.549.376 2.06 1.172 2.884 4.471 5.224 9.274 7.515 14.113.362.761.51 1.697 1.474 2.353.371-1.19.281-2.257.33-3.29.214-4.54.7-9.029 2.529-13.202.478-1.085.693-2.686 2.225-2.546 1.549.14 1.862 1.68 2.175 2.975 1.006 4.147 1.22 8.373.767 12.8 1.038-.315 1.301-1.33 1.787-2.03 1.871-2.739 4.071-5.057 6.897-6.606.725-.402 1.467-.927 2.356-.35 1.022.665.816 1.715.709 2.678-.346 3.219-1.64 6.054-3.18 8.775-.478.849-1.006 1.662-1.533 2.528.865.42 1.475-.236 2.142-.481 2.316-.848 4.639-1.566 7.111-1.443.42.017.84.026 1.252.096 3.065.525 3.51 1.671 1.541 4.173-2.999 3.806-6.732 6.177-11.412 6.658-2.587.263-5.174.569-7.769.499-.956-.026-1.442.236-1.698 1.391-.494 2.214-1.203 4.383-3.576 5.153-.56.184-.716.735-.79 1.278-1.245 9.134-3.041 18.154-4.606 27.218-.025.149.09.333.14.516.758.027.914-.699 1.203-1.189 6.039-10.141 13.628-18.794 21.95-26.738.626-.595 1.202-1.391 2.158-.691.923.682.503 1.584.313 2.45-.478 2.213-1.236 4.322-2.06 6.404-3.386 8.487-8.074 16.055-14.015 22.687-3.296 3.674-7.44 6.142-11.37 8.906-.882.621-1.541 1.26-1.846 2.398-1.648 6.089-3.757 11.995-6.163 17.778-.165.402-.437.787-.165 1.277.684.035.973-.586 1.343-1.006 6.32-7.078 13.571-12.914 21.11-18.356 1.738-1.26 3.501-2.493 5.224-3.771.692-.516 1.367-.717 2.051-.07.643.613.33 1.348.099 2.004-.56 1.627-1.384 3.106-2.323 4.488-5.134 7.56-10.918 14.445-17.872 20.106-4.375 3.561-9.236 6.203-14.271 8.478-1.038.472-1.853 1.023-2.405 2.178-5.331 11.085-10.308 22.354-14.741 33.903-.115.306-.362.604-.206.989.388.227.618-.079.849-.307 6.641-6.666 14.139-11.863 22.543-15.529 1.788-.779 3.559-1.601 5.331-2.398.774-.349 1.623-.848 2.34-.052.799.884-.017 1.654-.387 2.397-2.917 5.932-7.449 10.202-12.475 13.911-4.721 3.483-9.764 6.335-15.21 8.277-.56.201-1.112.403-1.664.604-3.477 1.277-6.205 3.281-7.226 7.471-.659 2.695-1.796 5.259-2.695 7.892-1.483 4.331-1.664 8.784-1.161 13.325.28 2.52.519 5.04.766 7.559.033.359.066.727.058 1.085-.017.691.189 1.636-.775 1.68-.857.035-.659-.892-.725-1.452-.453-3.955-.882-7.91-1.294-11.864-.156-1.487-.626-2.791-1.499-3.955-3.798-5.065-7.547-10.166-11.7-14.917-1.327-1.514-2.703-2.196-4.573-2.275-5.866-.227-11.7-.927-17.476-1.995-7.728-1.417-15.037-4.278-22.139-7.795-.231-.114-.445-.254-.668-.385-.37-.227-.782-.499-.741-.997.066-.683.667-.788 1.145-.788 2.513-.026 5.026-.052 7.539.018 9.368.271 18.44 2.327 27.355 5.31.544.184 1.047.595 1.945.21-2.011-2.519-3.881-5.013-5.924-7.331-.643-.727-1.286-1.4-1.722-2.275-.997-2.012-2.538-3.237-4.433-4.2-3.584-1.819-7.416-2.834-11.099-4.313-5.084-2.039-9.714-4.882-14.065-8.294-4.951-3.885-9.804-7.909-14.509-12.135-.322-.289-.659-.56-.964-.875-.247-.254-.478-.621-.223-.936.19-.237.569-.42.857-.42.396.009.816.157 1.187.341 9.566 4.812 19.132 9.607 28.673 14.471 2.101 1.076 4.111 2.38 6.163 3.578.14-.218.264-.332.396-.446zm103.479-89.792c-7.614 5.766-22.511 25.504-23.054 30.998.593-.884.848-1.365 1.186-1.767 3.757-4.506 7.556-8.968 11.082-13.693.528-.708 1.187-2.073 2.134-1.198.915.848-.412 1.513-.857 2.126-3.584 4.908-7.465 9.528-11.312 14.191-.511.621-1.187 1.172-1.418 2.222 7.614-3.613 20.228-22.258 22.239-32.879zm-42.005 26.711c-2.785 13.614-4.886 26.755-2.744 40.403.742-.498.561-1.093.594-1.601.189-3.071.337-6.141.543-9.204.305-4.593.618-9.195.989-13.78.066-.813-.074-2.152 1.096-2.038 1.112.105.56 1.33.527 2.021-.379 7.305-.774 14.611-1.26 21.908-.108 1.618-.297 3.202-.083 5.004 3.815-10.726 4.268-30.735.338-42.713zm-72.07 35.696c-2.464-6.413-22.173-23.788-27.792-24.515 5.932 10.211 12.491 19.633 23.548 24.13-.033-.629-.329-.813-.576-1.006-2.654-2.056-5.282-4.129-7.968-6.133-2.274-1.697-4.515-3.438-6.344-5.713a17.04 17.04 0 01-1.071-1.496c-.206-.315-.223-.682.057-.98.355-.376.775-.341 1.121-.026.313.288.56.665.832 1.006 1.17 1.426 2.406 2.773 3.856 3.867 4.589 3.473 9.269 6.807 13.661 10.578.157.148.404.183.676.288zm86.992 29.231c-11.569 4.165-21.579 10.867-30.083 21.051 1.409-.167 2.019-.831 2.695-1.304 4.968-3.508 9.92-7.052 14.88-10.578.981-.691 1.961-1.382 2.991-1.986.544-.323 1.129-.288 1.417.691a1698.744 1698.744 0 01-8.041 5.924c-2.612 1.907-5.241 3.779-7.861 5.669.115.175.239.341.354.516 9.311-4.645 18.135-9.982 23.648-19.983zm20.845-53.483c-11.354 7.612-21.925 16.16-30.123 27.735 1.03-.158 1.763-.875 2.538-1.488 5.965-4.681 11.799-9.545 16.998-15.232.543-.595 1.269-1.794 2.027-.901.799.945-.552 1.461-1.039 2.012-3.93 4.48-8.272 8.443-12.845 12.135-.568.455-1.368.779-1.607 1.873 6.93-3.316 21.415-18.951 24.051-26.134zm-98.304-10.07c-2.892 11.304-5.842 22.17-3.972 34.252.28-.892.462-1.286.528-1.697.593-3.561 1.194-7.113 1.746-10.683.346-2.231.602-4.47.898-6.71.091-.674.322-1.33 1.055-1.251.898.105.585.883.536 1.478-.289 3.692-.808 7.358-1.426 10.998-.593 3.535-1.318 7.043-1.606 10.726.288-.148.469-.183.56-.297.165-.201.296-.437.404-.682 1.672-3.693 2.677-7.586 3.04-11.681.519-5.8-.115-11.557-.725-17.297-.223-2.213-.124-4.505-1.038-7.156zm-16.817 80.43c10.991 5.941 22.774 8.146 34.902 8.767-2.29-1.347-4.795-1.907-7.3-2.459-4.762-1.049-9.574-1.609-14.402-2.108-.462-.044-1.03.052-1.105-1.05 6.073-.262 11.956 1.251 17.913 1.837-9.747-3.421-19.668-5.564-30.008-4.987zm59.48-212.34c6.378-.858 9.517-2.442 12.722-6.396 1.961-2.424 3.576-5.084 4.458-8.68-7.778 2.643-12.837 7.988-17.18 15.075zm-26.654 15.319c-5.109 1.916-12.458 12.879-12.318 18.373 7.58-3.63 13.34-12.214 12.318-18.373zm-10.654 20.245c.907 2.415 2.728 2.573 4.466 2.424 4.993-.438 8.915-3.334 12.491-6.842.898-.884.692-1.514-.42-1.977-1.113-.455-2.274-.587-3.452-.473a14.788 14.788 0 00-7.877 3.194c-1.615 1.277-3.23 2.537-5.208 3.674zm-27.322 80.344c.874-7.332-2.101-12.923-5.125-16.283-.461-.507-1.03-.918-1.59-1.303-.626-.438-1.079-.14-1.417.516-.428.822-.47 1.732-.486 2.625-.058 3.097.89 5.853 2.653 8.268 1.664 2.283 3.601 4.26 5.965 6.177zM445.403 3.055c-3.609 4.593-5.479 18.364-3.304 23.141 5.57-6.93 4.977-14.786 3.304-23.141zm-43.529 57.831c1.928-2.248 2.761-4.488 3.049-6.868.651-5.346.033-10.604-1.59-15.713-.223-.709-.322-1.627-1.5-1.855-1.648 7.997-1.73 15.923.041 24.436zm-40.093 75.286c2.604 5.005 5.537 8.671 10.209 10.281 1.755.603 3.592.857 5.454.735.544-.035.997-.184 1.17-.797.149-.533-.197-.822-.527-1.111-3.032-2.572-5.982-5.267-9.508-7.051-1.953-.98-3.955-1.847-6.798-2.057zm150.139-24.488c-1.186-.805-2.175-.735-3.18-.595-2.76.385-5.364 1.33-7.803 2.764a656.512 656.512 0 00-7.432 4.48c-.453.28-1.186.271-1.153 1.269 3.435.017 6.855 0 10.208-.797 3.93-.936 6.839-3.517 9.36-7.121zM431.124 4.489c-2.232 6.125 2.11 17.499 7.894 20.7-.058-6.36-4.408-17.76-7.894-20.7zm-48.612 138.56c1.343-2.152 2.406-4.374 3.032-6.807 1.112-4.287.947-8.565-.256-12.799-.214-.753-.379-1.768-1.268-1.794-.833-.026-1.195.91-1.533 1.619-.824 1.714-1.079 3.578-1.178 5.485-.247 4.804.494 9.519 1.203 14.296zm-9.187 65.627c8.363 7.096 16.256 13.92 26.399 16.65-2.175-2.178-4.993-3.123-7.547-4.584-2.596-1.488-5.447-2.485-8.017-4.436.832-.805 1.367-.621 1.895-.342 5.24 2.818 10.76 5.014 15.786 8.303.421.272.833.963 1.475.359-2.991-3.01-25.484-15.118-29.991-15.95zM475.708 95.288c-1.252 6.71 2.027 18.259 10.34 21.085-3.089-7.262-6.179-14.261-10.34-21.085zm-29.234-65.505c1.146 1.566 2.316 2.634 3.898 2.747 4.746.333 9.113-1.04 13.133-3.736.355-.236.734-.55.693-1.05-.058-.69-.684-.7-1.129-.866-1.212-.437-2.48-.35-3.733-.41-4.474-.22-8.453 1.74-12.862 3.315zm22.519 98.463c-.544 6.754.338 13.298 2.48 19.939.61-1.172.041-1.89-.082-2.651-.182-1.067-.478-2.108-.66-3.167-.082-.473.107-.901.635-.954.428-.044.568.35.675.674.174.507.256 1.05.396 1.566 1.17 4.34 2.669 8.557 4.284 12.721.215.551.289 1.234 1.228 1.558-1.467-10.526-5.216-20.08-8.956-29.686zm-19.272 91.944c.387-9.379.75-18.732-.519-28.382-3.527 6.457-4.425 23.518-1.5 28.671-.107-1.041-.189-1.837-.263-2.633-.322-3.596-.643-7.192-.627-10.806 0-.665-.305-1.697.61-1.793 1.005-.105.742.988.791 1.627.157 1.977.222 3.963.371 5.95.197 2.476.272 4.978 1.137 7.366zm53.498-120.501c-4.309 1.854-11.09 11.977-11.609 17.314 5.504-2.353 11.478-11.251 11.609-17.314zm-17.442-51.183c-5.785 1.733-10.67 6.51-12.22 11.838 6.147.105 12.047-5.512 12.22-11.838zm2.719 67.596c3.444-5.162 4.507-17.962 1.977-22.223-2.579 4.725-3.741 17.21-1.977 22.223zm-15.919-75.286c-2.62 6.045-4.729 12.161-2.183 19.047 5.05-5.932 3.6-12.494 2.183-19.047zm-73.496 18.732c-1.285-7.42-4.985-13.448-9.335-19.108.742 7.725 3.18 14.48 9.335 19.108zm13.175 137.273c-2.422 5.749-3.057 25.837-1.129 30.465v-10.63c0-.727 0-1.453.074-2.161.05-.552.264-1.19.833-1.199.7-.009.601.717.609 1.225.025 1.172-.008 2.353.025 3.526.033 1.443.107 2.887.173 4.331.066 1.417.148 2.826.223 4.234.601-9.773.519-19.493-.808-29.791zm54.99-137.475c.239-5.494-3.675-13.114-7.49-14.82-.395 6.203 2.835 12.712 7.49 14.82zm-81.776 84.246c4.91-2.546 8.198-6.343 8.75-12.896-4.4 3.517-7.086 7.804-8.75 12.896zm38.799 76.257c-.914 4.541-1.475 9.082-1.285 13.701.025.525-.214 1.47.791 1.269 1.277-.263 1.104.665 1.12 1.47.017.997.017 1.986.042 2.983.024.884.065 1.759.098 2.642 1.088-7.454.495-14.777-.766-22.065zm46.001-107.413c1.879 4.576 8.874 7.691 14.139 6.518-2.019-1.89-7.243-4.313-14.139-6.518zm-92.035 37.306c-4.334-.682-8.016.735-11.131 3.929-.305.315-.585.708-.313 1.172.198.324.56.315.898.219 3.823-1.015 7.391-2.625 10.546-5.32zM484.409 63.45c-3.815-2.52-7.902-1.435-11.947-.954 3.749 3.211 7.885 1.234 11.947.954zm-86.877-1.374c-2.669-2.808-6.179-3.762-9.566-4.978 2.571 3.027 5.463 5.346 9.566 4.978zm38.726-35.74c-2.143-2.528-7.136-6.02-9.253-6.536 2.002 3.894 5.223 5.547 9.253 6.536zm-33.922 36.309c-.585.149-1.796-.49-1.516.892.239 1.19.997 2.266 1.557 3.369.124.245.396.253.659.192.808-.175 2.258-1.653 2.175-2.423-.115-1.12-1.095-1.453-1.853-1.934-.256-.149-.651-.07-1.022-.096zm51.966-5.993c2.183 2.94 5.207 4.383 8.388 3.998-2.027-1.855-6.238-3.867-8.388-3.998zm32.504 65.644c.033 1.61.594 2.984 1.228 3.08.676.105 1.928-2.056 1.772-3.202-.173-1.234-1.17-1.033-1.953-1.129-.906-.113-1.145.464-1.047 1.251zm-38.692-46.248c1.516-1.662 2.653-2.808 2.719-4.672.025-.638-.074-1.338-.774-1.496-.569-.13-.882.377-1.088.884-.61 1.479-1.022 2.984-.857 5.285zm-4.128-45.976c-.807-.63-1.911-.306-2.744-.936-.395-.306-.873-.079-.972.402-.148.77-.313 1.628.231 2.293.535.656 1.236.35 1.829.087.75-.332 1.524-.726 1.656-1.846zM415.107 84.71c-.849 1.969-1.253 3.605-1.022 5.477 1.928-1.855 2.101-2.642 1.022-5.477zm29.86 30.228c.37-1.128 1.112-2.082.313-3.263-.132-.193-.404-.341-.635-.123-1.013.954-.659 2.039-.23 3.124.024.061.14.07.552.262zm28.294-33.448c1.351-.63 1.986-1.54 2.439-2.615.132-.307.239-.735-.074-.99-.322-.262-.61.018-.849.237-.873.77-1.269 1.802-1.516 3.368zm-5.051-16.64c.865-.91 1.772-1.33 1.368-2.529-.148-.437-.676-.551-1.055-.376-1.195.56-.7 1.505-.313 2.905zm-81.941 14.235c-1.055 2.773-1.055 2.773-.025 4.514.272-1.409.626-2.677.025-4.514zm34.095 22.205c1.071-.648 2.389-1.05 2.62-3.202-1.566.796-2.381 1.706-2.62 3.202zm-42.384-8.96c-.511 2.162-.486 2.24 1.261 3.115-.223-1.155-.33-2.266-1.261-3.114zm65.273-40.473c.379-.236.552-.297.651-.42.453-.638.98-1.268.519-2.16-.132-.255-.412-.377-.618-.228-.626.437-.7 1.18-.725 1.898-.017.254.09.508.173.91zm8.033 37.648c-.84.393-1.409 1.032-1.606 2.327 1.137-.49 1.606-1.181 1.606-2.327zm-68.074 58.199c-.033-.516-.387-.831-.948-.919-.461-.07-.634.359-.576.665.115.595.346 1.26 1.063 1.207.379-.017.445-.454.461-.953zm55.855-20.631c.198-1.207.289-1.977-.75-2.353-.403.936.033 1.531.75 2.353zm34.054 25.189c.181-.954-.157-1.4-.758-2.222.082.7.066.971.148 1.181.124.297.321.56.61 1.041z" fill="#C49967"/></svg>