<svg width="21" height="21" fill="none" xmlns="http://www.w3.org/2000/svg"><path d="M15.65 3.574c-.625 0-1.138.527-1.138 1.17 0 .643.513 1.17 1.138 1.17.625 0 1.138-.527 1.138-1.17 0-.643-.513-1.17-1.138-1.17zm-5.075 1.505c-2.638 0-4.788 2.211-4.788 4.924 0 2.713 2.15 4.924 4.788 4.924 2.637 0 4.787-2.211 4.787-4.924 0-2.713-2.137-4.924-4.787-4.924zm0 8.074c-1.688 0-3.063-1.414-3.063-3.15s1.375-3.15 3.063-3.15c1.687 0 3.062 1.414 3.062 3.15s-1.362 3.15-3.062 3.15z" fill="#fff"/><path d="M14.375 20.006H6.612c-3.225 0-5.837-2.7-5.837-6.005V6.004C.775 2.687 3.4 0 6.612 0h7.763c3.225 0 5.837 2.7 5.837 6.004v7.985c.013 3.317-2.612 6.017-5.837 6.017zM6.612 1.877C4.4 1.877 2.6 3.73 2.6 6.004v7.985c0 2.275 1.8 4.127 4.012 4.127h7.763c2.212 0 4.012-1.852 4.012-4.127V6.004c0-2.275-1.8-4.127-4.012-4.127H6.612z" fill="#fff"/></svg>