<svg width="16" height="16" fill="none" xmlns="http://www.w3.org/2000/svg"><path d="M12.12 2.88c-.5 0-.91.41-.91.91s.41.91.91.91.91-.41.91-.91-.41-.91-.91-.91zM8.06 4.05c-2.11 0-3.83 1.72-3.83 3.83 0 2.11 1.72 3.83 3.83 3.83 2.11 0 3.83-1.72 3.83-3.83a3.83 3.83 0 00-3.83-3.83zm0 6.28c-1.35 0-2.45-1.1-2.45-2.45s1.1-2.45 2.45-2.45 2.45 1.1 2.45 2.45-1.09 2.45-2.45 2.45z" fill="#fff"/><path d="M11.1 15.66H4.89c-2.58 0-4.67-2.1-4.67-4.67V4.77C.22 2.19 2.32.1 4.89.1h6.21c2.58 0 4.67 2.1 4.67 4.67v6.21a4.671 4.671 0 01-4.67 4.68zM4.89 1.56C3.12 1.56 1.68 3 1.68 4.77v6.21c0 1.77 1.44 3.21 3.21 3.21h6.21c1.77 0 3.21-1.44 3.21-3.21V4.77c0-1.77-1.44-3.21-3.21-3.21H4.89z" fill="#fff"/></svg>