<svg width="103" height="67" fill="none" xmlns="http://www.w3.org/2000/svg"><path d="M73.77 32.4h-1.5v-4.49h26.5v5.06H74.52c0-.32-.33-.57-.75-.57zm-9 0v-5.78H37.78v5.78h26.99zm-35.16-7.61H4.32v1.42h25.85l-.56-1.42zm-.65-.57H4.04v.57H29.6c-.36 0-.64-.25-.64-.57z" stroke="#C49967" stroke-width=".3" stroke-miterlimit="10"/><path d="M30.27 26.47l-.1-.26H2.9l.87 1.7h26.5v-1.44zm-1.49 5.93h1.49v-4.49H3.77v5.06h24.25c0-.32.34-.57.76-.57zm.46 1.14h-.46c-.42 0-.76-.25-.76-.57H3.25c-.29 0-.53.23-.53.52 0 .29.24.52.53.52h26.1l-.11-.47z" stroke="#C49967" stroke-width=".3" stroke-miterlimit="10"/><path d="M29.36 34.01H3.24v.44h26.22l-.1-.44zm.72 3.87h-.26c0-.5-.07-1.61-.11-2.17H1.01s-.08.8.85 1.03c0 0-.39.88.54 1.14 0 0-.15 1.34.85 1.34h26.82v-1.34h.01zm42.39 0h.26c0-.5.07-1.61.11-2.17h28.7s.08.8-.85 1.03c0 0 .39.88-.54 1.14 0 0 .16 1.34-.85 1.34H72.48v-1.34h-.01zM36.97 7.03h-5.9v5.95h5.9V7.03zm34.5 0h-5.9v5.95h5.9V7.03zM29.6 23.66h.93v-.9H4.75v1.47h24.21c0-.32.28-.57.64-.57zm43.35 0h-.93v-.9H97.8v1.47H73.59c0-.32-.29-.57-.64-.57zM27.94 65.28v-.66h.42v-.66h.32l.53-2.21-.31-.04v-.66h.42v-.66h.33v-.66h.43v-20.5H3.26v26.71h24.13v-.66h.55zm46.67 0v-.66h-.43v-.66h-.32l-.52-2.21.31-.04v-.66h-.43v-.66h-.33v-.66h-.42v-20.5h26.82v26.71H75.16v-.66h-.55zM29.99 35.71H1.01L0 34.45h29.99v1.26z" stroke="#C49967" stroke-width=".3" stroke-miterlimit="10"/><path d="M27.97 39.23H12.13v1.07h15.84v-1.07zm-.46 1.07H12.59v.83h14.92v-.83zm-.59.83H13.18v24.82h13.74V41.13zm.59-12.29H12.64v2.93h14.87v-2.93zM38.4 59.73h-8.75v.66h8.75v-.66zm.33.66h-9.41v.66h9.41v-.66zm-.76-25.03l.4-1.83h-.55l-.35 1.83h-.4l.31-1.83h-.55l-.26 1.83h-.4l.22-1.83h-1.13l-.11 1.83h-.4l.07-1.83h-.55l-.02 1.83h-.4l-.02-1.83h-.55l.07 1.83h-.4l-.11-1.83h-1.13l.22 1.83h-.4l-.26-1.83h-.55l.31 1.83h-.4l-.35-1.83h-.59l.4 1.83h-.4s.13 1.83.13 2.52h8.42c0-.91.06-1.79.12-2.52h-.39zM37.7 6.31c0 .4-.32.72-.72.72h-5.9c-.4 0-.72-.32-.72-.72 0-.4.32-.72.72-.72h5.9c.39.01.72.33.72.72z" stroke="#C49967" stroke-width=".3" stroke-miterlimit="10"/><path d="M34.03 0s-2.95 3.6-2.95 5.12v.48h5.9v-.48c0-1.53-2.95-5.12-2.95-5.12zm.62 10.85V8.24c0-.35-.28-.63-.63-.63s-.63.28-.63.63v2.62h1.26v-.01zm-2.24 0V8.24c0-.35-.18-.63-.4-.63-.22 0-.4.28-.4.63v2.62h.8v-.01zm4.03 0V8.24c0-.35-.18-.63-.4-.63-.22 0-.4.28-.4.63v2.62h.8v-.01zm1.09 10.44h-7.01v2.36h7.01v-2.36zm1.57 2.93c0 .31-.29.57-.64.57H29.6c-.35 0-.64-.25-.64-.57 0-.31.29-.57.64-.57h8.86c.35.01.64.26.64.57zm.93 8.75c0 .31-.34.57-.76.57H28.78c-.42 0-.76-.25-.76-.57 0-.31.34-.57.76-.57h10.49c.42 0 .76.25.76.57zm-9.09-6.35h-.61l-.72-1.83h.72l.61 1.83zm1.35 0h-.6l-.46-1.83h.73l.33 1.83zm1.36 0h-.6l-.2-1.83h.73l.07 1.83zm1.36 0h-.61l.08-1.83h.72l-.19 1.83zm1.35 0h-.6l.34-1.83h.72l-.46 1.83zm1.36 0h-.61l.61-1.83h.72l-.72 1.83zm-7.63 8.74h-.4l-.45-1.82h.45l.4 1.82zm.9 0h-.4l-.35-1.82h.44l.31 1.82zm.91 0h-.41l-.25-1.82h.44l.22 1.82zm1.42 0h-.4l-.11-1.82h.44l.07 1.82zm.91 0h-.41l-.02-1.82h.45l-.02 1.82zm.9 0h-.4l.07-1.82h.45l-.12 1.82zm1.43 0h-.4l.21-1.82h.45l-.26 1.82zm.9 0h-.4l.31-1.82h.45l-.36 1.82zm.91 0h-.4l.4-1.82h.44l-.44 1.82z" stroke="#C49967" stroke-width=".3" stroke-miterlimit="10"/><path d="M37.72 26.62h-.61l.61-1.83h-.9l-.46 1.83h-.6l.34-1.83h-.9l-.19 1.83h-.61l.08-1.83h-.9l.07 1.83h-.6l-.2-1.83h-.89l.34 1.83h-.61l-.46-1.83h-.9l.61 1.83h-.61l-.06-.15v5.93h7.51v-5.93l-.06.15zm-.19-13.27c0 .21-.17.37-.38.37h-6.26a.37.37 0 01-.37-.37c0-.21.17-.38.37-.38h6.26c.21.01.38.18.38.38zm-.55 2.97h-5.91l-1.08-1.56h8.08l-1.09 1.56zm.98 21.56h-7.88v21.85h7.88V37.88zm1.2 23.17H28.9v.69h10.26v-.69zm.21 2.91H28.68l.53-2.21h9.63l.53 2.21zm.31 0H28.36v.66h11.32v-.66zm.44.66H27.94v.66h12.18v-.66zm.55.66H27.39v.66h13.28v-.66zm-3.7-51.55h-5.9v1.03h5.9v-1.03zm0 2.59h-5.9v4.97h5.9v-4.97zm35.59 19.39h28.98l1.01-1.26H72.56v1.26zm17.86 3.52H74.58v1.07h15.84v-1.07zm-.46 1.07H75.04v.83h14.92v-.83zm-.59.83H75.63v24.82h13.74V41.13zM72.94 24.79h25.29v1.42H72.38l.56-1.42zm16.97 4.05H75.04v2.93h14.87v-2.93zM72.9 59.73h-8.75v.66h8.75v-.66zm.33.66h-9.41v.66h9.41v-.66z" stroke="#C49967" stroke-width=".3" stroke-miterlimit="10"/><path d="M64.58 35.36l-.4-1.83h.55l.35 1.83h.4l-.31-1.83h.55l.26 1.83h.4l-.22-1.83h1.13l.11 1.83h.4l-.07-1.83h.55l.02 1.83h.4l.02-1.83h.55l-.07 1.83h.4l.11-1.83h1.13l-.22 1.83h.4l.26-1.83h.55l-.31 1.83h.4l.35-1.83h.55l-.4 1.83h.4s-.13 1.83-.13 2.52h-8.42c0-.91-.05-1.79-.12-2.52h.43zm.27-29.05c0 .4.32.72.72.72h5.9c.4 0 .72-.32.72-.72 0-.4-.32-.72-.72-.72h-5.9a.73.73 0 00-.72.72z" stroke="#C49967" stroke-width=".3" stroke-miterlimit="10"/><path d="M68.52 0s2.95 3.6 2.95 5.12v.48h-5.9v-.48c0-1.53 2.95-5.12 2.95-5.12zm-.63 10.85V8.24c0-.35.28-.63.63-.63s.63.28.63.63v2.62h-1.26v-.01zm2.25 0V8.24c0-.35.18-.63.4-.63.22 0 .4.28.4.63v2.62h-.8v-.01zm-4.04 0V8.24c0-.35.18-.63.4-.63.22 0 .4.28.4.63v2.62h-.8v-.01zm5.93 10.44h-7.01v2.36h7.01v-2.36zm-8.58 2.93c0 .31.29.57.64.57h8.86c.35 0 .64-.25.64-.57 0-.31-.29-.57-.64-.57h-8.86c-.35.01-.64.26-.64.57zm-.93 8.75c0 .31.34.57.76.57h10.49c.42 0 .76-.25.76-.57 0-.31-.34-.57-.76-.57h-10.5c-.41 0-.75.25-.75.57zm9.09-6.35h.6l.73-1.83h-.73l-.6 1.83zm-1.36 0h.61l.46-1.83h-.73l-.34 1.83zm-1.35 0h.6l.19-1.83h-.72l-.07 1.83zm-1.36 0h.6l-.07-1.83h-.72l.19 1.83zm-1.36 0h.61l-.34-1.83h-.72l.45 1.83zm-1.35 0h.6l-.6-1.83h-.73l.73 1.83zm7.63 8.74h.4l.45-1.82h-.45l-.4 1.82zm-.91 0h.41l.35-1.82h-.45l-.31 1.82zm-.9 0h.4l.26-1.82h-.44l-.22 1.82zm-1.43 0h.41l.11-1.82h-.45l-.07 1.82zm-.9 0h.4l.02-1.82h-.44l.02 1.82zm-.91 0h.41l-.07-1.82h-.45l.11 1.82zm-1.42 0h.4l-.22-1.82h-.44l.26 1.82zm-.91 0h.41l-.31-1.82h-.45l.35 1.82zm-.9 0h.4l-.4-1.82h-.45l.45 1.82z" stroke="#C49967" stroke-width=".3" stroke-miterlimit="10"/><path d="M64.83 26.62h.6l-.6-1.83h.9l.45 1.83h.61l-.34-1.83h.9l.19 1.83h.6l-.07-1.83h.9l-.07 1.83h.6l.19-1.83h.9l-.34 1.83h.61l.46-1.83h.89l-.6 1.83h.6l.06-.15v5.93h-7.5v-5.93l.06.15zm.19-13.27c0 .21.17.37.38.37h6.26c.21 0 .38-.17.38-.37a.38.38 0 00-.38-.38h-6.27c-.21.01-.37.18-.37.38zm.55 2.97h5.9l1.09-1.56h-8.08l1.09 1.56zm8.08 44.73H63.39v.69h10.26v-.69zm-10.47 2.91h10.68l-.52-2.21H63.7l-.52 2.21zm11 0H62.86v.66h11.32v-.66zm.43.66H62.43v.66h12.18v-.66zm.55.66H61.88v.66h13.28v-.66zm-3.69-51.55h-5.9v1.03h5.9v-1.03zm0 2.59h-5.9v4.97h5.9v-4.97zm.98 21.56h-7.88v21.85h7.88V37.88zm1.14-13.66h24.92v.57H72.95c.35 0 .64-.25.64-.57z" stroke="#C49967" stroke-width=".3" stroke-miterlimit="10"/><path d="M72.27 26.47l.11-.26h27.27l-.88 1.7h-26.5v-1.44zm1.04 7.07h.46c.42 0 .76-.25.76-.57h24.76c.29 0 .53.23.53.52 0 .29-.24.52-.53.52h-26.1l.12-.47z" stroke="#C49967" stroke-width=".3" stroke-miterlimit="10"/><path d="M73.19 34.01H99.3v.44H73.08l.11-.44zm-8.88 3.87c0-.91-.05-1.79-.12-2.52h-.01l-.28-1.14H38.64l-.28 1.14h-.01c-.07.72-.12 1.6-.12 2.52h-.26v21.85h.43v.66h.33v.66h.43v.69h-.31l.53 2.22h.31v.66h.43v.66h.55v.66h1.2c0-1.32-.74-1.32-.74-1.32V51.99c.71 0 .75-.53.74-1.16h-1.99v-1.25h.88c.5-11.5 10.51-13.12 10.51-13.12s10.01 1.62 10.51 13.12h.88v1.25h-1.99c0 .63.03 1.16.74 1.16v12.64s-.74 0-.74 1.32h1.2v-.66h.55v-.66h.43v-.67h.32l.53-2.22h-.31v-.69h.42v-.66h.33v-.66h.43V37.88h-.26zM40.86 26.62h-.96v5.78h.96v-5.78zm3.12 0h-.96v5.78h.96v-5.78zm3.11 0h-.96v5.78h.96v-5.78zm3.11 0h-.96v5.78h.96v-5.78zm3.11 0h-.96v5.78h.96v-5.78zm3.11 0h-.96v5.78h.96v-5.78zm3.11 0h-.96v5.78h.96v-5.78zm3.12 0h-.96v5.78h.96v-5.78z" stroke="#C49967" stroke-width=".3" stroke-miterlimit="10"/><path d="M61.79 49.57c-.5-11.5-10.51-13.12-10.51-13.12s-10.01 1.62-10.51 13.12h1.13c.52-10.24 9.39-11.69 9.39-11.69s8.87 1.45 9.39 11.69h1.11zm3.78-35.84h-.18c-.21 0-.38-.17-.38-.37 0-.21.17-.38.38-.38h.18v-1.62H36.98v1.61h.18c.21 0 .38.17.38.38s-.17.37-.38.37h-.18v.52h28.59v-.51zm-.54 1.81l-.52-.78h1.06v-.52H36.98v.52h1.09l-.55.78h27.51zm-26.57 9.25h25.63c-.35 0-.64-.25-.64-.57 0-.32.29-.57.64-.57h.93v-2.36h.55v-4.97l-.54-.78h-27.5l-.54.78v4.97h.55v2.36h.93c.35 0 .64.25.64.57 0 .32-.3.57-.65.57zm26.31 1.83v-.15l.06.15-.73-1.83H38.44l-.72 1.83.06-.15v.15h26.99zm-1.04 6.92h-.46c-.42 0-.76-.25-.76-.57 0-.31.34-.57.76-.57h-24c.42 0 .76.25.76.57 0 .31-.34.57-.76.57h-.46l-.02.09h24.97l-.03-.09z" stroke="#C49967" stroke-width=".3" stroke-miterlimit="10"/><path d="M63.76 33.62H38.79l-.15.61H63.9l-.14-.61zm-23.88 1.46v14.49h.88c.5-11.5 10.51-13.12 10.51-13.12s10.01 1.62 10.51 13.12h.88V35.08H39.88zm22.28-17.72H40.4v5.4h21.76v-5.4z" stroke="#C49967" stroke-width=".3" stroke-miterlimit="10"/><path d="M43.73 37.35c0 .62-.51 1.13-1.13 1.13-.62 0-1.13-.51-1.13-1.13a1.129 1.129 0 112.26 0z" stroke="#C49967" stroke-width=".3" stroke-miterlimit="10"/><path d="M43.15 37.35c0 .3-.24.55-.55.55-.3 0-.55-.24-.55-.55 0-.3.24-.55.55-.55.31 0 .55.25.55.55zm17.92 0c0 .62-.51 1.13-1.13 1.13a1.129 1.129 0 111.13-1.13z" stroke="#C49967" stroke-width=".3" stroke-miterlimit="10"/><path d="M60.49 37.35c0 .3-.24.55-.55.55-.3 0-.55-.24-.55-.55 0-.3.24-.55.55-.55.3 0 .55.25.55.55z" stroke="#C49967" stroke-width=".3" stroke-miterlimit="10"/></svg>