<svg width="86" height="62" fill="none" xmlns="http://www.w3.org/2000/svg"><path d="M85.61 58.69H.57v2.91h85.04v-2.91zM52.04 40.9h-7.73V14.58c0-1.36-1.1-2.46-2.46-2.46h-5.16V1.89c0-.89-.72-1.61-1.61-1.61H19.84c-.89 0-1.61.72-1.61 1.61v2.54a.77.77 0 001.54 0V1.89c0-.04.04-.08.08-.08h15.24c.04 0 .08.04.08.08V18.9h-1.85V6.6c0-.56-.38-1.04-.93-1.16-.39-.09-.77-.46-.85-.85-.12-.54-.61-.93-1.16-.93h-5.81c-.56 0-1.04.38-1.16.93-.09.39-.46.77-.85.85-.54.12-.93.61-.93 1.16v12.3h-1.85V7.49a.77.77 0 00-1.54 0v4.63h-5.16c-1.36 0-2.46 1.1-2.46 2.46V40.9H2.89c-.87 0-1.58.71-1.58 1.58v1.75c0 .87.71 1.58 1.58 1.58H3v4.37c0 1.32 1.08 2.4 2.4 2.4h7.84a.77.77 0 000-1.54h-1.93V45.8h32.32v5.24H16.3a.77.77 0 000 1.54h33.23c1.32 0 2.4-1.08 2.4-2.4v-4.37h.11c.87 0 1.58-.71 1.58-1.58v-1.75c.01-.87-.7-1.58-1.58-1.58zM36.7 17.04h1.77c.51 0 .93.42.93.93s-.42.93-.93.93H36.7v-1.86zM23.15 6.86c.76-.26 1.4-.9 1.67-1.67h5.29c.26.76.9 1.4 1.67 1.67V18.9h-8.62l-.01-12.04zM16.46 18.9c-.51 0-.93-.42-.93-.93s.42-.93.93-.93h1.77v1.85h-1.77v.01zm-4.31-4.32c0-.51.42-.93.93-.93h5.16v1.85h-1.77c-1.36 0-2.46 1.1-2.46 2.46 0 1.36 1.1 2.46 2.46 2.46h22.01c1.36 0 2.46-1.1 2.46-2.46 0-1.36-1.1-2.46-2.46-2.46h-1.77v-1.85h5.16c.51 0 .93.42.93.93v6.77c0 .51-.42.93-.93.93H13.09c-.51 0-.93-.42-.93-.93l-.01-6.77zm0 9.05c.29.12.6.18.93.18h28.78c.33 0 .64-.06.93-.18V40.9H12.16V23.63h-.01zM9.77 51.06H5.4a.87.87 0 01-.87-.87v-4.37h5.24v5.24zm40.63-.87c0 .48-.39.87-.87.87h-4.37v-5.24h5.24v4.37zm1.69-5.95c0 .03-.02.05-.05.05H2.89c-.03 0-.05-.02-.05-.05v-1.75c0-.03.02-.05.05-.05h49.15c.03 0 .05.02.05.05v1.75z" fill="#C2986A"/><path d="M27.47 12.13c-1.36 0-2.46 1.1-2.46 2.46 0 1.36 1.1 2.46 2.46 2.46 1.36 0 2.46-1.1 2.46-2.46 0-1.36-1.11-2.46-2.46-2.46zm0 3.38c-.51 0-.93-.42-.93-.93s.42-.93.93-.93.93.42.93.93c-.01.52-.42.93-.93.93zm0-5.24c.42 0 .77-.34.77-.77V7.81a.77.77 0 00-1.54 0V9.5c0 .43.34.77.77.77zm4.58 18.91a3.314 3.314 0 00-4.35-.02c-.08.07-.16.14-.23.22a3.314 3.314 0 00-4.58-.2 3.3 3.3 0 00-1.12 2.38c-.03.91.32 1.8.97 2.44l3.59 3.59a1.621 1.621 0 002.28 0L32.2 34c.64-.64.99-1.53.97-2.44-.03-.93-.43-1.77-1.12-2.38zm-.94 3.73l-3.59 3.59c-.03.03-.08.03-.11 0l-3.59-3.59c-.35-.35-.53-.81-.52-1.31.02-.49.23-.95.6-1.28.33-.29.75-.43 1.17-.43a1.736 1.736 0 011.67 1.17.763.763 0 001.44 0c.1-.29.28-.54.51-.75.66-.57 1.68-.56 2.33.01.37.33.59.78.6 1.28.03.5-.16.96-.51 1.31z" fill="#C2986A"/></svg>