<svg width="87" height="62" fill="none" xmlns="http://www.w3.org/2000/svg"><path d="M86.95 58.69H1.91v2.91h85.04v-2.91zM49.86 23.13H32.39c-1.45 0-2.62 1.17-2.62 2.62v24.46c0 1.45 1.17 2.62 2.62 2.62h17.47c1.45 0 2.62-1.17 2.62-2.62V25.75c0-1.45-1.18-2.62-2.62-2.62zm-9.61 27.95h-7.86a.87.87 0 01-.87-.87V44.1h8.73v6.98zm0-8.74h-8.73v-6.99h8.73v6.99zm10.48 7.87c0 .48-.39.87-.87.87H42v-6.99h8.73v6.12zm0-7.87H42v-6.99h8.73v6.99zm0-8.73H31.51v-7.86c0-.48.39-.87.87-.87h17.47c.48 0 .87.39.87.87v7.86h.01z" fill="#C2986A"/><path d="M48.11 26.62H34.13a.87.87 0 00-.87.87v3.49c0 .48.39.87.87.87h13.98c.48 0 .87-.39.87-.87V27.5c0-.49-.39-.88-.87-.88zm-.87 3.5H35.01v-1.75h12.23v1.75zm-10.48 7.86v-1.75h-1.75v1.75h-1.75v1.74h1.75v1.75h1.75v-1.75h1.74v-1.74h-1.74zm12.22 0h-5.24v1.75h5.24v-1.75zm-10.63 8.48l-1.23-1.24-1.24 1.24-1.23-1.24-1.24 1.24 1.24 1.23-1.24 1.24 1.24 1.23 1.23-1.23 1.24 1.23 1.23-1.23-1.23-1.24 1.23-1.23zm10.63.25h-5.24v1.75h5.24v-1.75zm-1.74 2.19h-1.75v.87h1.75v-.87zm0-3.5h-1.75v.87h1.75v-.87z" fill="#C2986A"/><path d="M35.01.42H9.68v.01c-.23 0-.45.09-.62.25L.33 9.41c-.16.16-.25.39-.25.62H.07v41.05c0 .96.78 1.75 1.75 1.75h26.2v-1.75h-5.24v-2.62h1.75c.48 0 .87-.39.87-.87v-4.37a.87.87 0 00-.87-.87h-1.75v-2.62h1.75c.48 0 .87-.39.87-.87v-4.37a.87.87 0 00-.87-.87h-.02a8.733 8.733 0 00-5.2-15.74 8.728 8.728 0 00-8.75 8.72 8.706 8.706 0 003.52 7.02H7.07a.87.87 0 00-.87.87v3.49H4.45a.87.87 0 00-.87.87v4.37c0 .48.39.87.87.87H6.2v2.62H4.45a.87.87 0 00-.87.87v3.49H1.83V10.9h6.99c.96 0 1.75-.78 1.75-1.75V2.16h24.46v19.22h1.75V2.16A1.78 1.78 0 0035.01.42zM23.65 44.09v2.62H7.93v-2.62h15.72zM12.3 26.62a6.99 6.99 0 1113.981.001A6.99 6.99 0 0112.3 26.62zm-4.37 8.74h15.72v2.62H7.93v-2.62zm-2.62 6.98v-2.62h15.72v2.62H5.31zm0 6.12h15.72v2.62H5.31v-2.62zM8.8 9.15H3.05L8.8 3.4v5.75zm40.18-4.37h-1.75a.87.87 0 00-.87-.87h-.87V1.29a.87.87 0 00-.87-.87h-3.49a.87.87 0 00-.87.87v2.62h-.87a.87.87 0 00-.87.87v16.6h1.75V5.66h5.24v15.72h1.75V6.53h1.75v11.36h1.75V6.53c-.03-.96-.81-1.75-1.78-1.75zm-5.24-.87H42V2.16h1.75v1.75h-.01z" fill="#C2986A"/><path d="M28.02 7.41H13.17v1.75h14.85V7.41zm5.24 5.24H3.56v1.75h29.7v-1.75zm-19.22 3.49H3.56v1.75h10.48v-1.75zm19.22 0H25.4v1.75h7.86v-1.75zm-11.3 7.82a.21.21 0 00-.16-.06h-1.19c-.08-.38-.23-.72-.44-1h1.62c.06 0 .12-.02.16-.06.04-.04.06-.09.06-.16v-.71c0-.06-.02-.12-.06-.16a.21.21 0 00-.16-.06h-5.77c-.06 0-.12.02-.16.06-.04.04-.06.09-.06.16v.92c0 .06.02.11.07.16.04.04.1.07.16.07h1.01c.98 0 1.59.26 1.86.78h-2.86c-.06 0-.12.02-.16.06-.04.04-.06.09-.06.16v.71c0 .06.02.12.06.16.04.04.09.06.16.06H19c-.1.38-.34.67-.71.87-.37.2-.86.3-1.47.3h-.78c-.06 0-.11.02-.16.07-.04.04-.07.1-.07.16v.88c0 .06.02.11.06.15.89.94 2.04 2.26 3.45 3.96.04.06.1.08.17.08h1.35c.1 0 .16-.04.2-.12.05-.08.04-.16-.03-.24-1.35-1.65-2.41-2.89-3.18-3.72.79-.09 1.42-.35 1.91-.76.49-.42.79-.96.89-1.62h1.16c.06 0 .12-.02.16-.06.04-.04.06-.09.06-.16v-.71a.195.195 0 00-.05-.17z" fill="#C2986A"/></svg>