<svg width="86" height="60" fill="none" xmlns="http://www.w3.org/2000/svg"><path d="M85.04 56.38H0v2.91h85.04v-2.91zM48.06.02H3.04a2.601 2.601 0 000 5.2v35.5c0 .48.39.87.87.87h10.32l-5.8 7.25 1.35 1.08 6.67-8.33h8.24v1.89a2.593 2.593 0 101.73 4.89 2.593 2.593 0 000-4.89v-1.89h8.24l6.67 8.33 1.35-1.08-5.8-7.25H47.2c.48 0 .87-.39.87-.87V5.22c1.43 0 2.6-1.16 2.6-2.6 0-1.44-1.18-2.6-2.61-2.6zM25.55 46.78a.87.87 0 11.001-1.741.87.87 0 01-.001 1.741zm20.78-6.93H4.77V5.22h41.56v34.63zm1.73-36.37H3.04a.87.87 0 010-1.74h45.02a.87.87 0 010 1.74z" fill="#C2986A"/><path d="M22.08 27.73H8.23v1.73h13.85v-1.73zm0 3.46H8.23v1.73h13.85v-1.73zm-3.46 3.46H8.23v1.73h10.39v-1.73zm3.47-10.39h-6.93v1.73h6.93v-1.73zm20.77-12.12H29.01v1.73h13.85v-1.73zm0 3.47H29.01v1.73h13.85v-1.73zm-3.46 3.46H29.01v1.73H39.4v-1.73zm3.47-10.39h-6.93v1.73h6.93V8.68zm-27.71-.87c-3.83 0-6.93 3.1-6.93 6.93 0 3.82 3.1 6.92 6.93 6.93 3.83 0 6.93-3.1 6.93-6.93 0-3.83-3.11-6.93-6.93-6.93zm.89 1.82c1.32.23 2.5.97 3.3 2.05l-3.32 1.66.02-3.71zm-3.89.87c.64-.45 1.38-.75 2.16-.88l-.03 4.77-3.38 3.33a5.19 5.19 0 011.25-7.22zm4.51 9.21a5.145 5.145 0 01-4.54-.75l3.56-3.51 4.44-2.22c.83 2.74-.71 5.64-3.46 6.48zm12.34 12.35h-1.73v4.33h1.73v-4.33zm13.85-1.73h-1.73v6.06h1.73v-6.06zm-10.39-.87h-1.73v6.93h1.73v-6.93zM35.94 26h-1.73v10.39h1.73V26zm3.46 2.59h-1.73v7.79h1.73v-7.79zm-25.98-4.33h-1.73v1.73h1.73v-1.73zM34.2 8.68h-1.73v1.73h1.73V8.68z" fill="#C2986A"/></svg>