<svg width="86" height="63" fill="none" xmlns="http://www.w3.org/2000/svg"><path d="M85.61 59.33H.57v2.91h85.04v-2.91zM51.03 16.51h-9.52v-4.33c0-.02-.01-.04-.01-.05 0-.08-.02-.15-.04-.22-.01-.03-.02-.05-.03-.08a.852.852 0 00-.17-.25L30.87 1.19a.852.852 0 00-.25-.17c-.03-.01-.05-.02-.08-.03a.856.856 0 00-.23-.05c-.01 0-.03-.01-.05-.01H7.75c-2.39 0-4.33 1.94-4.33 4.33v39.83c0 2.39 1.94 4.33 4.33 4.33h18.27a4.335 4.335 0 004.24 3.46h20.78c2.39 0 4.33-1.94 4.33-4.33V20.84c-.02-2.39-1.95-4.33-4.34-4.33zm-12.48-5.2h-6.57a.87.87 0 01-.87-.87V3.88l7.44 7.43zM5.14 45.08V5.25c0-1.43 1.16-2.6 2.6-2.6h21.65v7.79c0 1.43 1.16 2.6 2.6 2.6h7.79v3.46h-9.52c-2.39 0-4.33 1.94-4.33 4.33v26.84H7.75a2.589 2.589 0 01-2.61-2.59zm48.49 3.46c0 1.43-1.16 2.6-2.6 2.6H30.25c-1.43 0-2.6-1.16-2.6-2.6v-27.7c0-1.43 1.16-2.6 2.6-2.6h20.78c1.43 0 2.6 1.16 2.6 2.6v27.7z" fill="#C2986A"/><path d="M47.57 19.97H33.72c-2.39 0-4.33 1.94-4.33 4.33v3.46c0 2.39 1.94 4.33 4.33 4.33h13.85c2.39 0 4.33-1.94 4.33-4.33V24.3c-.01-2.39-1.94-4.33-4.33-4.33zm2.59 7.79c0 1.43-1.16 2.6-2.6 2.6H33.71c-1.43 0-2.6-1.16-2.6-2.6V24.3c0-1.43 1.16-2.6 2.6-2.6h13.85c1.43 0 2.6 1.16 2.6 2.6v3.46zm-17.31 6.06a3.461 3.461 0 000 6.92 3.461 3.461 0 000-6.92zm0 5.2a1.73 1.73 0 010-3.46c.95 0 1.73.78 1.73 1.73s-.78 1.73-1.73 1.73zm7.79-5.2a3.461 3.461 0 000 6.92 3.461 3.461 0 000-6.92zm0 5.2a1.73 1.73 0 010-3.46c.95 0 1.73.78 1.73 1.73s-.77 1.73-1.73 1.73zm-7.79 3.46a3.461 3.461 0 000 6.92 3.461 3.461 0 000-6.92zm0 5.2c-.96 0-1.73-.78-1.73-1.73s.78-1.73 1.73-1.73 1.73.78 1.73 1.73-.78 1.73-1.73 1.73zm7.79-5.2a3.461 3.461 0 000 6.92 3.461 3.461 0 000-6.92zm0 5.2c-.96 0-1.73-.78-1.73-1.73s.78-1.73 1.73-1.73 1.73.78 1.73 1.73-.77 1.73-1.73 1.73zm7.79-13.86c-1.91 0-3.46 1.55-3.46 3.46v8.66a3.461 3.461 0 006.92 0v-8.66c0-1.91-1.55-3.46-3.46-3.46zm1.73 12.12c0 .96-.78 1.73-1.73 1.73s-1.73-.78-1.73-1.73v-8.66c0-.96.78-1.73 1.73-1.73s1.73.78 1.73 1.73v8.66zM12.32 16.25c.34.34.89.34 1.22 0l7.79-7.79a.863.863 0 00-1.22-1.22l-7.79 7.79c-.34.34-.34.88 0 1.22zm4.94-1.47a2.601 2.601 0 105.202-.002 2.601 2.601 0 00-5.202.002zm3.46 0a.87.87 0 11-1.742-.001.87.87 0 011.742 0zm-6.92-3.47a2.601 2.601 0 10-.003-5.203 2.601 2.601 0 00.003 5.203zm0-3.46a.87.87 0 11-.001 1.741.87.87 0 010-1.741zM9.47 24.3h10.39a.87.87 0 000-1.74H9.47a.87.87 0 000 1.74zm12.12 1.73H9.47a.87.87 0 000 1.74h12.12a.87.87 0 000-1.74zm-8.66 3.46H9.47a.87.87 0 000 1.74h3.46a.87.87 0 000-1.74zm8.66 0H16.4a.87.87 0 000 1.74h5.19a.87.87 0 000-1.74z" fill="#C2986A"/></svg>