<svg width="86" height="60" fill="none" xmlns="http://www.w3.org/2000/svg"><path d="M85.04 56.73H0v2.91h85.04v-2.91zM43.79 16.59l-1.35-1.04a.873.873 0 00-1.22.16l-1.44 1.87-.07-.05c-.46-.36-1.13-.27-1.48.2L22.02 38.88c-.01.02-.02.03-.03.05-.01.01-.02.03-.03.04-.02.03-.03.07-.04.1l-2.12 6.1a.83.83 0 00.79 1.11c.16 0 .33-.05.47-.14l5.35-3.63a.55.55 0 00.09-.07l.03-.03c.01-.01.03-.03.04-.05l14.6-19.03.43.33-5.98 7.79a.69.69 0 00.13.98c.13.1.28.14.43.14.21 0 .42-.09.56-.27l6.16-8.03c.37-.48.28-1.18-.2-1.55l-.67-.52.77-1c.35-.46.27-1.13-.2-1.48l-.07-.05 1.44-1.87c.28-.37.2-.92-.18-1.21zM21.67 44.03l1.24-3.58 1.89 1.45-3.13 2.13zm4.2-3.08l-2.32-1.78 15.58-20.31 2.32 1.78-15.58 20.31zM41.4 18.83l-.51-.39L42 16.99l.51.39-1.11 1.45zm-8.69 3.41H5.05c-.39 0-.7.31-.7.7 0 .39.31.7.7.7H32.7c.39 0 .7-.31.7-.7.01-.39-.31-.7-.69-.7zM26 29.47H5.05c-.39 0-.7.31-.7.7 0 .39.31.7.7.7H26c.39 0 .7-.31.7-.7.01-.38-.31-.7-.7-.7zm-8.29 14.48H5.05c-.39 0-.7.31-.7.7 0 .39.31.7.7.7h12.66c.39 0 .7-.31.7-.7 0-.39-.31-.7-.7-.7zm15 0h-6.2c-.39 0-.7.31-.7.7 0 .39.31.7.7.7h6.2c.39 0 .7-.31.7-.7 0-.39-.32-.7-.7-.7z" fill="#C2986A"/><path d="M37.27 17.49c.39 0 .7-.31.7-.7V12c0-.03-.01-.06-.01-.09-.01-.03-.01-.06-.02-.09 0-.01-.01-.01-.01-.02-.01-.03-.02-.05-.03-.08-.01-.03-.03-.05-.05-.08 0-.01-.01-.01-.01-.02-.02-.02-.04-.05-.06-.07L26.58.35c-.02-.02-.05-.04-.07-.06-.01 0-.01-.01-.02-.01-.02-.02-.05-.03-.08-.05-.03-.01-.05-.02-.08-.03-.01 0-.01-.01-.02-.01a.292.292 0 00-.09-.02c-.03-.01-.06-.01-.09-.01H1.49C.69.16.03.81.03 1.62V48c0 .8.65 1.46 1.46 1.46h35.03c.8 0 1.46-.65 1.46-1.46V33.9c0-.39-.31-.7-.7-.7-.39 0-.7.31-.7.7v14.07c0 .03-.02.05-.05.05H1.49c-.03 0-.05-.02-.05-.05V1.6c0-.03.02-.05.05-.05h23.88v9.72c0 .82.66 1.48 1.48 1.48h9.72v4.05c0 .38.32.69.7.69zm-10.42-6.15c-.04 0-.08-.04-.08-.08V2.53l8.81 8.81h-8.73z" fill="#C2986A"/><path d="M17.32 10.14l-5.87-5.51a.708.708 0 00-.96 0l-5.87 5.51c-.28.27-.3.71-.03.99s.71.3.99.03l5.39-5.06 5.39 5.06c.14.13.31.19.48.19.19 0 .37-.07.51-.22.27-.28.25-.72-.03-.99z" fill="#C2986A"/><path d="M15.36 11.04l-3.59-3.37a1.16 1.16 0 00-1.59 0l-3.59 3.37c-.23.22-.37.53-.37.85v4.91c0 .64.52 1.16 1.16 1.16h7.18c.64 0 1.16-.52 1.16-1.16v-4.91c0-.32-.13-.63-.36-.85zm-3.87 5.51h-1.03v-2.43h1.03v2.43zm1.4 0v-2.88a.96.96 0 00-.96-.96h-1.92a.96.96 0 00-.96.96v2.88H7.63V12l3.35-3.14L14.32 12v4.56h-1.43v-.01zm6.87 20.16h-7.83c-.39 0-.7.31-.7.7 0 .39.31.7.7.7h7.83c.39 0 .7-.31.7-.7 0-.38-.31-.7-.7-.7zm-12.18 0H5.14c-.39 0-.7.31-.7.7 0 .39.31.7.7.7h2.44c.39 0 .7-.31.7-.7 0-.38-.31-.7-.7-.7z" fill="#C2986A"/></svg>