<svg width="86" height="64" fill="none" xmlns="http://www.w3.org/2000/svg"><path d="M85.96 60.14H.92v2.91h85.04v-2.91zM28.4 20.78v5.19h27.71v-5.19H28.4zm25.97 3.46H30.13v-1.73h24.24v1.73zm-24.24-5.19h1.73v-1.31l10.39-7.99 10.39 7.99v1.31h1.73v-2.16L42.25 7.57l-12.12 9.32v2.16zM56.1 44.16c0-2.43-.84-4.81-2.35-6.71l-.76-.95a2.645 2.645 0 00-3.81-.35v-1.52h-5.19v5.19h2.65c-.6 1.36-.92 2.83-.92 4.33 0 2.57 1.88 4.7 4.33 5.12v2.68h-4.33v-8.66h-6.93v8.66h-8.66v-2.68a5.202 5.202 0 004.33-5.12c0-2.43-.84-4.81-2.35-6.71l-.76-.95c-.51-.64-1.27-1-2.08-1s-1.57.37-2.08 1l-.76.95c-1.52 1.9-2.35 4.28-2.35 6.71 0 2.57 1.88 4.7 4.33 5.12v2.68h-7.79v-8.66h-6.93v8.66H8.5v-2.68a5.202 5.202 0 004.33-5.12c0-2.16-.66-4.28-1.88-6.06h1.01V32.9H6.77v2.76c-.47.16-.9.44-1.22.84l-.76.95c-1.52 1.9-2.35 4.28-2.35 6.71 0 2.57 1.88 4.7 4.33 5.12v2.68h-2.6v-2.6H2.44v4.33h53.67v-4.33h-1.73v2.6h-2.6v-2.68a5.2 5.2 0 004.32-5.12zM8.48 34.63h1.73v1.73h-.65c-.3-.33-.67-.56-1.08-.71v-1.02zm-1.73 8.66v4.21c-1.49-.39-2.6-1.73-2.6-3.34 0-2.04.7-4.04 1.97-5.63l.76-.95a.95.95 0 01.73-.35c.28 0 .55.13.73.35l.76.95a9.055 9.055 0 011.97 5.63c0 1.61-1.11 2.95-2.6 3.34v-4.21H6.75zm12.12 8.66h-3.46v-6.93h3.46v6.93zm9.53-8.66v4.21c-1.49-.39-2.6-1.73-2.6-3.34 0-2.04.7-4.04 1.97-5.63l.76-.95a.934.934 0 011.46 0l.76.95a9.054 9.054 0 011.97 5.63c0 1.61-1.11 2.95-2.6 3.34v-4.21H28.4zm15.58 8.66h-3.46v-6.93h3.46v6.93zm1.73-13.85v-1.73h1.73v1.73h-1.73zm4.33 5.19v4.21c-1.49-.39-2.6-1.73-2.6-3.34 0-2.04.7-4.04 1.97-5.63l.76-.95a.934.934 0 011.46 0l.76.95a9.054 9.054 0 011.97 5.63c0 1.61-1.11 2.95-2.6 3.34v-4.21h-1.72z" fill="#C2986A"/><path d="M31.86 27.71h-1.73v6.93h1.73v-6.93zm22.51 0h-1.73v6.93h1.73v-6.93zm-5.19 0h-5.19v5.19h5.19v-5.19zm-1.74 3.46h-1.73v-1.73h1.73v1.73zm-6.92-3.46h-5.19v5.19h5.19v-5.19zm-1.73 3.46h-1.73v-1.73h1.73v1.73zM18.87 12.12h-5.19v5.19h5.19v-5.19zm-1.73 3.46h-1.73v-1.73h1.73v1.73zm8.66-3.46h-5.19v5.19h5.19v-5.19zm-1.73 3.46h-1.73v-1.73h1.73v1.73zm-12.13-3.46H6.75v5.19h5.19v-5.19zm-1.73 3.46H8.48v-1.73h1.73v1.73zm8.66 3.47h-5.19v5.19h5.19v-5.19zm-1.73 3.46h-1.73v-1.73h1.73v1.73zm8.66-3.46h-5.19v5.19h5.19v-5.19zm-1.73 3.46h-1.73v-1.73h1.73v1.73zm-12.13-3.46H6.75v5.19h5.19v-5.19zm-1.73 3.46H8.48v-1.73h1.73v1.73zm8.66 3.46h-5.19v5.19h5.19v-5.19zm-1.73 3.47h-1.73v-1.73h1.73v1.73zm8.66-3.47h-5.19v5.19h5.19v-5.19zm-1.73 3.47h-1.73v-1.73h1.73v1.73zM6.75 31.17h5.19v-5.19H6.75v5.19zm1.73-3.46h1.73v1.73H8.48v-1.73zm5.2 10.39h5.19v-5.2h-5.19v5.2zm1.73-3.47h1.73v1.73h-1.73v-1.73zm5.19 3.47h5.19v-5.2H20.6v5.2zm1.73-3.47h1.73v1.73h-1.73v-1.73zm12.99 5.2h5.19v-5.19h-5.19v5.19zm1.73-3.47h1.73v1.73h-1.73v-1.73z" fill="#C2986A"/><path d="M4.15 10.39H28.4v4.33h1.73V8.66H2.42v28.57h1.73V10.39zm2.6-5.2H25.8v1.73h1.73V3.46H25.8V0H6.75v3.46H5.02v3.46h1.73V5.19zm1.73-3.46h15.58v1.73H8.48V1.73z" fill="#C2986A"/></svg>