<svg width="86" height="60" fill="none" xmlns="http://www.w3.org/2000/svg"><path d="M85.96 56.5H.92v2.91h85.04V56.5zM47.23 23.12h-19.7c-.45 0-.82.37-.82.82 0 .45.37.82.82.82h19.7c.45 0 .82-.37.82-.82 0-.45-.37-.82-.82-.82zm0 3.28h-19.7c-.45 0-.82.37-.82.82 0 .45.37.82.82.82h19.7c.45 0 .82-.37.82-.82 0-.45-.37-.82-.82-.82zm0 3.29h-19.7c-.45 0-.82.37-.82.82 0 .45.37.82.82.82h19.7c.45 0 .82-.37.82-.82 0-.45-.37-.82-.82-.82zm-4.1-21.34c-.45 0-.82.37-.82.82v4.1h-4.1c-.45 0-.82.37-.82.82a5.75 5.75 0 0011.5 0c0-3.18-2.59-5.74-5.76-5.74zm4.08 6.15a4.1 4.1 0 01-4.08 3.69 4.1 4.1 0 01-4.02-3.28h4.02c.45 0 .82-.37.82-.82v-4.02c2.06.42 3.47 2.34 3.26 4.43zm-19.68 5.34h9.03c.45 0 .82-.37.82-.82 0-.45-.37-.82-.82-.82h-4.31a10.86 10.86 0 004.44-8.21c0-.45-.37-.82-.82-.82-.45 0-.82.37-.82.82 0 3.09-2.76 7.59-6.69 8.15V9.99c0-.45-.37-.82-.82-.82-.45 0-.82.37-.82.82v9.03c0 .22.09.43.24.58.15.15.35.24.57.24z" fill="#C2986A"/><path d="M49.69 3.42H31.55A4.1 4.1 0 0027.53.14a4.1 4.1 0 00-4.02 3.28h-5.12A17.44 17.44 0 0015.77.35a.825.825 0 00-1.1 0c-.99.92-1.87 1.95-2.62 3.07H5.37c-1.36 0-2.46 1.1-2.46 2.46v29.55c0 1.36 1.1 2.46 2.46 2.46h14.68l-4.5 7.8a2.49 2.49 0 00-.25 1.87c.17.63.58 1.17 1.15 1.5.56.33 1.24.41 1.87.25.63-.17 1.17-.58 1.49-1.15l5.26-9.11v7.88c0 1.36 1.1 2.46 2.46 2.46 1.36 0 2.46-1.1 2.46-2.46v-7.88l5.26 9.11c.32.57.86.98 1.5 1.15.63.17 1.3.08 1.87-.25.57-.32.98-.86 1.15-1.5.17-.63.08-1.3-.25-1.87l-4.5-7.8H49.7c1.36 0 2.46-1.1 2.46-2.46V5.88a2.473 2.473 0 00-2.47-2.46zM27.53 1.78c1.04 0 1.97.66 2.31 1.64h-4.62c.34-.98 1.27-1.64 2.31-1.64zm-12.31.33c.94.98 2.81 3.17 3.2 5.42h-6.41c.4-2.25 2.26-4.44 3.21-5.42zm-3.29 7.06h6.57v12.31h-6.57V9.17zm0 13.95h6.57v2.46h-6.57v-2.46zm1.33 5.75l-.82-1.64h5.55l-.82 1.64h-3.91zm3.17 1.64c-.29.91-.69 1.77-1.22 2.57-.52-.8-.93-1.66-1.22-2.57h2.44zm1.96 16.83c-.23.39-.73.52-1.12.3a.817.817 0 01-.3-1.12l4.98-8.62h1.89l-5.45 9.44zm9.96-.41c0 .45-.37.82-.82.82-.45 0-.82-.37-.82-.82V37.9h1.64v9.03zm9.74-.42c.11.19.14.42.08.63-.05.21-.19.39-.38.49-.19.11-.41.14-.62.08a.832.832 0 01-.5-.38l-5.45-9.44h1.89l4.98 8.62zm12.42-11.08c0 .45-.37.82-.82.82H5.37c-.45 0-.82-.37-.82-.82V5.88c0-.45.37-.82.82-.82h5.75c-.51 1.02-.8 2.14-.83 3.28v7.91l-3.91 4.7c-.12.15-.19.33-.19.53v9.03c0 .33.2.63.51.76s.66.06.89-.18l3.3-3.3 1.13 2.26c.07.14.19.26.32.34 0 1.32 1.68 3.91 2.19 4.67.15.23.41.36.68.36.27 0 .53-.14.68-.36.51-.76 2.19-3.36 2.19-4.67.14-.08.25-.2.32-.34l1.13-2.26 3.3 3.3c.23.23.59.31.89.18.3-.13.51-.43.51-.76v-9.03a.86.86 0 00-.19-.53l-3.91-4.7V8.34a7.659 7.659 0 00-.83-3.28h30.38c.45 0 .82.37.82.82l.01 29.55zM10.29 18.82v7.24l-2.46 2.46v-6.75l2.46-2.95zm9.85 7.25v-7.24l2.46 2.95v6.75l-2.46-2.46z" fill="#C2986A"/><path d="M16.04 10.81H14.4c-.45 0-.82.37-.82.82 0 .45.37.82.82.82h1.64c.45 0 .82-.37.82-.82 0-.45-.37-.82-.82-.82zm0 3.28H14.4c-.45 0-.82.37-.82.82 0 .45.37.82.82.82h1.64c.45 0 .82-.37.82-.82 0-.45-.37-.82-.82-.82z" fill="#C2986A"/></svg>