<svg width="86" height="62" fill="none" xmlns="http://www.w3.org/2000/svg"><path d="M85.36 58.75H.32v2.91h85.04v-2.91zM2.63 52.43h6.93c.48 0 .87-.39.87-.87v-.87h27.74c.07 0 .14-.01.21-.03l8.51-2.13c1.8-.46 2.88-2.3 2.42-4.1-.46-1.8-2.3-2.88-4.1-2.42l-7.04 1.88v-.14c0-.82-.3-1.61-.83-2.23 6.17-3.02 10.53-8.8 11.74-15.56 0-.01.01-.02.01-.04.01-.04.01-.07.01-.11.09-.53.16-1.06.22-1.6l.03-.28c.05-.61.09-1.22.09-1.84 0-.39-.01-.79-.03-1.17l-.03-.41-.06-.74c-.02-.17-.04-.35-.07-.52-.03-.2-.05-.41-.09-.61-.03-.2-.07-.4-.11-.59a8.84 8.84 0 00-.1-.5c-.05-.22-.1-.44-.15-.67-.03-.13-.07-.26-.1-.38l-.21-.75c-.02-.08-.05-.16-.08-.24a21.67 21.67 0 00-6.76-10.04c-.05-.04-.09-.08-.14-.12-.07-.05-.13-.11-.19-.16-.02-.02-.05-.03-.07-.04A21.593 21.593 0 0027.77.42c-.21 0-.42.01-.63.02h-.02a21.335 21.335 0 00-5.11.77c-.2.05-.39.11-.58.17-.13.04-.25.08-.38.12a21.548 21.548 0 00-9.98 6.8l-.04.05c-.21.25-.41.51-.61.78-.03.04-.06.09-.1.14-.27.37-.53.74-.78 1.13-.14.21-.27.42-.4.64-.04.06-.08.12-.12.19-.01.01-.01.03-.02.05a21.594 21.594 0 00-.56 20.62l.03.09c.09.17.19.32.28.48.15.27.3.54.46.8.14.23.28.46.42.68.18.28.37.55.57.82.13.18.25.36.39.54.32.42.66.82 1.01 1.22.12.14.26.27.39.41.28.3.57.59.87.88.07.07.13.14.2.21.01.01.03.02.05.03.71.65 1.45 1.25 2.24 1.8l-1.58.46h-3.35v-1.73a.87.87 0 00-.87-.87H2.62a.87.87 0 00-.87.87v13c.02.45.4.84.88.84zM41.31 7.47c2.8 2.59 4.81 5.94 5.77 9.64v.01c.08.31.15.63.22.95l.03.14c.05.28.11.55.15.84.02.11.03.21.04.32l.09.68c.02.18.03.37.04.56.01.15.03.31.03.46.02.34.03.69.03 1.03 0 .47-.02.94-.05 1.4-.49-.58-1.04-1.11-1.64-1.58a10.515 10.515 0 01-3.59-5.6l-1.03-4.13c-.39-1.56-.42-3.16-.09-4.72zm-30.59 4.3c.17-.28.35-.55.53-.82.15-.23.31-.45.47-.67.03-.05.07-.1.1-.14 2.31-3.07 5.44-5.41 9.04-6.75l.13-.05c.25-.09.5-.17.76-.26l.4-.12c.19-.05.37-.11.56-.16 1.11-.29 2.25-.48 3.39-.58h.01c-.01.26 0 .52.04.78l.7 4.89c.03.22.03.44.01.66l-.43 3.41c-.01.09-.07.16-.16.17a.179.179 0 01-.22-.09c-.36-.61-1.03-.97-1.74-.94-.71.03-1.34.44-1.66 1.07l-.9 1.8a4.21 4.21 0 00.16 4.07l.81 1.35a4.207 4.207 0 003.1 2.02l4.46.56c.41.05.8.21 1.14.45l2.14 1.53c.6.43.98 1.09 1.04 1.83.06.73-.2 1.45-.72 1.97-.54.54-.93 1.22-1.11 1.97l-.88 3.54a.84.84 0 01-.54.6c-.27.1-.57.06-.81-.11l-6.07-4.42a2.488 2.488 0 01-1.03-2.02v-2.59c0-.74-.19-1.46-.56-2.1l-2.17-3.79a4.235 4.235 0 00-3.25-2.11l-4.27-.43a2.489 2.489 0 01-2.23-2.18l-.28-2.28c.01-.01.03-.04.04-.06zm3.16 24.6l-.09-.09c-.22-.22-.43-.45-.65-.68-.26-.28-.52-.58-.76-.88-.14-.17-.28-.33-.41-.5-.18-.23-.35-.48-.51-.72-.1-.14-.19-.27-.28-.41-.16-.24-.31-.49-.46-.74-.09-.15-.17-.29-.26-.44-.07-.11-.12-.23-.19-.35l.85-1.42c.12-.2.32-.34.55-.39.23-.05.47-.01.67.13l1.98 1.32a2.961 2.961 0 01-.44 5.17zm1.37 1.22a4.692 4.692 0 002.12-3.91c0-1.58-.78-3.05-2.1-3.92l-1.98-1.32c-.59-.39-1.32-.53-2.01-.37-.69.16-1.29.59-1.66 1.2l-.26.44A19.868 19.868 0 019.3 14.6a4.193 4.193 0 003.72 3.41l4.27.43c.8.08 1.52.55 1.92 1.25l2.17 3.79c.21.38.33.81.33 1.24v2.59c0 1.35.65 2.62 1.74 3.42l6.07 4.42a2.6 2.6 0 004.05-1.47l.88-3.54c.11-.44.34-.84.66-1.16.88-.88 1.33-2.1 1.22-3.34-.1-1.24-.74-2.37-1.76-3.09l-2.14-1.53c-.57-.41-1.24-.67-1.93-.76l-4.46-.56c-.76-.09-1.44-.53-1.83-1.19l-.81-1.35a2.47 2.47 0 01-.09-2.4l.9-1.8c.03-.07.1-.11.17-.11a.2.2 0 01.18.1 1.935 1.935 0 003.58-.76l.43-3.41c.05-.37.04-.75-.01-1.13l-.7-4.89c-.03-.2-.03-.41-.01-.61 4.32.01 8.52 1.44 11.96 4.06l-.18.81c-.41 1.84-.38 3.75.07 5.57l1.03 4.13c.65 2.57 2.12 4.87 4.19 6.53.84.67 1.56 1.46 2.16 2.35l.23.35a19.823 19.823 0 01-11.73 14.46 3.36 3.36 0 00-.89-.13h-4.21l-3.87-1.1c-2.93-.83-6.04-.83-8.98 0l-.08.02c-.79-.47-1.57-1.02-2.3-1.61zm-4.82 4.44h3.47c.08 0 .16-.01.24-.03l3.99-1.14c2.62-.75 5.4-.75 8.03 0L30.15 42c.08.02.15.03.23.03h4.33a1.73 1.73 0 010 3.46h-8.67v1.73h8.67c1.07 0 2.07-.49 2.73-1.33l8.22-2.19c.57-.16 1.17.01 1.59.42.41.42.57 1.03.41 1.59-.16.57-.61 1-1.18 1.14l-8.41 2.1H10.44v-6.92h-.01zm-6.93-2.6h5.2V50.7H3.5V39.43z" fill="#C2986A"/><path d="M7.76 48.63a.797.797 0 00-.08-.16l-.1-.13-.13-.1c-.05-.03-.1-.06-.16-.08a.75.75 0 00-.16-.05.783.783 0 00-.5.05c-.1.04-.2.11-.29.18-.04.04-.07.08-.1.13s-.06.1-.08.16c-.02.05-.04.1-.05.16a.754.754 0 00.05.5c.08.22.25.39.47.47.1.04.22.07.33.07a.881.881 0 00.33-.07c.06-.02.11-.05.16-.08s.09-.07.13-.1c.16-.17.25-.39.25-.62a.88.88 0 00-.02-.17c0-.06-.02-.11-.05-.16z" fill="#C2986A"/></svg>