<svg width="87" height="63" fill="none" xmlns="http://www.w3.org/2000/svg"><path d="M86.03 59.4H.99v2.91h85.04V59.4zM18.65 4.57l-.37-.09a.87.87 0 00-1.05.63c-.02.07-.03.14-.03.21v8.38c0 7.89 4.59 15.07 11.76 18.38.23.11.5.11.73 0A20.238 20.238 0 0041.45 13.7V5.31a.87.87 0 00-.87-.87c-.07 0-.14.01-.21.03l-.37.09a9.95 9.95 0 01-10.01-3.27.86.86 0 00-1.33 0 9.956 9.956 0 01-10.01 3.28zm10.68-1.43c1.3 1.32 2.9 2.31 4.66 2.88 1.85.6 3.82.73 5.73.38v7.3a18.548 18.548 0 01-10.39 16.63A18.548 18.548 0 0118.94 13.7V6.4c1.91.35 3.88.22 5.73-.38 1.76-.58 3.36-1.56 4.66-2.88z" fill="#C2986A"/><path d="M22.4 8.78h-1.73v1.73h1.73V8.78zm0 3.46h-1.73v2.73c0 5.53 3.26 10.53 8.31 12.78.22.1.48.1.7 0a14.02 14.02 0 008.31-12.78V8.78a.87.87 0 00-.87-.87c-.07 0-.14.01-.21.03-1.99.5-4.11.19-5.87-.87l-1.27-.76-.89 1.48 1.27.76a9.38 9.38 0 006.1 1.27v5.15c0 4.7-2.69 8.99-6.93 11.04a12.289 12.289 0 01-6.93-11.04v-2.73h.01z" fill="#C2986A"/><path d="M29.33 24.36a2.601 2.601 0 000-5.2c-1.43 0-2.6 1.16-2.6 2.6.01 1.44 1.17 2.6 2.6 2.6zm0-3.46a.87.87 0 11-.87.87c.01-.48.39-.87.87-.87zm-1.72-3.34c.06.43.43.74.86.74h1.73c.43 0 .8-.32.86-.74l.87-6.06a.867.867 0 00-.73-.98c-.04-.01-.08-.01-.12-.01h-3.46a.87.87 0 00-.86.99l.85 6.06zm2.45-5.32l-.62 4.33h-.23l-.62-4.33h1.47z" fill="#C2986A"/><path d="M54.44 2.72a.87.87 0 00-.87-.87h-6.93a.87.87 0 00-.87.87v6.06h-2.6v1.73h2.6V51.2h-5.19V26.09h-1.73V51.2h-5.19V32.15h-1.73V51.2h-5.2V33.02H25V51.2h-5.19V32.15h3.46v-1.73h-4.33a.87.87 0 00-.87.87v6.93h-6.06a.87.87 0 00-.87.87v4.33H5.08a.87.87 0 00-.87.87v6.93h-.87v1.73h51.95V51.2h-.87V2.72h.02zM5.95 45.14h5.19v6.06H5.95v-6.06zm6.93-5.19h5.19V51.2h-5.19V39.95zM47.51 51.2V3.58h5.19V51.2h-5.19z" fill="#C2986A"/></svg>