<svg width="87" height="62" fill="none" xmlns="http://www.w3.org/2000/svg"><path d="M86.03 58.75H.99v2.91h85.04v-2.91zM48.58 46.42V10.5h5.15c.59 0 1.15-.29 1.5-.77.35-.48.44-1.1.25-1.66l-2.27-6.81C52.97.51 52.26 0 51.47 0h-7.52c-.79 0-1.5.51-1.75 1.26l-2.26 6.81c-.19.56-.09 1.18.25 1.66.35.48.9.77 1.5.77h.78V14c0 .48.39.88.88.88.48 0 .88-.39.88-.88v-3.5h2.62v35.93c-1.43.11-2.82.47-4.11 1.09-.36-.18-.75-.27-1.15-.27h-.26c-.34 0-.66-.2-.8-.52l-.12-.27c.22-.39.28-.86.16-1.3l-1.61-8.36c-.4-2.06-2.2-3.54-4.3-3.55h-1.82c0-2.42-1.96-4.37-4.38-4.38h-3.5v-5.25c0-2.08-1.46-3.87-3.5-4.29v-1.96a3.478 3.478 0 002.63-3.38v-.88c.67-.01 1.27-.39 1.56-.99.29-.6.22-1.31-.18-1.84l-1.29-1.71a.81.81 0 01-.12-.37 5.264 5.264 0 00-4.64-4.67 5.254 5.254 0 00-5.56 3.52 2.618 2.618 0 00-.3 5.02v1.03c0 1.74 1.03 3.31 2.62 4.01v2.43a3.057 3.057 0 00-1.75 2.76v6.56h-1.86l-2.33-17.84a2.638 2.638 0 00-2.6-2.29H5.68c-.72 0-1.4.29-1.9.81s-.76 1.21-.73 1.93l1.6 35.01c.05 1.12.82 2.09 1.9 2.39v.99c0 1.45 1.18 2.63 2.62 2.63h3.5c1.45 0 2.62-1.18 2.62-2.63V49h7v.88c0 1.45 1.18 2.63 2.62 2.63h3.5c1.45 0 2.62-1.18 2.62-2.63v-1.04a2.616 2.616 0 001.75-2.46v-6.13h.19l1.64 6.52c.11.44.4.82.79 1.05l.6 2.64c.27 1.2 1.33 2.05 2.56 2.04h2.87c.04 0 .07-.01.11-.01v.01h12.25c.97 0 1.75-.78 1.75-1.75.01-.87-.41-1.7-1.12-2.21-1.68-1.24-3.72-1.97-5.84-2.12zm5.15-37.67H41.67a.09.09 0 01-.08-.04c-.02-.02-.02-.06-.01-.09l2.27-6.81c.01-.04.05-.07.09-.07h1.67l-1.37 4.1c-.15.46.1.96.55 1.11.46.15.96-.1 1.11-.55l1.55-4.65h.49l1.55 4.65c.15.46.65.71 1.11.55.46-.15.71-.65.55-1.11l-1.37-4.1h1.67c.04 0 .08.03.09.07l2.27 6.81c.01.03.01.06-.01.09 0 .03-.03.04-.07.04zm.1 42h-9.79c.08-.21.14-.43.16-.66.03-.42-.04-.85-.2-1.24a9.85 9.85 0 013.71-.73c2.06-.01 4.06.63 5.73 1.84.25.18.4.48.39.79zM24.08 49h5.25v.88c0 .48-.39.88-.88.88h-3.5c-.48 0-.88-.39-.88-.88V49h.01zM8.33 49h5.25v.88c0 .48-.39.88-.88.88H9.2c-.48 0-.88-.39-.88-.88V49h.01zm9.63-31.5h1.75v1.75h-1.75V17.5zm-4.38-7.87c0-.48.39-.88.88-.88h2.62c.48 0 .88.39.88.88 0 .48-.39.88-.88.88h-2.62a.888.888 0 01-.88-.88zM22.34 14c0 .97-.78 1.75-1.75 1.75h-2.62c-1.45 0-2.63-1.18-2.63-2.63v-.87h1.75A2.625 2.625 0 1017.08 7h-1.27a3.51 3.51 0 013.03-1.75c.93 0 1.82.36 2.47 1.02.57.57.93 1.32 1.01 2.12.04.45.2.88.46 1.24l1.29 1.72-.86.03c-.48 0-.88.39-.88.88V14h.01zm.87 14.88h-2.62V24.5c0-.48-.39-.88-.88-.88-.48 0-.88.39-.88.88v4.38h-2.62v-6.56c0-.72.59-1.31 1.31-1.31h3.06c1.45 0 2.62 1.18 2.62 2.63v5.24h.01zm7.87 17.49c0 .48-.39.88-.88.88H7.3c-.47 0-.85-.37-.88-.84l-1.59-35c-.01-.24.08-.47.24-.64.17-.17.39-.27.63-.27h1.96c.44 0 .81.33.87.76l2.3 17.61H9.2c-.48 0-.88.39-.88.88 0 .48.39.88.88.88h19.25c1.45 0 2.62 1.18 2.62 2.63v13.11h.01zm7.77-.82l-2.5.78-1.63-6.51c-.2-.78-.9-1.32-1.7-1.32h-.19V35h1.82c1.26 0 2.34.89 2.58 2.13l1.62 8.42zm2.72 3.44c.23 0 .46.09.63.25.19.18.28.44.26.7a.97.97 0 01-.98.81h-2.87c-.41 0-.77-.28-.86-.68l-.49-2.18 1.65-.48.02.03c.43.94 1.36 1.54 2.39 1.54h.25v.01z" fill="#C2986A"/><path d="M28.46 34.13c0-.48-.39-.88-.88-.88h-17.5c-.48 0-.88.39-.88.88s.4.87.88.87h17.5c.49 0 .88-.39.88-.87z" fill="#C2986A"/></svg>