<svg width="51" height="69" viewBox="0 0 51 69" fill="none" xmlns="http://www.w3.org/2000/svg">
<path d="M17.0301 37.9102H15.5201H15.0701V44.2702H15.7701L15.5201 44.8802L15.0701 45.4902V46.1302H15.5201V46.7402H15.0701V61.5102V63.1002V68.4402H17.0201V38.1102C17.0301 38.0402 17.0301 37.9702 17.0301 37.9102Z" stroke="#C49967" stroke-width="0.3" stroke-miterlimit="10"/>
<path d="M33.95 37.9102C33.95 37.9702 33.95 38.0402 33.95 38.1102V68.4402H35.9V63.1002V61.5102V46.7402H35.45V46.1302H35.9V45.4902L35.45 44.8802L35.2 44.2702H35.9V37.9102H35.45H33.95V37.9102Z" stroke="#C49967" stroke-width="0.3" stroke-miterlimit="10"/>
<path d="M25.8101 26.0205H25.1801H15.0801V36.0905H15.7801V36.7005L15.5301 37.3105L15.5901 37.1705H17.1001C17.5601 33.4105 20.7701 30.5005 24.6601 30.5005H25.4901H25.5101H26.3401C30.2301 30.5005 33.4401 33.4105 33.9001 37.1705H35.4101L35.4701 37.3105L35.2201 36.7005V36.0905H35.9201V26.0205H25.8101Z" stroke="#C49967" stroke-width="0.3" stroke-miterlimit="10"/>
<path d="M35.4001 37.1602H33.55L33.9501 37.9102H35.91L35.4001 37.1602Z" stroke="#C49967" stroke-width="0.3" stroke-miterlimit="10"/>
<path d="M35.9 37.9102H33.95V38.3502H35.9V37.9102Z" stroke="#C49967" stroke-width="0.3" stroke-miterlimit="10"/>
<path d="M35.9101 26.0205H15.0801V27.6505H24.7101L24.9301 29.8505H26.1001L26.3301 27.6505H35.9101V26.0205Z" stroke="#C49967" stroke-width="0.3" stroke-miterlimit="10"/>
<path d="M15.5301 37.3002L15.5801 37.1602H17.4401L17.0301 37.9102H15.0801L15.5301 37.3002Z" stroke="#C49967" stroke-width="0.3" stroke-miterlimit="10"/>
<path d="M17.0301 37.9102H15.0801V38.3502H17.0301V37.9102Z" stroke="#C49967" stroke-width="0.3" stroke-miterlimit="10"/>
<path d="M35.4001 37.1609L35.2101 36.6909V36.0709C34.7901 31.7809 30.9901 28.4209 26.4101 28.4209H26.2501L26.1001 29.8509H24.9301L24.7801 28.4209H24.5701C19.9901 28.4209 16.1901 31.7809 15.7701 36.0709V36.6909L15.5701 37.1609H17.1001C17.6201 33.3409 20.8001 30.4909 24.6401 30.4909H26.3201C30.1701 30.4909 33.3501 33.3409 33.8701 37.1609H35.4001Z" stroke="#C49967" stroke-width="0.3" stroke-miterlimit="10"/>
<path d="M49.74 22.7002H1.23999V23.2502H49.74V22.7002Z" stroke="#C49967" stroke-width="0.3" stroke-miterlimit="10"/>
<path d="M49.74 22.7004H1.23999L0.73999 22.1504H50.25L49.74 22.7004Z" stroke="#C49967" stroke-width="0.3" stroke-miterlimit="10"/>
<path d="M48.69 17.1602H2.29004V22.1602H48.69V17.1602Z" stroke="#C49967" stroke-width="0.3" stroke-miterlimit="10"/>
<path d="M47.3399 12.1602H3.6499V17.1602H47.3399V12.1602Z" stroke="#C49967" stroke-width="0.3" stroke-miterlimit="10"/>
<path d="M43.9001 4.31055H7.08008V12.1605H43.9001V4.31055Z" stroke="#C49967" stroke-width="0.3" stroke-miterlimit="10"/>
<path d="M35.1299 2.77051H15.8599V4.31051H35.1299V2.77051Z" stroke="#C49967" stroke-width="0.3" stroke-miterlimit="10"/>
<path d="M32.3599 2.77039C30.5399 1.14039 28.1299 0.150391 25.4899 0.150391C22.8499 0.150391 20.4399 1.14039 18.6199 2.77039H32.3599Z" stroke="#C49967" stroke-width="0.3" stroke-miterlimit="10"/>
<path d="M49.0399 23.25H1.93994V25.06H49.0399V23.25Z" stroke="#C49967" stroke-width="0.3" stroke-miterlimit="10"/>
<path d="M49.5801 26.0205H1.40007L1.07007 25.0605H49.9201L49.5801 26.0205Z" stroke="#C49967" stroke-width="0.3" stroke-miterlimit="10"/>
<path d="M16.68 8.39055C16.68 9.54055 15.75 10.4705 14.6 10.4705C13.45 10.4705 12.52 9.54055 12.52 8.39055C12.52 7.24055 13.45 6.31055 14.6 6.31055C15.75 6.31055 16.68 7.24055 16.68 8.39055Z" stroke="#C49967" stroke-width="0.3" stroke-miterlimit="10"/>
<path d="M38.46 8.39055C38.46 9.54055 37.5301 10.4705 36.3801 10.4705C35.2301 10.4705 34.3 9.54055 34.3 8.39055C34.3 7.24055 35.2301 6.31055 36.3801 6.31055C37.5301 6.31055 38.46 7.24055 38.46 8.39055Z" stroke="#C49967" stroke-width="0.3" stroke-miterlimit="10"/>
<path d="M33.5599 6.11023H29.8399V5.74023H21.1499V6.11023H17.4199V10.6602H21.1499V11.0302H29.8399V10.6602H33.5599V6.11023Z" stroke="#C49967" stroke-width="0.3" stroke-miterlimit="10"/>
<path d="M49.9399 63.1006H35.9099V68.4406H49.9399V63.1006Z" stroke="#C49967" stroke-width="0.3" stroke-miterlimit="10"/>
<path d="M49.9399 61.5107H35.9099V63.1007H49.9399V61.5107Z" stroke="#C49967" stroke-width="0.3" stroke-miterlimit="10"/>
<path d="M49.9399 46.7402H35.9099V61.5102H49.9399V46.7402Z" stroke="#C49967" stroke-width="0.3" stroke-miterlimit="10"/>
<path d="M50.51 46.1309H35.46V46.7409H50.51V46.1309Z" stroke="#C49967" stroke-width="0.3" stroke-miterlimit="10"/>
<path d="M49.94 45.4909H35.91L35.46 44.8809H50.51L49.94 45.4909Z" stroke="#C49967" stroke-width="0.3" stroke-miterlimit="10"/>
<path d="M50.51 44.8805H35.46L35.21 44.2705H50.76L50.51 44.8805Z" stroke="#C49967" stroke-width="0.3" stroke-miterlimit="10"/>
<path d="M49.94 37.9108H35.91L35.46 37.3008H50.51L49.94 37.9108Z" stroke="#C49967" stroke-width="0.3" stroke-miterlimit="10"/>
<path d="M50.76 36.0801H35.21V36.6901H50.76V36.0801Z" stroke="#C49967" stroke-width="0.3" stroke-miterlimit="10"/>
<path d="M50.51 37.3004H35.46L35.21 36.6904H50.76L50.51 37.3004Z" stroke="#C49967" stroke-width="0.3" stroke-miterlimit="10"/>
<path d="M49.9399 45.4902H35.9099V46.1302H49.9399V45.4902Z" stroke="#C49967" stroke-width="0.3" stroke-miterlimit="10"/>
<path d="M49.9399 37.9102H35.9099V44.2702H49.9399V37.9102Z" stroke="#C49967" stroke-width="0.3" stroke-miterlimit="10"/>
<path d="M49.9399 26.0205H35.9099V36.0905H49.9399V26.0205Z" stroke="#C49967" stroke-width="0.3" stroke-miterlimit="10"/>
<path d="M49.9401 26.6505H35.9101L35.5701 26.0205H50.2701L49.9401 26.6505Z" stroke="#C49967" stroke-width="0.3" stroke-miterlimit="10"/>
<path d="M49.9399 26.6504H35.9099V26.9704H49.9399V26.6504Z" stroke="#C49967" stroke-width="0.3" stroke-miterlimit="10"/>
<path d="M46.14 39.25H39.71V42.56H46.14V39.25Z" stroke="#C49967" stroke-width="0.3" stroke-miterlimit="10"/>
<path d="M45.2499 29.6207C45.2499 30.8307 44.2699 31.8107 43.0599 31.8107C41.8499 31.8107 40.8699 30.8307 40.8699 29.6207C40.8699 28.4107 41.8499 27.4307 43.0599 27.4307C44.2699 27.4307 45.2499 28.4107 45.2499 29.6207Z" stroke="#C49967" stroke-width="0.3" stroke-miterlimit="10"/>
<path d="M15.08 63.1006H1.05005V68.4406H15.08V63.1006Z" stroke="#C49967" stroke-width="0.3" stroke-miterlimit="10"/>
<path d="M15.08 61.5107H1.05005V63.1007H15.08V61.5107Z" stroke="#C49967" stroke-width="0.3" stroke-miterlimit="10"/>
<path d="M15.08 46.7402H1.05005V61.5102H15.08V46.7402Z" stroke="#C49967" stroke-width="0.3" stroke-miterlimit="10"/>
<path d="M15.53 46.1309H0.47998V46.7409H15.53V46.1309Z" stroke="#C49967" stroke-width="0.3" stroke-miterlimit="10"/>
<path d="M1.04998 45.4909H15.08L15.53 44.8809H0.47998L1.04998 45.4909Z" stroke="#C49967" stroke-width="0.3" stroke-miterlimit="10"/>
<path d="M0.479971 44.8805H15.53L15.78 44.2705H0.219971L0.479971 44.8805Z" stroke="#C49967" stroke-width="0.3" stroke-miterlimit="10"/>
<path d="M1.04998 37.9108H15.08L15.53 37.3008H0.47998L1.04998 37.9108Z" stroke="#C49967" stroke-width="0.3" stroke-miterlimit="10"/>
<path d="M15.77 36.0801H0.219971V36.6901H15.77V36.0801Z" stroke="#C49967" stroke-width="0.3" stroke-miterlimit="10"/>
<path d="M0.479971 37.3004H15.53L15.78 36.6904H0.219971L0.479971 37.3004Z" stroke="#C49967" stroke-width="0.3" stroke-miterlimit="10"/>
<path d="M15.08 45.4902H1.05005V46.1302H15.08V45.4902Z" stroke="#C49967" stroke-width="0.3" stroke-miterlimit="10"/>
<path d="M15.08 37.9102H1.05005V44.2702H15.08V37.9102Z" stroke="#C49967" stroke-width="0.3" stroke-miterlimit="10"/>
<path d="M15.08 26.0205H1.05005V36.0905H15.08V26.0205Z" stroke="#C49967" stroke-width="0.3" stroke-miterlimit="10"/>
<path d="M1.04996 26.6505H15.08L15.41 26.0205H0.709961L1.04996 26.6505Z" stroke="#C49967" stroke-width="0.3" stroke-miterlimit="10"/>
<path d="M15.08 26.6504H1.05005V26.9704H15.08V26.6504Z" stroke="#C49967" stroke-width="0.3" stroke-miterlimit="10"/>
<path d="M11.2799 39.25H4.84985V42.56H11.2799V39.25Z" stroke="#C49967" stroke-width="0.3" stroke-miterlimit="10"/>
<path d="M5.72998 29.6207C5.72998 30.8307 6.70998 31.8107 7.91998 31.8107C9.12998 31.8107 10.11 30.8307 10.11 29.6207C10.11 28.4107 9.12998 27.4307 7.91998 27.4307C6.70998 27.4307 5.72998 28.4107 5.72998 29.6207Z" stroke="#C49967" stroke-width="0.3" stroke-miterlimit="10"/>
</svg>
