<svg width="514" height="286" viewBox="0 0 514 286" fill="none" xmlns="http://www.w3.org/2000/svg">
<path d="M87.2185 225.72C89.4432 223.742 90.984 221.266 92.6813 218.939C96.0595 214.32 99.3058 209.595 102.478 204.809C103.104 203.873 103.516 203.112 102.849 201.896C100.187 197.014 99.1822 191.642 99.1575 186.016C99.1328 181.038 99.0174 176.051 99.7425 171.108C99.9155 169.9 99.899 168.299 101.415 168.151C102.939 168.002 103.467 169.445 103.936 170.74C104.546 172.429 104.933 174.196 105.23 175.981C106.235 182.149 106.894 188.344 106.763 194.617C106.746 195.404 106.763 196.191 106.763 197.338C107.908 196.541 108.279 195.509 108.781 194.643C110.198 192.184 111.5 189.647 112.967 187.224C113.7 186.016 113.7 185.001 113.198 183.698C111.55 179.419 110.24 175.045 110.19 170.329C110.124 163.61 111.624 157.24 113.725 150.993C113.98 150.25 114.178 149.296 115.159 149.419C116.007 149.532 116.361 150.32 116.592 151.133C117.672 154.974 118.059 158.929 118.224 162.919C118.413 167.459 118.108 171.965 117.556 176.462C117.515 176.795 117.358 177.127 117.746 177.521C118.701 176.322 119.402 175.036 119.468 173.435C119.74 166.987 121.824 161.247 125.318 156.085C127.147 153.382 129.058 150.749 130.962 148.106C131.374 147.538 131.852 147.013 132.371 146.566C133.269 145.788 134.043 145.945 134.702 146.951C135.098 147.564 135.271 148.281 135.279 149.007C135.345 155.473 134.496 161.702 130.649 166.934C128.498 169.857 125.697 172.079 122.862 174.179C121.783 174.975 120.959 175.876 120.358 177.118C116.155 185.789 111.541 194.179 106.507 202.325C103.903 206.533 100.913 210.426 98.2182 214.565C97.9381 214.993 97.5179 215.335 97.4849 215.973C98.2676 216.227 98.729 215.597 99.2317 215.203C102.338 212.745 105.428 210.251 108.518 207.758C109.185 207.215 109.894 206.664 110.108 205.719C110.882 202.22 113.008 199.621 115.15 197.084C118.397 193.226 122.22 190.163 126.628 188.002C127.773 187.442 128.943 186.917 130.212 186.812C133.195 186.567 134.76 188.982 133.483 191.904C131.868 195.588 129.355 198.466 126.381 200.907C122.525 204.066 118.224 206.279 113.527 207.469C111.401 208.003 109.671 209.07 108.073 210.558C107.38 211.196 106.664 211.8 106.021 212.579C108.896 212.106 111.681 211.257 114.549 210.899C117.647 210.514 120.728 210.391 123.802 211.109C124.378 211.24 124.955 211.345 125.45 211.712C126.323 212.36 126.422 213.139 125.73 213.987C124.93 214.967 123.884 215.588 122.772 215.982C116.658 218.134 110.421 219.237 103.978 218.519C103.145 218.423 102.313 218.318 101.489 218.187C97.8062 217.583 95.0213 219.202 92.7802 222.22C91.0087 224.609 89.229 226.997 87.441 229.403C88.2402 230.016 88.6687 229.351 89.1301 229.097C93.9996 226.516 99.2564 225.37 104.53 224.294C107.158 223.76 109.786 223.139 112.481 223.051C113.066 223.034 113.659 222.964 114.236 223.034C116.147 223.287 116.831 224.635 115.949 226.507C114.961 228.598 113.321 230.024 111.484 231.162C106.433 234.303 101.036 236.516 95.3344 237.715C90.8192 238.668 86.2545 239.482 81.6157 238.905C80.8165 238.808 80.3963 239.158 79.9679 239.806C77.5043 243.559 75.5103 247.426 75.9388 252.317C76.2024 255.37 76.0376 258.468 76.1365 261.547C76.3013 266.902 75.807 272.221 75.4032 277.541C75.3044 278.897 75.1313 280.244 75.6998 281.53C76.1448 282.537 75.6916 283.096 74.8429 283.315C73.9366 283.551 73.7306 282.895 73.6235 282.073C73.2774 279.352 73.4999 276.631 73.813 273.945C74.7111 266.263 74.1426 258.564 74.0931 250.873C74.0767 248.914 73.1621 247.234 72.3052 245.563C70.5502 242.159 68.5233 238.94 66.5128 235.711C62.6815 229.552 58.8584 223.384 55.0106 217.224C54.5904 216.551 54.1455 215.859 53.5852 215.343C52.5717 214.416 51.8055 212.824 50.5119 212.675C49.2512 212.526 48.6415 214.258 47.6363 215.028C41.4156 219.797 34.5439 222.631 26.9389 223.322C26.0408 223.401 25.0768 223.296 24.2034 223.043C22.8027 222.64 22.5472 221.59 23.4783 220.418C23.8573 219.945 24.3269 219.534 24.7883 219.158C29.2376 215.553 34.0165 212.605 39.2321 210.479C41.2508 209.656 43.3601 209.289 45.9473 208.904C42.6762 206.454 39.504 204.871 36.3977 203.165C36.0105 202.955 35.5902 202.946 35.203 203.217C31.899 205.562 28.0924 205.737 24.3434 206.104C20.2484 206.498 16.2358 207.469 12.1738 208.073C11.1026 208.23 10.015 208.449 8.93568 208.055C7.77392 207.627 7.51029 206.962 8.09529 205.781C8.53198 204.888 9.19112 204.188 9.88323 203.514C12.5199 200.942 15.5849 199.516 19.1443 199.14C22.16 198.825 25.1592 198.991 28.5456 199.227C27.5321 197.871 26.4362 197.364 25.3074 196.9C23.8161 196.279 22.2588 195.92 20.6769 195.684C11.836 194.363 5.95302 188.842 2.15464 180.399C1.64379 179.262 1.20711 178.081 0.819856 176.891C0.630349 176.305 0.523252 175.587 1.04234 175.106C1.6191 174.564 2.30294 174.721 2.9209 175.08C3.43999 175.377 3.93436 175.719 4.42048 176.077C11.3581 181.169 18.0815 186.559 24.1457 192.858C25.2251 193.978 26.1231 195.317 27.4662 196.13C27.8205 196.34 28.1336 196.638 28.7762 196.471C26.3456 191.519 25.3322 186.244 24.6648 180.872C24.5577 179.971 24.4423 179.078 24.3846 178.177C24.3517 177.573 24.1539 176.838 24.8048 176.471C25.5876 176.033 26.2879 176.357 26.8235 177.022C28.6115 179.201 29.9875 181.694 31.3717 184.17C34.1978 189.236 36.719 194.45 36.6861 200.601C36.6778 201.511 37.2217 201.835 37.8479 202.158C41.6875 204.162 45.4199 206.393 48.9958 208.939C49.4902 208.204 48.9464 207.845 48.6992 207.478C41.671 196.961 35.3348 185.99 30.0945 174.301C29.5095 172.998 28.7104 172.691 27.5156 172.744C18.823 173.103 11.7866 169.139 5.68114 162.84C5.07966 162.219 4.51114 161.527 4.08269 160.758C3.49769 159.699 3.84372 158.973 4.98076 158.955C6.31555 158.929 7.6668 159.025 8.98511 159.209C14.7362 160.014 19.993 162.219 24.7883 165.753C25.258 166.103 25.6617 166.619 26.5433 166.663C25.7688 164.327 25.1591 162.219 23.2229 160.574C19.3009 157.249 17.653 152.516 17.3564 147.249C17.1751 143.994 17.1999 140.731 17.4635 137.476C17.5377 136.592 17.3893 135.525 18.411 135.193C19.4986 134.843 20.1413 135.7 20.6522 136.531C23.297 140.888 25.1097 145.63 26.2797 150.679C26.9801 153.714 26.9471 156.777 26.6917 159.856C26.6011 160.959 26.6587 161.982 27.1037 163.024C29.6579 169.034 32.2698 175.001 35.1947 180.811C35.4172 181.257 35.5079 181.887 36.2989 181.948C36.1093 179.078 35.6809 176.261 35.6809 173.4C35.6891 168.483 36.34 163.662 37.2052 158.868C37.4276 157.652 37.543 156.147 39.0014 155.928C40.4597 155.709 41.2508 156.899 41.8687 158.133C43.0058 160.399 43.5661 162.875 43.7885 165.395C44.3735 171.991 44.1181 178.597 43.6567 185.176C43.5166 187.162 43.3024 189.42 41.2096 190.505C40.3032 190.977 40.88 191.563 41.1601 192.036C43.2282 195.439 45.3046 198.834 47.4221 202.211C48.7651 204.354 50.1823 206.454 51.5583 208.571C52.3163 208.082 52.0279 207.513 52.0032 207.032C51.6077 199.726 52.7448 192.596 54.0136 185.474C54.1949 184.476 54.4668 183.479 55.6203 183.348C56.6997 183.234 57.3094 183.969 57.7791 184.888C58.7184 186.734 59.2539 188.728 59.5753 190.793C60.564 196.97 61.116 203.165 59.8801 209.385C59.361 211.992 58.5865 214.451 56.5926 216.341C62.146 225.335 67.6581 234.276 73.1786 243.209C73.64 241.092 73.7059 238.983 73.5246 236.91C73.2939 234.285 73.2939 231.669 73.2857 229.044C73.261 219.447 72.6924 209.884 72.1981 200.304C71.9591 195.702 71.7861 191.091 71.6378 186.48C71.5966 185.089 71.3329 183.803 70.7314 182.569C69.6026 180.251 68.548 177.88 67.3533 175.596C65.0462 171.178 62.8463 166.689 61.0172 162.026C60.0614 159.594 58.7595 158.317 56.3124 157.932C49.1194 156.803 43.6567 152.49 39.1909 146.531C36.7603 143.286 34.9229 139.602 32.9454 136.033C32.6982 135.595 32.2863 135.088 32.7147 134.563C33.1844 133.976 33.7776 134.151 34.3214 134.466C34.6921 134.676 35.0465 134.921 35.3925 135.166C42.05 140.031 48.9217 144.589 54.9365 150.416C55.1754 150.644 55.4061 150.906 56.0488 150.696C54.5245 147.161 53.0084 143.679 51.5089 140.188C51.2699 139.637 50.8167 139.436 50.3471 139.235C49.5396 138.876 49.0288 138.386 49.7374 137.415C50.1329 136.881 49.8115 136.4 49.5973 135.91C49.1359 134.843 48.6497 133.793 48.2295 132.708C47.7599 131.5 47.2902 130.372 45.8154 130.372C45.5188 130.372 45.0821 130.188 44.942 129.934C43.3518 127.196 40.5916 126.05 38.3258 124.265C33.3656 120.345 28.5868 116.251 24.8378 110.931C23.9644 109.698 23.1322 109.155 21.6656 109.811C20.5121 110.328 19.2103 110.354 17.9496 110.109C17.6036 110.039 17.2658 109.864 17.2575 109.461C17.2493 108.884 17.686 108.665 18.1144 108.753C19.202 108.971 20.2484 109.085 21.4596 108.097C19.5563 107.887 17.8425 107.799 16.31 106.95C15.7909 106.662 15.1235 106.329 15.5437 105.568C15.8239 105.052 16.4089 105.139 16.895 105.446C17.6118 105.909 18.3369 106.338 19.7211 106.207C18.1886 105.061 16.9939 104.133 16.1205 102.865C15.8733 102.506 15.5684 102.165 15.3872 101.771C15.107 101.159 14.5467 100.432 15.486 99.9424C16.2193 99.5574 16.483 100.179 16.7714 100.782C17.4223 102.13 18.3533 103.197 20.0589 104.212C19.3998 102.576 18.9301 101.447 18.5017 100.31C18.2875 99.7411 18.4111 99.2249 19.0043 98.9975C19.4904 98.805 19.7788 99.1375 20.0095 99.5487C20.4791 100.371 20.611 101.43 21.6079 102.112C22.1435 101.15 21.7645 100.179 21.781 99.2687C21.7892 98.7087 21.7727 98.0788 22.4484 98.0438C23.1075 98.0088 23.1487 98.6388 23.2394 99.1899C23.4618 100.66 23.7172 102.121 23.9974 103.809C25.0191 103.04 25.1262 101.998 25.5134 101.15C25.7276 100.669 25.9089 100.144 26.2055 99.7236C26.4857 99.3387 26.9471 99.3124 27.3426 99.5574C27.6969 99.7761 27.6474 100.187 27.5321 100.52C27.0377 102.06 26.6093 103.626 25.7688 105.008C25.5958 105.288 25.4722 105.612 25.1839 106.215C26.5681 106.032 27.2272 104.991 28.1418 104.527C28.4467 104.369 28.801 104.229 29.0729 104.518C29.526 104.991 29.1141 105.332 28.8422 105.629C27.8452 106.749 26.5599 107.405 25.2333 107.965C28.8257 114.65 37.5348 121.833 45.148 126.837C45.6918 126.19 45.1645 125.647 44.9503 125.149C40.5669 115.035 37.2464 104.518 34.6098 93.7305C34.0495 91.4382 34.0083 91.4557 31.8166 91.377C30.1193 91.3157 28.4961 90.922 27.0295 89.9334C26.667 89.6884 26.3127 89.3122 26.5763 88.8397C26.7988 88.4285 27.2767 88.306 27.6804 88.586C28.6691 89.2684 29.6826 89.8284 31.2728 89.9334C29.6249 88.2536 28.0841 87.0287 26.9059 85.3926C26.1314 84.3164 25.3404 83.2578 24.8708 81.9804C24.6401 81.3505 24.1127 80.5631 25.0026 80.0906C25.9172 79.6007 26.0737 80.4493 26.3539 81.1405C26.8565 82.3829 27.4332 83.5903 28.6856 84.5614C28.8257 83.0566 27.771 82.2342 27.4415 81.1405C27.2932 80.6506 26.8564 80.0994 27.4662 79.7057C28.15 79.2595 28.4961 79.8107 28.8257 80.3968C29.8062 82.1467 30.7372 83.9402 32.2698 85.9088C32.4098 83.6428 31.6518 82.0854 31.5035 80.4406C31.4293 79.6357 30.5971 78.3845 31.693 78.0783C33.0113 77.7021 32.8136 79.312 33.0773 80.1519C33.4151 81.228 33.4068 82.4354 34.1648 83.4765C34.8487 82.0417 34.7087 80.5456 34.9723 79.1457C35.0877 78.5245 35.4173 78.1658 36.0105 78.2621C36.5213 78.3495 36.6367 78.8307 36.5955 79.2944C36.4554 81.1755 36.2824 83.0478 36.0764 85.3838C37.2876 84.0977 37.4112 82.7066 37.8973 81.543C38.1033 81.053 38.2434 80.5193 38.4081 80.0119C38.6306 79.3469 38.9849 78.857 39.71 79.1632C40.4021 79.4519 40.0725 80.0644 39.9654 80.5543C39.2239 83.7653 38.1033 86.7574 35.3843 89.2859C38.4576 88.9972 39.5699 85.5763 42.6515 85.0776C41.1437 87.8511 39.3392 89.4609 37.164 90.3796C35.8045 90.9483 35.8622 91.5782 36.167 92.8031C39.0426 104.466 42.7256 115.805 47.5457 126.697C48.8805 129.707 50.207 132.717 51.5253 135.683C52.3822 135.613 52.308 134.939 52.3904 134.484C53.3462 128.779 54.0137 123.031 54.2361 117.231C54.2856 116.058 54.0219 115.236 53.2721 114.343C51.4759 112.182 50.0834 109.698 48.7981 107.143C48.5179 106.583 48.1637 105.918 48.8805 105.498C49.5891 105.087 49.9269 105.787 50.2482 106.303C50.9898 107.493 51.5335 108.831 52.6541 110.013C52.959 109.164 52.5965 108.543 52.4729 107.939C52.2586 106.88 51.9208 105.848 51.6901 104.789C51.5583 104.186 51.3852 103.433 52.201 103.241C53.0496 103.031 53.0744 103.871 53.2556 104.431C53.577 105.446 53.8406 106.469 54.2691 107.965C55.0765 106.084 54.681 104.544 54.7964 103.092C54.8458 102.41 54.8294 101.745 55.6203 101.727C56.4608 101.71 56.4443 102.471 56.4525 103.092C56.469 104.422 56.4607 105.761 56.4607 107.65C57.7049 106.277 57.7461 104.947 58.2322 103.862C58.4876 103.302 58.8831 102.97 59.427 103.18C59.9625 103.381 59.7483 103.932 59.6412 104.334C59.0891 106.382 61.1819 104.641 61.2726 106.111C60.3003 108.455 58.9738 111.019 57.1858 113.783C59.8059 113.259 61.355 110.975 63.7609 111.141C62.0553 112.926 60.1273 114.308 57.9274 115.096C56.5926 115.577 56.0653 116.373 56.0406 117.817C55.9417 124.457 54.8211 130.949 53.511 137.415C53.2309 138.815 53.371 140.013 53.9807 141.291C55.2084 143.863 56.2877 146.514 57.4412 149.13C57.7873 149.909 58.0263 150.775 58.8255 151.553C59.2457 150.294 58.9243 149.226 58.9491 148.203C59.0314 144.834 59.427 141.518 60.152 138.255C61.0748 134.116 62.113 130.013 63.0935 125.892C63.2665 125.175 63.4231 124.396 64.2964 124.431C65.0709 124.466 65.4499 125.026 65.5735 125.84C65.829 127.537 66.2492 129.208 66.3893 130.914C66.9743 137.861 67.0732 144.843 66.8589 151.807C66.7518 155.333 66.1833 158.841 64.5931 162.017C64.0658 163.067 63.9669 164.012 64.4365 165.097C66.3316 169.428 68.4409 173.619 70.7067 177.897C71.5554 177.197 71.267 176.322 71.2341 175.596C70.6326 162.114 70.5996 148.622 70.855 135.131C71.0198 126.531 71.3411 117.939 71.7037 109.348C71.8026 107.02 71.4812 104.851 70.682 102.742C68.2019 96.2065 65.6147 89.7322 63.2583 83.1441C62.3766 80.6768 60.6711 79.2857 58.8502 77.9121C57.3424 76.7747 55.7192 75.8035 54.2526 74.5962C53.3627 73.8612 52.5388 73.6513 51.4676 73.905C49.5478 74.3687 47.6281 74.08 45.7495 73.555C45.2221 73.4063 44.4394 73.1963 44.6948 72.3651C44.8596 71.8315 45.5188 71.8752 46.0296 72.0064C46.9112 72.2339 47.7434 72.7764 48.9134 72.4176C48.04 71.4115 46.87 71.1403 45.9802 70.4316C45.3046 69.8891 44.5877 69.4079 44.1675 68.5855C43.9038 68.0606 43.8709 67.5094 44.3817 67.1507C44.9255 66.7657 45.2634 67.0719 45.56 67.6406C46.5405 69.4954 48.3367 70.0029 50.2235 71.114C50.0011 69.7492 49.3336 69.1455 48.9629 68.393C48.4932 67.4306 47.9412 66.512 47.5539 65.5146C47.2573 64.7447 46.5075 63.616 47.5292 63.1261C48.691 62.5661 48.6333 64.0797 49.0205 64.7622C49.5231 65.6633 49.7456 66.7657 50.619 67.4306C50.792 67.2032 50.9403 67.0894 50.9733 66.9494C51.1463 66.2495 50.7096 65.0421 51.929 65.1821C52.959 65.3046 52.7695 66.442 52.7035 67.1594C52.3822 70.4753 53.8241 72.6364 56.3701 74.22C57.6637 75.0249 58.8831 75.9873 60.119 76.8709C60.8606 76.1798 60.3827 75.6286 60.2015 75.0949C58.9573 71.3502 57.6555 67.6231 56.469 63.8522C56.0488 62.5049 55.3484 61.7525 54.0796 61.3937C51.3688 60.6151 49.4325 58.594 47.661 56.3892C47.3397 55.9868 47.109 55.4881 46.8701 55.0156C46.6394 54.5694 46.6888 54.0882 47.109 53.8345C47.5704 53.5545 48.0812 53.4933 48.4026 54.1145C49.2924 55.8643 50.5448 57.1942 52.4317 57.9466C51.8714 56.7655 51.2864 55.6018 50.7591 54.4032C50.3636 53.5108 50.0175 52.5834 49.6797 51.656C49.5561 51.306 49.5808 50.9123 49.9269 50.7023C50.3471 50.4486 50.7508 50.5448 50.9898 51.0173C51.4347 51.8922 51.8302 52.7846 52.2669 53.6595C52.8519 54.8232 53.2886 56.0918 54.5657 57.3691C54.096 54.8756 53.7005 52.8633 53.338 50.8423C53.2309 50.2211 53.1567 49.5912 53.1485 48.9612C53.1403 48.3663 53.4286 47.8938 54.0383 47.8851C54.6728 47.8676 54.8623 48.3313 54.8953 48.9525C55.0106 51.0348 55.4885 53.0296 56.1889 55.4706C56.9798 53.2746 57.0622 51.4547 57.0128 49.6087C56.9963 49.04 56.9881 48.4538 57.6555 48.3663C58.4052 48.2701 58.6854 48.8213 58.7431 49.5299C58.9161 51.6297 58.5618 53.677 58.2817 55.7331C58.224 56.1705 57.9686 56.5817 58.2405 57.3954C59.5423 55.7768 60.0037 53.9395 60.5393 52.1459C60.7452 51.4635 60.8606 50.7461 61.0913 50.0724C61.2149 49.7137 61.5774 49.6087 61.94 49.6524C62.3684 49.7049 62.4508 50.0724 62.4837 50.4311C62.5579 51.2535 62.4096 52.0409 62.2036 52.8371C61.495 55.5931 60.3251 58.0603 58.5041 60.1514C58.0427 60.6851 57.5566 61.1488 57.812 62.0237C59.2704 66.9144 60.9018 71.7265 62.7804 76.5735C64.5519 74.3424 65.2522 70.7028 64.4036 68.4718C63.9257 67.2032 63.6291 65.8908 63.3489 64.5697C63.2171 63.931 63.0276 63.2573 63.8268 63.0123C64.5683 62.7849 64.8815 63.2836 64.9968 64.0097C65.038 64.2635 65.1369 64.5172 65.4829 64.5697C66.0926 63.966 65.8537 63.0998 65.9443 62.3299C66.0185 61.6912 65.9938 60.93 66.7765 60.895C67.6746 60.8513 67.4604 61.7 67.5263 62.2774C67.6417 63.2311 67.3615 64.2197 67.6829 65.1646C67.9465 65.0946 68.1443 65.1121 68.2349 65.0071C68.8034 64.3684 69.0011 62.7411 70.1629 63.6073C70.9786 64.211 70.0064 65.2171 69.7427 66.0133C69.6109 66.4332 69.4214 66.8882 69.1412 67.1944C66.9166 69.6267 66.5952 72.9863 65.384 75.9085C64.041 79.1457 64.5107 81.8055 65.8208 84.8239C67.7405 89.2422 69.2978 93.8442 70.9951 98.3675C71.1516 98.7875 71.234 99.2337 71.6542 99.5049C72.3134 99.2687 72.058 98.63 72.0662 98.1751C72.1568 93.8267 72.2558 89.4784 72.264 85.1389C72.264 83.949 72.8572 82.5841 71.6378 81.613C71.3989 81.4205 71.4812 81.0355 71.7119 80.9393C72.7913 80.5018 72.5359 79.5044 72.5689 78.6383C72.9479 67.1419 73.7553 55.6806 74.4227 44.2017C74.4557 43.6593 74.4969 43.1168 74.5216 42.5744C74.5875 41.0345 74.9665 39.4072 74.6122 37.9898C74.2167 36.38 72.2722 36.6075 71.1352 35.7326C69.6273 34.5689 68.1031 33.4665 67.0072 31.813C66.7106 31.358 66.4552 30.8068 66.999 30.3869C67.4686 30.0194 68.0042 30.1769 68.3173 30.6756C68.6881 31.2705 69.0176 31.883 69.8581 32.4516C69.7509 30.6143 68.927 29.1795 69.0341 27.5871C69.0753 26.9485 69.0012 26.2048 69.7592 26.0735C70.7067 25.9161 70.8139 26.7035 70.8715 27.4646C71.0116 29.3282 71.2835 31.148 73.0467 32.9066C72.5606 30.3694 72.0251 28.3746 71.9509 26.301C71.8932 24.6649 71.8438 23.0376 72.2063 21.4365C72.3382 20.8503 72.6512 20.4479 73.2692 20.5703C73.9778 20.7103 73.9119 21.2965 73.7965 21.8302C73.3104 24.1925 73.7389 26.5197 74.0602 28.8383C74.1838 29.7044 74.1838 30.6318 75.1148 31.463C75.329 28.3746 75.4774 25.4961 75.7575 22.6351C75.8482 21.6465 75.5103 19.8704 76.6721 19.9229C78.3117 20.0016 77.4219 21.7952 77.4054 22.7926C77.356 25.8461 77.117 28.8908 76.9193 32.5479C78.3364 31.2005 78.6084 29.8707 78.9956 28.672C79.4653 27.2197 79.7207 25.6973 80.1162 24.2187C80.3304 23.4138 80.2315 22.0577 81.3933 22.2764C82.6621 22.5126 81.9865 23.7463 81.8547 24.5249C81.5416 26.3973 81.1378 28.2433 80.4787 30.0194C80.2974 30.5006 79.9431 30.973 80.3221 31.8217C81.7476 30.7631 82.621 29.3107 83.4367 27.7971C83.8157 27.0884 84.1288 26.3448 84.516 25.6536C84.7962 25.1549 85.2246 24.8574 85.7849 25.1199C86.4358 25.4261 86.2792 26.0123 86.0732 26.5022C85.2246 28.5845 84.1947 30.5443 82.6622 32.1542C82.3655 32.4691 82.1019 32.8191 81.6734 33.3353C82.8929 33.3178 83.3378 32.2504 84.1123 31.8567C84.516 31.6467 84.9527 31.6205 85.274 31.9704C85.6695 32.4079 85.34 32.8366 85.0681 33.1341C83.379 35.0064 81.2449 36.03 78.9626 36.7212C76.6226 37.4299 76.6473 37.4124 76.499 40.0984C75.9058 50.8511 75.2714 61.595 74.6864 72.3476C74.5875 74.2112 74.6699 76.0923 74.6699 77.9733C75.362 77.9383 75.4939 77.3521 75.7081 76.9147C78.5013 71.2365 81.179 65.5058 83.2883 59.4777C83.8156 57.9816 83.8733 56.7917 82.9835 55.4356C82.003 53.957 81.4757 52.2072 81.1873 50.4048C81.1049 49.8711 81.039 49.3287 81.0555 48.7863C81.0719 48.2176 81.2285 47.6926 81.9123 47.7189C82.4232 47.7364 82.5715 48.1126 82.6622 48.6025C82.9011 49.8799 82.9423 51.2448 83.9475 52.7846C84.0629 50.5448 84.1453 48.7863 84.2524 47.0364C84.2853 46.494 84.343 45.9515 84.4584 45.4266C84.5572 44.9454 84.895 44.6129 85.3647 44.6829C85.8343 44.7529 86.0403 45.1291 86.0321 45.6541C86.0238 46.879 85.7437 48.1301 86.3205 49.8974C86.7984 48.4713 87.1115 47.5001 87.4493 46.5377C87.6305 46.039 87.82 45.5228 88.0837 45.0766C88.3309 44.6567 88.7428 44.5342 89.1795 44.7617C89.6409 44.9979 89.6986 45.4266 89.5503 45.8991C89.1136 47.2639 88.611 48.6113 88.2567 50.0024C88.0755 50.7286 87.5234 51.4372 87.9189 52.3559C88.8829 51.6472 89.3938 50.5973 89.9952 49.6349C90.3248 49.11 90.6049 48.55 90.9757 48.0601C91.3218 47.5964 91.8079 47.4039 92.2941 47.7976C92.7637 48.1738 92.4341 48.62 92.2364 48.9875C91.775 49.8537 91.2724 50.6848 90.8027 51.5422C90.605 51.9097 90.2012 52.2072 90.4319 52.8284C91.3795 52.7234 92.2776 50.7636 93.0686 52.1284C93.5547 52.9596 92.0881 53.7733 91.363 54.4644C90.0365 55.7243 88.6358 56.8704 86.9384 57.5004C86.2958 57.7366 85.7354 58.0428 85.4635 58.839C83.9804 63.2311 82.2584 67.5269 80.4869 71.8577C82.5962 71.009 84.6396 70.2304 85.513 67.6494C85.9085 66.477 86.6335 65.4271 87.2103 64.3247C87.5234 63.7385 87.9601 63.2223 88.611 63.4673C89.5009 63.7998 88.5286 64.5697 88.8829 65.1471C89.4926 65.3396 90.1765 64.2372 90.9428 65.2871C90.2424 66.757 88.7017 67.5531 87.8036 69.0667C89.3855 69.3729 90.6214 67.7456 92.2776 68.4018C91.8079 70.0816 89.8634 69.4867 89.2537 70.7815C90.4896 71.254 91.7255 70.2129 93.0191 70.799C92.8791 71.7877 92.1952 71.9102 91.5772 71.9802C89.7398 72.1902 87.8694 72.4089 86.0732 71.8839C84.8868 71.534 83.9558 71.7177 83.0247 72.4526C82.8929 72.5576 82.7363 72.6626 82.5797 72.6889C79.218 73.2838 77.9822 76.1973 76.6226 79.0145C76.2107 79.8719 76.2189 80.5193 76.4578 81.4817C76.6391 82.2254 74.9088 81.8142 74.6617 82.8728C74.4969 83.5728 74.2579 84.2727 74.2332 84.9814C74.1178 88.691 74.0519 92.4006 73.9778 96.119C73.9695 96.3727 74.0025 96.644 74.3486 96.8014C74.983 96.2152 75.1313 95.3053 75.4774 94.5267C78.0481 88.8222 81.4757 83.8615 86.1804 80.0031C86.8395 79.4607 87.5564 78.9445 88.3062 78.577C90.1106 77.7021 91.5443 78.6908 91.4701 80.8518C91.4289 82.1904 91.124 83.5378 90.8274 84.8501C90.3083 87.1599 89.3279 89.2772 88.1167 91.2458C85.546 95.4453 82.2749 98.9275 78.6001 101.981C78.0069 102.471 77.3559 103.066 76.6638 103.206C73.9448 103.774 73.607 105.734 73.5575 108.298C73.4257 115.988 73.2197 123.679 72.8407 131.36C72.3711 140.871 72.5853 150.372 72.6183 159.883C72.6348 165.928 73.0055 171.974 73.2198 177.985C73.8789 178.265 74.0272 177.81 74.1838 177.39C76.1447 172.271 78.5754 167.416 81.1378 162.639C81.8959 161.221 81.8959 160.093 81.1626 158.649C78.526 153.461 76.4661 148.019 75.9635 142.052C75.4609 136.059 76.0624 130.127 77.0923 124.239C77.1829 123.714 77.3889 123.206 77.562 122.699C77.8009 121.964 78.1964 121.421 79.0039 121.43C79.7536 121.439 80.2892 121.85 80.5776 122.568C80.9483 123.478 81.3027 124.396 81.5828 125.341C84.17 134.046 85.3482 142.953 84.9692 152.096C84.9527 152.542 84.9692 152.997 85.0186 153.443C85.0351 153.574 85.2164 153.679 85.4306 153.924C86.2793 153.032 86.6748 151.842 87.2268 150.784C88.784 147.783 90.3001 144.755 91.8327 141.737C92.187 141.037 92.7554 140.346 91.7502 139.69C91.4701 139.506 91.2806 138.972 91.6102 138.788C93.0521 138.001 92.1787 137.004 91.8656 136.094C90.2012 131.299 89.3855 126.312 89.1713 121.229C89.0807 119.094 88.4709 117.677 86.6088 116.758C84.4336 115.691 82.7693 113.871 81.418 111.745C81.0802 111.211 80.3963 110.468 81.1708 109.873C81.9289 109.286 82.3078 110.039 82.6704 110.713C83.346 111.955 84.1782 113.075 85.686 114.055C85.2329 112.069 84.8621 110.45 84.4913 108.823C84.2276 107.668 84.1123 106.504 84.2194 105.323C84.2771 104.719 84.5984 104.308 85.2164 104.396C85.7519 104.466 85.8343 104.929 85.8426 105.402C85.892 108.149 86.3946 110.791 87.5234 113.267C87.6717 113.591 87.8365 113.906 88.0342 114.186C88.1084 114.3 88.3144 114.3 88.6604 114.44C88.6604 112.427 88.644 110.476 88.6687 108.534C88.6769 107.72 88.7346 106.907 88.817 106.102C88.8664 105.603 89.1713 105.262 89.6492 105.279C90.16 105.297 90.3578 105.717 90.366 106.198C90.3907 107.099 90.3413 108.009 90.366 108.91C90.3743 109.251 90.4155 109.645 90.951 109.785C91.569 108.639 91.7337 107.3 92.1045 106.041C92.294 105.393 92.5659 104.807 93.3322 105.096C93.9666 105.332 93.8596 105.909 93.7277 106.46C93.2416 108.455 92.7555 110.45 92.1705 112.847C93.5217 111.745 94.0655 110.468 94.7659 109.321C95.0872 108.796 95.3509 108.219 95.7299 107.738C96.0183 107.37 96.4632 107.327 96.8587 107.607C97.213 107.86 97.1306 108.263 96.9905 108.578C96.6692 109.313 96.3314 110.048 95.9359 110.739C94.7 112.9 93.3899 115.017 91.5031 116.592C90.9098 117.091 90.6132 117.633 90.6791 118.429C91.1405 124.291 91.6349 130.153 93.7277 135.683C93.7772 135.823 93.9502 135.91 94.1644 136.111C94.8812 135.753 95.0625 134.921 95.3756 134.23C98.1358 128.228 100.599 122.086 102.915 115.866C103.557 114.142 103.533 112.331 103.335 110.608C102.849 106.478 102.148 102.375 102.338 98.1838C102.379 97.2914 102.115 96.6789 101.242 96.3115C99.8661 95.7428 98.9185 94.5704 98.144 93.2493C97.8804 92.7943 97.5343 92.2431 98.0369 91.7969C98.5066 91.3857 98.968 91.6919 99.3223 92.1557C99.52 92.4181 99.7013 92.7418 100.122 92.6631C100.402 91.7619 100.039 90.8958 99.965 90.0034C99.9155 89.3647 99.8084 88.6298 100.608 88.4985C101.366 88.3673 101.596 88.9447 101.638 89.6797C101.695 90.6683 101.811 91.657 102.445 92.6544C102.989 92.0682 102.791 91.2982 103.022 90.7121C103.236 90.1609 103.22 89.3734 104.076 89.4784C104.958 89.5834 104.497 90.5371 104.876 90.9833C105.007 90.957 105.189 90.9745 105.271 90.887C105.823 90.3358 106.079 88.9097 107.133 89.7234C107.932 90.3446 106.985 91.167 106.779 91.8757C106.655 92.3044 106.491 92.7593 106.227 93.0918C103.772 96.2152 103.854 99.8899 104.233 103.635C104.406 105.297 104.628 106.95 104.834 108.709C105.988 108.263 105.971 107.3 106.21 106.627C108.41 100.371 110.52 94.0805 112.736 87.8336C113.198 86.5212 113.115 85.4451 112.522 84.2377C111.739 82.6366 111.129 80.9393 110.816 79.1457C110.709 78.5333 110.528 77.7721 111.327 77.5884C112.151 77.3959 112.209 78.1746 112.324 78.7958C112.374 79.067 112.497 79.2857 112.934 79.3819C113.486 78.5158 113.362 77.3784 113.675 76.3985C113.923 75.6286 114.03 74.8062 114.582 74.185C114.829 73.905 115.167 73.8438 115.505 74.01C115.859 74.185 115.966 74.4912 115.859 74.8936C115.455 76.451 115.035 77.9996 115.035 79.8107C116.073 79.137 116.238 77.9996 116.782 77.1509C117.111 76.6347 117.408 76.066 117.803 75.6198C118.108 75.2786 118.57 75.2786 118.949 75.5848C119.303 75.8648 119.138 76.206 119.006 76.5385C118.627 77.4921 117.919 78.3145 117.812 79.6794C118.841 79.1982 119.163 78.332 119.69 77.7109C120.028 77.3084 120.325 76.8534 120.72 76.5385C121.074 76.2498 121.536 76.311 121.865 76.6697C122.162 76.9847 122.014 77.3434 121.816 77.6409C120.827 79.102 119.822 80.5543 118.809 81.9892C118.405 82.5666 117.96 83.1003 117.531 83.669C118.207 84.2727 118.66 83.6428 119.13 83.4065C119.88 83.0216 120.588 82.5229 121.297 82.0417C121.882 81.648 122.623 81.1405 123.052 81.9279C123.53 82.7941 122.566 83.1353 122.055 83.4765C120.209 84.7014 118.397 86.0925 116.098 86.11C115.397 86.1188 115.01 86.5037 114.796 87.1512C113.14 92.1732 111.492 97.2039 109.86 102.235C109.811 102.375 109.926 102.576 109.992 102.9C111.451 101.893 112.514 100.494 113.7 99.2599C114.219 98.7175 114.326 98.0088 114.277 97.2564C114.17 95.769 114.623 94.3954 115.018 93.0131C115.191 92.4094 115.505 91.7794 116.271 92.0332C116.938 92.2606 116.699 92.8731 116.699 93.398C116.691 93.9055 116.164 94.3779 116.609 94.9291C117.367 94.7454 117.573 93.9842 117.968 93.4243C118.339 92.8993 118.751 92.3044 119.394 92.7069C120.143 93.1793 119.608 93.783 119.319 94.3167C118.99 94.9379 118.446 95.4366 118.355 96.294C119.352 96.8102 120.003 95.5766 120.893 95.6728C121.223 95.7078 121.61 95.804 121.651 96.2327C121.668 96.4427 121.519 96.7752 121.355 96.8977C120.11 97.8513 118.668 98.3238 117.078 98.8837C118.182 100.17 119.888 99.2162 121.214 100.607C119.451 101.106 118.018 100.975 116.633 100.529C115.612 100.205 114.821 100.371 114.194 101.281C113.057 102.926 111.055 103.696 110.347 105.761C110.314 105.848 110.281 105.997 110.24 105.997C107.125 106.111 107.521 109.19 106.82 111.098C106.128 112.987 105.337 114.842 104.661 116.749C101.901 124.536 98.6219 132.078 95.1284 139.48C91.742 146.645 87.8694 153.54 84.2194 160.565C83.8157 161.335 83.4696 162.14 82.9423 163.234C83.8404 163.19 84.1782 162.691 84.5407 162.315C88.2402 158.492 91.6267 154.353 94.8648 150.075C95.285 149.524 95.8205 149.025 95.7381 148.203C95.6969 147.818 95.7299 147.371 96.0512 147.258C98.6137 146.365 99.4706 143.679 100.937 141.702C104.142 137.397 106.919 132.752 109.556 128.01C110.347 126.583 110.709 125.525 109.531 123.976C108.246 122.296 107.9 120.039 107.735 117.843C107.685 117.213 107.718 116.461 108.55 116.478C109.168 116.487 109.259 117.047 109.341 117.642C109.539 119.129 109.696 120.643 110.767 122.506C110.882 120.232 110.841 118.517 111.261 116.881C111.475 116.041 111.055 114.457 112.472 114.72C113.626 114.93 112.975 116.198 112.917 117.029C112.835 118.167 112.547 119.295 112.901 120.713C113.774 119.89 114.021 118.919 114.458 118.097C114.994 117.073 115.472 116.015 116.015 114.991C116.394 114.273 116.864 113.416 117.754 113.941C118.701 114.501 117.82 115.183 117.589 115.735C116.889 117.371 116.114 118.972 115.175 120.993C116.872 120.634 117.63 119.392 118.652 118.648C119.344 118.149 120.012 116.697 120.868 117.939C121.486 118.832 120.217 119.409 119.665 119.969C118.512 121.141 117.268 122.2 115.818 123.521C117.152 123.687 118.026 123.049 118.949 122.664C119.336 122.506 119.707 122.288 120.086 122.086C120.662 121.771 121.289 121.649 121.577 122.401C121.832 123.058 121.214 123.338 120.802 123.574C118.644 124.807 116.361 125.717 113.956 126.146C112.959 126.321 112.299 126.732 111.797 127.703C108.435 134.204 104.439 140.232 100.171 146.059C99.9238 146.4 99.5942 146.715 99.6766 147.441C102.099 146.496 104.233 145.385 105.288 142.603C105.897 140.993 107.109 139.795 108.221 138.561C108.509 138.237 108.831 137.931 109.284 137.905C109.63 137.887 109.976 137.931 110.19 138.255C110.437 138.631 110.19 138.928 109.968 139.191C109.127 140.153 108.155 141.002 107.57 142.481C109.712 142.244 110.635 139.427 112.868 139.978C113.016 141.011 112.052 141.168 111.871 141.859C112.151 142.603 113.222 142.104 113.403 143.163C111.385 144.825 108.715 144.992 105.996 146.234C109.284 146.68 111.978 145.149 114.747 145.447C114.92 146.549 114.285 146.628 113.865 146.75C111.352 147.485 108.765 148.098 106.177 147.721C104.249 147.441 102.618 147.791 100.888 148.657C98.2924 149.952 95.9359 151.387 94.1232 153.942C91.7338 157.319 88.9488 160.355 86.0403 163.234C85.0516 164.213 84.1123 165.377 82.9423 165.981C80.7753 167.083 79.8113 169.104 78.8391 171.204C77.3395 174.441 75.9058 177.705 74.777 181.125C73.6894 184.433 73.4587 187.801 73.6647 191.266C74.0272 197.399 74.2497 203.549 74.6452 209.683C75.2878 219.525 75.0324 229.394 75.4609 239.246C75.5103 240.313 75.6175 241.372 75.7163 242.588C76.6639 242.238 76.9193 241.407 77.2735 240.768C78.7896 238.056 80.3222 235.326 82.3903 233.087C84.7632 230.514 85.0598 227.688 84.2112 224.355C83.4779 221.485 82.8929 218.545 82.4891 215.597C81.2779 206.76 80.9731 197.924 83.1977 189.183C83.7992 186.83 84.3183 184.433 85.3894 182.263C86.4276 180.163 88.0095 180.102 89.2207 182.105C90.2506 183.803 90.7121 185.771 90.9757 187.731C92.3599 198.116 92.8049 208.449 89.2207 218.528C88.405 220.864 87.8777 223.322 87.2185 225.72ZM102.989 228.581C96.4385 232.745 88.5286 232.982 81.4839 237.435C84.0464 238.039 85.9991 237.461 87.9354 237.304C95.6392 236.674 102.816 234.101 109.597 230.182C110.479 229.674 111.269 228.992 112.077 228.353C112.827 227.758 113.42 226.997 113.931 226.166C114.203 225.729 114.574 225.256 114.236 224.696C113.972 224.259 113.494 224.39 113.09 224.407C112.926 224.416 112.761 224.451 112.596 224.469C106.952 225.265 101.357 226.332 95.8947 228.038C92.706 229.036 89.6492 230.392 86.9631 232.605C89.6574 231.984 92.2693 231.083 94.9471 230.506C97.6332 229.928 100.039 228.065 102.989 228.581ZM86.8148 219.543C88.7593 214.573 89.9211 209.438 90.0529 204.083C90.2012 197.933 89.954 191.799 88.7099 185.762C88.4957 184.713 88.3391 183.54 87.2515 182.604C83.0577 193.086 82.7033 203.663 84.4007 214.442C84.7962 211.319 85.0104 208.169 85.274 205.037C85.4471 202.972 85.6778 200.907 85.9414 198.851C86.0321 198.16 86.2051 197.268 87.1279 197.469C87.9436 197.644 87.6553 198.492 87.6058 199.052C87.3586 201.931 87.0208 204.792 86.7983 207.67C86.5017 211.616 86.2545 215.571 86.8148 219.543ZM114.755 204.713C120.522 203.165 125.301 199.962 129.141 195.264C130.352 193.785 131.448 192.141 132.049 190.225C132.478 188.868 132.041 188.256 130.764 188.527C129.709 188.755 128.655 189.14 127.674 189.621C122.31 192.272 117.919 196.235 114.318 201.257C114.087 201.581 113.7 201.913 114.162 202.482C115.513 201.581 116.584 200.304 117.795 199.219C119.015 198.116 120.226 197.005 121.478 195.946C122.08 195.448 122.813 195.422 123.208 196.209C123.546 196.891 122.788 197.058 122.45 197.381C119.904 199.831 117.325 202.272 114.755 204.713ZM133.532 148.561C128.284 153.365 122.335 164.012 122.352 168.212C122.813 167.906 122.961 167.363 123.192 166.891C123.909 165.465 124.601 164.021 125.334 162.595C125.598 162.079 126.01 161.746 126.57 162.087C127.122 162.429 127.064 162.971 126.826 163.496C126.166 164.957 125.458 166.401 124.848 167.888C124.485 168.78 123.686 169.542 123.851 170.802C131.308 165.578 133.607 157.967 133.532 148.561ZM47.8588 212.421C45.8813 212.535 44.3735 213.357 42.8492 214.04C39.9901 215.308 37.1475 216.647 34.3049 217.968C33.6787 218.266 33.0937 218.432 32.2038 217.504C36.9168 215.221 41.3908 213.025 45.9143 210.89C42.3713 210.068 39.3969 211.809 36.406 213.287C30.6054 216.157 26.1149 219.517 25.0603 221.625C30.2429 223.051 43.1293 217.959 47.8588 212.421ZM26.8318 171.169C22.5967 169.157 18.0732 167.932 14.0689 164.45C16.6725 164.003 18.1227 165.745 19.8365 166.558C21.7316 167.468 23.6101 168.369 25.7359 168.5C20.0342 163.557 13.6157 160.618 6.16724 160.504C11.6959 167.136 18.2133 171.536 26.8318 171.169ZM80.8742 153.128C81.1543 152.026 80.9401 151.247 80.8495 150.469C80.4622 147.065 80.0173 143.67 79.6548 140.267C79.5641 139.383 79.6712 138.465 79.7454 137.572C79.7783 137.196 80.0585 136.934 80.4375 136.934C80.8412 136.934 80.9895 137.24 81.0307 137.634C81.1543 138.797 81.245 139.97 81.4015 141.133C81.8464 144.414 82.3161 147.695 82.7775 150.985C83.9722 143.399 81.7228 127.94 78.9709 124.151C77.5949 134.081 76.4166 143.653 80.8742 153.128ZM89.4514 79.8544C83.2884 84.2989 79.3911 90.1259 76.7133 97.0202C77.6114 96.7839 78.0563 96.0228 78.6083 95.4016C80.454 93.3018 81.9948 90.9308 83.6344 88.6473C84.0299 88.0961 84.549 87.7548 85.134 88.2798C85.719 88.796 85.1422 89.2772 84.9115 89.6709C82.967 92.9518 80.627 95.9003 78.1882 98.7612C77.6114 99.4437 76.8863 100.047 76.5155 101.255C84.6808 95.2353 89.8387 86.0838 89.4514 79.8544ZM33.3821 202.255C31.3882 201.878 29.8391 201.835 28.2737 202.08C26.6999 202.333 25.1179 202.57 23.5195 202.491C22.0446 202.412 20.5615 203.514 18.6664 202.552C21.3195 200.758 24.088 201.511 26.4527 200.54C20.1496 200.094 13.9206 199.875 9.58663 206.629C10.8555 206.769 27.8534 204.573 30.0039 203.987C31.0421 203.707 32.1709 203.602 33.3821 202.255ZM40.8552 188.107C41.6462 186.742 41.9099 185.281 41.9347 183.768C42.0006 178.982 42.0582 174.196 42.083 169.41C42.0994 167.144 41.9099 164.887 41.432 162.691C41.0777 161.072 40.8141 159.358 39.6029 158.037C37.3782 163.146 36.7191 178.142 38.7542 181.055C38.7542 180.076 38.7377 179.358 38.7542 178.649C38.8448 175.675 38.9519 172.691 39.059 169.717C39.0838 169.104 39.3474 168.632 39.9489 168.64C40.6081 168.649 40.6905 169.209 40.6822 169.795C40.6328 172.683 40.6328 175.57 40.5339 178.448C40.4351 181.659 40.2043 184.87 40.8552 188.107ZM20.5698 194.135C20.0095 193.173 19.2762 192.884 18.6664 192.429C16.0381 190.496 13.3026 188.772 10.4023 187.346C10.0068 187.154 9.55366 186.917 9.73493 186.392C9.90796 185.911 10.4106 185.929 10.8225 186.077C12.7341 186.769 14.4726 187.845 16.2441 188.851C16.6725 189.096 17.0927 189.682 17.8755 189.078C13.1543 184.94 8.54843 180.881 3.22576 177.215C5.94477 186.926 13.6486 193.602 20.5698 194.135ZM54.3267 208.624C54.7552 206.962 54.8952 205.649 55.0188 204.319C55.1671 202.701 55.3979 201.091 55.6533 199.49C55.7604 198.807 56.1888 198.309 56.8974 198.484C57.5896 198.65 57.4 199.315 57.3506 199.822C57.1364 201.975 56.8315 204.127 56.675 206.288C56.5102 208.563 56.1064 210.855 56.5678 213.366C59.567 207.714 59.0561 190.531 55.8922 186.419C54.1619 192.246 53.3462 203.191 54.3267 208.624ZM36.7273 138.369C40.6987 147.039 48.3614 154.633 53.4534 154.983C51.5418 153.644 49.861 152.49 48.1966 151.308C46.5734 150.162 45.181 148.736 43.9863 147.091C43.7226 146.733 43.5248 146.295 43.9533 145.893C44.3323 145.543 44.7113 145.604 45.0491 145.98C45.4529 146.435 45.8484 146.908 46.2604 147.354C48.9134 150.259 52.2092 152.061 55.5462 153.811C50.034 147.564 43.5825 142.691 36.7273 138.369ZM114.054 179.586C114.054 177.101 114.046 174.616 114.063 172.14C114.071 170.968 114.112 169.787 114.186 168.623C114.219 168.142 114.475 167.748 114.994 167.818C115.34 167.862 115.562 168.142 115.678 168.518C115.949 169.349 115.595 170.312 116.246 171.388C116.477 165.228 116.823 159.375 115.134 153.653C112.382 162.175 110.446 170.732 114.054 179.586ZM102.124 170.994C100.047 178.186 100.764 193.838 103.145 197.215C102.964 194.372 102.783 191.686 102.61 188.991C102.56 188.273 102.527 187.556 102.511 186.83C102.494 186.401 102.766 186.156 103.112 186.112C103.475 186.069 103.78 186.314 103.846 186.699C103.986 187.495 104.043 188.3 104.175 189.096C104.332 190.006 104.052 191.012 104.752 191.817C104.933 184.713 104.159 177.757 102.124 170.994ZM61.5527 155.666C61.7258 155.674 61.8988 155.683 62.0636 155.692C62.1707 154.721 62.2942 153.758 62.3849 152.787C62.5744 150.819 62.7227 148.841 62.9287 146.873C63.0111 146.077 63.0441 145.123 63.9092 144.852C65.1451 144.467 65.0462 143.461 65.0133 142.481C64.8814 138.972 64.7249 135.464 64.5436 131.955C64.5189 131.518 64.8238 130.836 63.8598 130.634C61.6598 138.841 59.6247 147.039 61.5527 155.666ZM124.09 212.981C119.888 211.17 109.094 212.64 105.205 215.545C107.932 215.125 110.314 214.775 112.695 214.363C113.329 214.258 114.021 214.197 114.145 214.923C114.285 215.728 113.469 215.807 112.942 215.964C112.143 216.201 111.319 216.376 110.503 216.533C109.803 216.664 109.094 216.734 108.386 216.839C113.725 216.489 119.122 216.358 124.09 212.981ZM19.5893 138.57C18.3039 144.493 19.3586 152.516 21.9622 155.622C21.4102 153.303 20.8911 151.413 20.5286 149.489C20.3638 148.605 19.7458 147.188 20.8499 146.864C22.1517 146.479 21.9293 148.089 22.1682 148.92C22.8768 151.466 23.2064 154.161 24.6483 156.54C25.5381 152.691 22.9098 143.329 19.5893 138.57ZM34.2225 197.539C34.2555 193.488 29.5013 183.068 26.6587 180.977C27.1943 186.445 28.1748 191.554 30.9762 196.401C31.314 195.308 30.7784 194.695 30.729 194.013C30.6548 193.042 29.4766 191.703 30.8526 191.204C31.9732 190.802 31.9485 192.464 32.3027 193.287C32.863 194.582 33.1267 196.034 34.2225 197.539ZM64.28 155.849C64.865 152.91 65.3182 150.031 64.7414 147.091C64.3953 150.022 63.7527 152.927 64.28 155.849Z" fill="#C49967"/>
<path d="M251.991 220.383C252.394 217.539 252.139 215.107 252.156 212.683C252.205 205.982 252.048 199.28 252.172 192.578C252.246 188.413 251.48 184.503 250.079 180.679C247.418 173.417 243.85 166.654 240.414 159.813C239.417 157.826 238.305 155.902 237.358 153.889C236.805 152.717 236.023 152.446 234.919 152.533C233.501 152.647 232.068 152.586 230.651 152.717C222.864 153.443 215.276 152.297 207.819 149.917C201.228 147.817 196.234 143.557 193.112 136.872C191.604 133.644 190.071 130.415 188.572 127.178C188.201 126.373 187.863 125.533 187.591 124.676C186.949 122.594 187.352 121.92 189.396 122.183C192.634 122.594 195.855 123.189 199.077 123.792C203.04 124.527 206.938 125.56 210.785 126.855C217.797 129.226 223.878 133.25 229.159 138.727C229.687 139.278 230.082 140.022 230.873 140.258C231.186 139.777 230.906 139.366 230.749 138.981C227.248 130.52 224.858 121.666 222.765 112.699C222.139 110.013 222.131 109.978 219.461 109.689C217.385 109.461 215.539 108.761 214.131 107.029C213.521 106.277 212.862 105.419 213.348 104.361C213.809 103.346 214.823 103.249 215.745 103.232C217.484 103.179 218.967 104.054 220.59 104.973C220.986 103.276 220.154 101.937 219.824 100.537C219.659 99.8198 218.893 99.881 218.349 99.6973C216.66 99.1374 215.053 98.3762 213.603 97.2651C212.639 96.5301 211.758 95.6815 211.181 94.5528C210.736 93.6867 210.167 92.733 210.785 91.7706C211.486 90.6682 212.614 90.9832 213.554 91.2719C214.501 91.5694 215.383 92.1468 216.281 92.628C216.874 92.943 217.336 93.5292 218.176 93.6517C218.127 90.8607 217.624 88.5509 214.765 87.5448C213.183 86.9936 211.733 86.0137 210.398 84.8938C209.516 84.1501 208.816 83.2752 208.503 82.0941C208.091 80.5192 208.734 79.6443 210.258 79.6793C211.692 79.7143 212.738 80.6592 213.867 81.4379C214.419 81.8228 214.781 82.5053 215.663 82.7065C215.968 81.2192 215.284 79.9156 215.062 78.5769C214.938 77.842 214.205 77.8333 213.62 77.7633C212.021 77.5883 210.48 77.1596 209.063 76.3284C207.349 75.331 206.484 73.7387 206.896 72.4613C207.333 71.1314 209.137 70.5977 211.107 71.2977C211.898 71.5776 212.639 71.9976 213.537 72.4088C213.875 70.6677 213.232 69.1629 212.952 67.623C212.829 66.9231 212.203 66.7481 211.65 66.4944C210.728 66.0744 209.83 65.5757 208.94 65.077C208.182 64.6571 207.531 64.0884 207.02 63.3535C206.402 62.4785 205.735 61.4899 206.41 60.3963C207.111 59.2676 208.157 59.6963 209.146 60.02C210.019 60.3088 210.678 61.1137 211.642 61.1662C211.725 58.6377 211.725 58.6202 209.624 58.1915C208.289 57.9203 206.987 57.579 206.006 56.4767C205.405 55.7942 204.985 54.9631 205.356 54.0094C205.751 52.9945 206.649 52.9158 207.506 53.0645C208.478 53.2395 209.434 53.5544 210.555 53.8432C210.761 52.6533 210.209 51.7434 209.813 50.7985C209.508 50.0548 209.137 49.3286 208.94 48.5587C208.536 47.0276 208.964 45.8377 210.085 44.9978C211.123 44.2191 212.45 44.1841 213.372 44.9191C214.378 45.724 214.79 47.3863 214.353 48.8387C214.065 49.8098 213.471 50.5797 212.952 51.3934C212.722 51.7521 212.376 52.0583 212.499 52.5745C212.993 53.2307 213.414 52.6445 213.801 52.4433C214.493 52.0846 215.193 51.8046 215.96 51.8309C217.723 51.8921 218.489 53.3007 217.706 55.0068C217.196 56.1354 216.265 56.7391 215.284 57.2816C213.397 58.314 213.397 58.3052 213.834 60.7987C214.567 60.7987 214.864 60.0463 215.366 59.6963C216.322 59.0401 217.262 58.9789 218.151 59.7751C218.934 60.4663 218.975 61.8399 218.308 63.0035C217.855 63.7909 217.187 64.3334 216.487 64.8408C214.65 66.1707 214.65 66.1707 215.045 68.4192C215.119 68.8567 215.226 69.2941 215.317 69.7316C216.33 69.8103 216.808 68.8916 217.558 68.5417C218.778 67.973 219.981 67.728 221.093 68.7429C221.983 69.5566 222.007 70.8515 221.266 72.4963C220.582 74.0011 219.602 75.3135 218.259 76.0572C216.775 76.8796 216.734 77.9295 217.171 79.3556C217.377 80.038 217.393 80.7817 217.838 81.3854C218.588 81.4291 218.951 80.6855 219.536 80.3968C221.076 79.6181 222.601 79.7756 223.499 80.8342C224.397 81.8929 224.347 83.4064 223.317 85.0863C222.568 86.3112 221.571 87.2998 220.434 88.0785C219.61 88.6472 219.305 89.3034 219.602 90.3358C219.997 91.7006 220.071 93.1705 220.788 94.6841C221.53 93.7917 222.106 92.9605 222.815 92.2868C223.82 91.3244 225.278 91.1319 226.061 91.8581C226.951 92.6805 227.182 93.7479 226.91 95.034C226.432 97.2913 225.089 98.9099 223.631 100.388C222.428 101.613 221.9 102.76 222.971 104.369C223.861 103.757 224.067 102.585 224.768 101.806C225.962 100.467 227.421 99.951 228.583 100.572C229.753 101.202 230.296 103.022 229.835 104.859C229.176 107.458 227.528 109.251 225.55 110.677C224.718 111.281 224.455 111.824 224.702 112.865C227.124 122.952 229.909 132.9 234.119 142.314C234.185 142.463 234.325 142.577 234.737 143.084C234.737 141.754 234.82 140.757 234.721 139.786C233.584 128.666 235.858 118.403 241.304 108.928C241.658 108.315 242.013 107.685 242.458 107.152C243.57 105.813 244.921 105.962 245.729 107.493C246.017 108.035 246.174 108.665 246.388 109.251C247.64 112.733 248.291 116.382 248.695 120.065C249.222 124.912 249.428 129.786 248.777 134.65C247.863 141.492 245.061 147.38 240.9 152.525C240.002 153.627 239.681 154.388 240.381 155.797C244.287 163.583 248.407 171.248 251.538 179.428C252.493 179.314 252.172 178.597 252.18 178.177C252.353 170.486 252.469 162.787 252.642 155.097C252.955 141.256 253.194 127.406 254.405 113.608C254.479 112.795 254.339 111.946 254.512 111.167C255.237 107.886 253.861 105.725 251.595 103.748C249.585 101.998 247.797 99.9248 245.992 97.9037C241.856 93.2755 239.483 87.676 238.322 81.3941C237.16 75.0773 236.435 68.7079 235.981 62.2948C235.8 59.7576 235.982 57.2291 236.319 54.7181C236.74 51.5159 238.181 50.8335 240.612 52.7145C244.855 56.0042 247.986 60.3175 250.326 65.322C253.499 72.1201 255.155 79.3731 255.904 86.8973C256.02 88.0522 256.012 89.2159 256.704 90.5195C257.478 85.76 258.22 81.2542 258.953 76.7396C259.011 76.3809 259.027 76.0134 259.126 75.6722C259.835 73.1437 260.115 70.9389 257.585 69.0929C256.069 67.9905 255.451 65.8732 255.394 63.7997C255.328 61.3762 256.934 60.3875 258.904 61.5686C259.81 62.1111 260.304 63.0822 261.169 64.2196C261.911 62.2336 262.142 60.4138 262.504 58.6377C262.677 57.7715 262.117 57.3253 261.565 56.8879C260.609 56.1354 259.744 55.2868 259.044 54.2544C258.483 53.4407 258.08 52.5395 258.055 51.5159C258.006 49.4424 259.48 48.4012 261.244 49.1974C262.29 49.6698 262.9 50.6935 263.757 51.4109C265.042 49.0749 265.042 48.9699 263.617 46.9051C262.661 45.514 261.787 44.0704 261.532 42.3206C261.4 41.4282 261.31 40.4745 262.117 39.8358C262.949 39.1709 263.732 39.6521 264.449 40.0983C265.091 40.5008 265.668 41.0257 266.303 41.5157C267.217 40.387 267.217 39.5209 266.121 38.4972C264.696 37.1673 263.781 35.4175 263.551 33.3527C263.427 32.2678 263.336 31.043 264.35 30.4043C265.363 29.7656 266.261 30.4568 267.094 31.1304C267.539 31.4892 267.769 32.1803 268.56 32.2416C269.269 31.1217 269.607 29.9231 269.252 28.4882C269.063 27.7095 269.046 26.8696 269.055 26.0647C269.079 24.2974 269.771 23.1163 271.049 22.6438C272.251 22.1976 273.43 22.3463 274.311 23.3612C275.35 24.5511 275.77 26.0122 275.185 27.6133C274.534 29.4156 273.199 30.5268 271.625 31.2354C270.645 31.6816 270.365 32.3028 270.562 33.344C271.386 33.7727 272.21 33.2827 273.034 33.3527C274.501 33.4927 275.58 34.2451 275.959 35.4963C276.363 36.8349 275.893 38.4447 274.723 39.3459C273.595 40.2208 272.35 40.6845 270.941 40.2645C270.381 40.0983 269.829 39.9408 269.186 39.7483C268.428 41.1394 268.189 42.6093 267.942 44.2891C269.046 44.4816 270.019 43.9129 270.991 44.1841C272.021 44.4729 272.985 44.8666 273.15 46.1264C273.314 47.3688 272.573 48.1475 271.592 48.6374C270.497 49.1886 269.335 49.4511 268.181 48.9787C266.954 48.4712 266.533 49.0312 266.319 50.256C266.097 51.5684 265.742 52.8458 265.413 54.2719C266.434 54.4206 267.003 53.7644 267.703 53.6332C269.219 53.3532 270.529 53.9044 271.18 55.1643C271.84 56.4329 271.568 57.8153 270.373 59.0664C268.626 60.9037 266.566 61.1837 264.243 60.3C263.303 62.846 262.933 65.4008 262.537 67.9555C263.229 68.113 263.542 67.5968 263.963 67.3693C264.638 67.0106 265.314 66.6169 266.022 66.3894C267.687 65.8645 269.442 66.5819 269.92 67.903C270.447 69.3641 269.73 70.8427 267.975 71.8051C266.5 72.61 264.951 72.89 263.353 72.3126C262.101 71.8576 261.59 72.2513 261.318 73.7037C259.942 80.9829 258.821 88.2972 257.956 95.6552C257.322 101.036 256.885 106.443 256.366 111.841C256.308 112.462 256.152 113.092 256.44 113.713C257.231 113.958 257.198 113.127 257.338 112.769C261.738 101.867 268.643 93.1705 277.278 85.9524C279.469 84.1239 281.611 82.2428 283.778 80.388C284.52 79.7493 285.294 79.1894 286.291 79.7406C287.198 80.2393 287.173 81.2104 287.214 82.1028C287.478 87.816 286.399 93.2755 284.363 98.5074C281.785 105.131 278.464 111.299 274.41 117.003C269.722 123.6 263.74 128.184 256.325 130.477C255.509 130.73 255.311 131.063 255.221 131.903C254.825 135.507 254.883 139.13 254.792 142.743C254.537 152.874 254.487 163.015 254.215 173.146C253.878 185.824 253.911 198.492 253.894 211.17C253.894 212.613 253.894 214.057 253.894 215.466C254.899 215.781 254.973 214.941 255.221 214.46C257.857 209.306 260.411 204.109 263.106 199C263.79 197.696 263.658 196.821 262.949 195.605C260.057 190.653 258.022 185.351 257.346 179.472C256.86 175.255 257.313 171.169 258.31 167.118C259.917 160.635 262.125 154.379 264.333 148.124C264.449 147.782 264.548 147.433 264.721 147.126C265.38 145.928 266.385 145.858 267.085 147.013C267.398 147.529 267.588 148.159 267.72 148.771C269.475 157.162 271.205 165.543 271.049 174.231C270.999 177.04 270.505 179.796 270.307 182.779C271.065 182.499 271.114 181.817 271.32 181.344C275.893 170.635 279.42 159.515 282.378 148.176C282.74 146.803 282.419 146.006 281.414 145.201C279.601 143.767 278.398 141.824 277.805 139.471C277.582 138.587 277.376 137.607 278.217 136.995C278.983 136.435 279.815 136.697 280.598 137.135C281.958 137.905 282.724 139.392 283.836 140.459C284.413 139.821 284.454 139.086 284.652 138.403C284.973 137.249 284.718 136.557 283.622 136.102C282.435 135.612 281.43 134.781 280.771 133.548C280.384 132.83 280.128 132.078 280.087 131.247C280.038 130.109 280.161 129.042 281.191 128.429C282.131 127.869 283.029 128.272 283.787 128.841C284.528 129.392 285.138 130.144 285.913 130.914C286.728 129.506 286.605 127.931 286.967 126.496C287.239 125.42 286.374 125.122 285.764 124.702C283.605 123.215 282.955 121.001 283.078 118.385C283.128 117.344 283.301 116.329 284.248 115.857C285.336 115.314 286.176 115.988 286.909 116.793C287.255 117.169 287.552 117.607 287.89 118.044C288.516 117.336 288.516 116.513 288.615 115.726C288.722 114.912 288.467 114.37 287.742 114.002C286.992 113.617 286.275 113.136 285.599 112.602C284.916 112.069 284.355 111.377 284.125 110.459C283.877 109.444 283.877 108.42 284.726 107.738C285.468 107.143 286.341 107.292 287.099 107.773C287.742 108.175 288.31 108.718 289.035 109.286C290.04 107.886 289.694 106.347 289.48 104.894C289.282 103.547 289.035 102.217 289.093 100.852C289.175 98.9974 290.263 97.8163 291.721 97.8688C293.18 97.93 294.276 99.1986 294.333 100.948C294.383 102.576 293.715 103.914 292.825 105.157C291.491 107.02 291.507 107.029 291.458 109.304C291.96 109.846 292.553 109.453 293.105 109.479C294.795 109.54 295.94 110.223 296.146 111.316C296.377 112.541 295.495 113.521 293.616 114.133C293.377 114.212 293.138 114.3 292.891 114.352C290.716 114.833 290.724 114.833 290.329 117.274C290.131 118.517 289.942 119.768 289.999 121.211C290.724 121.273 291.145 120.625 291.688 120.371C292.669 119.908 293.616 119.838 294.605 120.284C295.602 120.73 296.385 121.448 296.401 122.664C296.418 123.766 295.676 124.422 294.811 124.895C293.896 125.402 292.908 125.577 291.919 125.743C289.01 126.251 289.002 126.242 288.508 129.348C288.401 130.031 287.939 130.704 288.384 131.439C289.085 131.352 289.554 130.774 290.164 130.494C290.774 130.206 291.4 129.891 292.043 129.786C293.106 129.619 294.053 129.987 294.638 131.028C295.256 132.13 294.885 133.154 294.201 134.02C292.883 135.691 291.07 136.391 289.126 136.697C287.017 137.03 287.008 136.995 286.514 139.296C286.366 139.996 286.217 140.704 286.094 141.413C286.069 141.571 286.16 141.754 286.209 141.991C287.041 142.209 287.503 141.396 288.154 141.124C288.854 140.836 289.53 140.416 290.246 140.249C291.112 140.048 291.977 140.328 292.455 141.168C292.974 142.069 292.586 142.927 292.001 143.644C290.461 145.525 288.384 146.216 286.176 146.435C285.187 146.531 284.718 146.846 284.446 147.905C283.35 152.078 282.164 156.234 281.027 160.39C280.961 160.626 280.804 160.915 281.142 161.186C281.883 160.959 282.164 160.136 282.6 159.541C289.431 150.46 297.736 143.443 307.607 138.613C309.667 137.607 311.727 136.601 313.77 135.551C314.594 135.131 315.352 134.965 316.102 135.656C316.777 136.277 316.711 137.065 316.563 137.896C315.986 141.046 314.825 143.968 313.251 146.645C304.896 160.819 293.361 170.189 277.945 173.549C277.096 173.732 276.404 173.794 276.009 174.852C272.639 183.846 268.461 192.412 264.202 200.933C264.094 201.152 264.086 201.423 264.037 201.651C264.449 202.088 264.688 201.677 264.894 201.493C273.389 193.82 283.342 189.507 293.971 186.751C295.272 186.41 296.566 186.034 297.884 185.78C300.216 185.334 301.271 186.532 300.669 189.035C300.002 191.817 298.445 194.118 296.69 196.174C291.35 202.438 285.146 207.443 277.937 210.96C274.46 212.657 270.777 213.462 267.011 213.847C264.473 214.11 261.977 213.891 259.645 212.657C258.78 212.202 258.269 212.36 257.824 213.278C256.852 215.282 255.814 217.251 254.809 219.228C254.084 220.654 254.207 222.229 254.24 223.751C254.421 231.258 254.998 238.747 256.077 246.166C257.725 257.514 259.958 268.739 262.521 279.885C262.817 281.18 262.859 282.606 263.806 283.648C264.391 284.286 264.169 284.785 263.551 285.144C262.949 285.494 262.348 285.397 262.084 284.68C261.68 283.595 261.326 282.475 261.046 281.338C259.629 275.563 258.376 269.745 257.28 263.892C255.55 254.671 253.828 245.44 253.128 236.035C252.848 232.247 252.46 228.467 252.477 224.652C252.477 223.471 252.427 222.491 250.928 222.526C250.087 222.544 249.338 222.001 248.629 221.511C243.949 218.318 239.393 214.941 235.05 211.231C228.97 206.017 225.311 199.184 223.26 191.196C221.546 184.511 221.159 177.652 220.87 170.784C220.755 168.072 220.755 165.351 220.706 162.638C220.697 162.009 220.623 161.317 221.307 161.002C221.917 160.722 222.461 161.02 222.947 161.387C223.219 161.589 223.441 161.877 223.664 162.14C229.184 168.588 234.721 175.001 239.45 182.193C245.078 190.758 248.44 200.076 248.473 210.724C248.448 214.232 248.983 217.662 251.991 220.383ZM189.643 123.827C189.684 124.921 190.104 125.708 190.475 126.505C191.925 129.663 193.441 132.786 194.867 135.954C197.866 142.647 202.826 146.733 209.343 148.78C213.776 150.171 218.316 151.002 222.906 151.387C227.132 151.746 231.367 151.518 235.726 150.88C235.421 149.83 234.754 149.445 234.128 149.06C232.455 148.036 230.791 146.986 229.069 146.068C220.969 141.711 212.4 138.578 203.963 135.114C203.518 134.93 202.991 134.851 203.016 134.081C203.222 133.968 203.477 133.696 203.634 133.749C213.389 136.855 222.823 140.897 232.002 145.674C232.299 144.843 231.928 144.528 231.689 144.222C227.775 139.331 223.375 135.061 218.11 131.903C211.642 128.027 204.573 126.233 197.38 124.904C194.859 124.431 192.329 123.784 189.643 123.827ZM223.12 164.301C222.93 164.406 222.741 164.52 222.543 164.625C222.716 174.362 222.848 184.109 225.814 193.505C227.569 199.07 230.197 204.057 234.243 208.073C238.083 211.879 242.359 215.054 246.709 218.108C246.923 218.257 247.162 218.257 247.401 217.793C244.707 214.32 242.433 210.444 240.414 206.375C237.217 199.919 234.877 192.989 231.252 186.777C231.161 186.629 231.096 186.454 231.021 186.296C230.89 186.025 230.931 185.771 231.104 185.552C231.351 185.246 231.705 185.202 232.027 185.307C232.636 185.509 232.892 186.139 233.213 186.655C234.614 188.912 235.809 191.292 236.88 193.75C239.121 198.904 241.345 204.074 243.9 209.053C244.534 210.277 245.226 211.467 246.322 212.421C246.446 210.225 246.396 208.099 246.215 205.99C245.498 197.661 242.417 190.312 238.05 183.531C234.317 177.731 230.148 172.306 225.641 167.179C224.801 166.217 223.96 165.263 223.12 164.301ZM257.445 128.193C258.269 128.473 258.706 128.158 259.134 127.931C263.79 125.507 267.967 122.393 271.279 118.044C275.391 112.629 278.678 106.662 281.455 100.336C283.745 95.1128 285.163 89.6796 285.311 83.8876C285.327 83.284 285.558 82.6015 284.792 82.1641C280.474 85.83 275.984 89.3384 272.029 93.5204C264.325 101.666 258.912 111.307 256.193 122.638C255.937 123.714 255.484 124.807 256.094 126.295C257.577 123.897 258.862 121.71 260.238 119.593C264.094 113.67 267.975 107.773 271.872 101.885C272.4 101.088 272.82 99.4436 274.015 100.415C274.938 101.176 273.735 102.173 273.281 102.891C269.623 108.63 265.891 114.308 262.199 120.022C260.519 122.611 258.854 125.201 257.445 128.193ZM254.364 100.441C254.94 100.039 254.759 99.4523 254.759 98.9449C254.767 94.5966 254.454 90.2745 253.952 85.9699C253.078 78.4807 251.373 71.2364 248.011 64.5346C246.034 60.58 243.488 57.1503 240.192 54.4031C238.931 53.3445 238.486 53.5282 238.33 55.2518C238.124 57.4916 237.786 59.7401 237.951 62.0061C238.363 67.588 239.022 73.135 239.829 78.6732C241.016 86.8099 243.966 93.8879 249.7 99.4611C250.508 100.24 251.274 101.071 252.287 102.121C252.287 101.43 252.337 101.228 252.279 101.08C248.448 91.4994 246.231 81.3679 243.471 71.4114C243.331 70.8952 243.175 70.3703 243.059 69.8453C242.969 69.4603 243.084 69.1454 243.463 68.9966C243.809 68.8567 244.147 68.9267 244.419 69.1366C244.855 69.4778 244.921 70.064 245.078 70.5627C245.523 72.0238 245.943 73.4849 246.355 74.9548C248.555 82.8203 250.376 90.817 253.317 98.4287C253.589 99.1461 253.63 100.021 254.364 100.441ZM262.092 207.705C262.545 207.845 262.875 207.521 263.213 207.338C269.565 203.891 275.827 200.26 282.04 196.541C282.551 196.235 283.037 195.876 283.572 195.631C284.075 195.404 284.602 195.535 284.866 196.078C285.121 196.611 284.668 196.909 284.33 197.119C282.608 198.23 280.895 199.359 279.123 200.373C273.66 203.514 268.173 206.585 262.718 209.744C261.911 210.207 260.807 210.409 260.51 211.616C261.713 212.43 262.982 212.456 264.235 212.456C269.269 212.465 273.998 211.135 278.456 208.659C283.704 205.745 288.434 202.053 292.661 197.609C294.696 195.465 296.681 193.243 297.967 190.443C298.354 189.603 298.939 188.763 298.601 187.705C285.509 189.306 266.064 199.971 262.092 207.705ZM279.214 171.353C279.824 171.694 280.277 171.379 280.746 171.239C293.493 167.512 302.935 158.946 310.392 147.511C311.891 145.219 313.119 142.743 313.91 140.04C314.124 139.305 314.627 138.57 314.083 137.765C301.246 142.131 282.79 158.185 279.898 167.486C280.425 167.372 280.73 166.926 281.084 166.567C285.657 162.044 290.23 157.52 294.803 152.997C295.602 152.201 296.401 151.396 297.217 150.617C297.802 150.066 298.585 149.48 299.203 150.223C299.854 151.011 298.857 151.422 298.445 151.842C293.55 156.794 288.623 161.694 283.721 166.637C282.196 168.168 280.54 169.559 279.214 171.353ZM239.475 150.941C240.25 151.186 240.488 150.731 240.703 150.39C243.298 146.243 245.622 141.921 246.38 136.916C247.756 127.764 247.195 118.727 244.518 109.881C244.402 109.505 244.419 108.945 243.636 108.936C240.06 114.422 238.008 120.651 236.946 127.301C235.874 134.003 236.534 144.633 238.19 147.188C239.038 142.113 239.879 137.144 240.703 132.165C240.966 130.564 241.181 128.954 241.436 127.345C241.593 126.365 241.741 125.385 241.963 124.422C242.12 123.74 242.565 123.267 243.257 123.53C243.9 123.775 243.628 124.414 243.562 124.93C242.861 130.485 241.939 135.989 240.983 141.501C240.431 144.642 239.969 147.809 239.475 150.941ZM265.174 192.972C267.613 188.711 269.351 178.781 269.112 171.65C268.865 164.143 266.962 152.568 265.503 150.451C263.106 158.22 259.917 165.534 259.167 173.662C258.623 179.603 259.884 185.132 262.315 190.408C262.372 190.522 262.587 190.557 262.735 190.627C263.18 190.312 263.023 189.831 262.966 189.437C262.463 186.034 262.298 182.595 262.158 179.166C262.018 175.823 262.101 172.473 262.117 169.122C262.117 168.422 262.389 167.844 263.172 167.958C263.905 168.063 263.715 168.719 263.732 169.227C263.806 172.665 263.823 176.103 263.963 179.533C264.127 183.846 264.581 188.125 265.174 192.972ZM224.347 109.575C226.416 107.79 227.899 106.119 227.89 103.424C227.89 102.996 227.915 102.488 227.478 102.252C227.001 102.007 226.687 102.401 226.44 102.742C225.105 104.623 224.257 106.688 224.347 109.575ZM212.796 93.0217C213.85 96.0402 216.067 97.4575 219.082 98.4374C217.591 95.4627 215.877 93.9404 212.796 93.0217ZM274.081 36.2137C274.056 35.75 273.974 35.3213 273.529 35.1026C272.499 34.5864 270.076 35.89 269.846 37.0973C269.664 38.0772 270.159 38.6634 270.95 38.8997C272.284 39.3109 274.105 37.7098 274.081 36.2137ZM215.086 104.772C216.561 107.764 218.151 108.648 220.78 108.096C219.429 105.97 217.888 104.474 215.086 104.772ZM218.959 86.9498C220.5 86.0662 221.324 84.8938 221.917 83.4852C222.18 82.8553 222.222 82.2341 221.727 81.7529C221.126 81.1667 220.623 81.7004 220.228 82.1203C219.058 83.354 218.226 84.7451 218.959 86.9498ZM266.105 59.3726C267.341 59.3989 269.063 58.0952 269.392 56.8616C269.508 56.4242 269.549 55.9692 269.252 55.5842C268.931 55.1643 268.503 55.2255 268.115 55.418C267.044 55.9517 266.097 56.6779 265.388 57.719C265.149 58.069 264.927 58.5152 265.231 58.9614C265.437 59.2589 265.759 59.3639 266.105 59.3726ZM213.109 76.4159C213.331 75.331 213.134 74.5873 212.524 74.0099C211.766 73.2837 210.917 72.715 209.887 72.54C209.549 72.4788 209.195 72.5313 208.964 72.82C208.635 73.2487 208.857 73.6862 209.088 74.0449C210.003 75.506 211.461 75.9259 213.109 76.4159ZM219.733 70.8602C219.733 70.204 219.643 69.7578 219.074 69.8191C217.723 69.959 215.877 72.5663 216.1 74.0011C216.19 74.5786 216.462 75.1823 217.072 74.7711C218.456 73.8262 219.387 72.4525 219.733 70.8602ZM257.701 63.0035C257.14 65.4882 257.931 67.4218 259.843 69.3029C260.115 66.5119 259.48 64.5171 257.701 63.0035ZM263.328 70.9652C265.289 71.3852 266.657 70.9652 267.745 69.6266C268.091 69.2066 268.231 68.6554 267.885 68.1392C267.588 67.7018 267.135 67.7718 266.748 67.9293C265.405 68.463 264.235 69.2416 263.328 70.9652ZM271.263 29.2231C272.589 28.3132 273.413 27.4733 273.471 26.0822C273.504 25.2773 273.487 24.3236 272.49 24.2536C271.642 24.1924 271.147 24.8661 271.032 25.7585C270.892 26.8171 270.917 27.8583 271.263 29.2231ZM262.595 56.0742C263.007 53.8344 262.306 52.4258 261.26 51.1484C261.062 50.9035 260.799 50.606 260.42 50.816C260.082 50.9997 259.991 51.3409 259.999 51.7084C260.041 53.5632 261.079 54.7093 262.595 56.0742ZM287.997 135.315C289.999 135.201 291.433 134.528 292.529 133.101C292.834 132.699 293.04 132.13 292.644 131.649C292.306 131.238 291.886 131.474 291.532 131.702C290.197 132.533 288.92 133.451 287.997 135.315ZM284.965 135.07C284.462 133.005 284.306 130.984 282.262 129.952C281.85 132.918 282.32 133.836 284.965 135.07ZM215.202 85.9962C214.18 83.8789 212.755 82.2691 210.316 81.3067C211.156 84.2726 213.142 85.1825 215.202 85.9962ZM283.086 144.755C282.913 141.667 281.562 140.057 279.543 138.202C279.856 141.142 280.903 142.927 283.086 144.755ZM287.115 123.766C287.445 121.456 286.786 119.645 285.426 117.86C284.635 120.783 285.023 122.13 287.115 123.766ZM265.66 32.0141C265.034 34.3939 265.767 35.9512 267.184 37.701C267.827 35.26 267.234 33.6502 265.66 32.0141ZM224.669 93.2667C222.559 95.3053 222.395 95.8477 223.079 98.3149C224.356 96.9063 225.155 95.4977 224.669 93.2667ZM265.1 46.4414C265.751 43.6942 265.627 43.3617 263.534 41.6469C263.196 43.5717 264.07 44.8578 265.1 46.4414ZM207.77 54.4294C207.143 54.5343 207.086 54.9281 207.251 55.383C207.473 55.9955 207.943 56.3542 208.478 56.5991C209.154 56.9141 210.093 57.4303 210.489 56.6866C211 55.7242 209.887 55.4618 209.302 55.0943C208.808 54.8056 208.256 54.6306 207.77 54.4294ZM291.021 124.309C292.265 124.326 293.18 124.046 293.962 123.311C294.284 123.005 294.465 122.585 294.267 122.113C294.004 121.491 293.485 121.448 293.007 121.666C292.051 122.095 291.326 122.786 291.021 124.309ZM208.165 61.4024C209.418 64.0359 210.093 64.5783 211.988 64.7008C210.621 62.6448 210.563 62.5923 208.165 61.4024ZM211.395 49.8011C212.4 49.1536 212.557 48.13 212.491 47.0451C212.466 46.7214 212.334 46.3189 211.972 46.1964C211.486 46.0389 211.181 46.4152 210.991 46.7914C210.439 47.8588 210.728 48.8387 211.395 49.8011ZM267.827 47.3951C268.28 47.745 268.7 47.745 269.112 47.7013C269.895 47.6313 270.587 47.3513 270.958 46.5377C271.065 46.3014 271.04 45.9602 270.777 45.829C270.085 45.5053 269.491 46.004 268.89 46.2139C268.461 46.3714 267.893 46.5114 267.827 47.3951ZM286.217 108.971C286.02 111.526 286.423 112.095 288.458 112.471C288.129 111.132 287.478 110.074 286.217 108.971ZM290.362 142.157C288.821 142.62 287.544 143.495 286.094 145.018C288.195 144.607 289.612 143.977 290.362 142.157ZM213.051 56.5904C214.617 55.8642 215.836 55.4443 215.82 53.4845C214.345 53.9307 213.447 54.6306 213.051 56.5904ZM291.375 103.372C292.257 102.436 292.347 101.5 292.282 100.528C292.257 100.205 292.207 99.7848 291.771 99.8023C291.4 99.8111 291.169 100.117 291.095 100.467C290.906 101.333 290.848 102.208 291.375 103.372ZM291.606 112.672C292.282 113.197 292.867 112.777 293.435 112.436C293.798 112.226 294.234 111.964 294.045 111.43C293.781 110.704 293.237 111.019 292.784 111.194C292.15 111.439 291.507 111.719 291.606 112.672Z" fill="#C49967"/>
<path d="M402.74 221.135C399.526 214.687 397.994 207.618 396.181 200.662C395.851 199.402 395.258 198.606 394.171 198.134C392.778 197.521 391.427 196.786 390.018 196.218C380.658 192.438 372.863 186.489 367.294 177.363C365.819 174.949 364.171 172.648 362.721 170.215C362.086 169.148 360.735 167.853 361.732 166.628C362.77 165.368 364.047 166.716 365.094 167.328C375.269 173.26 384.604 180.382 392.061 190.085C392.432 190.566 392.869 191.003 393.281 191.449C393.33 191.502 393.437 191.502 393.577 191.537C393.94 190.715 393.462 189.988 393.281 189.288C390.224 177.617 386.681 166.103 383.805 154.379C383.36 152.577 382.363 151.168 380.889 150.022C377.642 153.128 373.745 154.712 369.749 156.094C368.686 156.462 367.623 156.567 366.527 156.488C365.728 156.435 365.028 156.182 364.706 155.307C364.393 154.432 364.772 153.723 365.283 153.085C366.346 151.755 367.664 150.81 369.106 150.04C370.12 149.497 371.174 149.025 372.188 148.535C372.056 148.01 371.726 147.923 371.405 147.826C366.552 146.418 363.388 142.804 360.817 138.395C360.554 137.94 360.339 137.432 360.183 136.925C359.705 135.333 360.109 134.668 361.658 134.659C363.61 134.65 365.448 135.35 367.269 136.024C368.661 136.54 370.004 137.222 371.479 137.887C371.487 136.837 370.894 136.269 370.598 135.578C369.436 132.874 368.851 130.092 369.526 127.143C370.169 124.326 371.916 123.574 374.281 124.974C375.409 125.647 376.225 126.671 377.024 127.73C377.601 128.491 378.178 129.252 378.87 130.179C379.496 129.331 379.373 128.412 379.463 127.581C379.669 125.674 379.99 123.801 380.946 122.165C381.737 120.809 382.775 119.794 384.431 119.987C386.022 120.17 386.706 121.43 387.159 122.821C387.983 125.315 388.263 127.913 388.222 130.564C388.205 131.448 388.04 132.358 388.485 133.46C389.779 132.27 391.007 131.124 392.259 130.004C392.778 129.549 393.314 129.094 393.899 128.753C395.349 127.913 396.42 128.578 396.346 130.389C396.214 133.618 395.341 136.61 393.544 139.243C391.822 141.789 389.548 143.627 386.986 145.027C385.84 145.648 385.626 146.61 385.148 147.8C384.085 150.469 384.967 152.673 385.626 155.036C388.51 165.342 391.402 175.649 394.302 185.946C394.467 186.532 394.706 187.092 395.283 187.652C395.283 186.471 395.283 185.29 395.283 184.109C395.291 178.991 396.362 174.047 397.516 169.13C398.603 164.476 399.782 159.856 400.498 155.114C400.614 154.336 400.589 153.347 401.652 153.347C402.599 153.347 402.814 154.178 403.02 155.001C404.017 158.946 404.346 163.015 404.725 167.057C405.08 170.837 405.376 174.607 405.467 178.422C405.656 185.798 404.074 192.648 400.416 198.825C398.867 201.441 398.76 203.759 399.584 206.664C401.289 212.657 403.119 218.554 406.299 223.856C406.711 224.539 407.148 225.204 407.56 225.886C407.741 226.183 407.881 226.516 408.021 226.796C409.001 226.096 408.581 225.431 408.532 224.871C407.906 217.889 408.202 210.942 409.092 204.013C409.694 199.35 410.27 194.687 410.864 190.023C410.905 189.665 410.93 189.306 410.971 188.947C411.045 188.326 411.341 187.959 411.951 187.976C412.528 187.994 412.882 188.3 412.973 188.938C413.286 191.178 413.599 193.409 413.904 195.649C415.486 207.075 415.601 218.545 414.884 230.051C414.802 231.328 414.563 232.562 414.209 233.778C413.995 234.513 413.888 235.178 414.382 235.816C416.755 238.931 419.095 242.081 421.789 244.924C422.391 244.215 422.135 243.568 422.045 242.999C420.866 235.51 421.155 228.038 422.16 220.567C422.465 218.327 422.745 216.087 423.017 213.838C423.107 213.077 423.206 212.36 424.121 212.36C424.862 212.351 425.134 212.929 425.25 213.576C427.219 224.364 428.71 235.169 426.469 246.14C426.453 246.228 426.461 246.333 426.42 246.403C425.11 248.607 426.065 250.13 427.565 251.705C430.869 255.187 433.769 259.063 436.653 262.947C436.958 263.35 437.164 263.901 437.765 264.032C438.416 263.708 438.054 263.114 437.98 262.676C435.953 250.55 434.626 238.336 433.637 226.07C433.382 222.929 432.294 219.919 431.083 217.023C427.87 209.359 424.549 201.738 421.385 194.048C416.697 182.622 412.347 171.055 409.776 158.798C408.128 150.932 407.016 142.971 405.994 134.991C405.755 133.11 405.492 131.229 405.31 129.331C404.907 125.114 402.979 121.623 400.787 118.281C398.463 114.737 396.016 111.29 393.643 107.773C392.811 106.539 391.608 105.892 390.389 105.306C386.936 103.643 383.608 101.788 380.509 99.4174C379.125 98.3588 377.939 97.1077 376.711 95.8915C376.151 95.3316 375.788 94.6142 375.624 93.783C375.343 92.4006 375.722 91.1408 376.654 90.7383C377.774 90.2484 378.82 90.5021 379.636 91.4645C380.773 92.8031 381.169 94.4917 381.202 96.2327C381.226 97.5539 381.68 98.3763 382.685 99.1112C385.107 100.887 387.554 102.567 390.619 103.626C390.553 102.488 390.001 101.797 389.639 101.054C387.81 97.2652 386.261 93.363 385.593 89.1197C385.437 88.1311 385.165 87.2124 384.728 86.3112C384.151 85.1039 383.838 83.7828 383.624 82.4354C383.385 80.9218 383.723 79.5569 384.473 78.2971C384.942 77.5096 385.577 76.9322 386.557 77.0897C387.521 77.2472 387.974 77.9383 388.238 78.8657C388.757 80.6768 388.691 82.5491 387.991 84.1852C386.73 87.0987 387.34 89.8196 388.172 92.6106C389.672 97.6589 391.954 102.278 394.821 106.548C397.573 110.651 400.383 114.711 403.176 118.788C403.259 118.91 403.456 118.937 403.794 119.103C404.05 116.872 403.498 114.79 403.234 112.734C401.413 98.2713 400.185 83.7653 400.507 69.1455C400.548 67.3694 399.74 66.0483 399.015 64.6309C398.612 63.8435 397.936 63.9047 397.269 63.861C391.649 63.5198 387.653 60.0551 384.094 55.7856C383.929 55.5843 383.781 55.3569 383.657 55.1206C383.212 54.2195 383.525 53.6333 384.423 53.782C385.157 53.9045 385.865 54.2282 386.557 54.5344C388.864 55.5318 391.155 56.5555 393.668 57.2379C393.223 56.5205 392.786 55.8118 392.333 55.0944C389.606 50.7286 388.131 45.8641 387.464 40.6846C387.398 40.1509 387.414 39.5997 387.422 39.0572C387.439 38.2261 387.488 37.3424 388.362 37.0362C389.177 36.7562 389.82 37.2724 390.347 37.8936C392.391 40.3084 394.08 43.0118 395.728 45.7416C396.494 47.0102 397.211 48.3226 398.364 49.5737C398.529 47.4039 398.694 45.2429 398.85 43.0731C399.007 40.8158 399.328 38.6023 399.831 36.3975C400.416 33.834 402.558 33.7378 403.984 35.5313C404.7 36.4413 405.112 37.5349 405.467 38.6548C406.225 41.0695 406.694 43.5455 406.933 46.074C407.041 47.2377 407.164 48.3926 407.502 49.5737C408.425 49.2675 408.705 48.3226 409.216 47.6576C411.177 45.1379 413.344 42.8894 416.071 41.3758C418.452 40.0459 420.026 41.1658 419.927 44.0792C419.836 46.8527 418.914 49.3725 417.636 51.7522C417.027 52.8984 416.376 54.027 415.469 55.6631C417.628 54.9894 419.35 54.6919 421.097 54.7882C422.629 54.8757 424.096 55.2169 425.439 56.013C426.799 56.8092 426.947 57.7104 426.074 59.1277C425.934 59.3552 425.785 59.5827 425.596 59.7489C420.463 64.3597 415.115 68.3231 407.881 66.3545C407.461 66.2408 407.016 66.092 406.703 66.477C405.722 67.6669 404.371 68.2181 403.127 68.9442C402.031 69.5917 402.064 70.7291 402.097 71.7965C402.22 76.416 402.36 81.0268 402.566 85.6376C403.069 96.9502 404.478 108.167 405.92 119.374C406.019 120.144 405.854 121.019 406.76 121.675C409.199 113.748 412.289 106.093 411.729 97.4664C411.506 94.0455 411.803 90.5896 412.396 87.1949C412.536 86.3987 412.717 85.6026 412.965 84.8414C413.253 83.949 413.747 83.1703 414.72 83.1528C415.725 83.1353 416.475 83.739 416.92 84.6927C417.653 86.2325 417.727 87.8248 417.018 89.3909C416.73 90.0384 416.401 90.7558 415.898 91.167C413.855 92.8556 413.607 95.1129 413.673 97.6851C413.747 100.66 413.55 103.652 412.973 106.583C412.874 107.073 412.635 107.624 413.162 108.333C414.481 106.924 415.568 105.376 416.516 103.705C417.389 102.165 418.23 100.599 419.152 99.085C419.861 97.9213 420.842 97.0289 422.168 96.8277C423.206 96.6702 424.228 96.9152 424.788 97.9826C425.34 99.0412 424.772 99.9074 424.104 100.642C422.926 101.963 421.542 103.04 419.935 103.6C418.65 104.046 417.801 104.894 417.043 106.023C416.302 107.117 415.552 108.245 414.637 109.146C409.488 114.203 408.581 121.255 407.205 127.992C406.777 130.074 407.576 132.454 407.864 134.694C409.076 144.195 410.386 153.679 412.652 162.98C415.329 173.96 419.408 184.38 423.651 194.722C426.535 201.756 429.608 208.694 432.608 215.667C432.673 215.816 432.838 215.903 432.962 216.026C433.539 215.903 433.44 215.387 433.44 214.976C433.563 205.842 434.189 196.699 433.135 187.574C432.385 181.108 431.61 174.642 430.877 168.177C428.488 147.013 427.359 125.805 428.471 104.474C428.941 95.5153 429.724 86.6087 430.927 77.7284C432.838 63.6598 435.186 49.6962 438.243 35.8638C438.746 33.5978 438.046 31.2355 438.029 28.9083C438.029 28.1908 437.37 28.2258 436.9 28.0946C434.791 27.4997 432.706 26.8172 430.729 25.8111C427.804 24.315 425.736 21.909 424.417 18.733C424.187 18.1818 423.832 17.5257 424.319 16.9657C424.879 16.3183 425.604 16.5545 426.172 16.922C428.035 18.1293 429.855 19.398 431.726 20.6753C432.303 19.7217 431.594 19.223 431.33 18.6718C429.378 14.6647 428.249 10.4476 428.611 5.88058C428.718 4.47197 428.628 2.70464 430.136 2.1797C431.676 1.646 432.517 3.1946 433.349 4.28824C435.376 6.97422 436.876 10.0014 438.062 13.2211C438.359 14.0173 438.375 15.0059 439.364 15.7058C439.545 14.7609 439.718 13.9298 439.866 13.1073C440.509 9.63395 441.44 6.25679 442.717 3.00211C442.981 2.33718 443.261 1.67225 443.64 1.07731C444.497 -0.270057 445.601 -0.296305 446.441 1.05981C447.101 2.11845 447.406 3.37833 447.603 4.62945C448.32 9.17899 449.012 13.7373 448.048 18.3218C448.946 18.7505 449.243 18.0331 449.605 17.6656C452.786 14.446 456.601 12.4074 460.646 10.8326C462.731 10.0189 463.662 10.9201 463.266 13.3611C462.822 16.1083 461.47 18.4181 459.938 20.5791C458.932 21.9965 457.754 23.2738 456.329 25.0062C457.68 25.0062 458.718 24.9712 459.748 25.0149C461.429 25.0761 463.102 25.3299 464.642 26.0998C466.653 27.0972 466.785 28.5233 465.038 29.9407C463.613 31.0868 461.981 31.8217 460.333 32.4779C457.795 33.4841 455.151 33.9478 452.473 34.1315C450.487 34.2627 448.584 33.8428 447.018 32.5129C446.095 31.7255 445.494 31.743 444.686 32.5829C444.077 33.2128 443.236 33.5365 442.404 33.624C440.806 33.7903 440.171 34.8139 439.801 36.3975C438.515 41.8395 437.625 47.3689 436.612 52.8634C435.73 57.6579 434.989 62.4786 434.181 67.2819C434.124 67.6231 434.066 67.9643 434.346 68.2443C434.494 68.1656 434.717 68.1306 434.783 68.0081C437.543 62.5399 440.74 57.2642 441.127 50.7811C441.152 50.3349 441.218 49.8712 441.341 49.4425C441.869 47.5701 443.088 46.844 444.563 47.5176C446.17 48.2526 446.788 49.8799 446.021 51.4985C445.477 52.6534 444.662 53.5808 443.591 54.167C442.857 54.5607 442.437 55.1381 442.182 55.9605C440.699 60.7113 438.474 65.0946 435.961 69.2592C433.588 73.1876 432.558 77.4396 432.055 81.9892C430.968 91.8844 430.169 101.797 429.954 111.762C429.946 112.112 430.012 112.471 430.037 112.795C430.531 112.97 430.729 112.629 430.869 112.34C435.112 103.809 439.801 95.5416 443.418 86.6525C444.571 83.8177 445.42 80.9043 445.725 77.8071C445.955 75.4711 446.26 73.1263 447.035 70.904C447.793 68.708 448.847 67.9993 450.363 68.5418C452.061 69.1455 452.942 71.219 452.333 73.1963C451.896 74.6137 451.113 75.8386 450.075 76.7397C448.147 78.4108 447.208 80.5631 446.565 83.0916C445.453 87.4749 443.393 91.447 441.465 95.4716C440.542 97.3876 439.595 99.2949 438.647 101.22C439.422 101.78 439.8 101.089 440.237 100.791C443.154 98.8312 445.412 96.2327 446.845 92.8206C447.29 91.7532 447.842 90.7296 448.386 89.7147C448.765 89.006 449.235 88.3673 449.894 87.9211C450.891 87.2474 451.838 87.4399 452.687 88.1836C453.511 88.9097 453.552 89.8896 453.148 90.8958C452.621 92.2169 451.674 93.1618 450.504 93.678C448.576 94.5267 447.216 95.9703 445.906 97.6764C443.854 100.362 441.135 102.217 438.293 103.809C437.205 104.422 436.455 105.236 435.837 106.382C433.942 109.89 432.418 113.644 430.169 116.924C429.732 117.563 429.823 118.298 429.814 119.015C429.641 130.617 430.259 142.166 431.24 153.723C432.171 164.721 433.703 175.631 434.807 186.602C435.071 189.21 435.162 191.834 435.343 194.45C435.409 195.413 435.524 196.375 435.623 197.355C436.546 197.268 436.595 196.533 436.826 196.016C440.567 187.486 443.352 178.571 446.038 169.612C446.293 168.754 446.458 167.853 446.755 167.013C449.276 159.944 449.375 152.577 448.246 145.324C447.29 139.191 444.884 133.548 439.504 130.144C437.922 129.147 436.834 127.695 436.233 125.822C435.969 124.991 436.019 124.195 436.653 123.574C437.254 122.988 437.963 122.848 438.754 123.11C440.369 123.626 441.358 125.149 441.045 127.38C440.83 128.884 441.185 129.689 442.363 130.407C443.937 131.352 445 132.892 445.955 134.51C446.301 135.088 446.409 135.875 447.249 136.269C447.405 134.571 446.994 133.032 446.804 131.474C446.145 126.155 444.967 120.993 442.899 116.085C442.553 115.271 442.289 114.387 442.149 113.504C441.935 112.174 442.215 110.966 443.376 110.205C444.365 109.549 445.346 109.794 446.203 110.45C447.266 111.264 447.595 112.462 447.331 113.81C447.125 114.877 446.713 115.892 446.137 116.784C445.593 117.624 445.634 118.368 445.955 119.304C448.707 127.476 449.342 136.059 450.133 144.615C450.256 145.954 450.372 147.284 450.726 148.885C451.599 147.196 451.74 145.578 452.061 144.047C455.587 126.916 459.13 109.785 462.525 92.6194C463.959 85.3663 465.071 78.0346 466.241 70.7203C466.603 68.4368 466.76 66.127 465.903 63.8435C465.573 62.9598 465.31 62.4786 464.37 62.5399C462.69 62.6536 461.025 62.3824 459.394 61.9274C456.559 61.1225 454.17 59.5302 452.193 57.2029C451.805 56.748 451.451 56.2055 451.22 55.6368C450.858 54.7444 451.237 54.1757 452.118 54.2807C452.942 54.377 453.775 54.5957 454.541 54.9194C456.724 55.8381 458.883 56.8355 461.042 57.7979C461.338 57.9291 461.627 58.1828 462.08 57.8241C460.119 55.0156 458.586 51.9622 457.927 48.4626C457.573 46.5815 457.449 44.6917 457.672 42.7931C457.812 41.612 458.455 41.227 459.435 41.7345C460.028 42.0407 460.531 42.5394 461.042 43.0031C463.365 45.1029 465.161 47.7189 466.925 50.2911C467.806 49.9849 467.666 49.2587 467.79 48.6813C468.391 45.7591 469.166 42.8981 470.344 40.1771C470.756 39.2322 471.044 38.0073 472.338 38.0511C473.78 38.1036 474.291 39.311 474.653 40.5358C475.502 43.3968 475.873 46.3453 475.865 49.3637C475.865 50.2474 475.691 51.1573 476.013 52.0672C476.919 52.2072 477.315 51.3585 477.867 50.9036C480.017 49.11 482.365 47.7451 485.002 47.0277C487.227 46.4153 488.265 47.4127 487.861 49.8712C487.301 53.2921 485.678 56.1005 483.181 58.3053C482.473 58.9265 481.723 59.4952 480.998 60.0726C481.303 61.0875 482.126 60.7813 482.703 60.9738C484.236 61.4725 485.711 62.1112 487.004 63.1436C487.4 63.4585 487.894 63.8348 487.688 64.4559C487.507 65.0159 486.98 65.1646 486.452 65.2084C484.285 65.3921 482.118 65.6021 479.943 65.7508C477.339 65.9345 474.744 66.057 472.33 64.6747C471.976 64.4734 471.531 64.211 471.176 64.6309C470.064 65.952 468.606 66.9932 468.292 68.953C467.098 76.4422 465.878 83.9227 464.667 91.412C464.609 91.7619 464.601 92.1207 465.063 92.7069C467.205 88.7348 470.896 85.9525 471.366 80.9568C471.506 79.4257 472.099 77.9733 473.253 76.9234C474.406 75.8648 475.963 75.7598 476.936 76.6522C477.867 77.5009 477.982 78.892 477.191 80.3618C476.548 81.5517 475.749 82.9078 474.579 83.1703C472.709 83.599 472.157 85.1914 471.234 86.5037C469.108 89.5309 467.098 92.6456 465.293 95.9178C463.497 99.1725 462.607 102.733 461.841 106.355C458.265 123.276 454.838 140.241 451.13 157.135C448.106 170.898 443.838 184.24 438.21 197.031C437.502 198.641 437.131 200.435 435.821 201.747C435.203 202.368 435.467 203.479 435.409 204.363C434.816 214.048 434.947 223.716 435.829 233.375C436.637 242.203 437.815 250.978 439.117 259.736C439.248 260.62 439.479 261.495 439.66 262.352C440.163 262.309 440.278 261.95 440.377 261.635C442.709 254.277 445.379 247.068 448.345 239.99C449.63 236.927 449.746 234.093 448.452 230.89C445.964 224.731 444.39 218.257 444.027 211.485C443.615 203.637 445.321 196.218 447.752 188.93C448.015 188.134 448.361 187.364 449.334 187.547C450.215 187.714 450.537 188.44 450.627 189.315C450.916 192.193 451.294 195.063 451.476 197.95C451.978 206.087 451.921 214.241 451.715 222.395C451.649 224.88 451.706 227.373 451.706 229.919C452.662 229.727 452.679 228.983 452.893 228.458C455.678 221.774 458.553 215.133 461.668 208.615C462.179 207.548 462.121 206.935 461.371 205.833C460.3 204.267 460.061 202.141 459.781 200.172C458.372 190.26 458.273 180.338 459.954 170.443C460.753 165.727 461.561 161.011 462.368 156.295C462.459 155.762 462.607 155.237 462.723 154.712C462.871 154.056 463.143 153.461 463.851 153.478C464.461 153.496 464.98 153.837 465.203 154.511C465.45 155.281 465.689 156.05 465.887 156.838C469.009 169.262 469.677 181.79 467.304 194.459C467.221 194.905 467.139 195.352 467.337 195.798C467.946 195.737 468.062 195.15 468.276 194.704C472.346 186.147 475.642 177.258 478.023 167.976C478.312 166.838 478.246 166.024 477.595 164.983C474.53 160.11 471.712 155.088 469.85 149.497C467.312 141.877 466.488 134.02 466.859 125.98C466.9 124.991 466.645 123.565 468.029 123.346C469.347 123.136 469.603 124.431 469.965 125.42C473.113 134.003 476.359 142.542 478.485 151.518C479.02 153.776 479.383 156.085 479.885 158.701C480.734 157.127 480.8 155.683 481.055 154.309C482.621 146.068 484.335 137.852 485.554 129.541C485.958 126.793 484.936 124.221 484.532 121.57C484.376 120.564 483.379 120.73 482.646 120.66C479.803 120.389 476.985 119.89 474.291 118.867C471.588 117.834 469.421 116.058 468.259 113.11C467.963 112.366 467.592 111.526 468.185 110.809C468.869 109.978 469.701 110.345 470.492 110.704C472.725 111.719 474.966 112.751 477.208 113.74C477.875 114.037 478.584 114.247 479.3 114.501C479.358 113.862 479.094 113.626 478.872 113.364C474.431 108.28 473.17 102.051 473.294 95.3228C473.302 94.9641 473.343 94.5967 473.401 94.2467C473.533 93.4418 473.59 92.5319 474.48 92.2869C475.428 92.0244 476.029 92.6631 476.54 93.4593C479.424 97.9301 481.764 102.733 484.055 107.572C484.417 108.333 484.565 109.269 485.529 109.925C485.9 108.735 485.81 107.668 485.859 106.635C486.073 102.095 486.559 97.6064 488.388 93.433C488.866 92.3481 489.081 90.7471 490.613 90.887C492.162 91.027 492.475 92.5669 492.788 93.8617C493.794 98.0088 494.008 102.235 493.555 106.662C494.593 106.347 494.856 105.332 495.342 104.632C497.213 101.893 499.413 99.5749 502.239 98.0263C502.964 97.6239 503.706 97.0989 504.595 97.6764C505.617 98.3413 505.411 99.3912 505.304 100.354C504.958 103.573 503.664 106.408 502.124 109.129C501.646 109.978 501.118 110.791 500.591 111.657C501.456 112.077 502.066 111.421 502.733 111.176C505.049 110.328 507.372 109.61 509.844 109.733C510.264 109.75 510.684 109.759 511.096 109.829C514.161 110.354 514.606 111.5 512.637 114.002C509.638 117.808 505.905 120.179 501.225 120.66C498.638 120.923 496.051 121.229 493.456 121.159C492.5 121.133 492.014 121.395 491.758 122.55C491.264 124.764 490.555 126.933 488.182 127.703C487.622 127.887 487.466 128.438 487.392 128.981C486.147 138.115 484.351 147.135 482.786 156.199C482.761 156.348 482.876 156.532 482.926 156.715C483.684 156.742 483.84 156.016 484.129 155.526C490.168 145.385 497.757 136.732 506.079 128.788C506.705 128.193 507.281 127.397 508.237 128.097C509.16 128.779 508.74 129.681 508.55 130.547C508.072 132.76 507.314 134.869 506.49 136.951C503.104 145.438 498.416 153.006 492.475 159.638C489.179 163.312 485.035 165.78 481.105 168.544C480.223 169.165 479.564 169.804 479.259 170.942C477.611 177.031 475.502 182.937 473.096 188.72C472.931 189.122 472.659 189.507 472.931 189.997C473.615 190.032 473.904 189.411 474.274 188.991C480.594 181.913 487.845 176.077 495.384 170.635C497.122 169.375 498.885 168.142 500.608 166.864C501.3 166.348 501.975 166.147 502.659 166.794C503.302 167.407 502.989 168.142 502.758 168.798C502.198 170.425 501.374 171.904 500.435 173.286C495.301 180.846 489.517 187.731 482.563 193.392C478.188 196.953 473.327 199.595 468.292 201.87C467.254 202.342 466.439 202.893 465.887 204.048C460.556 215.133 455.579 226.402 451.146 237.951C451.031 238.257 450.784 238.555 450.94 238.94C451.328 239.167 451.558 238.861 451.789 238.633C458.43 231.967 465.928 226.77 474.332 223.104C476.12 222.325 477.891 221.503 479.663 220.706C480.437 220.357 481.286 219.858 482.003 220.654C482.802 221.538 481.986 222.308 481.616 223.051C478.699 228.983 474.167 233.253 469.141 236.962C464.42 240.445 459.377 243.297 453.931 245.239C453.371 245.44 452.819 245.642 452.267 245.843C448.79 247.12 446.062 249.124 445.041 253.314C444.382 256.009 443.245 258.573 442.346 261.206C440.863 265.537 440.682 269.99 441.185 274.531C441.465 277.051 441.704 279.571 441.951 282.09C441.984 282.449 442.017 282.817 442.009 283.175C441.992 283.866 442.198 284.811 441.234 284.855C440.377 284.89 440.575 283.963 440.509 283.403C440.056 279.448 439.627 275.493 439.215 271.539C439.059 270.052 438.589 268.748 437.716 267.584C433.918 262.519 430.169 257.418 426.016 252.667C424.689 251.153 423.313 250.471 421.443 250.392C415.577 250.165 409.743 249.465 403.967 248.397C396.239 246.98 388.93 244.119 381.828 240.602C381.597 240.488 381.383 240.348 381.16 240.217C380.79 239.99 380.378 239.718 380.419 239.22C380.485 238.537 381.086 238.432 381.564 238.432C384.077 238.406 386.59 238.38 389.103 238.45C398.471 238.721 407.543 240.777 416.458 243.76C417.002 243.944 417.505 244.355 418.403 243.97C416.392 241.451 414.522 238.957 412.479 236.639C411.836 235.912 411.193 235.239 410.757 234.364C409.76 232.352 408.219 231.127 406.324 230.164C402.74 228.345 398.908 227.33 395.225 225.851C390.141 223.812 385.511 220.969 381.16 217.557C376.209 213.672 371.356 209.648 366.651 205.422C366.329 205.133 365.992 204.862 365.687 204.547C365.44 204.293 365.209 203.926 365.464 203.611C365.654 203.374 366.033 203.191 366.321 203.191C366.717 203.2 367.137 203.348 367.508 203.532C377.074 208.344 386.64 213.139 396.181 218.003C398.282 219.079 400.292 220.383 402.344 221.581C402.484 221.363 402.608 221.249 402.74 221.135ZM506.219 131.343C498.605 137.109 483.708 156.847 483.165 162.341C483.758 161.457 484.013 160.976 484.351 160.574C488.108 156.068 491.907 151.606 495.433 146.881C495.961 146.173 496.62 144.808 497.567 145.683C498.482 146.531 497.155 147.196 496.71 147.809C493.126 152.717 489.245 157.337 485.398 162C484.887 162.621 484.211 163.172 483.98 164.222C491.594 160.609 504.208 141.964 506.219 131.343ZM464.214 158.054C461.429 171.668 459.328 184.809 461.47 198.457C462.212 197.959 462.031 197.364 462.064 196.856C462.253 193.785 462.401 190.715 462.607 187.652C462.912 183.059 463.225 178.457 463.596 173.872C463.662 173.059 463.522 171.72 464.692 171.834C465.804 171.939 465.252 173.164 465.219 173.855C464.84 181.16 464.445 188.466 463.959 195.763C463.851 197.381 463.662 198.965 463.876 200.767C467.691 190.041 468.144 170.032 464.214 158.054ZM392.144 193.75C389.68 187.337 369.971 169.962 364.352 169.235C370.284 179.446 376.843 188.868 387.9 193.365C387.867 192.736 387.571 192.552 387.324 192.359C384.67 190.303 382.042 188.23 379.356 186.226C377.082 184.529 374.841 182.788 373.012 180.513C372.633 180.041 372.27 179.533 371.941 179.017C371.735 178.702 371.718 178.335 371.998 178.037C372.353 177.661 372.773 177.696 373.119 178.011C373.432 178.299 373.679 178.676 373.951 179.017C375.121 180.443 376.357 181.79 377.807 182.884C382.396 186.357 387.076 189.691 391.468 193.462C391.625 193.61 391.872 193.645 392.144 193.75ZM479.136 222.981C467.567 227.146 457.557 233.848 449.053 244.032C450.462 243.865 451.072 243.201 451.748 242.728C456.716 239.22 461.668 235.676 466.628 232.15C467.609 231.459 468.589 230.768 469.619 230.164C470.163 229.841 470.748 229.876 471.036 230.855C468.375 232.824 465.689 234.81 462.995 236.779C460.383 238.686 457.754 240.558 455.134 242.448C455.249 242.623 455.373 242.789 455.488 242.964C464.799 238.319 473.623 232.982 479.136 222.981ZM499.981 169.498C488.627 177.11 478.056 185.658 469.858 197.233C470.888 197.075 471.621 196.358 472.396 195.745C478.361 191.064 484.195 186.2 489.394 180.513C489.937 179.918 490.663 178.719 491.421 179.612C492.22 180.557 490.869 181.073 490.382 181.624C486.452 186.104 482.11 190.067 477.537 193.759C476.969 194.214 476.169 194.538 475.93 195.632C482.86 192.316 497.345 176.681 499.981 169.498ZM401.677 159.428C398.785 170.732 395.835 181.598 397.705 193.68C397.985 192.788 398.167 192.394 398.233 191.983C398.826 188.422 399.427 184.87 399.979 181.3C400.325 179.069 400.581 176.83 400.877 174.59C400.968 173.916 401.199 173.26 401.932 173.339C402.83 173.444 402.517 174.222 402.468 174.817C402.179 178.509 401.66 182.175 401.042 185.815C400.449 189.35 399.724 192.858 399.436 196.541C399.724 196.393 399.905 196.358 399.996 196.244C400.161 196.043 400.292 195.807 400.4 195.562C402.072 191.869 403.077 187.976 403.44 183.881C403.959 178.081 403.325 172.324 402.715 166.584C402.492 164.371 402.591 162.079 401.677 159.428ZM384.86 239.858C395.851 245.799 407.634 248.004 419.762 248.625C417.472 247.278 414.967 246.718 412.462 246.166C407.7 245.117 402.888 244.557 398.06 244.058C397.598 244.014 397.03 244.11 396.955 243.008C403.028 242.746 408.911 244.259 414.868 244.845C405.121 241.424 395.2 239.281 384.86 239.858ZM444.34 27.5172C450.718 26.6597 453.857 25.0761 457.062 21.1215C459.023 18.698 460.638 16.0383 461.52 12.4424C453.742 15.0847 448.683 20.4304 444.34 27.5172ZM417.686 42.8369C412.577 44.7529 405.228 55.7156 405.368 61.21C412.948 57.5791 418.708 48.9962 417.686 42.8369ZM407.032 63.0823C407.939 65.4971 409.76 65.6546 411.498 65.5058C416.491 65.0684 420.413 62.1724 423.989 58.664C424.887 57.7804 424.681 57.1504 423.569 56.6867C422.456 56.2318 421.295 56.1005 420.117 56.2143C417.224 56.4942 414.547 57.5704 412.24 59.4077C410.625 60.6851 409.01 61.9449 407.032 63.0823ZM379.71 143.426C380.584 136.094 377.609 130.503 374.585 127.143C374.124 126.636 373.555 126.225 372.995 125.84C372.369 125.402 371.916 125.7 371.578 126.356C371.15 127.178 371.108 128.088 371.092 128.981C371.034 132.078 371.982 134.834 373.745 137.249C375.409 139.532 377.346 141.509 379.71 143.426ZM445.403 3.05461C441.794 7.6479 439.924 21.419 442.099 26.196C447.669 19.2667 447.076 11.41 445.403 3.05461ZM401.874 60.8863C403.802 58.6378 404.635 56.398 404.923 54.0182C405.574 48.6725 404.956 43.4143 403.333 38.3048C403.11 37.5961 403.011 36.6775 401.833 36.45C400.185 44.4467 400.103 52.3734 401.874 60.8863ZM361.781 136.172C364.385 141.177 367.318 144.843 371.99 146.453C373.745 147.056 375.582 147.31 377.444 147.188C377.988 147.153 378.441 147.004 378.614 146.391C378.763 145.858 378.417 145.569 378.087 145.28C375.055 142.708 372.105 140.013 368.579 138.229C366.626 137.249 364.624 136.382 361.781 136.172ZM511.92 111.684C510.734 110.879 509.745 110.949 508.74 111.089C505.98 111.474 503.376 112.419 500.937 113.853C498.449 115.323 495.977 116.828 493.505 118.333C493.052 118.613 492.319 118.604 492.352 119.602C495.787 119.619 499.207 119.602 502.56 118.805C506.49 117.869 509.399 115.288 511.92 111.684ZM431.124 4.48947C428.892 10.6138 433.234 21.9877 439.018 25.1899C438.96 18.8293 434.61 7.42917 431.124 4.48947ZM382.512 143.049C383.855 140.897 384.918 138.675 385.544 136.242C386.656 131.955 386.491 127.677 385.288 123.443C385.074 122.69 384.909 121.675 384.02 121.649C383.187 121.623 382.825 122.559 382.487 123.268C381.663 124.982 381.408 126.846 381.309 128.753C381.062 133.557 381.803 138.272 382.512 143.049ZM373.325 208.676C381.688 215.772 389.581 222.596 399.724 225.326C397.549 223.148 394.731 222.203 392.177 220.742C389.581 219.254 386.73 218.257 384.16 216.306C384.992 215.501 385.527 215.685 386.055 215.964C391.295 218.782 396.815 220.978 401.841 224.267C402.262 224.539 402.674 225.23 403.316 224.626C400.325 221.616 377.832 209.508 373.325 208.676ZM475.708 95.2878C474.456 101.998 477.735 113.547 486.048 116.373C482.959 109.111 479.869 102.112 475.708 95.2878ZM446.474 29.7832C447.62 31.3493 448.79 32.4167 450.372 32.5304C455.118 32.8629 459.485 31.4893 463.505 28.7945C463.86 28.5583 464.239 28.2433 464.198 27.7446C464.14 27.0534 463.514 27.0447 463.069 26.8785C461.857 26.441 460.589 26.5285 459.336 26.4673C454.862 26.2485 450.883 28.2083 446.474 29.7832ZM468.993 128.246C468.449 135 469.331 141.544 471.473 148.185C472.083 147.013 471.514 146.295 471.391 145.534C471.209 144.467 470.913 143.426 470.731 142.367C470.649 141.894 470.838 141.466 471.366 141.413C471.794 141.369 471.934 141.763 472.041 142.087C472.215 142.594 472.297 143.137 472.437 143.653C473.607 147.993 475.106 152.21 476.721 156.374C476.936 156.925 477.01 157.608 477.949 157.932C476.482 147.406 472.733 137.852 468.993 128.246ZM449.721 220.19C450.108 210.811 450.471 201.458 449.202 191.808C445.675 198.265 444.777 215.326 447.702 220.479C447.595 219.438 447.513 218.642 447.439 217.846C447.117 214.25 446.796 210.654 446.812 207.04C446.812 206.375 446.507 205.343 447.422 205.247C448.427 205.142 448.164 206.235 448.213 206.874C448.37 208.851 448.435 210.837 448.584 212.824C448.781 215.3 448.856 217.802 449.721 220.19ZM503.219 99.6887C498.91 101.543 492.129 111.666 491.61 117.003C497.114 114.65 503.088 105.752 503.219 99.6887ZM485.777 48.5063C479.992 50.2386 475.107 55.0156 473.557 60.3439C479.704 60.4488 485.604 54.8319 485.777 48.5063ZM488.496 116.102C491.94 110.94 493.003 98.1401 490.473 93.8792C487.894 98.6038 486.732 111.089 488.496 116.102ZM472.577 40.8158C469.957 46.8615 467.848 52.9771 470.394 59.8627C475.444 53.9307 473.994 47.3689 472.577 40.8158ZM399.081 59.5477C397.796 52.1284 394.096 46.1003 389.746 40.4396C390.488 48.1651 392.926 54.9194 399.081 59.5477ZM412.256 196.821C409.834 202.57 409.199 222.658 411.127 227.286C411.127 223.655 411.127 220.155 411.127 216.656C411.127 215.929 411.127 215.203 411.201 214.495C411.251 213.943 411.465 213.305 412.034 213.296C412.734 213.287 412.635 214.013 412.643 214.521C412.668 215.693 412.635 216.874 412.668 218.047C412.701 219.49 412.775 220.934 412.841 222.378C412.907 223.795 412.989 225.204 413.064 226.612C413.665 216.839 413.583 207.119 412.256 196.821ZM467.246 59.3465C467.485 53.852 463.571 46.2315 459.756 44.5254C459.361 50.7286 462.591 57.2379 467.246 59.3465ZM385.47 143.592C390.38 141.046 393.668 137.249 394.22 130.696C389.82 134.213 387.134 138.5 385.47 143.592ZM424.269 219.849C423.355 224.39 422.794 228.931 422.984 233.55C423.009 234.075 422.77 235.02 423.775 234.819C425.052 234.556 424.879 235.484 424.895 236.289C424.912 237.286 424.912 238.275 424.937 239.272C424.961 240.156 425.002 241.031 425.035 241.914C426.123 234.46 425.53 227.137 424.269 219.849ZM470.27 112.436C472.149 117.012 479.144 120.127 484.409 118.954C482.39 117.064 477.166 114.641 470.27 112.436ZM378.235 149.742C373.901 149.06 370.219 150.477 367.104 153.671C366.799 153.986 366.519 154.379 366.791 154.843C366.989 155.167 367.351 155.158 367.689 155.062C371.512 154.047 375.08 152.437 378.235 149.742ZM484.409 63.4498C480.594 60.93 476.507 62.0149 472.462 62.4961C476.211 65.7071 480.347 63.7298 484.409 63.4498ZM397.532 62.0762C394.863 59.2677 391.353 58.3141 387.966 57.0979C390.537 60.1251 393.429 62.4436 397.532 62.0762ZM436.258 26.336C434.115 23.8075 429.122 20.3166 427.005 19.8004C429.007 23.6938 432.228 25.3474 436.258 26.336ZM402.336 62.6449C401.751 62.7936 400.54 62.1549 400.82 63.5373C401.059 64.7272 401.817 65.8033 402.377 66.9057C402.501 67.1507 402.773 67.1594 403.036 67.0982C403.844 66.9232 405.294 65.4446 405.211 64.6747C405.096 63.5548 404.116 63.2223 403.358 62.7411C403.102 62.5924 402.707 62.6711 402.336 62.6449ZM454.302 56.6517C456.485 59.5914 459.509 61.035 462.69 60.6501C460.663 58.7953 456.452 56.783 454.302 56.6517ZM486.806 122.296C486.839 123.906 487.4 125.28 488.034 125.376C488.71 125.481 489.962 123.32 489.806 122.174C489.633 120.94 488.636 121.141 487.853 121.045C486.947 120.932 486.708 121.509 486.806 122.296ZM448.114 76.0485C449.63 74.3862 450.767 73.2401 450.833 71.3765C450.858 70.7378 450.759 70.0379 450.059 69.8804C449.49 69.7492 449.177 70.2566 448.971 70.7641C448.361 72.2427 447.949 73.7475 448.114 76.0485ZM443.986 30.0719C443.179 29.442 442.075 29.7657 441.242 29.1357C440.847 28.8295 440.369 29.057 440.27 29.5382C440.122 30.3081 439.957 31.1655 440.501 31.8305C441.036 32.4867 441.737 32.1804 442.33 31.918C443.08 31.5855 443.854 31.1918 443.986 30.0719ZM415.107 84.7102C414.258 86.6787 413.854 88.3148 414.085 90.1871C416.013 88.3323 416.186 87.5449 415.107 84.7102ZM444.967 114.938C445.337 113.81 446.079 112.856 445.28 111.675C445.148 111.482 444.876 111.334 444.645 111.552C443.632 112.506 443.986 113.591 444.415 114.676C444.439 114.737 444.555 114.746 444.967 114.938ZM473.261 81.4905C474.612 80.8605 475.247 79.9506 475.7 78.8745C475.832 78.5683 475.939 78.1396 475.626 77.8858C475.304 77.6234 475.016 77.9033 474.777 78.1221C473.904 78.892 473.508 79.9244 473.261 81.4905ZM468.21 64.8496C469.075 63.9397 469.982 63.5198 469.578 62.3212C469.43 61.8837 468.902 61.77 468.523 61.9449C467.328 62.5049 467.823 63.4498 468.21 64.8496ZM386.269 79.0845C385.214 81.8579 385.214 81.8579 386.244 83.599C386.516 82.1904 386.87 80.9218 386.269 79.0845ZM420.364 101.29C421.435 100.642 422.753 100.24 422.984 98.0876C421.418 98.8837 420.603 99.7936 420.364 101.29ZM377.98 92.3306C377.469 94.4917 377.494 94.5704 379.241 95.4453C379.018 94.2904 378.911 93.1793 377.98 92.3306ZM443.253 51.8572C443.632 51.621 443.805 51.5597 443.904 51.4372C444.357 50.7986 444.884 50.1686 444.423 49.2762C444.291 49.0225 444.011 48.9 443.805 49.0487C443.179 49.4862 443.105 50.2299 443.08 50.9473C443.063 51.201 443.17 51.4547 443.253 51.8572ZM451.286 89.5047C450.446 89.8984 449.877 90.5371 449.68 91.8319C450.817 91.342 451.286 90.6508 451.286 89.5047ZM383.212 147.704C383.179 147.188 382.825 146.873 382.264 146.785C381.803 146.715 381.63 147.144 381.688 147.45C381.803 148.045 382.034 148.71 382.751 148.657C383.13 148.64 383.196 148.203 383.212 147.704ZM439.067 127.073C439.265 125.866 439.356 125.096 438.317 124.72C437.914 125.656 438.35 126.251 439.067 127.073ZM473.121 152.262C473.302 151.308 472.964 150.862 472.363 150.04C472.445 150.74 472.429 151.011 472.511 151.221C472.635 151.518 472.832 151.781 473.121 152.262Z" fill="#C49967"/>
</svg>
