<svg width="21" height="21" viewBox="0 0 21 21" fill="none" xmlns="http://www.w3.org/2000/svg">
<path d="M15.65 3.57428C15.025 3.57428 14.5125 4.10143 14.5125 4.74428C14.5125 5.38714 15.025 5.91428 15.65 5.91428C16.275 5.91428 16.7875 5.38714 16.7875 4.74428C16.7875 4.10143 16.275 3.57428 15.65 3.57428Z" fill="white"/>
<path d="M10.575 5.07858C7.93747 5.07858 5.78748 7.29 5.78748 10.0029C5.78748 12.7157 7.93747 14.9271 10.575 14.9271C13.2124 14.9271 15.3624 12.7157 15.3624 10.0029C15.3624 7.29 13.2249 5.07858 10.575 5.07858ZM10.575 13.1529C8.88746 13.1529 7.51247 11.7386 7.51247 10.0029C7.51247 8.26715 8.88746 6.85286 10.575 6.85286C12.2624 6.85286 13.6374 8.26715 13.6374 10.0029C13.6374 11.7386 12.2749 13.1529 10.575 13.1529Z" fill="white"/>
<path d="M14.375 20.0057H6.61243C3.38741 20.0057 0.774902 17.3057 0.774902 14.0014V6.00429C0.774902 2.68714 3.39991 0 6.61243 0H14.375C17.6 0 20.2125 2.7 20.2125 6.00429V13.9886C20.225 17.3057 17.6 20.0057 14.375 20.0057ZM6.61243 1.87714C4.39992 1.87714 2.59991 3.72857 2.59991 6.00429V13.9886C2.59991 16.2643 4.39992 18.1157 6.61243 18.1157H14.375C16.5875 18.1157 18.3875 16.2643 18.3875 13.9886V6.00429C18.3875 3.72857 16.5875 1.87714 14.375 1.87714H6.61243Z" fill="white"/>
</svg>
