<svg width="16" height="16" viewBox="0 0 16 16" fill="none" xmlns="http://www.w3.org/2000/svg">
<path d="M12.12 2.88013C11.62 2.88013 11.21 3.29013 11.21 3.79013C11.21 4.29013 11.62 4.70013 12.12 4.70013C12.62 4.70013 13.03 4.29013 13.03 3.79013C13.03 3.29013 12.62 2.88013 12.12 2.88013Z" fill="white"/>
<path d="M8.05998 4.05005C5.94998 4.05005 4.22998 5.77005 4.22998 7.88005C4.22998 9.99005 5.94998 11.71 8.05998 11.71C10.17 11.71 11.89 9.99005 11.89 7.88005C11.89 5.77005 10.18 4.05005 8.05998 4.05005ZM8.05998 10.33C6.70998 10.33 5.60998 9.23005 5.60998 7.88005C5.60998 6.53005 6.70998 5.43005 8.05998 5.43005C9.40998 5.43005 10.51 6.53005 10.51 7.88005C10.51 9.23005 9.41998 10.33 8.05998 10.33Z" fill="white"/>
<path d="M11.1 15.6601H4.88997C2.30997 15.6601 0.219971 13.5601 0.219971 10.9901V4.7701C0.219971 2.1901 2.31997 0.100098 4.88997 0.100098H11.1C13.68 0.100098 15.77 2.2001 15.77 4.7701V10.9801C15.78 13.5601 13.68 15.6601 11.1 15.6601ZM4.88997 1.5601C3.11997 1.5601 1.67997 3.0001 1.67997 4.7701V10.9801C1.67997 12.7501 3.11997 14.1901 4.88997 14.1901H11.1C12.87 14.1901 14.31 12.7501 14.31 10.9801V4.7701C14.31 3.0001 12.87 1.5601 11.1 1.5601H4.88997Z" fill="white"/>
</svg>
