<svg width="16" height="16" viewBox="0 0 16 16" fill="none" xmlns="http://www.w3.org/2000/svg">
<path d="M3.91001 15.39H0.730011V5.13H3.91001V15.39ZM4.23001 1.86C4.23001 0.83 3.40001 0 2.37001 0C1.34001 0 0.51001 0.83 0.51001 1.86C0.51001 2.89 1.34001 3.72 2.37001 3.72C3.40001 3.72 4.23001 2.89 4.23001 1.86ZM15.81 9.75C15.81 7 15.23 4.95 12.01 4.95C10.46 4.95 9.43001 5.72 9.00001 6.53V5.13H5.91001V15.39H9.00001V10.29C9.00001 8.96 9.34001 7.66 10.99 7.66C12.62 7.66 12.67 9.19 12.67 10.37V15.38H15.8V9.75H15.81Z" fill="white"/>
</svg>
