<svg width="103" height="67" viewBox="0 0 103 67" fill="none" xmlns="http://www.w3.org/2000/svg">
<path d="M73.77 32.4002H72.27V27.9102H98.77V32.9702H74.52C74.52 32.6502 74.19 32.4002 73.77 32.4002Z" stroke="#C49967" stroke-width="0.3" stroke-miterlimit="10"/>
<path d="M64.77 32.4001V26.6201H37.78V32.4001H39.27H63.27H64.77Z" stroke="#C49967" stroke-width="0.3" stroke-miterlimit="10"/>
<path d="M29.6101 24.79H29.6001H4.32007V26.21H30.1701L29.6101 24.79Z" stroke="#C49967" stroke-width="0.3" stroke-miterlimit="10"/>
<path d="M28.96 24.2197H4.04004V24.7897H29.6C29.24 24.7897 28.96 24.5397 28.96 24.2197Z" stroke="#C49967" stroke-width="0.3" stroke-miterlimit="10"/>
<path d="M30.2699 26.47L30.1699 26.21H2.8999L3.7699 27.91H30.2699V26.47Z" stroke="#C49967" stroke-width="0.3" stroke-miterlimit="10"/>
<path d="M28.78 32.4002H30.27V27.9102H3.77002V32.9702H28.02C28.02 32.6502 28.36 32.4002 28.78 32.4002Z" stroke="#C49967" stroke-width="0.3" stroke-miterlimit="10"/>
<path d="M29.24 33.5397H28.78C28.36 33.5397 28.02 33.2897 28.02 32.9697H3.24997C2.95997 32.9697 2.71997 33.1997 2.71997 33.4897C2.71997 33.7797 2.95997 34.0097 3.24997 34.0097H29.35L29.24 33.5397Z" stroke="#C49967" stroke-width="0.3" stroke-miterlimit="10"/>
<path d="M29.36 34.0098H3.23999V34.4498H29.46L29.36 34.0098Z" stroke="#C49967" stroke-width="0.3" stroke-miterlimit="10"/>
<path d="M30.08 37.88H29.82C29.82 37.38 29.75 36.27 29.71 35.71H1.01002C1.01002 35.71 0.930025 36.51 1.86002 36.74C1.86002 36.74 1.47002 37.62 2.40002 37.88C2.40002 37.88 2.25002 39.22 3.25002 39.22C4.26002 39.22 30.07 39.22 30.07 39.22V37.88H30.08Z" stroke="#C49967" stroke-width="0.3" stroke-miterlimit="10"/>
<path d="M72.47 37.88H72.73C72.73 37.38 72.8 36.27 72.84 35.71H101.54C101.54 35.71 101.62 36.51 100.69 36.74C100.69 36.74 101.08 37.62 100.15 37.88C100.15 37.88 100.31 39.22 99.3 39.22C98.29 39.22 72.48 39.22 72.48 39.22V37.88H72.47Z" stroke="#C49967" stroke-width="0.3" stroke-miterlimit="10"/>
<path d="M36.9701 7.03027H31.0701V12.9803H36.9701V7.03027Z" stroke="#C49967" stroke-width="0.3" stroke-miterlimit="10"/>
<path d="M71.4701 7.03027H65.5701V12.9803H71.4701V7.03027Z" stroke="#C49967" stroke-width="0.3" stroke-miterlimit="10"/>
<path d="M29.6 23.6598H30.53V22.7598H4.75V24.2298H28.96C28.96 23.9098 29.24 23.6598 29.6 23.6598Z" stroke="#C49967" stroke-width="0.3" stroke-miterlimit="10"/>
<path d="M72.95 23.6598H72.02V22.7598H97.8V24.2298H73.59C73.59 23.9098 73.3 23.6598 72.95 23.6598Z" stroke="#C49967" stroke-width="0.3" stroke-miterlimit="10"/>
<path d="M27.94 65.2805V64.6205H28.36V63.9605H28.68L29.21 61.7505L28.9 61.7105V61.0505H29.32V60.3905H29.65V59.7305H30.08V39.2305H3.26001V65.9405H27.39V65.2805H27.94Z" stroke="#C49967" stroke-width="0.3" stroke-miterlimit="10"/>
<path d="M74.61 65.2805V64.6205H74.18V63.9605H73.86L73.34 61.7505L73.65 61.7105V61.0505H73.22V60.3905H72.89V59.7305H72.47V39.2305H99.29V65.9405H75.16V65.2805H74.61Z" stroke="#C49967" stroke-width="0.3" stroke-miterlimit="10"/>
<path d="M29.99 35.7102H1.01L0 34.4502H29.99V35.7102Z" stroke="#C49967" stroke-width="0.3" stroke-miterlimit="10"/>
<path d="M27.9699 39.2305H12.1299V40.3005H27.9699V39.2305Z" stroke="#C49967" stroke-width="0.3" stroke-miterlimit="10"/>
<path d="M27.5101 40.2998H12.5901V41.1298H27.5101V40.2998Z" stroke="#C49967" stroke-width="0.3" stroke-miterlimit="10"/>
<path d="M26.9199 41.1299H13.1799V65.9499H26.9199V41.1299Z" stroke="#C49967" stroke-width="0.3" stroke-miterlimit="10"/>
<path d="M27.5099 28.8398H12.6399V31.7698H27.5099V28.8398Z" stroke="#C49967" stroke-width="0.3" stroke-miterlimit="10"/>
<path d="M38.3999 59.7305H29.6499V60.3905H38.3999V59.7305Z" stroke="#C49967" stroke-width="0.3" stroke-miterlimit="10"/>
<path d="M38.7301 60.3896H29.3201V61.0496H38.7301V60.3896Z" stroke="#C49967" stroke-width="0.3" stroke-miterlimit="10"/>
<path d="M37.9699 35.3603L38.3699 33.5303H37.8199L37.4699 35.3603H37.0699L37.3799 33.5303H36.8299L36.5699 35.3603H36.1699L36.3899 33.5303H35.2599L35.1499 35.3603H34.7499L34.8199 33.5303H34.2699L34.2499 35.3603H33.8499L33.8299 33.5303H33.2799L33.3499 35.3603H32.9499L32.8399 33.5303H31.7099L31.9299 35.3603H31.5299L31.2699 33.5303H30.7199L31.0299 35.3603H30.6299L30.2799 33.5303H29.6899L30.0899 35.3603H29.6899C29.6899 35.3603 29.8199 37.1903 29.8199 37.8803H38.2399C38.2399 36.9703 38.2999 36.0903 38.3599 35.3603H37.9699Z" stroke="#C49967" stroke-width="0.3" stroke-miterlimit="10"/>
<path d="M37.6999 6.30984C37.6999 6.70984 37.3799 7.02984 36.9799 7.02984H31.0799C30.6799 7.02984 30.3599 6.70984 30.3599 6.30984C30.3599 5.90984 30.6799 5.58984 31.0799 5.58984H36.9799C37.3699 5.59984 37.6999 5.91984 37.6999 6.30984Z" stroke="#C49967" stroke-width="0.3" stroke-miterlimit="10"/>
<path d="M34.0298 0C34.0298 0 31.0798 3.6 31.0798 5.12V5.6H36.9798V5.12C36.9798 3.59 34.0298 0 34.0298 0Z" stroke="#C49967" stroke-width="0.3" stroke-miterlimit="10"/>
<path d="M34.6499 10.8504V8.24035C34.6499 7.89035 34.3699 7.61035 34.0199 7.61035C33.6699 7.61035 33.3899 7.89035 33.3899 8.24035V10.8604H34.6499V10.8504Z" stroke="#C49967" stroke-width="0.3" stroke-miterlimit="10"/>
<path d="M32.4099 10.8504V8.24035C32.4099 7.89035 32.2299 7.61035 32.0099 7.61035C31.7899 7.61035 31.6099 7.89035 31.6099 8.24035V10.8604H32.4099V10.8504Z" stroke="#C49967" stroke-width="0.3" stroke-miterlimit="10"/>
<path d="M36.4399 10.8504V8.24035C36.4399 7.89035 36.2599 7.61035 36.0399 7.61035C35.8199 7.61035 35.6399 7.89035 35.6399 8.24035V10.8604H36.4399V10.8504Z" stroke="#C49967" stroke-width="0.3" stroke-miterlimit="10"/>
<path d="M37.5298 21.29H30.5198V23.65H37.5298V21.29Z" stroke="#C49967" stroke-width="0.3" stroke-miterlimit="10"/>
<path d="M39.1 24.2204C39.1 24.5304 38.81 24.7904 38.46 24.7904H29.6C29.25 24.7904 28.96 24.5404 28.96 24.2204C28.96 23.9104 29.25 23.6504 29.6 23.6504H38.46C38.81 23.6604 39.1 23.9104 39.1 24.2204Z" stroke="#C49967" stroke-width="0.3" stroke-miterlimit="10"/>
<path d="M40.0298 32.9704C40.0298 33.2804 39.6898 33.5404 39.2698 33.5404H28.7798C28.3598 33.5404 28.0198 33.2904 28.0198 32.9704C28.0198 32.6604 28.3598 32.4004 28.7798 32.4004H39.2698C39.6898 32.4004 40.0298 32.6504 40.0298 32.9704Z" stroke="#C49967" stroke-width="0.3" stroke-miterlimit="10"/>
<path d="M30.9399 26.62H30.3299L29.6099 24.79H30.3299L30.9399 26.62Z" stroke="#C49967" stroke-width="0.3" stroke-miterlimit="10"/>
<path d="M32.29 26.62H31.69L31.23 24.79H31.96L32.29 26.62Z" stroke="#C49967" stroke-width="0.3" stroke-miterlimit="10"/>
<path d="M33.6499 26.62H33.0499L32.8499 24.79H33.5799L33.6499 26.62Z" stroke="#C49967" stroke-width="0.3" stroke-miterlimit="10"/>
<path d="M35.0099 26.62H34.3999L34.4799 24.79H35.1999L35.0099 26.62Z" stroke="#C49967" stroke-width="0.3" stroke-miterlimit="10"/>
<path d="M36.3598 26.62H35.7598L36.0998 24.79H36.8198L36.3598 26.62Z" stroke="#C49967" stroke-width="0.3" stroke-miterlimit="10"/>
<path d="M37.7199 26.62H37.1099L37.7199 24.79H38.4399L37.7199 26.62Z" stroke="#C49967" stroke-width="0.3" stroke-miterlimit="10"/>
<path d="M30.09 35.36H29.69L29.24 33.54H29.69L30.09 35.36Z" stroke="#C49967" stroke-width="0.3" stroke-miterlimit="10"/>
<path d="M30.99 35.36H30.59L30.24 33.54H30.68L30.99 35.36Z" stroke="#C49967" stroke-width="0.3" stroke-miterlimit="10"/>
<path d="M31.9 35.36H31.49L31.24 33.54H31.68L31.9 35.36Z" stroke="#C49967" stroke-width="0.3" stroke-miterlimit="10"/>
<path d="M33.3201 35.36H32.9201L32.8101 33.54H33.2501L33.3201 35.36Z" stroke="#C49967" stroke-width="0.3" stroke-miterlimit="10"/>
<path d="M34.23 35.36H33.82L33.8 33.54H34.25L34.23 35.36Z" stroke="#C49967" stroke-width="0.3" stroke-miterlimit="10"/>
<path d="M35.13 35.36H34.73L34.8 33.54H35.25L35.13 35.36Z" stroke="#C49967" stroke-width="0.3" stroke-miterlimit="10"/>
<path d="M36.5599 35.36H36.1599L36.3699 33.54H36.8199L36.5599 35.36Z" stroke="#C49967" stroke-width="0.3" stroke-miterlimit="10"/>
<path d="M37.4598 35.36H37.0598L37.3698 33.54H37.8198L37.4598 35.36Z" stroke="#C49967" stroke-width="0.3" stroke-miterlimit="10"/>
<path d="M38.37 35.36H37.97L38.37 33.54H38.81L38.37 35.36Z" stroke="#C49967" stroke-width="0.3" stroke-miterlimit="10"/>
<path d="M37.7198 26.62H37.1098L37.7198 24.79H36.8198L36.3598 26.62H35.7598L36.0998 24.79H35.1998L35.0098 26.62H34.3998L34.4798 24.79H33.5798L33.6498 26.62H33.0498L32.8498 24.79H31.9598L32.2998 26.62H31.6898L31.2298 24.79H30.3298L30.9398 26.62H30.3298L30.2698 26.47V32.4H37.7798V26.47L37.7198 26.62Z" stroke="#C49967" stroke-width="0.3" stroke-miterlimit="10"/>
<path d="M37.5298 13.3497C37.5298 13.5597 37.3598 13.7197 37.1498 13.7197H30.8898C30.6798 13.7197 30.5198 13.5497 30.5198 13.3497C30.5198 13.1397 30.6898 12.9697 30.8898 12.9697H37.1498C37.3598 12.9797 37.5298 13.1497 37.5298 13.3497Z" stroke="#C49967" stroke-width="0.3" stroke-miterlimit="10"/>
<path d="M36.98 16.3198H31.07L29.99 14.7598H38.07L36.98 16.3198Z" stroke="#C49967" stroke-width="0.3" stroke-miterlimit="10"/>
<path d="M37.9598 37.8799H30.0798V59.7299H37.9598V37.8799Z" stroke="#C49967" stroke-width="0.3" stroke-miterlimit="10"/>
<path d="M39.1599 61.0498H28.8999V61.7398H39.1599V61.0498Z" stroke="#C49967" stroke-width="0.3" stroke-miterlimit="10"/>
<path d="M39.3699 63.96H28.6799L29.2099 61.75H38.8399L39.3699 63.96Z" stroke="#C49967" stroke-width="0.3" stroke-miterlimit="10"/>
<path d="M39.6799 63.96H28.3599V64.62H39.6799V63.96Z" stroke="#C49967" stroke-width="0.3" stroke-miterlimit="10"/>
<path d="M40.1199 64.6201H27.9399V65.2801H40.1199V64.6201Z" stroke="#C49967" stroke-width="0.3" stroke-miterlimit="10"/>
<path d="M40.6699 65.2803H27.3899V65.9403H40.6699V65.2803Z" stroke="#C49967" stroke-width="0.3" stroke-miterlimit="10"/>
<path d="M36.9698 13.7305H31.0698V14.7605H36.9698V13.7305Z" stroke="#C49967" stroke-width="0.3" stroke-miterlimit="10"/>
<path d="M36.9698 16.3203H31.0698V21.2903H36.9698V16.3203Z" stroke="#C49967" stroke-width="0.3" stroke-miterlimit="10"/>
<path d="M72.5601 35.7102H101.54L102.55 34.4502H72.5601V35.7102Z" stroke="#C49967" stroke-width="0.3" stroke-miterlimit="10"/>
<path d="M90.4201 39.2305H74.5801V40.3005H90.4201V39.2305Z" stroke="#C49967" stroke-width="0.3" stroke-miterlimit="10"/>
<path d="M89.96 40.2998H75.04V41.1298H89.96V40.2998Z" stroke="#C49967" stroke-width="0.3" stroke-miterlimit="10"/>
<path d="M89.3699 41.1299H75.6299V65.9499H89.3699V41.1299Z" stroke="#C49967" stroke-width="0.3" stroke-miterlimit="10"/>
<path d="M72.9399 24.79H72.9499H98.2299V26.21H72.3799L72.9399 24.79Z" stroke="#C49967" stroke-width="0.3" stroke-miterlimit="10"/>
<path d="M89.91 28.8398H75.04V31.7698H89.91V28.8398Z" stroke="#C49967" stroke-width="0.3" stroke-miterlimit="10"/>
<path d="M72.8999 59.7305H64.1499V60.3905H72.8999V59.7305Z" stroke="#C49967" stroke-width="0.3" stroke-miterlimit="10"/>
<path d="M73.2301 60.3896H63.8201V61.0496H73.2301V60.3896Z" stroke="#C49967" stroke-width="0.3" stroke-miterlimit="10"/>
<path d="M64.5799 35.3603L64.1799 33.5303H64.7299L65.0799 35.3603H65.4799L65.1699 33.5303H65.7199L65.9799 35.3603H66.3799L66.1599 33.5303H67.2899L67.3999 35.3603H67.7999L67.7299 33.5303H68.2799L68.2999 35.3603H68.6999L68.7199 33.5303H69.2699L69.1999 35.3603H69.5999L69.7099 33.5303H70.8399L70.6199 35.3603H71.0199L71.2799 33.5303H71.8299L71.5199 35.3603H71.9199L72.2699 33.5303H72.8199L72.4199 35.3603H72.8199C72.8199 35.3603 72.6899 37.1903 72.6899 37.8803H64.2699C64.2699 36.9703 64.2199 36.0903 64.1499 35.3603H64.5799Z" stroke="#C49967" stroke-width="0.3" stroke-miterlimit="10"/>
<path d="M64.8499 6.30984C64.8499 6.70984 65.1698 7.02984 65.5698 7.02984H71.4698C71.8698 7.02984 72.1898 6.70984 72.1898 6.30984C72.1898 5.90984 71.8698 5.58984 71.4698 5.58984H65.5698C65.1698 5.59984 64.8499 5.91984 64.8499 6.30984Z" stroke="#C49967" stroke-width="0.3" stroke-miterlimit="10"/>
<path d="M68.5198 0C68.5198 0 71.4698 3.6 71.4698 5.12V5.6H65.5698V5.12C65.5698 3.59 68.5198 0 68.5198 0Z" stroke="#C49967" stroke-width="0.3" stroke-miterlimit="10"/>
<path d="M67.8899 10.8504V8.24035C67.8899 7.89035 68.1699 7.61035 68.5199 7.61035C68.8699 7.61035 69.1499 7.89035 69.1499 8.24035V10.8604H67.8899V10.8504Z" stroke="#C49967" stroke-width="0.3" stroke-miterlimit="10"/>
<path d="M70.1399 10.8504V8.24035C70.1399 7.89035 70.3199 7.61035 70.5399 7.61035C70.7599 7.61035 70.9399 7.89035 70.9399 8.24035V10.8604H70.1399V10.8504Z" stroke="#C49967" stroke-width="0.3" stroke-miterlimit="10"/>
<path d="M66.0999 10.8504V8.24035C66.0999 7.89035 66.2798 7.61035 66.4998 7.61035C66.7198 7.61035 66.8998 7.89035 66.8998 8.24035V10.8604H66.0999V10.8504Z" stroke="#C49967" stroke-width="0.3" stroke-miterlimit="10"/>
<path d="M72.0298 21.29H65.0198V23.65H72.0298V21.29Z" stroke="#C49967" stroke-width="0.3" stroke-miterlimit="10"/>
<path d="M63.45 24.2204C63.45 24.5304 63.74 24.7904 64.09 24.7904H72.95C73.3 24.7904 73.59 24.5404 73.59 24.2204C73.59 23.9104 73.3 23.6504 72.95 23.6504H64.09C63.74 23.6604 63.45 23.9104 63.45 24.2204Z" stroke="#C49967" stroke-width="0.3" stroke-miterlimit="10"/>
<path d="M62.5198 32.9704C62.5198 33.2804 62.8598 33.5404 63.2798 33.5404H73.7698C74.1898 33.5404 74.5298 33.2904 74.5298 32.9704C74.5298 32.6604 74.1898 32.4004 73.7698 32.4004H63.2698C62.8598 32.4004 62.5198 32.6504 62.5198 32.9704Z" stroke="#C49967" stroke-width="0.3" stroke-miterlimit="10"/>
<path d="M71.6099 26.62H72.2099L72.9399 24.79H72.2099L71.6099 26.62Z" stroke="#C49967" stroke-width="0.3" stroke-miterlimit="10"/>
<path d="M70.2498 26.62H70.8598L71.3198 24.79H70.5898L70.2498 26.62Z" stroke="#C49967" stroke-width="0.3" stroke-miterlimit="10"/>
<path d="M68.8999 26.62H69.4999L69.6899 24.79H68.9699L68.8999 26.62Z" stroke="#C49967" stroke-width="0.3" stroke-miterlimit="10"/>
<path d="M67.5398 26.62H68.1398L68.0698 24.79H67.3499L67.5398 26.62Z" stroke="#C49967" stroke-width="0.3" stroke-miterlimit="10"/>
<path d="M66.1797 26.62H66.7897L66.4497 24.79H65.7297L66.1797 26.62Z" stroke="#C49967" stroke-width="0.3" stroke-miterlimit="10"/>
<path d="M64.8298 26.62H65.4298L64.8298 24.79H64.0999L64.8298 26.62Z" stroke="#C49967" stroke-width="0.3" stroke-miterlimit="10"/>
<path d="M72.46 35.36H72.86L73.31 33.54H72.86L72.46 35.36Z" stroke="#C49967" stroke-width="0.3" stroke-miterlimit="10"/>
<path d="M71.5498 35.36H71.9598L72.3098 33.54H71.8598L71.5498 35.36Z" stroke="#C49967" stroke-width="0.3" stroke-miterlimit="10"/>
<path d="M70.6499 35.36H71.0499L71.3099 33.54H70.8699L70.6499 35.36Z" stroke="#C49967" stroke-width="0.3" stroke-miterlimit="10"/>
<path d="M69.22 35.36H69.63L69.74 33.54H69.29L69.22 35.36Z" stroke="#C49967" stroke-width="0.3" stroke-miterlimit="10"/>
<path d="M68.32 35.36H68.72L68.7401 33.54H68.3L68.32 35.36Z" stroke="#C49967" stroke-width="0.3" stroke-miterlimit="10"/>
<path d="M67.41 35.36H67.82L67.75 33.54H67.3L67.41 35.36Z" stroke="#C49967" stroke-width="0.3" stroke-miterlimit="10"/>
<path d="M65.99 35.36H66.39L66.17 33.54H65.73L65.99 35.36Z" stroke="#C49967" stroke-width="0.3" stroke-miterlimit="10"/>
<path d="M65.08 35.36H65.49L65.18 33.54H64.73L65.08 35.36Z" stroke="#C49967" stroke-width="0.3" stroke-miterlimit="10"/>
<path d="M64.18 35.36H64.58L64.18 33.54H63.73L64.18 35.36Z" stroke="#C49967" stroke-width="0.3" stroke-miterlimit="10"/>
<path d="M64.8298 26.62H65.4298L64.8298 24.79H65.7298L66.1798 26.62H66.7898L66.4498 24.79H67.3498L67.5398 26.62H68.1398L68.0698 24.79H68.9698L68.8998 26.62H69.4998L69.6898 24.79H70.5898L70.2498 26.62H70.8598L71.3198 24.79H72.2098L71.6098 26.62H72.2098L72.2698 26.47V32.4H64.7698V26.47L64.8298 26.62Z" stroke="#C49967" stroke-width="0.3" stroke-miterlimit="10"/>
<path d="M65.0198 13.3497C65.0198 13.5597 65.1898 13.7197 65.3998 13.7197H71.6598C71.8698 13.7197 72.0398 13.5497 72.0398 13.3497C72.0398 13.1397 71.8698 12.9697 71.6598 12.9697H65.3898C65.1798 12.9797 65.0198 13.1497 65.0198 13.3497Z" stroke="#C49967" stroke-width="0.3" stroke-miterlimit="10"/>
<path d="M65.57 16.3198H71.47L72.56 14.7598H64.48L65.57 16.3198Z" stroke="#C49967" stroke-width="0.3" stroke-miterlimit="10"/>
<path d="M73.6499 61.0498H63.3899V61.7398H73.6499V61.0498Z" stroke="#C49967" stroke-width="0.3" stroke-miterlimit="10"/>
<path d="M63.1799 63.96H73.8599L73.3399 61.75H63.6999L63.1799 63.96Z" stroke="#C49967" stroke-width="0.3" stroke-miterlimit="10"/>
<path d="M74.1799 63.96H62.8599V64.62H74.1799V63.96Z" stroke="#C49967" stroke-width="0.3" stroke-miterlimit="10"/>
<path d="M74.6099 64.6201H62.4299V65.2801H74.6099V64.6201Z" stroke="#C49967" stroke-width="0.3" stroke-miterlimit="10"/>
<path d="M75.1599 65.2803H61.8799V65.9403H75.1599V65.2803Z" stroke="#C49967" stroke-width="0.3" stroke-miterlimit="10"/>
<path d="M71.4698 13.7305H65.5698V14.7605H71.4698V13.7305Z" stroke="#C49967" stroke-width="0.3" stroke-miterlimit="10"/>
<path d="M71.4698 16.3203H65.5698V21.2903H71.4698V16.3203Z" stroke="#C49967" stroke-width="0.3" stroke-miterlimit="10"/>
<path d="M72.4498 37.8799H64.5698V59.7299H72.4498V37.8799Z" stroke="#C49967" stroke-width="0.3" stroke-miterlimit="10"/>
<path d="M73.59 24.2197H98.5099V24.7897H72.95C73.3 24.7897 73.59 24.5397 73.59 24.2197Z" stroke="#C49967" stroke-width="0.3" stroke-miterlimit="10"/>
<path d="M72.27 26.47L72.38 26.21H99.65L98.77 27.91H72.27V26.47Z" stroke="#C49967" stroke-width="0.3" stroke-miterlimit="10"/>
<path d="M73.3099 33.5397H73.7699C74.1899 33.5397 74.5299 33.2897 74.5299 32.9697H99.2899C99.5799 32.9697 99.8199 33.1997 99.8199 33.4897C99.8199 33.7797 99.5799 34.0097 99.2899 34.0097H73.1899L73.3099 33.5397Z" stroke="#C49967" stroke-width="0.3" stroke-miterlimit="10"/>
<path d="M73.1901 34.0098H99.3001V34.4498H73.0801L73.1901 34.0098Z" stroke="#C49967" stroke-width="0.3" stroke-miterlimit="10"/>
<path d="M64.31 37.8797C64.31 36.9697 64.26 36.0897 64.19 35.3597H64.18L63.9 34.2197H38.64L38.36 35.3597H38.35C38.28 36.0797 38.23 36.9597 38.23 37.8797H37.97V59.7297H38.4V60.3897H38.73V61.0497H39.16V61.7397H38.85L39.38 63.9597H39.69V64.6197H40.12V65.2797H40.67V65.9397H41.87C41.87 64.6197 41.13 64.6197 41.13 64.6197V51.9897C41.84 51.9897 41.88 51.4597 41.87 50.8297H39.88V49.5797H40.76C41.26 38.0797 51.27 36.4597 51.27 36.4597C51.27 36.4597 61.28 38.0797 61.78 49.5797H62.66V50.8297H60.67C60.67 51.4597 60.7 51.9897 61.41 51.9897V64.6297C61.41 64.6297 60.67 64.6297 60.67 65.9497H61.87V65.2897H62.42V64.6297H62.85V63.9597H63.17L63.7 61.7397H63.39V61.0497H63.81V60.3897H64.14V59.7297H64.57V37.8797H64.31Z" stroke="#C49967" stroke-width="0.3" stroke-miterlimit="10"/>
<path d="M40.8599 26.6201H39.8999V32.4001H40.8599V26.6201Z" stroke="#C49967" stroke-width="0.3" stroke-miterlimit="10"/>
<path d="M43.98 26.6201H43.02V32.4001H43.98V26.6201Z" stroke="#C49967" stroke-width="0.3" stroke-miterlimit="10"/>
<path d="M47.0899 26.6201H46.1299V32.4001H47.0899V26.6201Z" stroke="#C49967" stroke-width="0.3" stroke-miterlimit="10"/>
<path d="M50.2 26.6201H49.24V32.4001H50.2V26.6201Z" stroke="#C49967" stroke-width="0.3" stroke-miterlimit="10"/>
<path d="M53.3099 26.6201H52.3499V32.4001H53.3099V26.6201Z" stroke="#C49967" stroke-width="0.3" stroke-miterlimit="10"/>
<path d="M56.42 26.6201H55.46V32.4001H56.42V26.6201Z" stroke="#C49967" stroke-width="0.3" stroke-miterlimit="10"/>
<path d="M59.5298 26.6201H58.5698V32.4001H59.5298V26.6201Z" stroke="#C49967" stroke-width="0.3" stroke-miterlimit="10"/>
<path d="M62.6499 26.6201H61.6899V32.4001H62.6499V26.6201Z" stroke="#C49967" stroke-width="0.3" stroke-miterlimit="10"/>
<path d="M61.79 49.5702C61.29 38.0702 51.28 36.4502 51.28 36.4502C51.28 36.4502 41.27 38.0702 40.77 49.5702H41.9C42.42 39.3302 51.29 37.8802 51.29 37.8802C51.29 37.8802 60.16 39.3302 60.68 49.5702H61.79Z" stroke="#C49967" stroke-width="0.3" stroke-miterlimit="10"/>
<path d="M65.57 13.7304H65.39C65.18 13.7304 65.01 13.5604 65.01 13.3604C65.01 13.1504 65.18 12.9804 65.39 12.9804H65.57V11.3604H36.98V12.9704H37.16C37.37 12.9704 37.54 13.1404 37.54 13.3504C37.54 13.5604 37.37 13.7204 37.16 13.7204H36.98V14.2404H65.57V13.7304Z" stroke="#C49967" stroke-width="0.3" stroke-miterlimit="10"/>
<path d="M65.03 15.5402L64.51 14.7602H65.57V14.2402H36.98V14.7602H38.07L37.52 15.5402H65.03Z" stroke="#C49967" stroke-width="0.3" stroke-miterlimit="10"/>
<path d="M38.46 24.79H64.09C63.74 24.79 63.45 24.54 63.45 24.22C63.45 23.9 63.74 23.65 64.09 23.65H65.02V21.29H65.57V16.32L65.03 15.54H37.53L36.99 16.32V21.29H37.54V23.65H38.47C38.82 23.65 39.11 23.9 39.11 24.22C39.11 24.54 38.81 24.79 38.46 24.79Z" stroke="#C49967" stroke-width="0.3" stroke-miterlimit="10"/>
<path d="M64.77 26.62V26.47L64.83 26.62L64.1 24.79H64.09H38.46H38.44L37.72 26.62L37.78 26.47V26.62H64.77Z" stroke="#C49967" stroke-width="0.3" stroke-miterlimit="10"/>
<path d="M63.73 33.5404H63.27C62.85 33.5404 62.51 33.2904 62.51 32.9704C62.51 32.6604 62.85 32.4004 63.27 32.4004H39.27C39.69 32.4004 40.03 32.6504 40.03 32.9704C40.03 33.2804 39.69 33.5404 39.27 33.5404H38.81L38.79 33.6304H63.76L63.73 33.5404Z" stroke="#C49967" stroke-width="0.3" stroke-miterlimit="10"/>
<path d="M63.7599 33.6201H38.7899L38.6399 34.2301H63.8999L63.7599 33.6201Z" stroke="#C49967" stroke-width="0.3" stroke-miterlimit="10"/>
<path d="M39.8799 35.0801V49.5701H40.7599C41.2599 38.0701 51.2699 36.4501 51.2699 36.4501C51.2699 36.4501 61.2799 38.0701 61.7799 49.5701H62.6599V35.0801H39.8799Z" stroke="#C49967" stroke-width="0.3" stroke-miterlimit="10"/>
<path d="M62.1599 17.3604H40.3999V22.7604H62.1599V17.3604Z" stroke="#C49967" stroke-width="0.3" stroke-miterlimit="10"/>
<path d="M43.73 37.3497C43.73 37.9697 43.22 38.4797 42.6 38.4797C41.98 38.4797 41.47 37.9697 41.47 37.3497C41.47 36.7297 41.98 36.2197 42.6 36.2197C43.23 36.2197 43.73 36.7297 43.73 37.3497Z" stroke="#C49967" stroke-width="0.3" stroke-miterlimit="10"/>
<path d="M43.15 37.3498C43.15 37.6498 42.91 37.8998 42.6 37.8998C42.3 37.8998 42.05 37.6598 42.05 37.3498C42.05 37.0498 42.29 36.7998 42.6 36.7998C42.91 36.7998 43.15 37.0498 43.15 37.3498Z" stroke="#C49967" stroke-width="0.3" stroke-miterlimit="10"/>
<path d="M61.0701 37.3497C61.0701 37.9697 60.5601 38.4797 59.9401 38.4797C59.3201 38.4797 58.8101 37.9697 58.8101 37.3497C58.8101 36.7297 59.3101 36.2197 59.9401 36.2197C60.5601 36.2197 61.0701 36.7297 61.0701 37.3497Z" stroke="#C49967" stroke-width="0.3" stroke-miterlimit="10"/>
<path d="M60.4899 37.3498C60.4899 37.6498 60.2499 37.8998 59.9399 37.8998C59.6399 37.8998 59.3899 37.6598 59.3899 37.3498C59.3899 37.0498 59.6299 36.7998 59.9399 36.7998C60.2399 36.7998 60.4899 37.0498 60.4899 37.3498Z" stroke="#C49967" stroke-width="0.3" stroke-miterlimit="10"/>
</svg>
