<svg width="87" height="62" viewBox="0 0 87 62" fill="none" xmlns="http://www.w3.org/2000/svg">
<path d="M86.0303 58.75H0.990234V61.66H86.0303V58.75Z" fill="#C2986A"/>
<path d="M48.5802 46.42V10.5H53.7302C54.3202 10.5 54.8802 10.21 55.2302 9.73C55.5802 9.25 55.6702 8.63 55.4802 8.07L53.2102 1.26C52.9702 0.51 52.2602 0 51.4702 0H43.9502C43.1602 0 42.4502 0.51 42.2002 1.26L39.9402 8.07C39.7502 8.63 39.8502 9.25 40.1902 9.73C40.5402 10.21 41.0902 10.5 41.6902 10.5H42.4702V14C42.4702 14.48 42.8602 14.88 43.3502 14.88C43.8302 14.88 44.2302 14.49 44.2302 14V10.5H46.8502V46.43C45.4202 46.54 44.0302 46.9 42.7402 47.52C42.3802 47.34 41.9902 47.25 41.5902 47.25H41.3302C40.9902 47.25 40.6702 47.05 40.5302 46.73L40.4102 46.46C40.6302 46.07 40.6902 45.6 40.5702 45.16L38.9602 36.8C38.5602 34.74 36.7602 33.26 34.6602 33.25H32.8402C32.8402 30.83 30.8802 28.88 28.4602 28.87H24.9602V23.62C24.9602 21.54 23.5002 19.75 21.4602 19.33V17.37C23.0102 16.98 24.0902 15.59 24.0902 13.99V13.11C24.7602 13.1 25.3602 12.72 25.6502 12.12C25.9402 11.52 25.8702 10.81 25.4702 10.28L24.1802 8.57C24.1102 8.46 24.0702 8.33 24.0602 8.2C23.8002 5.75 21.8702 3.81 19.4202 3.53C16.9702 3.25 14.6602 4.72 13.8602 7.05C12.7202 7.31 11.8902 8.28 11.8202 9.45C11.7502 10.62 12.4602 11.68 13.5602 12.07V13.1C13.5602 14.84 14.5902 16.41 16.1802 17.11V19.54C15.1102 20.05 14.4302 21.12 14.4302 22.3V28.86H12.5702L10.2402 11.02C10.0702 9.71 8.95021 8.74 7.64021 8.73H5.68019C4.96019 8.73 4.28023 9.02 3.78023 9.54C3.28023 10.06 3.02019 10.75 3.05019 11.47L4.65022 46.48C4.70022 47.6 5.47019 48.57 6.55019 48.87V49.86C6.55019 51.31 7.73018 52.49 9.17018 52.49H12.6702C14.1202 52.49 15.2902 51.31 15.2902 49.86V49H22.2902V49.88C22.2902 51.33 23.4702 52.51 24.9102 52.51H28.4102C29.8602 52.51 31.0302 51.33 31.0302 49.88V48.84C32.0802 48.47 32.7802 47.48 32.7802 46.38V40.25H32.9702L34.6102 46.77C34.7202 47.21 35.0102 47.59 35.4002 47.82L36.0002 50.46C36.2702 51.66 37.3302 52.51 38.5602 52.5H41.4302C41.4702 52.5 41.5002 52.49 41.5402 52.49V52.5H53.7902C54.7602 52.5 55.5402 51.72 55.5402 50.75C55.5502 49.88 55.1302 49.05 54.4202 48.54C52.7402 47.3 50.7002 46.57 48.5802 46.42ZM53.7302 8.75H41.6702C41.6402 8.75 41.6102 8.74 41.5902 8.71C41.5702 8.69 41.5702 8.65 41.5802 8.62L43.8502 1.81C43.8602 1.77 43.9002 1.74 43.9402 1.74H45.6102L44.2402 5.84C44.0902 6.3 44.3402 6.8 44.7902 6.95C45.2502 7.1 45.7502 6.85 45.9002 6.4L47.4502 1.75H47.9402L49.4902 6.4C49.6402 6.86 50.1402 7.11 50.6002 6.95C51.0602 6.8 51.3102 6.3 51.1502 5.84L49.7802 1.74H51.4502C51.4902 1.74 51.5302 1.77 51.5402 1.81L53.8102 8.62C53.8202 8.65 53.8202 8.68 53.8002 8.71C53.8002 8.74 53.7702 8.75 53.7302 8.75ZM53.8302 50.75H44.0402C44.1202 50.54 44.1802 50.32 44.2002 50.09C44.2302 49.67 44.1602 49.24 44.0002 48.85C45.1802 48.37 46.4402 48.12 47.7102 48.12C49.7702 48.11 51.7702 48.75 53.4402 49.96C53.6902 50.14 53.8402 50.44 53.8302 50.75ZM24.0802 49H29.3302V49.88C29.3302 50.36 28.9402 50.76 28.4502 50.76H24.9502C24.4702 50.76 24.0702 50.37 24.0702 49.88V49H24.0802ZM8.33021 49H13.5802V49.88C13.5802 50.36 13.1902 50.76 12.7002 50.76H9.20021C8.72021 50.76 8.32021 50.37 8.32021 49.88V49H8.33021ZM17.9602 17.5H19.7102V19.25H17.9602V17.5ZM13.5802 9.63C13.5802 9.15 13.9702 8.75 14.4602 8.75H17.0802C17.5602 8.75 17.9602 9.14 17.9602 9.63C17.9602 10.11 17.5702 10.51 17.0802 10.51H14.4602C13.9702 10.5 13.5802 10.11 13.5802 9.63ZM22.3402 14C22.3402 14.97 21.5602 15.75 20.5902 15.75H17.9702C16.5202 15.75 15.3402 14.57 15.3402 13.12V12.25H17.0902C18.5402 12.25 19.7102 11.07 19.7102 9.62C19.7102 8.17 18.5302 7 17.0802 7H15.8102C16.4402 5.92 17.5902 5.25 18.8402 5.25C19.7702 5.25 20.6602 5.61 21.3102 6.27C21.8802 6.84 22.2402 7.59 22.3202 8.39C22.3602 8.84 22.5202 9.27 22.7802 9.63L24.0702 11.35L23.2102 11.38C22.7302 11.38 22.3302 11.77 22.3302 12.26V14H22.3402ZM23.2102 28.88H20.5902V24.5C20.5902 24.02 20.2002 23.62 19.7102 23.62C19.2302 23.62 18.8302 24.01 18.8302 24.5V28.88H16.2102V22.32C16.2102 21.6 16.8002 21.01 17.5202 21.01H20.5802C22.0302 21.01 23.2002 22.19 23.2002 23.64V28.88H23.2102ZM31.0802 46.37C31.0802 46.85 30.6902 47.25 30.2002 47.25H7.30019C6.83019 47.25 6.45018 46.88 6.42018 46.41L4.83022 11.41C4.82022 11.17 4.91021 10.94 5.07021 10.77C5.24021 10.6 5.46021 10.5 5.70021 10.5H7.66017C8.10017 10.5 8.47023 10.83 8.53023 11.26L10.8302 28.87H9.20021C8.72021 28.87 8.32021 29.26 8.32021 29.75C8.32021 30.23 8.71021 30.63 9.20021 30.63H28.4502C29.9002 30.63 31.0702 31.81 31.0702 33.26V46.37H31.0802ZM38.8502 45.55L36.3502 46.33L34.7202 39.82C34.5202 39.04 33.8202 38.5 33.0202 38.5H32.8302V35H34.6502C35.9102 35 36.9902 35.89 37.2302 37.13L38.8502 45.55ZM41.5702 48.99C41.8002 48.99 42.0302 49.08 42.2002 49.24C42.3902 49.42 42.4802 49.68 42.4602 49.94C42.3802 50.42 41.9602 50.76 41.4802 50.75H38.6102C38.2002 50.75 37.8402 50.47 37.7502 50.07L37.2602 47.89L38.9102 47.41L38.9302 47.44C39.3602 48.38 40.2902 48.98 41.3202 48.98H41.5702V48.99Z" fill="#C2986A"/>
<path d="M28.4602 34.13C28.4602 33.65 28.0702 33.25 27.5802 33.25H10.0802C9.6002 33.25 9.2002 33.64 9.2002 34.13C9.2002 34.62 9.6002 35 10.0802 35H27.5802C28.0702 35 28.4602 34.61 28.4602 34.13Z" fill="#C2986A"/>
</svg>
