<svg width="86" height="60" viewBox="0 0 86 60" fill="none" xmlns="http://www.w3.org/2000/svg">
<path d="M85.04 56.3801H0V59.2901H85.04V56.3801Z" fill="#C2986A"/>
<path d="M48.0599 0.0200195H3.03994C1.60994 0.0200195 0.439941 1.18002 0.439941 2.62002C0.439941 4.06002 1.59994 5.22002 3.03994 5.22002V40.72C3.03994 41.2 3.42994 41.59 3.90994 41.59H14.2299L8.42994 48.84L9.77994 49.92L16.4499 41.59H24.6899V43.48C23.3399 43.96 22.6299 45.44 23.1099 46.79C23.5899 48.14 25.0699 48.85 26.4199 48.37C27.7699 47.89 28.4799 46.41 27.9999 45.06C27.7399 44.32 27.1599 43.74 26.4199 43.48V41.59H34.6599L41.3299 49.92L42.6799 48.84L36.8799 41.59H47.1999C47.6799 41.59 48.0699 41.2 48.0699 40.72V5.22002C49.4999 5.22002 50.6699 4.06002 50.6699 2.62002C50.6699 1.18002 49.4899 0.0200195 48.0599 0.0200195ZM25.5499 46.78C25.0699 46.78 24.6799 46.39 24.6799 45.91C24.6799 45.43 25.0699 45.04 25.5499 45.04C26.0299 45.04 26.4199 45.43 26.4199 45.91C26.4199 46.39 26.0299 46.78 25.5499 46.78ZM46.3299 39.85H4.76994V5.22002H46.3299V39.85ZM48.0599 3.48002H3.03994C2.55994 3.48002 2.16994 3.09002 2.16994 2.61002C2.16994 2.13002 2.55994 1.74002 3.03994 1.74002H48.0599C48.5399 1.74002 48.9299 2.13002 48.9299 2.61002C48.9299 3.09002 48.5399 3.48002 48.0599 3.48002Z" fill="#C2986A"/>
<path d="M22.08 27.73H8.22998V29.46H22.08V27.73Z" fill="#C2986A"/>
<path d="M22.08 31.1899H8.22998V32.9199H22.08V31.1899Z" fill="#C2986A"/>
<path d="M18.62 34.6499H8.22998V36.3799H18.62V34.6499Z" fill="#C2986A"/>
<path d="M22.0899 24.26H15.1599V25.99H22.0899V24.26Z" fill="#C2986A"/>
<path d="M42.86 12.1401H29.01V13.8701H42.86V12.1401Z" fill="#C2986A"/>
<path d="M42.86 15.6101H29.01V17.3401H42.86V15.6101Z" fill="#C2986A"/>
<path d="M39.4 19.0701H29.01V20.8001H39.4V19.0701Z" fill="#C2986A"/>
<path d="M42.8699 8.67993H35.9399V10.4099H42.8699V8.67993Z" fill="#C2986A"/>
<path d="M15.16 7.81006C11.33 7.81006 8.22998 10.9101 8.22998 14.7401C8.22998 18.5601 11.33 21.6601 15.16 21.6701C18.99 21.6701 22.09 18.5701 22.09 14.7401C22.09 10.9101 18.98 7.81006 15.16 7.81006ZM16.05 9.63006C17.37 9.86006 18.55 10.6001 19.35 11.6801L16.03 13.3401L16.05 9.63006ZM12.16 10.5001C12.8 10.0501 13.54 9.75006 14.32 9.62006L14.29 14.3901L10.91 17.7201C9.26998 15.3901 9.81998 12.1501 12.16 10.5001ZM16.67 19.7101C16.18 19.8601 15.67 19.9401 15.16 19.9401C14.07 19.9401 13.01 19.6001 12.13 18.9601L15.69 15.4501L20.13 13.2301C20.96 15.9701 19.42 18.8701 16.67 19.7101Z" fill="#C2986A"/>
<path d="M29.01 32.0601H27.28V36.3901H29.01V32.0601Z" fill="#C2986A"/>
<path d="M42.8599 30.3301H41.1299V36.3901H42.8599V30.3301Z" fill="#C2986A"/>
<path d="M32.47 29.46H30.74V36.39H32.47V29.46Z" fill="#C2986A"/>
<path d="M35.94 26H34.21V36.39H35.94V26Z" fill="#C2986A"/>
<path d="M39.3999 28.5901H37.6699V36.3801H39.3999V28.5901Z" fill="#C2986A"/>
<path d="M13.4199 24.26H11.6899V25.99H13.4199V24.26Z" fill="#C2986A"/>
<path d="M34.2 8.67993H32.47V10.4099H34.2V8.67993Z" fill="#C2986A"/>
</svg>
