<svg width="86" height="60" viewBox="0 0 86 60" fill="none" xmlns="http://www.w3.org/2000/svg">
<path d="M85.9599 56.5H0.919922V59.41H85.9599V56.5Z" fill="#C2986A"/>
<path d="M47.23 23.1199H27.53C27.08 23.1199 26.71 23.4899 26.71 23.9399C26.71 24.3899 27.08 24.7599 27.53 24.7599H47.23C47.68 24.7599 48.05 24.3899 48.05 23.9399C48.05 23.4899 47.68 23.1199 47.23 23.1199Z" fill="#C2986A"/>
<path d="M47.23 26.3999H27.53C27.08 26.3999 26.71 26.7699 26.71 27.2199C26.71 27.6699 27.08 28.0399 27.53 28.0399H47.23C47.68 28.0399 48.05 27.6699 48.05 27.2199C48.05 26.7699 47.68 26.3999 47.23 26.3999Z" fill="#C2986A"/>
<path d="M47.23 29.6899H27.53C27.08 29.6899 26.71 30.0599 26.71 30.5099C26.71 30.9599 27.08 31.3299 27.53 31.3299H47.23C47.68 31.3299 48.05 30.9599 48.05 30.5099C48.05 30.0599 47.68 29.6899 47.23 29.6899Z" fill="#C2986A"/>
<path d="M43.1301 8.34985C42.6801 8.34985 42.3101 8.71985 42.3101 9.16985V13.2699H38.2101C37.7601 13.2699 37.3901 13.6399 37.3901 14.0899C37.3901 17.2599 39.9601 19.8399 43.1401 19.8399C46.3201 19.8399 48.8901 17.2699 48.8901 14.0899C48.8901 10.9099 46.3001 8.34985 43.1301 8.34985ZM47.2101 14.4999C47.0001 16.5999 45.2301 18.1899 43.1301 18.1899C41.1801 18.1899 39.5001 16.8199 39.1101 14.9099H43.1301C43.5801 14.9099 43.9501 14.5399 43.9501 14.0899V10.0699C46.0101 10.4899 47.4201 12.4099 47.2101 14.4999Z" fill="#C2986A"/>
<path d="M27.5302 19.8399H36.5602C37.0102 19.8399 37.3802 19.4699 37.3802 19.0199C37.3802 18.5699 37.0102 18.1999 36.5602 18.1999H32.2502C34.8902 16.2699 36.5202 13.2599 36.6902 9.98992C36.6902 9.53992 36.3202 9.16992 35.8702 9.16992C35.4202 9.16992 35.0502 9.53992 35.0502 9.98992C35.0502 13.0799 32.2902 17.5799 28.3602 18.1399V9.98992C28.3602 9.53992 27.9902 9.16992 27.5402 9.16992C27.0902 9.16992 26.7202 9.53992 26.7202 9.98992V19.0199C26.7202 19.2399 26.8102 19.4499 26.9602 19.5999C27.1102 19.7499 27.3102 19.8399 27.5302 19.8399Z" fill="#C2986A"/>
<path d="M49.6902 3.41989H31.5501C31.1601 1.50989 29.4802 0.139893 27.5302 0.139893C25.5802 0.139893 23.9002 1.50989 23.5102 3.41989H18.3902C17.6402 2.29989 16.7601 1.26989 15.7701 0.349893C15.4601 0.0698926 14.9902 0.0698926 14.6702 0.349893C13.6802 1.26989 12.8001 2.29989 12.0501 3.41989H5.37015C4.01015 3.41989 2.91016 4.51989 2.91016 5.87989V35.4299C2.91016 36.7899 4.01015 37.8899 5.37015 37.8899H20.0501L15.5501 45.6899C15.2201 46.2499 15.1401 46.9299 15.3001 47.5599C15.4701 48.1899 15.8802 48.7299 16.4502 49.0599C17.0102 49.3899 17.6902 49.4699 18.3202 49.3099C18.9502 49.1399 19.4902 48.7299 19.8102 48.1599L25.0702 39.0499V46.9299C25.0702 48.2899 26.1702 49.3899 27.5302 49.3899C28.8902 49.3899 29.9901 48.2899 29.9901 46.9299V39.0499L35.2502 48.1599C35.5702 48.7299 36.1102 49.1399 36.7502 49.3099C37.3802 49.4799 38.0501 49.3899 38.6201 49.0599C39.1901 48.7399 39.6001 48.1999 39.7701 47.5599C39.9401 46.9299 39.8501 46.2599 39.5201 45.6899L35.0201 37.8899H49.7002C51.0602 37.8899 52.1602 36.7899 52.1602 35.4299V5.87989C52.1502 4.51989 51.0502 3.41989 49.6902 3.41989ZM27.5302 1.77989C28.5702 1.77989 29.5001 2.43989 29.8401 3.41989H25.2202C25.5602 2.43989 26.4902 1.77989 27.5302 1.77989ZM15.2202 2.10989C16.1602 3.08989 18.0302 5.27989 18.4202 7.52989H12.0102C12.4102 5.27989 14.2702 3.08989 15.2202 2.10989ZM11.9301 9.16989H18.5002V21.4799H11.9301V9.16989ZM11.9301 23.1199H18.5002V25.5799H11.9301V23.1199ZM13.2602 28.8699L12.4402 27.2299H17.9901L17.1702 28.8699H13.2602ZM16.4301 30.5099C16.1401 31.4199 15.7401 32.2799 15.2101 33.0799C14.6901 32.2799 14.2801 31.4199 13.9901 30.5099H16.4301ZM18.3902 47.3399C18.1602 47.7299 17.6601 47.8599 17.2701 47.6399C17.0801 47.5299 16.9502 47.3599 16.8902 47.1499C16.8302 46.9399 16.8602 46.7099 16.9702 46.5199L21.9502 37.8999H23.8401L18.3902 47.3399ZM28.3502 46.9299C28.3502 47.3799 27.9802 47.7499 27.5302 47.7499C27.0802 47.7499 26.7101 47.3799 26.7101 46.9299V37.8999H28.3502V46.9299ZM38.0901 46.5099C38.2001 46.6999 38.2302 46.9299 38.1702 47.1399C38.1202 47.3499 37.9802 47.5299 37.7902 47.6299C37.6002 47.7399 37.3802 47.7699 37.1702 47.7099C36.9602 47.6499 36.7802 47.5199 36.6702 47.3299L31.2202 37.8899H33.1101L38.0901 46.5099ZM50.5102 35.4299C50.5102 35.8799 50.1402 36.2499 49.6902 36.2499H5.37015C4.92015 36.2499 4.55014 35.8799 4.55014 35.4299V5.87989C4.55014 5.42989 4.92015 5.05989 5.37015 5.05989H11.1201C10.6101 6.07989 10.3202 7.19989 10.2902 8.33989V16.2499L6.38016 20.9499C6.26016 21.0999 6.19016 21.2799 6.19016 21.4799V30.5099C6.19016 30.8399 6.39016 31.1399 6.70016 31.2699C7.01016 31.3999 7.36015 31.3299 7.59015 31.0899L10.8902 27.7899L12.0201 30.0499C12.0901 30.1899 12.2101 30.3099 12.3401 30.3899C12.3401 31.7099 14.0202 34.2999 14.5302 35.0599C14.6802 35.2899 14.9401 35.4199 15.2101 35.4199C15.4801 35.4199 15.7402 35.2799 15.8902 35.0599C16.4002 34.2999 18.0801 31.6999 18.0801 30.3899C18.2201 30.3099 18.3301 30.1899 18.4001 30.0499L19.5302 27.7899L22.8301 31.0899C23.0601 31.3199 23.4202 31.3999 23.7202 31.2699C24.0202 31.1399 24.2302 30.8399 24.2302 30.5099V21.4799C24.2302 21.2899 24.1602 21.0999 24.0402 20.9499L20.1302 16.2499V8.33989C20.1002 7.19989 19.8201 6.07989 19.3001 5.05989H49.6801C50.1301 5.05989 50.5002 5.42989 50.5002 5.87989L50.5102 35.4299ZM10.2902 18.8199V26.0599L7.83014 28.5199V21.7699L10.2902 18.8199ZM20.1402 26.0699V18.8299L22.6002 21.7799V28.5299L20.1402 26.0699Z" fill="#C2986A"/>
<path d="M16.0401 10.8098H14.4001C13.9501 10.8098 13.5801 11.1798 13.5801 11.6298C13.5801 12.0798 13.9501 12.4498 14.4001 12.4498H16.0401C16.4901 12.4498 16.8601 12.0798 16.8601 11.6298C16.8601 11.1798 16.4901 10.8098 16.0401 10.8098Z" fill="#C2986A"/>
<path d="M16.0401 14.0898H14.4001C13.9501 14.0898 13.5801 14.4598 13.5801 14.9098C13.5801 15.3598 13.9501 15.7298 14.4001 15.7298H16.0401C16.4901 15.7298 16.8601 15.3598 16.8601 14.9098C16.8601 14.4598 16.4901 14.0898 16.0401 14.0898Z" fill="#C2986A"/>
</svg>
