<svg width="86" height="63" viewBox="0 0 86 63" fill="none" xmlns="http://www.w3.org/2000/svg">
<path d="M85.6099 59.3298H0.569824V62.2398H85.6099V59.3298Z" fill="#C2986A"/>
<path d="M51.0299 16.5099H41.5099V12.1799C41.5099 12.1599 41.4999 12.1399 41.4999 12.1299C41.4999 12.0499 41.4798 11.9799 41.4598 11.9099C41.4498 11.8799 41.4399 11.8599 41.4299 11.8299C41.3899 11.7399 41.3299 11.6499 41.2599 11.5799L30.8699 1.18993C30.7999 1.11993 30.7099 1.05993 30.6199 1.01993C30.5899 1.00993 30.5699 0.999932 30.5399 0.989932C30.4699 0.959932 30.3899 0.949932 30.3099 0.939932C30.2999 0.939932 30.2799 0.929932 30.2599 0.929932H7.74988C5.35988 0.929932 3.41992 2.86993 3.41992 5.25993V45.0899C3.41992 47.4799 5.35988 49.4199 7.74988 49.4199H26.0199C26.4299 51.4299 28.2099 52.8799 30.2599 52.8799H51.0399C53.4299 52.8799 55.3699 50.9399 55.3699 48.5499V20.8399C55.3499 18.4499 53.4199 16.5099 51.0299 16.5099ZM38.5499 11.3099H31.9799C31.4999 11.3099 31.1099 10.9199 31.1099 10.4399V3.87993L38.5499 11.3099ZM5.13989 45.0799V5.24993C5.13989 3.81993 6.29987 2.64993 7.73987 2.64993H29.3899V10.4399C29.3899 11.8699 30.5499 13.0399 31.9899 13.0399H39.7799V16.4999H30.2599C27.8699 16.4999 25.9299 18.4399 25.9299 20.8299V47.6699H7.74988C6.29988 47.6799 5.13989 46.5099 5.13989 45.0799ZM53.6299 48.5399C53.6299 49.9699 52.4699 51.1399 51.0299 51.1399H30.2499C28.8199 51.1399 27.6499 49.9799 27.6499 48.5399V20.8399C27.6499 19.4099 28.8099 18.2399 30.2499 18.2399H51.0299C52.4599 18.2399 53.6299 19.3999 53.6299 20.8399V48.5399Z" fill="#C2986A"/>
<path d="M47.5696 19.97H33.7196C31.3296 19.97 29.3896 21.91 29.3896 24.3V27.76C29.3896 30.15 31.3296 32.09 33.7196 32.09H47.5696C49.9596 32.09 51.8997 30.15 51.8997 27.76V24.3C51.8897 21.91 49.9596 19.97 47.5696 19.97ZM50.1597 27.76C50.1597 29.19 48.9997 30.36 47.5597 30.36H33.7096C32.2796 30.36 31.1096 29.2 31.1096 27.76V24.3C31.1096 22.87 32.2696 21.7 33.7096 21.7H47.5597C48.9897 21.7 50.1597 22.86 50.1597 24.3V27.76Z" fill="#C2986A"/>
<path d="M32.8496 33.8198C30.9396 33.8198 29.3896 35.3698 29.3896 37.2798C29.3896 39.1898 30.9396 40.7398 32.8496 40.7398C34.7596 40.7398 36.3097 39.1898 36.3097 37.2798C36.3097 35.3698 34.7596 33.8198 32.8496 33.8198ZM32.8496 39.0198C31.8896 39.0198 31.1196 38.2398 31.1196 37.2898C31.1196 36.3298 31.8996 35.5598 32.8496 35.5598C33.7996 35.5598 34.5796 36.3398 34.5796 37.2898C34.5796 38.2398 33.7996 39.0198 32.8496 39.0198Z" fill="#C2986A"/>
<path d="M40.6396 33.8198C38.7296 33.8198 37.1797 35.3698 37.1797 37.2798C37.1797 39.1898 38.7296 40.7398 40.6396 40.7398C42.5496 40.7398 44.0996 39.1898 44.0996 37.2798C44.0996 35.3698 42.5496 33.8198 40.6396 33.8198ZM40.6396 39.0198C39.6796 39.0198 38.9097 38.2398 38.9097 37.2898C38.9097 36.3298 39.6896 35.5598 40.6396 35.5598C41.5896 35.5598 42.3696 36.3398 42.3696 37.2898C42.3696 38.2398 41.5996 39.0198 40.6396 39.0198Z" fill="#C2986A"/>
<path d="M32.8496 42.48C30.9396 42.48 29.3896 44.03 29.3896 45.94C29.3896 47.85 30.9396 49.4 32.8496 49.4C34.7596 49.4 36.3097 47.85 36.3097 45.94C36.3097 44.03 34.7596 42.48 32.8496 42.48ZM32.8496 47.68C31.8896 47.68 31.1196 46.9 31.1196 45.95C31.1196 45 31.8996 44.22 32.8496 44.22C33.7996 44.22 34.5796 45 34.5796 45.95C34.5796 46.9 33.7996 47.68 32.8496 47.68Z" fill="#C2986A"/>
<path d="M40.6396 42.48C38.7296 42.48 37.1797 44.03 37.1797 45.94C37.1797 47.85 38.7296 49.4 40.6396 49.4C42.5496 49.4 44.0996 47.85 44.0996 45.94C44.0996 44.03 42.5496 42.48 40.6396 42.48ZM40.6396 47.68C39.6796 47.68 38.9097 46.9 38.9097 45.95C38.9097 45 39.6896 44.22 40.6396 44.22C41.5896 44.22 42.3696 45 42.3696 45.95C42.3696 46.9 41.5996 47.68 40.6396 47.68Z" fill="#C2986A"/>
<path d="M48.4298 33.8198C46.5198 33.8198 44.9697 35.3698 44.9697 37.2798V45.9398C44.9697 47.8498 46.5198 49.3998 48.4298 49.3998C50.3398 49.3998 51.8898 47.8498 51.8898 45.9398V37.2798C51.8898 35.3698 50.3398 33.8198 48.4298 33.8198ZM50.1598 45.9398C50.1598 46.8998 49.3798 47.6698 48.4298 47.6698C47.4798 47.6698 46.6997 46.8898 46.6997 45.9398V37.2798C46.6997 36.3198 47.4798 35.5498 48.4298 35.5498C49.3798 35.5498 50.1598 36.3298 50.1598 37.2798V45.9398Z" fill="#C2986A"/>
<path d="M12.3199 16.2499C12.6599 16.5899 13.21 16.5899 13.54 16.2499L21.33 8.45987C21.66 8.11987 21.6499 7.57987 21.3199 7.24987C20.9899 6.91987 20.45 6.90987 20.11 7.23987L12.3199 15.0299C11.9799 15.3699 11.9799 15.9099 12.3199 16.2499Z" fill="#C2986A"/>
<path d="M17.2598 14.7799C17.2598 16.2099 18.4197 17.3799 19.8597 17.3799C21.2997 17.3799 22.4597 16.2199 22.4597 14.7799C22.4597 13.3399 21.2997 12.1799 19.8597 12.1799C18.4197 12.1799 17.2598 13.3399 17.2598 14.7799ZM20.7197 14.7799C20.7197 15.2599 20.3297 15.6499 19.8497 15.6499C19.3697 15.6499 18.9797 15.2599 18.9797 14.7799C18.9797 14.2999 19.3697 13.9099 19.8497 13.9099C20.3297 13.9099 20.7197 14.2999 20.7197 14.7799Z" fill="#C2986A"/>
<path d="M13.7998 11.3099C15.2298 11.3099 16.3998 10.1499 16.3998 8.70986C16.3998 7.26986 15.2398 6.10986 13.7998 6.10986C12.3598 6.10986 11.1997 7.26986 11.1997 8.70986C11.1997 10.1499 12.3598 11.3099 13.7998 11.3099ZM13.7998 7.84986C14.2798 7.84986 14.6698 8.23986 14.6698 8.71986C14.6698 9.19986 14.2798 9.58986 13.7998 9.58986C13.3198 9.58986 12.9298 9.19986 12.9298 8.71986C12.9298 8.23986 13.3198 7.84986 13.7998 7.84986Z" fill="#C2986A"/>
<path d="M9.4696 24.2998H19.8596C20.3396 24.2998 20.7296 23.9098 20.7296 23.4298C20.7296 22.9498 20.3396 22.5598 19.8596 22.5598H9.4696C8.9896 22.5598 8.59961 22.9498 8.59961 23.4298C8.59961 23.9098 8.9896 24.2998 9.4696 24.2998Z" fill="#C2986A"/>
<path d="M21.5896 26.03H9.4696C8.9896 26.03 8.59961 26.42 8.59961 26.9C8.59961 27.38 8.9896 27.77 9.4696 27.77H21.5896C22.0696 27.77 22.4596 27.38 22.4596 26.9C22.4596 26.42 22.0696 26.03 21.5896 26.03Z" fill="#C2986A"/>
<path d="M12.9297 29.49H9.4696C8.9896 29.49 8.59961 29.88 8.59961 30.36C8.59961 30.84 8.9896 31.23 9.4696 31.23H12.9297C13.4097 31.23 13.7997 30.84 13.7997 30.36C13.7997 29.88 13.4097 29.49 12.9297 29.49Z" fill="#C2986A"/>
<path d="M21.5897 29.49H16.3998C15.9198 29.49 15.5298 29.88 15.5298 30.36C15.5298 30.84 15.9198 31.23 16.3998 31.23H21.5897C22.0697 31.23 22.4597 30.84 22.4597 30.36C22.4597 29.88 22.0697 29.49 21.5897 29.49Z" fill="#C2986A"/>
</svg>
