<svg width="86" height="64" viewBox="0 0 86 64" fill="none" xmlns="http://www.w3.org/2000/svg">
<path d="M85.9599 60.1399H0.919922V63.0499H85.9599V60.1399Z" fill="#C2986A"/>
<path d="M28.3999 20.78V25.97H56.1099V20.78H28.3999ZM54.3699 24.24H30.1299V22.51H54.3699V24.24Z" fill="#C2986A"/>
<path d="M30.1299 19.0501H31.8599V17.7401L42.2499 9.75007L52.6399 17.7401V19.0501H54.3699V16.8901L42.2499 7.57007L30.1299 16.8901V19.0501Z" fill="#C2986A"/>
<path d="M56.0999 44.1599C56.0999 41.7299 55.2599 39.3499 53.7499 37.4499L52.9899 36.4999C52.4799 35.8599 51.7199 35.4999 50.9099 35.4999C50.2599 35.4999 49.6599 35.7399 49.1799 36.1499V34.6299H43.9899V39.8199H46.64C46.04 41.1799 45.7199 42.6499 45.7199 44.1499C45.7199 46.7199 47.5999 48.8499 50.0499 49.2699V51.9499H45.7199V44.1599V43.2899H38.7899V51.9499H30.1299V49.2699C32.5799 48.8599 34.4599 46.7199 34.4599 44.1499C34.4599 41.7199 33.6199 39.3399 32.1099 37.4399L31.3499 36.4899C30.8399 35.8499 30.0799 35.4899 29.2699 35.4899C28.4599 35.4899 27.6999 35.8599 27.1899 36.4899L26.4299 37.4399C24.9099 39.3399 24.0799 41.7199 24.0799 44.1499C24.0799 46.7199 25.9599 48.8499 28.4099 49.2699V51.9499H20.6199V43.2899H13.6899V51.9499H8.49994V49.2699C10.9499 48.8599 12.8299 46.7199 12.8299 44.1499C12.8299 41.9899 12.17 39.8699 10.95 38.0899H11.9599V32.8999H6.76993V35.6599C6.29993 35.8199 5.86993 36.0999 5.54993 36.4999L4.78995 37.4499C3.26995 39.3499 2.43994 41.7299 2.43994 44.1599C2.43994 46.7299 4.31993 48.8599 6.76993 49.2799V51.9599H4.16995V49.3599H2.43994V53.6899H6.76993H8.49994H28.4099H30.14H50.0499H51.7799H56.1099V49.3599H54.3799V51.9599H51.7799V49.2799C54.2299 48.8599 56.0999 46.7299 56.0999 44.1599ZM8.47995 34.6299H10.2099V36.3599H9.55994C9.25994 36.0299 8.88995 35.7999 8.47995 35.6499V34.6299ZM6.74994 43.2899V47.4999C5.25994 47.1099 4.14993 45.7699 4.14993 44.1599C4.14993 42.1199 4.84993 40.1199 6.11993 38.5299L6.87994 37.5799C7.05994 37.3599 7.32992 37.2299 7.60992 37.2299C7.88992 37.2299 8.15994 37.3599 8.33994 37.5799L9.09995 38.5299C10.3699 40.1199 11.0699 42.1199 11.0699 44.1599C11.0699 45.7699 9.95994 47.1099 8.46994 47.4999V43.2899H6.74994ZM18.8699 51.9499H15.4099V45.0199H18.8699V51.9499ZM28.3999 43.2899V47.4999C26.9099 47.1099 25.7999 45.7699 25.7999 44.1599C25.7999 42.1199 26.4999 40.1199 27.7699 38.5299L28.5299 37.5799C28.7099 37.3599 28.9799 37.2299 29.2599 37.2299C29.5499 37.2299 29.8099 37.3599 29.9899 37.5799L30.7499 38.5299C32.0199 40.1199 32.7199 42.1199 32.7199 44.1599C32.7199 45.7699 31.6099 47.1099 30.1199 47.4999V43.2899H28.3999ZM43.9799 51.9499H40.5199V45.0199H43.9799V51.9499ZM45.7099 38.0999V36.3699H47.4399V38.0999H45.7099ZM50.0399 43.2899V47.4999C48.5499 47.1099 47.4399 45.7699 47.4399 44.1599C47.4399 42.1199 48.1399 40.1199 49.4099 38.5299L50.17 37.5799C50.35 37.3599 50.6199 37.2299 50.8999 37.2299C51.1899 37.2299 51.4499 37.3599 51.6299 37.5799L52.39 38.5299C53.66 40.1199 54.3599 42.1199 54.3599 44.1599C54.3599 45.7699 53.25 47.1099 51.7599 47.4999V43.2899H50.0399Z" fill="#C2986A"/>
<path d="M31.8599 27.71H30.1299V34.64H31.8599V27.71Z" fill="#C2986A"/>
<path d="M54.3699 27.71H52.6399V34.64H54.3699V27.71Z" fill="#C2986A"/>
<path d="M49.18 27.71H43.99V32.9H49.18V27.71ZM47.44 31.17H45.71V29.44H47.44V31.17Z" fill="#C2986A"/>
<path d="M40.5198 27.71H35.3298V32.9H40.5198V27.71ZM38.7899 31.17H37.0598V29.44H38.7899V31.17Z" fill="#C2986A"/>
<path d="M18.8699 12.1201H13.6799V17.3101H18.8699V12.1201ZM17.14 15.5801H15.4099V13.8501H17.14V15.5801Z" fill="#C2986A"/>
<path d="M25.7999 12.1201H20.6099V17.3101H25.7999V12.1201ZM24.0699 15.5801H22.3399V13.8501H24.0699V15.5801Z" fill="#C2986A"/>
<path d="M11.94 12.1201H6.75V17.3101H11.94V12.1201ZM10.21 15.5801H8.48001V13.8501H10.21V15.5801Z" fill="#C2986A"/>
<path d="M18.8699 19.05H13.6799V24.24H18.8699V19.05ZM17.14 22.51H15.4099V20.7801H17.14V22.51Z" fill="#C2986A"/>
<path d="M25.7999 19.05H20.6099V24.24H25.7999V19.05ZM24.0699 22.51H22.3399V20.7801H24.0699V22.51Z" fill="#C2986A"/>
<path d="M11.94 19.05H6.75V24.24H11.94V19.05ZM10.21 22.51H8.48001V20.7801H10.21V22.51Z" fill="#C2986A"/>
<path d="M18.8699 25.97H13.6799V31.16H18.8699V25.97ZM17.14 29.44H15.4099V27.71H17.14V29.44Z" fill="#C2986A"/>
<path d="M25.7999 25.97H20.6099V31.16H25.7999V25.97ZM24.0699 29.44H22.3399V27.71H24.0699V29.44Z" fill="#C2986A"/>
<path d="M6.75 31.17H11.94V25.98H6.75V31.17ZM8.48001 27.71H10.21V29.44H8.48001V27.71Z" fill="#C2986A"/>
<path d="M13.6799 38.0999H18.8699V32.8999H13.6799V38.0999ZM15.4099 34.6299H17.14V36.3599H15.4099V34.6299Z" fill="#C2986A"/>
<path d="M20.5999 38.0999H25.7899V32.8999H20.5999V38.0999ZM22.3298 34.6299H24.0598V36.3599H22.3298V34.6299Z" fill="#C2986A"/>
<path d="M35.3198 39.8299H40.5098V34.6399H35.3198V39.8299ZM37.0498 36.3599H38.7798V38.0899H37.0498V36.3599Z" fill="#C2986A"/>
<path d="M4.1499 10.3899H28.3999V14.7199H30.1299V8.65991H2.41992V37.2299H4.1499V10.3899Z" fill="#C2986A"/>
<path d="M6.75003 5.19H25.8V6.92H27.53V3.46H25.8V0H6.75003V3.46H5.02002V6.92H6.75003V5.19ZM8.48004 1.73H24.06V3.46H8.48004V1.73Z" fill="#C2986A"/>
</svg>
