<svg width="86" height="60" viewBox="0 0 86 60" fill="none" xmlns="http://www.w3.org/2000/svg">
<path d="M85.04 56.73H0V59.64H85.04V56.73Z" fill="#C2986A"/>
<path d="M43.7898 16.59L42.4398 15.55C42.0598 15.26 41.5098 15.33 41.2198 15.71L39.7798 17.58L39.7098 17.53C39.2498 17.17 38.5798 17.26 38.2298 17.73L22.0198 38.88C22.0098 38.9 21.9998 38.91 21.9898 38.93C21.9798 38.94 21.9698 38.96 21.9598 38.97C21.9398 39 21.9298 39.04 21.9198 39.07L19.7998 45.17C19.6798 45.51 19.7898 45.89 20.0798 46.11C20.2298 46.23 20.4098 46.28 20.5898 46.28C20.7498 46.28 20.9198 46.23 21.0598 46.14L26.4098 42.51C26.4398 42.49 26.4698 42.47 26.4998 42.44C26.5098 42.43 26.5198 42.42 26.5298 42.41C26.5398 42.4 26.5598 42.38 26.5698 42.36L41.1698 23.33L41.5998 23.66L35.6198 31.45C35.3798 31.76 35.4398 32.2 35.7498 32.43C35.8798 32.53 36.0298 32.57 36.1798 32.57C36.3898 32.57 36.5998 32.48 36.7398 32.3L42.8998 24.27C43.2698 23.79 43.1798 23.09 42.6998 22.72L42.0298 22.2L42.7998 21.2C43.1498 20.74 43.0698 20.07 42.5998 19.72L42.5298 19.67L43.9698 17.8C44.2498 17.43 44.1698 16.88 43.7898 16.59ZM21.6698 44.03L22.9098 40.45L24.7998 41.9L21.6698 44.03ZM25.8698 40.95L23.5498 39.17L39.1298 18.86L41.4498 20.64L25.8698 40.95ZM41.3998 18.83L40.8898 18.44L41.9998 16.99L42.5098 17.38L41.3998 18.83Z" fill="#C2986A"/>
<path d="M32.7101 22.24H5.0501C4.6601 22.24 4.3501 22.55 4.3501 22.94C4.3501 23.33 4.6601 23.64 5.0501 23.64H32.7001C33.0901 23.64 33.4001 23.33 33.4001 22.94C33.4101 22.55 33.0901 22.24 32.7101 22.24Z" fill="#C2986A"/>
<path d="M26.0001 29.47H5.0501C4.6601 29.47 4.3501 29.78 4.3501 30.17C4.3501 30.56 4.6601 30.87 5.0501 30.87H26.0001C26.3901 30.87 26.7001 30.56 26.7001 30.17C26.7101 29.79 26.3901 29.47 26.0001 29.47Z" fill="#C2986A"/>
<path d="M17.7101 43.95H5.0501C4.6601 43.95 4.3501 44.26 4.3501 44.65C4.3501 45.04 4.6601 45.3499 5.0501 45.3499H17.7101C18.1001 45.3499 18.4101 45.04 18.4101 44.65C18.4101 44.26 18.1001 43.95 17.7101 43.95Z" fill="#C2986A"/>
<path d="M32.7101 43.95H26.5101C26.1201 43.95 25.8101 44.26 25.8101 44.65C25.8101 45.04 26.1201 45.3499 26.5101 45.3499H32.7101C33.1001 45.3499 33.4101 45.04 33.4101 44.65C33.4101 44.26 33.0901 43.95 32.7101 43.95Z" fill="#C2986A"/>
<path d="M37.2698 17.4899C37.6598 17.4899 37.9698 17.1799 37.9698 16.7899V12.0399C37.9698 12.0299 37.9698 12.0199 37.9698 12.0199C37.9698 12.0099 37.9698 11.9999 37.9698 11.9999C37.9698 11.9699 37.9598 11.9399 37.9598 11.9099C37.9498 11.8799 37.9498 11.8499 37.9398 11.8199C37.9398 11.8099 37.9298 11.8099 37.9298 11.7999C37.9198 11.7699 37.9098 11.7499 37.8998 11.7199C37.8898 11.6899 37.8698 11.6699 37.8498 11.6399C37.8498 11.6299 37.8398 11.6299 37.8398 11.6199C37.8198 11.5999 37.7998 11.5699 37.7798 11.5499L26.5798 0.349912C26.5598 0.329912 26.5298 0.309912 26.5098 0.289912C26.4998 0.289912 26.4998 0.279912 26.4898 0.279912C26.4698 0.259912 26.4398 0.249912 26.4098 0.229912C26.3798 0.219912 26.3598 0.209912 26.3298 0.199912C26.3198 0.199912 26.3198 0.189912 26.3098 0.189912C26.2798 0.179912 26.2498 0.169912 26.2198 0.169912C26.1898 0.159912 26.1598 0.159912 26.1298 0.159912C26.1198 0.159912 26.1098 0.159912 26.0998 0.159912C26.0898 0.159912 26.0798 0.159912 26.0798 0.159912H1.48979C0.689785 0.159912 0.0297852 0.809912 0.0297852 1.61991V47.9999C0.0297852 48.7999 0.679785 49.4599 1.48979 49.4599H36.5198C37.3198 49.4599 37.9798 48.8099 37.9798 47.9999V33.8999C37.9798 33.5099 37.6698 33.1999 37.2798 33.1999C36.8898 33.1999 36.5798 33.5099 36.5798 33.8999V47.9699C36.5798 47.9999 36.5598 48.0199 36.5298 48.0199H1.48979C1.45979 48.0199 1.43979 47.9999 1.43979 47.9699V1.59991C1.43979 1.56991 1.45979 1.54991 1.48979 1.54991H25.3698V11.2699C25.3698 12.0899 26.0298 12.7499 26.8498 12.7499H36.5698V16.7999C36.5698 17.1799 36.8898 17.4899 37.2698 17.4899ZM26.8498 11.3399C26.8098 11.3399 26.7698 11.2999 26.7698 11.2599V2.52991L35.5798 11.3399H26.8498Z" fill="#C2986A"/>
<path d="M17.3201 10.1399L11.4501 4.62988C11.1801 4.37988 10.7601 4.37988 10.4901 4.62988L4.62011 10.1399C4.34011 10.4099 4.32011 10.8499 4.59011 11.1299C4.86011 11.4099 5.30011 11.4299 5.58011 11.1599L10.9701 6.09988L16.3601 11.1599C16.5001 11.2899 16.6701 11.3499 16.8401 11.3499C17.0301 11.3499 17.2101 11.2799 17.3501 11.1299C17.6201 10.8499 17.6001 10.4099 17.3201 10.1399Z" fill="#C2986A"/>
<path d="M15.3602 11.04L11.7702 7.66998C11.3202 7.24998 10.6302 7.24998 10.1802 7.66998L6.59022 11.04C6.36022 11.26 6.22021 11.57 6.22021 11.89V16.8C6.22021 17.44 6.74022 17.96 7.38022 17.96H14.5602C15.2002 17.96 15.7202 17.44 15.7202 16.8V11.89C15.7202 11.57 15.5902 11.26 15.3602 11.04ZM11.4902 16.55H10.4602V14.12H11.4902V16.55ZM12.8902 16.55V13.67C12.8902 13.14 12.4602 12.71 11.9302 12.71H10.0102C9.48022 12.71 9.05022 13.14 9.05022 13.67V16.55H7.63022V12L10.9802 8.85998L14.3202 12V16.56H12.8902V16.55Z" fill="#C2986A"/>
<path d="M19.76 36.71H11.93C11.54 36.71 11.23 37.02 11.23 37.41C11.23 37.8 11.54 38.11 11.93 38.11H19.76C20.15 38.11 20.46 37.8 20.46 37.41C20.46 37.03 20.15 36.71 19.76 36.71Z" fill="#C2986A"/>
<path d="M7.57994 36.71H5.13994C4.74994 36.71 4.43994 37.02 4.43994 37.41C4.43994 37.8 4.74994 38.11 5.13994 38.11H7.57994C7.96994 38.11 8.27994 37.8 8.27994 37.41C8.27994 37.03 7.96994 36.71 7.57994 36.71Z" fill="#C2986A"/>
</svg>
