<svg width="86" height="62" viewBox="0 0 86 62" fill="none" xmlns="http://www.w3.org/2000/svg">
<path d="M85.6099 58.6899H0.569824V61.5999H85.6099V58.6899Z" fill="#C2986A"/>
<path d="M52.04 40.9H44.3101V14.58C44.3101 13.22 43.21 12.12 41.85 12.12H36.6899V1.89003C36.6899 1.00003 35.97 0.280029 35.08 0.280029H19.84C18.95 0.280029 18.23 1.00003 18.23 1.89003V4.43003C18.23 4.85003 18.57 5.20003 19 5.20003C19.43 5.20003 19.77 4.86003 19.77 4.43003V1.89003C19.77 1.85003 19.81 1.81003 19.85 1.81003H35.09C35.13 1.81003 35.17 1.85003 35.17 1.89003V18.9H33.3199V6.60003C33.3199 6.04003 32.94 5.56003 32.39 5.44003C32 5.35003 31.62 4.98003 31.54 4.59003C31.42 4.05003 30.93 3.66003 30.38 3.66003H24.5699C24.0099 3.66003 23.53 4.04003 23.41 4.59003C23.32 4.98003 22.9501 5.36003 22.5601 5.44003C22.0201 5.56003 21.63 6.05003 21.63 6.60003V18.9H19.78V7.49003C19.78 7.07003 19.44 6.72003 19.01 6.72003C18.58 6.72003 18.24 7.06003 18.24 7.49003V12.12H13.08C11.72 12.12 10.62 13.22 10.62 14.58V40.9H2.89001C2.02001 40.9 1.31006 41.61 1.31006 42.48V44.23C1.31006 45.1 2.02001 45.81 2.89001 45.81H3V50.18C3 51.5 4.08002 52.58 5.40002 52.58H10.54H13.24C13.66 52.58 14.01 52.24 14.01 51.81C14.01 51.38 13.67 51.04 13.24 51.04H11.3101V45.8H43.63V51.04H16.3C15.88 51.04 15.53 51.38 15.53 51.81C15.53 52.24 15.87 52.58 16.3 52.58H44.39H49.53C50.85 52.58 51.9301 51.5 51.9301 50.18V45.81H52.04C52.91 45.81 53.62 45.1 53.62 44.23V42.48C53.63 41.61 52.92 40.9 52.04 40.9ZM36.7 17.04H38.47C38.98 17.04 39.4 17.46 39.4 17.97C39.4 18.48 38.98 18.9 38.47 18.9H36.7V17.04ZM23.15 6.86003C23.91 6.60003 24.5499 5.96003 24.8199 5.19003H30.11C30.37 5.95003 31.01 6.59003 31.78 6.86003V18.9H23.16L23.15 6.86003ZM16.46 18.9C15.95 18.9 15.53 18.48 15.53 17.97C15.53 17.46 15.95 17.04 16.46 17.04H18.23V18.89H16.46V18.9ZM12.15 14.58C12.15 14.07 12.57 13.65 13.08 13.65H18.24V15.5H16.47C15.11 15.5 14.01 16.6 14.01 17.96C14.01 19.32 15.11 20.42 16.47 20.42H38.48C39.84 20.42 40.9399 19.32 40.9399 17.96C40.9399 16.6 39.84 15.5 38.48 15.5H36.71V13.65H41.87C42.38 13.65 42.8 14.07 42.8 14.58V21.35C42.8 21.86 42.38 22.28 41.87 22.28H13.09C12.58 22.28 12.16 21.86 12.16 21.35L12.15 14.58ZM12.15 23.63C12.44 23.75 12.75 23.81 13.08 23.81H41.86C42.19 23.81 42.5 23.75 42.79 23.63V40.9H12.16V23.63H12.15ZM9.77002 51.06H5.40002C4.92002 51.06 4.53003 50.67 4.53003 50.19V45.82H9.77002V51.06ZM50.4 50.19C50.4 50.67 50.01 51.06 49.53 51.06H45.16V45.82H50.4V50.19ZM52.09 44.24C52.09 44.27 52.07 44.29 52.04 44.29H2.89001C2.86001 44.29 2.83997 44.27 2.83997 44.24V42.49C2.83997 42.46 2.86001 42.44 2.89001 42.44H52.04C52.07 42.44 52.09 42.46 52.09 42.49V44.24Z" fill="#C2986A"/>
<path d="M27.4697 12.1301C26.1097 12.1301 25.0098 13.2301 25.0098 14.5901C25.0098 15.9501 26.1097 17.0501 27.4697 17.0501C28.8297 17.0501 29.9298 15.9501 29.9298 14.5901C29.9298 13.2301 28.8197 12.1301 27.4697 12.1301ZM27.4697 15.5101C26.9597 15.5101 26.5398 15.0901 26.5398 14.5801C26.5398 14.0701 26.9597 13.6501 27.4697 13.6501C27.9797 13.6501 28.3998 14.0701 28.3998 14.5801C28.3898 15.1001 27.9797 15.5101 27.4697 15.5101Z" fill="#C2986A"/>
<path d="M27.4702 10.27C27.8902 10.27 28.2402 9.93004 28.2402 9.50004V7.81004C28.2402 7.39004 27.9002 7.04004 27.4702 7.04004C27.0402 7.04004 26.7002 7.38004 26.7002 7.81004V9.50004C26.7002 9.93004 27.0402 10.27 27.4702 10.27Z" fill="#C2986A"/>
<path d="M32.0499 29.18C30.8099 28.09 28.9398 28.08 27.6998 29.16C27.6198 29.23 27.5398 29.3 27.4698 29.38C27.3998 29.3 27.3198 29.23 27.2398 29.16C25.9998 28.08 24.1298 28.09 22.8898 29.18C22.1998 29.79 21.7998 30.64 21.7698 31.56C21.7398 32.47 22.0898 33.36 22.7398 34L26.3298 37.59C26.6398 37.9 27.0598 38.06 27.4698 38.06C27.8798 38.06 28.2998 37.9 28.6098 37.59L32.1998 34C32.8398 33.36 33.1899 32.47 33.1699 31.56C33.1399 30.63 32.7399 29.79 32.0499 29.18ZM31.1098 32.91L27.5198 36.5C27.4898 36.53 27.4399 36.53 27.4099 36.5L23.8198 32.91C23.4698 32.56 23.2899 32.1 23.2999 31.6C23.3199 31.11 23.5299 30.65 23.8999 30.32C24.2299 30.03 24.6498 29.89 25.0698 29.89C25.4898 29.89 25.8998 30.03 26.2298 30.31C26.4698 30.52 26.6398 30.77 26.7398 31.06C26.8498 31.37 27.1398 31.57 27.4598 31.57C27.7798 31.57 28.0699 31.37 28.1799 31.06C28.2799 30.77 28.4598 30.52 28.6898 30.31C29.3498 29.74 30.3698 29.75 31.0198 30.32C31.3898 30.65 31.6098 31.1 31.6198 31.6C31.6498 32.1 31.4598 32.56 31.1098 32.91Z" fill="#C2986A"/>
</svg>
