<svg width="87" height="62" viewBox="0 0 87 62" fill="none" xmlns="http://www.w3.org/2000/svg">
<path d="M86.9501 58.6899H1.91016V61.5999H86.9501V58.6899Z" fill="#C2986A"/>
<path d="M49.86 23.1299H32.39C30.94 23.1299 29.77 24.2999 29.77 25.7499V50.2099C29.77 51.6599 30.94 52.8299 32.39 52.8299H49.86C51.31 52.8299 52.48 51.6599 52.48 50.2099V25.7499C52.48 24.2999 51.3 23.1299 49.86 23.1299ZM40.25 51.0799H32.39C31.91 51.0799 31.52 50.6899 31.52 50.2099V44.0999H40.25V51.0799ZM40.25 42.3399H31.52V35.3499H40.25V42.3399ZM50.73 50.2099C50.73 50.6899 50.34 51.0799 49.86 51.0799H42V44.0899H50.73V50.2099ZM50.73 42.3399H42V35.3499H50.73V42.3399ZM50.73 33.6099H31.51V25.7499C31.51 25.2699 31.9 24.8799 32.38 24.8799H49.85C50.33 24.8799 50.72 25.2699 50.72 25.7499V33.6099H50.73Z" fill="#C2986A"/>
<path d="M48.1097 26.6199H34.1298C33.6498 26.6199 33.2598 27.0099 33.2598 27.4899V30.9799C33.2598 31.4599 33.6498 31.8499 34.1298 31.8499H48.1097C48.5897 31.8499 48.9797 31.4599 48.9797 30.9799V27.4999C48.9797 27.0099 48.5897 26.6199 48.1097 26.6199ZM47.2397 30.1199H35.0098V28.3699H47.2397V30.1199Z" fill="#C2986A"/>
<path d="M36.7598 37.98V36.23H35.0098V37.98H33.2598V39.72H35.0098V41.47H36.7598V39.72H38.4998V37.98H36.7598Z" fill="#C2986A"/>
<path d="M48.9797 37.98H43.7397V39.73H48.9797V37.98Z" fill="#C2986A"/>
<path d="M38.3501 46.46L37.1201 45.22L35.8801 46.46L34.6501 45.22L33.4102 46.46L34.6501 47.69L33.4102 48.93L34.6501 50.16L35.8801 48.93L37.1201 50.16L38.3501 48.93L37.1201 47.69L38.3501 46.46Z" fill="#C2986A"/>
<path d="M48.9797 46.71H43.7397V48.46H48.9797V46.71Z" fill="#C2986A"/>
<path d="M47.2397 48.8999H45.4897V49.7699H47.2397V48.8999Z" fill="#C2986A"/>
<path d="M47.2397 45.3999H45.4897V46.2699H47.2397V45.3999Z" fill="#C2986A"/>
<path d="M35.0099 0.419922H9.67993V0.429922C9.44993 0.429922 9.22994 0.519922 9.05994 0.679922L0.329834 9.40992C0.169834 9.56992 0.079834 9.79992 0.079834 10.0299H0.0698242V51.0799C0.0698242 52.0399 0.849824 52.8299 1.81982 52.8299H28.0199V51.0799H22.7799V48.4599H24.5299C25.0099 48.4599 25.3999 48.0699 25.3999 47.5899V43.2199C25.3999 42.7399 25.0099 42.3499 24.5299 42.3499H22.7799V39.7299H24.5299C25.0099 39.7299 25.3999 39.3399 25.3999 38.8599V34.4899C25.3999 34.0099 25.0099 33.6199 24.5299 33.6199H24.5099C26.7199 31.9799 28.0199 29.3899 28.0299 26.6299C28.0399 21.8099 24.1399 17.8899 19.3099 17.8799C14.4799 17.8699 10.5699 21.7699 10.5599 26.5999C10.5499 29.3699 11.8598 31.9699 14.0798 33.6199H7.06982C6.58982 33.6199 6.19983 34.0099 6.19983 34.4899V37.9799H4.44983C3.96983 37.9799 3.57983 38.3699 3.57983 38.8499V43.2199C3.57983 43.6999 3.96983 44.0899 4.44983 44.0899H6.19983V46.7099H4.44983C3.96983 46.7099 3.57983 47.0999 3.57983 47.5799V51.0699H1.82983V10.8999H8.81982C9.77982 10.8999 10.5698 10.1199 10.5698 9.14992V2.15992H35.0299V21.3799H36.7799V2.15992C36.7599 1.19992 35.9699 0.419922 35.0099 0.419922ZM23.6499 44.0899V46.7099H7.92993V44.0899H23.6499ZM12.2999 26.6199C12.2999 22.7599 15.4299 19.6299 19.2899 19.6299C23.1499 19.6299 26.2799 22.7599 26.2799 26.6199C26.2799 30.4799 23.1499 33.6099 19.2899 33.6099C15.4299 33.6099 12.2999 30.4799 12.2999 26.6199ZM7.92993 35.3599H23.6499V37.9799H7.92993V35.3599ZM5.30994 42.3399V39.7199H21.0299V42.3399H7.04993H5.30994ZM5.30994 48.4599H21.0299V51.0799H5.30994V48.4599ZM8.79993 9.14992H3.04993L8.79993 3.39992V9.14992Z" fill="#C2986A"/>
<path d="M48.98 4.77992H47.23C47.23 4.29992 46.84 3.90992 46.36 3.90992H45.49V1.28992C45.49 0.809922 45.1 0.419922 44.62 0.419922H41.13C40.65 0.419922 40.26 0.809922 40.26 1.28992V3.90992H39.39C38.91 3.90992 38.52 4.29992 38.52 4.77992V21.3799H40.27V5.65992H45.51V21.3799H47.26V6.52992H49.01V17.8899H50.76V6.52992C50.73 5.56992 49.95 4.77992 48.98 4.77992ZM43.74 3.90992H42V2.15992H43.75V3.90992H43.74Z" fill="#C2986A"/>
<path d="M28.0199 7.40991H13.1699V9.15991H28.0199V7.40991Z" fill="#C2986A"/>
<path d="M33.26 12.6499H3.56006V14.3999H33.26V12.6499Z" fill="#C2986A"/>
<path d="M14.04 16.1399H3.56006V17.8899H14.04V16.1399Z" fill="#C2986A"/>
<path d="M33.2599 16.1399H25.3999V17.8899H33.2599V16.1399Z" fill="#C2986A"/>
<path d="M21.9597 23.96C21.9197 23.92 21.8698 23.9 21.7998 23.9H20.6097C20.5297 23.52 20.3798 23.18 20.1698 22.9H21.7898C21.8498 22.9 21.9097 22.88 21.9497 22.84C21.9897 22.8 22.0098 22.75 22.0098 22.68V21.97C22.0098 21.91 21.9897 21.85 21.9497 21.81C21.9097 21.77 21.8598 21.75 21.7898 21.75H16.0198C15.9598 21.75 15.8997 21.77 15.8597 21.81C15.8197 21.85 15.7998 21.9 15.7998 21.97V22.89C15.7998 22.95 15.8198 23 15.8698 23.05C15.9098 23.09 15.9698 23.12 16.0298 23.12H17.0398C18.0198 23.12 18.6298 23.38 18.8998 23.9H16.0398C15.9798 23.9 15.9198 23.92 15.8798 23.96C15.8398 24 15.8197 24.05 15.8197 24.12V24.83C15.8197 24.89 15.8398 24.95 15.8798 24.99C15.9198 25.03 15.9698 25.05 16.0398 25.05H18.9998C18.8998 25.43 18.6598 25.72 18.2898 25.92C17.9198 26.12 17.4297 26.22 16.8197 26.22H16.0398C15.9798 26.22 15.9298 26.24 15.8798 26.29C15.8398 26.33 15.8098 26.39 15.8098 26.45V27.33C15.8098 27.39 15.8298 27.44 15.8698 27.48C16.7598 28.42 17.9097 29.74 19.3197 31.44C19.3597 31.5 19.4197 31.52 19.4897 31.52H20.8397C20.9397 31.52 20.9998 31.48 21.0398 31.4C21.0898 31.32 21.0798 31.24 21.0098 31.16C19.6598 29.51 18.5997 28.27 17.8297 27.44C18.6197 27.35 19.2497 27.09 19.7397 26.68C20.2297 26.26 20.5298 25.72 20.6298 25.06H21.7898C21.8498 25.06 21.9097 25.04 21.9497 25C21.9897 24.96 22.0098 24.91 22.0098 24.84V24.13C22.0198 24.06 21.9997 24 21.9597 23.96Z" fill="#C2986A"/>
</svg>
