<svg width="87" height="63" viewBox="0 0 87 63" fill="none" xmlns="http://www.w3.org/2000/svg">
<path d="M86.03 59.4001H0.98999V62.3101H86.03V59.4001Z" fill="#C2986A"/>
<path d="M18.6502 4.57008L18.2802 4.48008C17.8202 4.36008 17.3502 4.65008 17.2302 5.11008C17.2102 5.18008 17.2002 5.25008 17.2002 5.32008V13.7001C17.2002 21.5901 21.7902 28.7701 28.9602 32.0801C29.1902 32.1901 29.4602 32.1901 29.6902 32.0801C36.8602 28.7701 41.4502 21.6001 41.4502 13.7001V5.31008C41.4502 4.83008 41.0602 4.44008 40.5802 4.44008C40.5102 4.44008 40.4402 4.45008 40.3702 4.47008L40.0002 4.56008C36.3102 5.47008 32.4302 4.20008 29.9902 1.29008C29.6802 0.920084 29.1402 0.870084 28.7702 1.18008C28.7302 1.21008 28.6902 1.25008 28.6602 1.29008C26.2202 4.21008 22.3402 5.47008 18.6502 4.57008ZM29.3302 3.14008C30.6302 4.46008 32.2302 5.45008 33.9902 6.02008C35.8402 6.62008 37.8102 6.75008 39.7202 6.40008V13.7001C39.7102 20.7701 35.6802 27.2201 29.3302 30.3301C22.9802 27.2201 18.9502 20.7701 18.9402 13.7001V6.40008C20.8502 6.75008 22.8202 6.62008 24.6702 6.02008C26.4302 5.44008 28.0302 4.46008 29.3302 3.14008Z" fill="#C2986A"/>
<path d="M22.4 8.78003H20.6699V10.51H22.4V8.78003Z" fill="#C2986A"/>
<path d="M22.4 12.2401H20.6699V14.9701C20.6699 20.5001 23.9299 25.5001 28.9799 27.7501C29.1999 27.8501 29.4599 27.8501 29.6799 27.7501C34.7299 25.5001 37.9799 20.4901 37.9899 14.9701V8.78006C37.9899 8.30006 37.5999 7.91006 37.1199 7.91006C37.0499 7.91006 36.9799 7.92006 36.9099 7.94006C34.9199 8.44006 32.7999 8.13006 31.0399 7.07006L29.77 6.31006L28.8799 7.79006L30.15 8.55006C31.98 9.66006 34.1299 10.1001 36.2499 9.82006V14.9701C36.2499 19.6701 33.5599 23.9601 29.3199 26.0101C25.0899 23.9601 22.4 19.6801 22.39 14.9701V12.2401H22.4Z" fill="#C2986A"/>
<path d="M29.33 24.3602C30.76 24.3602 31.93 23.2002 31.93 21.7602C31.93 20.3202 30.77 19.1602 29.33 19.1602C27.9 19.1602 26.73 20.3202 26.73 21.7602C26.74 23.2002 27.9 24.3602 29.33 24.3602ZM29.33 20.9002C29.81 20.9002 30.2 21.2902 30.2 21.7702C30.2 22.2502 29.81 22.6402 29.33 22.6402C28.85 22.6402 28.46 22.2502 28.46 21.7702C28.47 21.2902 28.85 20.9002 29.33 20.9002Z" fill="#C2986A"/>
<path d="M27.61 17.56C27.67 17.99 28.04 18.3 28.47 18.3H30.2C30.63 18.3 31 17.98 31.06 17.56L31.93 11.5C32 11.03 31.67 10.59 31.2 10.52C31.16 10.51 31.12 10.51 31.08 10.51H27.62C27.14 10.51 26.75 10.9 26.75 11.38C26.75 11.42 26.75 11.46 26.76 11.5L27.61 17.56ZM30.06 12.24L29.44 16.57H29.21L28.59 12.24H30.06Z" fill="#C2986A"/>
<path d="M54.4401 2.7201C54.4401 2.2401 54.0501 1.8501 53.5701 1.8501H46.6401C46.1601 1.8501 45.7701 2.2401 45.7701 2.7201V8.7801H43.17V10.5101H45.7701V51.2001H40.5801V26.0901H38.85V51.2001H33.66V32.1501H31.9301V51.2001H26.73V33.0201H25.0001V51.2001H19.8101V32.1501H23.2701V30.4201H18.9401C18.4601 30.4201 18.0701 30.8101 18.0701 31.2901V38.2201H12.0101C11.5301 38.2201 11.1401 38.6101 11.1401 39.0901V43.4201H5.08008C4.60008 43.4201 4.21008 43.8101 4.21008 44.2901V51.2201H3.34009V52.9501H55.29V51.2001H54.42V2.7201H54.4401ZM5.95007 45.1401H11.1401V51.2001H5.95007V45.1401ZM12.8801 39.9501H18.0701V51.2001H12.8801V39.9501ZM47.5101 51.2001V3.5801H52.7001V51.2001H47.5101Z" fill="#C2986A"/>
</svg>
