<svg width="86" height="62" viewBox="0 0 86 62" fill="none" xmlns="http://www.w3.org/2000/svg">
<path d="M85.3599 58.75H0.319824V61.66H85.3599V58.75Z" fill="#C2986A"/>
<path d="M2.63 52.4299H9.56006C10.0401 52.4299 10.4301 52.0399 10.4301 51.5599V50.6899H38.17C38.24 50.6899 38.31 50.6799 38.38 50.6599L46.89 48.5299C48.69 48.0699 49.7701 46.2299 49.3101 44.4299C48.8501 42.6299 47.01 41.5499 45.21 42.0099L38.17 43.8899C38.17 43.8399 38.17 43.7899 38.17 43.7499C38.17 42.9299 37.87 42.1399 37.34 41.5199C43.51 38.4999 47.87 32.7199 49.08 25.9599C49.08 25.9499 49.09 25.9399 49.09 25.9199C49.1 25.8799 49.1 25.8499 49.1 25.8099C49.19 25.2799 49.2599 24.7499 49.3199 24.2099C49.3299 24.1199 49.34 24.0199 49.35 23.9299C49.4 23.3199 49.4399 22.7099 49.4399 22.0899C49.4399 21.6999 49.43 21.2999 49.41 20.9199C49.4 20.7799 49.39 20.6399 49.38 20.5099C49.36 20.2599 49.3399 20.0199 49.3199 19.7699C49.2999 19.5999 49.28 19.4199 49.25 19.2499C49.22 19.0499 49.2 18.8399 49.16 18.6399C49.13 18.4399 49.09 18.2399 49.05 18.0499C49.0201 17.8799 48.99 17.7199 48.95 17.5499C48.9 17.3299 48.85 17.1099 48.8 16.8799C48.7701 16.7499 48.7299 16.6199 48.7 16.4999C48.63 16.2499 48.56 15.9999 48.49 15.7499C48.47 15.6699 48.44 15.5899 48.41 15.5099C47.16 11.5899 44.81 8.10992 41.65 5.46992C41.6 5.42992 41.56 5.38992 41.51 5.34992C41.44 5.29992 41.3799 5.23992 41.3199 5.18992C41.2999 5.16992 41.27 5.15992 41.25 5.14992C37.42 2.08992 32.67 0.419922 27.77 0.419922C27.56 0.419922 27.35 0.429922 27.14 0.439922H27.12C25.78 0.479922 24.45 0.639922 23.14 0.929922C23.01 0.959922 22.88 0.989922 22.75 1.01992C22.5 1.07992 22.26 1.13992 22.01 1.20992C21.81 1.25992 21.6201 1.31992 21.4301 1.37992C21.3001 1.41992 21.18 1.45992 21.05 1.49992C17.14 2.76992 13.6799 5.12992 11.0699 8.29992L11.03 8.34992C10.82 8.59992 10.62 8.85992 10.42 9.12992C10.39 9.16992 10.3599 9.21992 10.3199 9.26992C10.0499 9.63992 9.79004 10.0099 9.54004 10.3999C9.40004 10.6099 9.27001 10.8199 9.14001 11.0399C9.10001 11.0999 9.06002 11.1599 9.02002 11.2299C9.01002 11.2399 9.01 11.2599 9 11.2799C5.33 17.6099 5.11994 25.3699 8.43994 31.8999C8.44994 31.9299 8.45997 31.9599 8.46997 31.9899C8.55997 32.1599 8.66 32.3099 8.75 32.4699C8.9 32.7399 9.04996 33.0099 9.20996 33.2699C9.34996 33.4999 9.49001 33.7299 9.63 33.9499C9.81001 34.2299 9.99995 34.4999 10.2 34.7699C10.33 34.9499 10.45 35.1299 10.59 35.3099C10.91 35.7299 11.25 36.1299 11.6 36.5299C11.72 36.6699 11.86 36.7999 11.99 36.9399C12.27 37.2399 12.56 37.5299 12.86 37.8199C12.93 37.8899 12.9901 37.9599 13.0601 38.0299C13.0701 38.0399 13.09 38.0499 13.11 38.0599C13.82 38.7099 14.56 39.3099 15.35 39.8599L13.77 40.3199H10.42V38.5899C10.42 38.1099 10.03 37.7199 9.55005 37.7199H2.62C2.14 37.7199 1.75 38.1099 1.75 38.5899V51.5899C1.77 52.0399 2.15 52.4299 2.63 52.4299ZM41.3101 7.46992C44.1101 10.0599 46.12 13.4099 47.08 17.1099V17.1199C47.16 17.4299 47.23 17.7499 47.3 18.0699C47.31 18.1199 47.32 18.1599 47.33 18.2099C47.38 18.4899 47.44 18.7599 47.48 19.0499C47.5 19.1599 47.51 19.2599 47.52 19.3699C47.55 19.5899 47.58 19.8199 47.61 20.0499C47.63 20.2299 47.64 20.4199 47.65 20.6099C47.66 20.7599 47.6801 20.9199 47.6801 21.0699C47.7001 21.4099 47.71 21.7599 47.71 22.0999C47.71 22.5699 47.69 23.0399 47.66 23.4999C47.17 22.9199 46.62 22.3899 46.02 21.9199C44.25 20.4899 42.9901 18.5299 42.4301 16.3199L41.4 12.1899C41.01 10.6299 40.9801 9.02992 41.3101 7.46992ZM10.72 11.7699C10.89 11.4899 11.07 11.2199 11.25 10.9499C11.4 10.7199 11.56 10.4999 11.72 10.2799C11.75 10.2299 11.7899 10.1799 11.8199 10.1399C14.1299 7.06992 17.26 4.72992 20.86 3.38992L20.99 3.33992C21.24 3.24992 21.49 3.16992 21.75 3.07992C21.88 3.03992 22.02 2.99992 22.15 2.95992C22.34 2.90992 22.52 2.84992 22.71 2.79992C23.82 2.50992 24.96 2.31992 26.1 2.21992H26.11C26.1 2.47992 26.11 2.73992 26.15 2.99992L26.85 7.88992C26.88 8.10992 26.88 8.32992 26.86 8.54992L26.4301 11.9599C26.4201 12.0499 26.36 12.1199 26.27 12.1299C26.18 12.1599 26.09 12.1199 26.05 12.0399C25.69 11.4299 25.0201 11.0699 24.3101 11.0999C23.6001 11.1299 22.97 11.5399 22.65 12.1699L21.75 13.9699C21.1 15.2599 21.16 16.7999 21.91 18.0399L22.72 19.3899C23.39 20.5099 24.5299 21.2499 25.8199 21.4099L30.28 21.9699C30.69 22.0199 31.08 22.1799 31.42 22.4199L33.5601 23.9499C34.1601 24.3799 34.54 25.0399 34.6 25.7799C34.66 26.5099 34.4 27.2299 33.88 27.7499C33.34 28.2899 32.95 28.9699 32.77 29.7199L31.89 33.2599C31.82 33.5399 31.62 33.7699 31.35 33.8599C31.08 33.9599 30.78 33.9199 30.54 33.7499L24.47 29.3299C23.82 28.8599 23.4399 28.1099 23.4399 27.3099V24.7199C23.4399 23.9799 23.25 23.2599 22.88 22.6199L20.71 18.8299C20.03 17.6399 18.82 16.8599 17.46 16.7199L13.1899 16.2899C12.0299 16.1799 11.1 15.2699 10.96 14.1099L10.6801 11.8299C10.6901 11.8199 10.71 11.7899 10.72 11.7699ZM13.88 36.3699C13.85 36.3399 13.82 36.3099 13.79 36.2799C13.57 36.0599 13.36 35.8299 13.14 35.5999C12.88 35.3199 12.62 35.0199 12.38 34.7199C12.24 34.5499 12.1 34.3899 11.97 34.2199C11.79 33.9899 11.62 33.7399 11.46 33.4999C11.36 33.3599 11.2701 33.2299 11.1801 33.0899C11.0201 32.8499 10.87 32.5999 10.72 32.3499C10.63 32.1999 10.55 32.0599 10.46 31.9099C10.39 31.7999 10.34 31.6799 10.27 31.5599L11.12 30.1399C11.24 29.9399 11.44 29.7999 11.67 29.7499C11.9 29.6999 12.14 29.7399 12.34 29.8799L14.3199 31.1999C15.2199 31.7999 15.72 32.8399 15.63 33.9099C15.53 34.9999 14.87 35.9399 13.88 36.3699ZM15.25 37.5899C16.57 36.7299 17.36 35.2599 17.37 33.6799C17.37 32.0999 16.59 30.6299 15.27 29.7599L13.29 28.4399C12.7 28.0499 11.97 27.9099 11.28 28.0699C10.59 28.2299 9.99 28.6599 9.62 29.2699L9.35999 29.7099C7.34999 24.8799 7.33005 19.4499 9.30005 14.5999C9.64005 16.4399 11.16 17.8299 13.02 18.0099L17.29 18.4399C18.09 18.5199 18.81 18.9899 19.21 19.6899L21.38 23.4799C21.59 23.8599 21.71 24.2899 21.71 24.7199V27.3099C21.71 28.6599 22.36 29.9299 23.45 30.7299L29.52 35.1499C30.22 35.6599 31.1299 35.7899 31.9399 35.4899C32.7499 35.1899 33.3699 34.5099 33.5699 33.6799L34.45 30.1399C34.56 29.6999 34.79 29.2999 35.11 28.9799C35.99 28.0999 36.44 26.8799 36.33 25.6399C36.23 24.3999 35.5899 23.2699 34.5699 22.5499L32.4301 21.0199C31.8601 20.6099 31.19 20.3499 30.5 20.2599L26.04 19.6999C25.28 19.6099 24.6 19.1699 24.21 18.5099L23.4 17.1599C22.96 16.4299 22.9201 15.5199 23.3101 14.7599L24.21 12.9599C24.24 12.8899 24.31 12.8499 24.38 12.8499C24.45 12.8499 24.5201 12.8799 24.5601 12.9499C24.9801 13.6599 25.81 14.0199 26.62 13.8499C27.43 13.6799 28.04 13.0099 28.14 12.1899L28.5699 8.77992C28.6199 8.40992 28.6101 8.02992 28.5601 7.64992L27.86 2.75992C27.83 2.55992 27.83 2.34992 27.85 2.14992C32.17 2.15992 36.3701 3.58992 39.8101 6.20992L39.63 7.01992C39.22 8.85992 39.25 10.7699 39.7 12.5899L40.73 16.7199C41.38 19.2899 42.85 21.5899 44.92 23.2499C45.76 23.9199 46.48 24.7099 47.08 25.5999L47.3101 25.9499C46.0501 32.4199 41.65 37.8399 35.58 40.4099C35.29 40.3299 34.9899 40.2799 34.6899 40.2799H30.48L26.61 39.1799C23.68 38.3499 20.57 38.3499 17.63 39.1799L17.55 39.1999C16.76 38.7299 15.98 38.1799 15.25 37.5899ZM10.4301 42.0299H13.9C13.98 42.0299 14.06 42.0199 14.14 41.9999L18.13 40.8599C20.75 40.1099 23.53 40.1099 26.16 40.8599L30.15 41.9999C30.23 42.0199 30.3 42.0299 30.38 42.0299H34.71C35.67 42.0299 36.4399 42.8099 36.4399 43.7599C36.4399 44.7199 35.66 45.4899 34.71 45.4899H26.04V47.2199H34.71C35.78 47.2199 36.7799 46.7299 37.4399 45.8899L45.66 43.6999C46.23 43.5399 46.83 43.7099 47.25 44.1199C47.66 44.5399 47.82 45.1499 47.66 45.7099C47.5 46.2799 47.05 46.7099 46.48 46.8499L38.0699 48.9499H10.4399V42.0299H10.4301ZM3.5 39.4299H8.69995V50.6999H3.5V39.4299Z" fill="#C2986A"/>
<path d="M7.75989 48.63C7.73989 48.57 7.70993 48.52 7.67993 48.47L7.57983 48.34L7.44983 48.24C7.39983 48.21 7.34992 48.18 7.28992 48.16C7.23992 48.14 7.18988 48.12 7.12988 48.11C6.95988 48.07 6.78988 48.09 6.62988 48.16C6.52988 48.2 6.42984 48.27 6.33984 48.34C6.29984 48.38 6.26987 48.42 6.23987 48.47C6.20987 48.52 6.17991 48.57 6.15991 48.63C6.13991 48.68 6.11986 48.73 6.10986 48.79C6.09986 48.85 6.08984 48.91 6.08984 48.96C6.08984 49.07 6.10991 49.19 6.15991 49.29C6.23991 49.51 6.40988 49.68 6.62988 49.76C6.72988 49.8 6.84984 49.83 6.95984 49.83C7.01984 49.83 7.07988 49.82 7.12988 49.81C7.17988 49.8 7.23992 49.78 7.28992 49.76C7.34992 49.74 7.39983 49.71 7.44983 49.68C7.49983 49.65 7.53983 49.61 7.57983 49.58C7.73983 49.41 7.82983 49.19 7.82983 48.96C7.82983 48.9 7.81994 48.84 7.80994 48.79C7.80994 48.73 7.78989 48.68 7.75989 48.63Z" fill="#C2986A"/>
</svg>
